G04 #@! TF.GenerationSoftware,KiCad,Pcbnew,10.0.5*
G04 #@! TF.CreationDate,2026-09-10T20:02:41-05:00*
G04 #@! TF.ProjectId,pnb-1,706e622d-312e-46b6-9963-61645f706362,rev?*
G04 #@! TF.SameCoordinates,Original*
G04 #@! TF.FileFunction,Copper,L2,Bot*
G04 #@! TF.FilePolarity,Positive*
%FSLAX46Y46*%
G04 Gerber Fmt 4.6, Leading zero omitted, Abs format (unit mm)*
G04 Created by KiCad (PCBNEW 10.0.5) date 2026-09-10 20:02:41*
%MOMM*%
%LPD*%
G01*
G04 APERTURE LIST*
G04 #@! TA.AperFunction,ComponentPad*
%ADD10O,1.200000X2.000000*%
G04 #@! TD*
G04 #@! TA.AperFunction,ComponentPad*
%ADD11O,1.200000X1.800000*%
G04 #@! TD*
G04 #@! TA.AperFunction,ComponentPad*
%ADD12R,1.700000X1.700000*%
G04 #@! TD*
G04 #@! TA.AperFunction,ComponentPad*
%ADD13C,1.700000*%
G04 #@! TD*
G04 #@! TA.AperFunction,ViaPad*
%ADD14C,0.600000*%
G04 #@! TD*
G04 #@! TA.AperFunction,ViaPad*
%ADD15C,0.500000*%
G04 #@! TD*
G04 #@! TA.AperFunction,Conductor*
%ADD16C,0.250000*%
G04 #@! TD*
G04 #@! TA.AperFunction,Conductor*
%ADD17C,0.500000*%
G04 #@! TD*
G04 #@! TA.AperFunction,Conductor*
%ADD18C,0.200000*%
G04 #@! TD*
G04 APERTURE END LIST*
D10*
X37330000Y-36190000D03*
D11*
X37330000Y-40370000D03*
X28670000Y-40370000D03*
D10*
X28670000Y-36190000D03*
D12*
X3000000Y-27810000D03*
D13*
X3000000Y-25270000D03*
X3000000Y-22730000D03*
X3000000Y-20190000D03*
D12*
X7650000Y-38770000D03*
D13*
X7650000Y-36230000D03*
X10190000Y-38770000D03*
X10190000Y-36230000D03*
X12730000Y-38770000D03*
X12730000Y-36230000D03*
X15270000Y-38770000D03*
X15270000Y-36230000D03*
X17810000Y-38770000D03*
X17810000Y-36230000D03*
X20350000Y-38770000D03*
X20350000Y-36230000D03*
D14*
X43150000Y-25150000D03*
X31000000Y-8600000D03*
X28150000Y-1150000D03*
X19150000Y-1150000D03*
X1150000Y-7150000D03*
X52150000Y-1150000D03*
X47150000Y-16649999D03*
X46150000Y-25150000D03*
X10150000Y-4150000D03*
X8191100Y-5803500D03*
X13150000Y-1150000D03*
X4150000Y-10150000D03*
X49150000Y-25150000D03*
X47150000Y-15000000D03*
X46150000Y-1150000D03*
X40150000Y-1150000D03*
X25150000Y-1150000D03*
X7150000Y-1150000D03*
X7150000Y-4150000D03*
X43850000Y-15000000D03*
X52150000Y-4150000D03*
X37423000Y-6936000D03*
X49150000Y-28150000D03*
X45500000Y-16649999D03*
X40173400Y-4980600D03*
X43850000Y-13350000D03*
X1150000Y-22150000D03*
X31150000Y-1150000D03*
X43850000Y-16649999D03*
X46150000Y-28150000D03*
X37150000Y-1150000D03*
X1150000Y-10150000D03*
X34150000Y-1150000D03*
X12000000Y-12000000D03*
X43150000Y-1150000D03*
X10150000Y-1150000D03*
X45500000Y-15000000D03*
X1150000Y-16149999D03*
X45500000Y-13350000D03*
X47150000Y-13350000D03*
X52150000Y-40150000D03*
X43150000Y-28150000D03*
X16149999Y-1150000D03*
X1150000Y-19150000D03*
X22150000Y-1150000D03*
X34285500Y-31190000D03*
X1150000Y-13150000D03*
X52150000Y-31150000D03*
X46900000Y-36800000D03*
X43100000Y-34200000D03*
X45000000Y-32700000D03*
X42500000Y-32400000D03*
X46900000Y-34200000D03*
X28044700Y-25288900D03*
X39473200Y-10614400D03*
X45176400Y-8935500D03*
X44216900Y-8928100D03*
X15436100Y-15925800D03*
X27121000Y-4347400D03*
X43735400Y-7108200D03*
X40386600Y-7104300D03*
X42344800Y-8935500D03*
X41217100Y-8928900D03*
X40201400Y-8935500D03*
D15*
X33600000Y-34100000D03*
X35000000Y-33200000D03*
X35200000Y-32500000D03*
X35200000Y-16850000D03*
X32250000Y-37200000D03*
X36250000Y-15000000D03*
X33750000Y-36500000D03*
X32799999Y-33500000D03*
X33400000Y-26000000D03*
X33850000Y-20000000D03*
D14*
X19250000Y-31028700D03*
X36918700Y-16656000D03*
X41736700Y-21076700D03*
X47200000Y-21034100D03*
X39379800Y-20160800D03*
X33907800Y-21017400D03*
X35314800Y-28918200D03*
X38371000Y-31756300D03*
X30600000Y-34197000D03*
X29526600Y-9700000D03*
X29534000Y-4982300D03*
D16*
X34748300Y-31190100D02*
X34285500Y-31190100D01*
X11190000Y-12000000D02*
X11190000Y-8802400D01*
X11190000Y-8802400D02*
X8191100Y-5803500D01*
X37330000Y-40370000D02*
X37330000Y-36190000D01*
X28670000Y-36190000D02*
X28670000Y-40370000D01*
X37423000Y-6936000D02*
X39378300Y-4980700D01*
X10190000Y-27380000D02*
X3000000Y-20190000D01*
X11190000Y-12000000D02*
X3000000Y-20190000D01*
X43850000Y-15000000D02*
X43850000Y-13350000D01*
X10190000Y-36230000D02*
X10190000Y-27380000D01*
X43850000Y-16650000D02*
X43850000Y-15000000D01*
X39378300Y-4980700D02*
X40173400Y-4980700D01*
X12000000Y-12000000D02*
X11190000Y-12000000D01*
X37330000Y-36190000D02*
X37330000Y-33771800D01*
X40173400Y-4980700D02*
X40173400Y-4980600D01*
X34285500Y-31190100D02*
X34285500Y-31190000D01*
X37330000Y-33771800D02*
X34748300Y-31190100D01*
D17*
X42500000Y-32400000D02*
X43100000Y-33000000D01*
X46500000Y-34200000D02*
X45000000Y-32700000D01*
X43100000Y-33000000D02*
X43100000Y-34200000D01*
X45000000Y-32700000D02*
X44600000Y-32700000D01*
X46900000Y-34200000D02*
X46500000Y-34200000D01*
X46900000Y-36800000D02*
X46900000Y-34200000D01*
X44600000Y-32700000D02*
X43100000Y-34200000D01*
D16*
X36061200Y-18417400D02*
X33331100Y-18417400D01*
X28044700Y-23703800D02*
X28044700Y-25288900D01*
X39473200Y-15005400D02*
X36061200Y-18417400D01*
X33331100Y-18417400D02*
X28044700Y-23703800D01*
X28044700Y-25288900D02*
X28044700Y-28535300D01*
X28044700Y-28535300D02*
X20350000Y-36230000D01*
X39473200Y-10614400D02*
X39473200Y-15005400D01*
X41068300Y-19997700D02*
X21069000Y-39997000D01*
X21069000Y-39997000D02*
X19037000Y-39997000D01*
X45176400Y-8935500D02*
X41068300Y-13043600D01*
X41068300Y-13043600D02*
X41068300Y-19997700D01*
X19037000Y-39997000D02*
X17810000Y-38770000D01*
X39374500Y-5931500D02*
X41220300Y-5931500D01*
X13999900Y-17362000D02*
X15436100Y-15925800D01*
X13999900Y-37500100D02*
X13999900Y-17362000D01*
X29380200Y-15925800D02*
X39374500Y-5931500D01*
X15436100Y-15925800D02*
X29380200Y-15925800D01*
X41220300Y-5931500D02*
X44216900Y-8928100D01*
X12730000Y-38770000D02*
X13999900Y-37500100D01*
X40974600Y-4347400D02*
X27121000Y-4347400D01*
X26069000Y-4347400D02*
X27121000Y-4347400D01*
X12730000Y-36230000D02*
X12730000Y-17686400D01*
X43735400Y-7108200D02*
X40974600Y-4347400D01*
X12730000Y-17686400D02*
X26069000Y-4347400D01*
X16540000Y-37500000D02*
X16540000Y-30950900D01*
X15270000Y-38770000D02*
X16540000Y-37500000D01*
X16540000Y-30950900D02*
X40386600Y-7104300D01*
X40129500Y-6428200D02*
X40640400Y-6428200D01*
X15270000Y-31287700D02*
X40129500Y-6428200D01*
X40640400Y-6428200D02*
X42344800Y-8132600D01*
X42344800Y-8132600D02*
X42344800Y-8935500D01*
X15270000Y-36230000D02*
X15270000Y-31287700D01*
X17810000Y-36230000D02*
X17810000Y-30435900D01*
X17810000Y-30435900D02*
X39946500Y-8299400D01*
X40587600Y-8299400D02*
X41217100Y-8928900D01*
X39946500Y-8299400D02*
X40587600Y-8299400D01*
X39638500Y-20788700D02*
X39476600Y-20788700D01*
X40007700Y-20257600D02*
X40007700Y-20419500D01*
X39476600Y-20788700D02*
X21495300Y-38770000D01*
X40007700Y-20419500D02*
X39638500Y-20788700D01*
X40201400Y-20063900D02*
X40007700Y-20257600D01*
X40201400Y-8935500D02*
X40201400Y-20063900D01*
X21495300Y-38770000D02*
X20350000Y-38770000D01*
D18*
X35200000Y-37200000D02*
X35200000Y-32500000D01*
X33600000Y-34100000D02*
X35000000Y-33200000D01*
X32250000Y-37200000D02*
X35200000Y-37200000D01*
X35200000Y-16850000D02*
X36250000Y-15000000D01*
X33750000Y-36500000D02*
X31800000Y-36500000D01*
X33400000Y-26000000D02*
X29450000Y-23000000D01*
X29450000Y-23000000D02*
X33850000Y-20000000D01*
X31800000Y-36500000D02*
X31800000Y-33500000D01*
X31800000Y-33500000D02*
X32799999Y-33500000D01*
D16*
X36918700Y-16656000D02*
X35609000Y-17965700D01*
X32313000Y-17965700D02*
X19250000Y-31028700D01*
X35609000Y-17965700D02*
X32313000Y-17965700D01*
X7005400Y-40931700D02*
X21881700Y-40931700D01*
X5323800Y-38283600D02*
X5323800Y-39250100D01*
X1823300Y-26446700D02*
X1823300Y-34783100D01*
X21881700Y-40931700D02*
X41736700Y-21076700D01*
X5323800Y-39250100D02*
X7005400Y-40931700D01*
X3000000Y-25270000D02*
X1823300Y-26446700D01*
X1823300Y-34783100D02*
X5323800Y-38283600D01*
X5827200Y-25557200D02*
X3000000Y-22730000D01*
X6683500Y-39971000D02*
X5827200Y-39114700D01*
X5827200Y-39114700D02*
X5827200Y-25557200D01*
X41419100Y-20369100D02*
X21308200Y-40480000D01*
X16682300Y-39971000D02*
X6683500Y-39971000D01*
X46535000Y-20369100D02*
X41419100Y-20369100D01*
X47200000Y-21034100D02*
X46535000Y-20369100D01*
X21308200Y-40480000D02*
X17191300Y-40480000D01*
X17191300Y-40480000D02*
X16682300Y-39971000D01*
X38523200Y-21017400D02*
X39379800Y-20160800D01*
X33907800Y-21017400D02*
X38523200Y-21017400D01*
X38371000Y-31756300D02*
X35532900Y-28918200D01*
D17*
X30600000Y-33633000D02*
X30600000Y-34197000D01*
X35532900Y-28918200D02*
X35314800Y-28918200D01*
X35314800Y-28918200D02*
X30600000Y-33633000D01*
D16*
X29534000Y-4982300D02*
X29534000Y-9692600D01*
X29534000Y-9692600D02*
X29526600Y-9700000D01*
G04 #@! TA.AperFunction,Conductor*
G36*
X52693106Y-505523D02*
G01*
X52708104Y-509927D01*
X52766855Y-547672D01*
X52768042Y-549041D01*
X52795518Y-603902D01*
X52797163Y-611460D01*
X52800000Y-637831D01*
X52800000Y-41357670D01*
X52794975Y-41392614D01*
X52790570Y-41407612D01*
X52752827Y-41466355D01*
X52751458Y-41467542D01*
X52696597Y-41495018D01*
X52689039Y-41496663D01*
X52662668Y-41499500D01*
X49780113Y-41499500D01*
X49713074Y-41479815D01*
X49667319Y-41427011D01*
X49657375Y-41357853D01*
X49676020Y-41311674D01*
X49675146Y-41311217D01*
X49679255Y-41303360D01*
X49679257Y-41303359D01*
X49725465Y-41215024D01*
X49727470Y-41208198D01*
X49735215Y-41181818D01*
X49745150Y-41147985D01*
X49755500Y-41076000D01*
X49755500Y-30124000D01*
X49749661Y-30069687D01*
X49738455Y-30018176D01*
X49731219Y-29991802D01*
X49727332Y-29984976D01*
X49681894Y-29905181D01*
X49681890Y-29905176D01*
X49681888Y-29905172D01*
X49646097Y-29863867D01*
X49636136Y-29852371D01*
X49603359Y-29820743D01*
X49515022Y-29774534D01*
X49515022Y-29774533D01*
X49447990Y-29754851D01*
X49447978Y-29754848D01*
X49376001Y-29744500D01*
X49376000Y-29744500D01*
X38624000Y-29744500D01*
X38623997Y-29744500D01*
X38569687Y-29750338D01*
X38518181Y-29761543D01*
X38518172Y-29761546D01*
X38491807Y-29768779D01*
X38491796Y-29768783D01*
X38405181Y-29818105D01*
X38405173Y-29818111D01*
X38352371Y-29863863D01*
X38320743Y-29896640D01*
X38274534Y-29984977D01*
X38274533Y-29984977D01*
X38254851Y-30052009D01*
X38254848Y-30052021D01*
X38244500Y-30123998D01*
X38244500Y-30799401D01*
X38224815Y-30866440D01*
X38172011Y-30912195D01*
X38102853Y-30922139D01*
X38039297Y-30893114D01*
X38032819Y-30887082D01*
X36081131Y-28935394D01*
X36059980Y-28907140D01*
X36043743Y-28877404D01*
X36032800Y-28850070D01*
X36010237Y-28765863D01*
X36010237Y-28765862D01*
X35999292Y-28725015D01*
X35999292Y-28725014D01*
X35933400Y-28610886D01*
X35840214Y-28517700D01*
X35770917Y-28477691D01*
X35726088Y-28451808D01*
X35662439Y-28434754D01*
X35620408Y-28423492D01*
X35598792Y-28417700D01*
X35598791Y-28417700D01*
X35594303Y-28417700D01*
X35570111Y-28415317D01*
X35546518Y-28410624D01*
X35530842Y-28406423D01*
X35527282Y-28405214D01*
X35495934Y-28396815D01*
X35495929Y-28396814D01*
X35490797Y-28395439D01*
X35387275Y-28367700D01*
X35332388Y-28367700D01*
X35293929Y-28367700D01*
X35258994Y-28362677D01*
X35248140Y-28359490D01*
X35189362Y-28321716D01*
X35160337Y-28258160D01*
X35168227Y-28203273D01*
X35168515Y-28194652D01*
X35169716Y-28192912D01*
X35170277Y-28189011D01*
X35173467Y-28182024D01*
X35198576Y-28145860D01*
X41668313Y-21676123D01*
X41696563Y-21654975D01*
X41719655Y-21642367D01*
X41779080Y-21627200D01*
X41809172Y-21627200D01*
X41809175Y-21627200D01*
X41949185Y-21589684D01*
X42074715Y-21517209D01*
X42177209Y-21414715D01*
X42249684Y-21289185D01*
X42287200Y-21149175D01*
X42287200Y-21004225D01*
X42264071Y-20917910D01*
X42259882Y-20882869D01*
X42260212Y-20868994D01*
X42281485Y-20802445D01*
X42335360Y-20757960D01*
X42340962Y-20755561D01*
X42343199Y-20754604D01*
X42391994Y-20744600D01*
X46310271Y-20744600D01*
X46345203Y-20749621D01*
X46370447Y-20757034D01*
X46423193Y-20788330D01*
X46600573Y-20965710D01*
X46621723Y-20993962D01*
X46634331Y-21017051D01*
X46649500Y-21076480D01*
X46649500Y-21106575D01*
X46682541Y-21229885D01*
X46687017Y-21246588D01*
X46749847Y-21355413D01*
X46757635Y-21368901D01*
X46759125Y-21371671D01*
X46759353Y-21371977D01*
X46861985Y-21474609D01*
X46862674Y-21475105D01*
X46865178Y-21476453D01*
X46984069Y-21545095D01*
X46987087Y-21546969D01*
X46987514Y-21547083D01*
X46987515Y-21547084D01*
X47127525Y-21584600D01*
X47127528Y-21584600D01*
X47272472Y-21584600D01*
X47272475Y-21584600D01*
X47412485Y-21547084D01*
X47538015Y-21474609D01*
X47640509Y-21372115D01*
X47712984Y-21246585D01*
X47750500Y-21106575D01*
X47750500Y-20961625D01*
X47712984Y-20821615D01*
X47703342Y-20804915D01*
X47684905Y-20772981D01*
X47640516Y-20696096D01*
X47640508Y-20696084D01*
X47640493Y-20696068D01*
X47538030Y-20593605D01*
X47538014Y-20593590D01*
X47538006Y-20593585D01*
X47484243Y-20562545D01*
X47455808Y-20532724D01*
X47401007Y-20518039D01*
X47401007Y-20518040D01*
X47336740Y-20500820D01*
X47272475Y-20483600D01*
X47272474Y-20483600D01*
X47249729Y-20483600D01*
X47214793Y-20478577D01*
X47189551Y-20471165D01*
X47136806Y-20439869D01*
X46765564Y-20068627D01*
X46765563Y-20068626D01*
X46765562Y-20068625D01*
X46694079Y-20027354D01*
X46694075Y-20027351D01*
X46679940Y-20019191D01*
X46679939Y-20019190D01*
X46655722Y-20012701D01*
X46633311Y-20006696D01*
X46633287Y-20006689D01*
X46597172Y-19997012D01*
X46584436Y-19993600D01*
X46584435Y-19993600D01*
X41585630Y-19993600D01*
X41550689Y-19988575D01*
X41535690Y-19984170D01*
X41476944Y-19946427D01*
X41475757Y-19945058D01*
X41448277Y-19890183D01*
X41446632Y-19882621D01*
X41443800Y-19856268D01*
X41443800Y-13268328D01*
X41448822Y-13233395D01*
X41456234Y-13208150D01*
X41487528Y-13155408D01*
X45108014Y-9534923D01*
X45136264Y-9513775D01*
X45159356Y-9501167D01*
X45218781Y-9486000D01*
X45248872Y-9486000D01*
X45248875Y-9486000D01*
X45388885Y-9448484D01*
X45514415Y-9376009D01*
X45616909Y-9273515D01*
X45689384Y-9147985D01*
X45726900Y-9007975D01*
X45726900Y-8863025D01*
X45689384Y-8723015D01*
X45685573Y-8716415D01*
X45666428Y-8683255D01*
X45616913Y-8597491D01*
X45616908Y-8597484D01*
X45616893Y-8597468D01*
X45514430Y-8495005D01*
X45514414Y-8494990D01*
X45514411Y-8494988D01*
X45502983Y-8488390D01*
X45460640Y-8463943D01*
X45432208Y-8434124D01*
X45364257Y-8415917D01*
X45364256Y-8415916D01*
X45279791Y-8393284D01*
X45248875Y-8385000D01*
X45248874Y-8385000D01*
X45103925Y-8385000D01*
X44988542Y-8415917D01*
X44988541Y-8415916D01*
X44963915Y-8422515D01*
X44963908Y-8422518D01*
X44838392Y-8494985D01*
X44838385Y-8494990D01*
X44838379Y-8494995D01*
X44800637Y-8532738D01*
X44772379Y-8553891D01*
X44758659Y-8561382D01*
X44690401Y-8576233D01*
X44688595Y-8576104D01*
X44630394Y-8556736D01*
X44623879Y-8552549D01*
X44603242Y-8535918D01*
X44554930Y-8487605D01*
X44554914Y-8487590D01*
X44554906Y-8487585D01*
X44523654Y-8469542D01*
X44501142Y-8456544D01*
X44472708Y-8426724D01*
X44417907Y-8412039D01*
X44417907Y-8412040D01*
X44353640Y-8394820D01*
X44289375Y-8377600D01*
X44289374Y-8377600D01*
X44266629Y-8377600D01*
X44231693Y-8372577D01*
X44206451Y-8365165D01*
X44153706Y-8333869D01*
X43702825Y-7882988D01*
X43681676Y-7854738D01*
X43676254Y-7844808D01*
X43661401Y-7776538D01*
X43685815Y-7711073D01*
X43741745Y-7669201D01*
X43745624Y-7667754D01*
X43748960Y-7666511D01*
X43792274Y-7658700D01*
X43807872Y-7658700D01*
X43807875Y-7658700D01*
X43947885Y-7621184D01*
X44073415Y-7548709D01*
X44175909Y-7446215D01*
X44248384Y-7320685D01*
X44285900Y-7180675D01*
X44285900Y-7035725D01*
X44248384Y-6895715D01*
X44175909Y-6770185D01*
X44073415Y-6667691D01*
X44073277Y-6667553D01*
X44072968Y-6667323D01*
X44070202Y-6665835D01*
X44019643Y-6636645D01*
X43991208Y-6606824D01*
X43936407Y-6592139D01*
X43936407Y-6592140D01*
X43872140Y-6574920D01*
X43807875Y-6557700D01*
X43807874Y-6557700D01*
X43785130Y-6557700D01*
X43750194Y-6552677D01*
X43724952Y-6545265D01*
X43672207Y-6513969D01*
X41205164Y-4046927D01*
X41205163Y-4046926D01*
X41205162Y-4046925D01*
X41133679Y-4005654D01*
X41133674Y-4005650D01*
X41119540Y-3997490D01*
X41064686Y-3982792D01*
X41049791Y-3974192D01*
X41048916Y-3974192D01*
X41032223Y-3971992D01*
X41032096Y-3972961D01*
X41024038Y-3971900D01*
X41024037Y-3971900D01*
X41024036Y-3971900D01*
X41024035Y-3971900D01*
X27593216Y-3971900D01*
X27558280Y-3966877D01*
X27533038Y-3959465D01*
X27480291Y-3928167D01*
X27459029Y-3906904D01*
X27459014Y-3906890D01*
X27459006Y-3906885D01*
X27405243Y-3875845D01*
X27376808Y-3846024D01*
X27322007Y-3831339D01*
X27322007Y-3831340D01*
X27257740Y-3814120D01*
X27193475Y-3796900D01*
X27193474Y-3796900D01*
X27048525Y-3796900D01*
X26919994Y-3831339D01*
X26919993Y-3831340D01*
X26912338Y-3833391D01*
X26908510Y-3834417D01*
X26782991Y-3906885D01*
X26782982Y-3906892D01*
X26782973Y-3906900D01*
X26766899Y-3922975D01*
X26738647Y-3944125D01*
X26715562Y-3956731D01*
X26656133Y-3971900D01*
X26019564Y-3971900D01*
X25924064Y-3997488D01*
X25924054Y-3997492D01*
X25838440Y-4046921D01*
X25838435Y-4046926D01*
X12499438Y-17385924D01*
X12499438Y-17385925D01*
X12429528Y-17455833D01*
X12380089Y-17541463D01*
X12380089Y-17541464D01*
X12375865Y-17557227D01*
X12367031Y-17590200D01*
X12366400Y-17592556D01*
X12366398Y-17592563D01*
X12354500Y-17636961D01*
X12354500Y-35092389D01*
X12349476Y-35127328D01*
X12344666Y-35143707D01*
X12308879Y-35200723D01*
X12299008Y-35209653D01*
X12272115Y-35228182D01*
X12153213Y-35288766D01*
X12153212Y-35288766D01*
X12107191Y-35322204D01*
X12090814Y-35334103D01*
X12032286Y-35376626D01*
X12024942Y-35381962D01*
X12017562Y-35386094D01*
X11886092Y-35517564D01*
X11881961Y-35524941D01*
X11846859Y-35573255D01*
X11846859Y-35573256D01*
X11788768Y-35653210D01*
X11710129Y-35807549D01*
X11656596Y-35972305D01*
X11629500Y-36143383D01*
X11629500Y-36316615D01*
X11654982Y-36477509D01*
X11654983Y-36477509D01*
X11656598Y-36487701D01*
X11710128Y-36652449D01*
X11773596Y-36777011D01*
X11788768Y-36806788D01*
X11890586Y-36946928D01*
X12013072Y-37069414D01*
X12153212Y-37171232D01*
X12307555Y-37249873D01*
X12472299Y-37303402D01*
X12643389Y-37330500D01*
X12643390Y-37330500D01*
X12816610Y-37330500D01*
X12816611Y-37330500D01*
X12987701Y-37303402D01*
X13152445Y-37249873D01*
X13306788Y-37171232D01*
X13413097Y-37093992D01*
X13444308Y-37077524D01*
X13456508Y-37073171D01*
X13526263Y-37069187D01*
X13587100Y-37103548D01*
X13618533Y-37160147D01*
X13620762Y-37169145D01*
X13624400Y-37198961D01*
X13624400Y-37275370D01*
X13619376Y-37310307D01*
X13611964Y-37335548D01*
X13580669Y-37388292D01*
X13268891Y-37700069D01*
X13240635Y-37721221D01*
X13225652Y-37729402D01*
X13160040Y-37744415D01*
X13155773Y-37744201D01*
X13146743Y-37743750D01*
X13114619Y-37737836D01*
X13037187Y-37712677D01*
X12996532Y-37699467D01*
X12992010Y-37697614D01*
X12982820Y-37695444D01*
X12978057Y-37695070D01*
X12850162Y-37674814D01*
X12848798Y-37674598D01*
X12816611Y-37669500D01*
X12816610Y-37669500D01*
X12643388Y-37669500D01*
X12611190Y-37674599D01*
X12611189Y-37674598D01*
X12412223Y-37706112D01*
X12401211Y-37717282D01*
X12379332Y-37726805D01*
X12307547Y-37750129D01*
X12153218Y-37828764D01*
X12153205Y-37828772D01*
X12082059Y-37880463D01*
X12024942Y-37921961D01*
X12017563Y-37926093D01*
X11886093Y-38057563D01*
X11881959Y-38064946D01*
X11880129Y-38067463D01*
X11880130Y-38067464D01*
X11788768Y-38193211D01*
X11788767Y-38193213D01*
X11788764Y-38193218D01*
X11710129Y-38347549D01*
X11710128Y-38347551D01*
X11710128Y-38347552D01*
X11697759Y-38385621D01*
X11656596Y-38512305D01*
X11629500Y-38683383D01*
X11629500Y-38856614D01*
X11645742Y-38959163D01*
X11656597Y-39027699D01*
X11696959Y-39151921D01*
X11710126Y-39192443D01*
X11710127Y-39192445D01*
X11788768Y-39346789D01*
X11815942Y-39384191D01*
X11832411Y-39415402D01*
X11836763Y-39427598D01*
X11840754Y-39497353D01*
X11806399Y-39558193D01*
X11749786Y-39589635D01*
X11740790Y-39591863D01*
X11710980Y-39595500D01*
X11211726Y-39595500D01*
X11176788Y-39590476D01*
X11164362Y-39586827D01*
X11105585Y-39549051D01*
X11076562Y-39485494D01*
X11084402Y-39421220D01*
X11087891Y-39412624D01*
X11102467Y-39386378D01*
X11131232Y-39346788D01*
X11209873Y-39192445D01*
X11263402Y-39027701D01*
X11290500Y-38856611D01*
X11290500Y-38683389D01*
X11263402Y-38512299D01*
X11209873Y-38347555D01*
X11131232Y-38193212D01*
X11029414Y-38053072D01*
X10906928Y-37930586D01*
X10766788Y-37828768D01*
X10754072Y-37822289D01*
X10612449Y-37750128D01*
X10456532Y-37699467D01*
X10452010Y-37697614D01*
X10442820Y-37695444D01*
X10438057Y-37695070D01*
X10310162Y-37674814D01*
X10308798Y-37674598D01*
X10276611Y-37669500D01*
X10276610Y-37669500D01*
X10103388Y-37669500D01*
X10071190Y-37674599D01*
X10071189Y-37674598D01*
X9872223Y-37706112D01*
X9861211Y-37717282D01*
X9839332Y-37726805D01*
X9767547Y-37750129D01*
X9613218Y-37828764D01*
X9613205Y-37828772D01*
X9542059Y-37880463D01*
X9484942Y-37921961D01*
X9477563Y-37926093D01*
X9346093Y-38057563D01*
X9341959Y-38064946D01*
X9340129Y-38067463D01*
X9340130Y-38067464D01*
X9248768Y-38193211D01*
X9248767Y-38193213D01*
X9248764Y-38193218D01*
X9170129Y-38347549D01*
X9170128Y-38347551D01*
X9170128Y-38347552D01*
X9157759Y-38385621D01*
X9116596Y-38512305D01*
X9089500Y-38683383D01*
X9089500Y-38856614D01*
X9105742Y-38959163D01*
X9116597Y-39027699D01*
X9156959Y-39151921D01*
X9170126Y-39192443D01*
X9170127Y-39192445D01*
X9248768Y-39346789D01*
X9275942Y-39384191D01*
X9292411Y-39415402D01*
X9296763Y-39427598D01*
X9300754Y-39497353D01*
X9266399Y-39558193D01*
X9209786Y-39589635D01*
X9200790Y-39591863D01*
X9170980Y-39595500D01*
X8892330Y-39595500D01*
X8857389Y-39590475D01*
X8842390Y-39586070D01*
X8783644Y-39548327D01*
X8782457Y-39546958D01*
X8754977Y-39492083D01*
X8753332Y-39484521D01*
X8750500Y-39458168D01*
X8750500Y-37895139D01*
X8750064Y-37893134D01*
X8735972Y-37822289D01*
X8735967Y-37822266D01*
X8735966Y-37822260D01*
X8707195Y-37779201D01*
X8680601Y-37739399D01*
X8616542Y-37696597D01*
X8616540Y-37696594D01*
X8597741Y-37684034D01*
X8597740Y-37684033D01*
X8597739Y-37684033D01*
X8597735Y-37684032D01*
X8597725Y-37684030D01*
X8597709Y-37684026D01*
X8524680Y-37669500D01*
X8524677Y-37669500D01*
X8524674Y-37669500D01*
X6775326Y-37669500D01*
X6775323Y-37669500D01*
X6775319Y-37669500D01*
X6702285Y-37684027D01*
X6702262Y-37684032D01*
X6702258Y-37684033D01*
X6619399Y-37739399D01*
X6564033Y-37822258D01*
X6564032Y-37822266D01*
X6564028Y-37822281D01*
X6549500Y-37895318D01*
X6549500Y-38988771D01*
X6544476Y-39023709D01*
X6541289Y-39034562D01*
X6503514Y-39093339D01*
X6439957Y-39122362D01*
X6370807Y-39112421D01*
X6363829Y-39109234D01*
X6327657Y-39084120D01*
X6251626Y-39008089D01*
X6230474Y-38979833D01*
X6217867Y-38956744D01*
X6202700Y-38897319D01*
X6202700Y-25507766D01*
X6202700Y-25507765D01*
X6202700Y-25507764D01*
X6177111Y-25412263D01*
X6127675Y-25326638D01*
X4069929Y-23268892D01*
X4048780Y-23240642D01*
X4040595Y-23225652D01*
X4025583Y-23160032D01*
X4026248Y-23146738D01*
X4032162Y-23114620D01*
X4035236Y-23105160D01*
X4073402Y-22987701D01*
X4100500Y-22816611D01*
X4100500Y-22643389D01*
X4073402Y-22472299D01*
X4019873Y-22307555D01*
X3941232Y-22153212D01*
X3839414Y-22013072D01*
X3716928Y-21890586D01*
X3576788Y-21788768D01*
X3422449Y-21710128D01*
X3266532Y-21659467D01*
X3262010Y-21657614D01*
X3252820Y-21655444D01*
X3248057Y-21655070D01*
X3167853Y-21642367D01*
X3126271Y-21635781D01*
X3110407Y-21633268D01*
X3086614Y-21629500D01*
X3086611Y-21629500D01*
X2913389Y-21629500D01*
X2913388Y-21629500D01*
X2873726Y-21635781D01*
X2873725Y-21635780D01*
X2742304Y-21656596D01*
X2577549Y-21710129D01*
X2423210Y-21788768D01*
X2343256Y-21846859D01*
X2343255Y-21846859D01*
X2294941Y-21881961D01*
X2287564Y-21886092D01*
X2156092Y-22017564D01*
X2151961Y-22024941D01*
X2116859Y-22073255D01*
X2116859Y-22073256D01*
X2058768Y-22153210D01*
X1980129Y-22307549D01*
X1926596Y-22472305D01*
X1899500Y-22643383D01*
X1899500Y-22816610D01*
X1926598Y-22987702D01*
X1926598Y-22987705D01*
X1969424Y-23119506D01*
X1978273Y-23146741D01*
X1978939Y-23148789D01*
X1980129Y-23152450D01*
X1983991Y-23160029D01*
X2042633Y-23275121D01*
X2058766Y-23306786D01*
X2059667Y-23308026D01*
X2160586Y-23446928D01*
X2283072Y-23569414D01*
X2423212Y-23671232D01*
X2577555Y-23749873D01*
X2742299Y-23803402D01*
X2913389Y-23830500D01*
X2913390Y-23830500D01*
X3086610Y-23830500D01*
X3086611Y-23830500D01*
X3257701Y-23803402D01*
X3383334Y-23762579D01*
X3396048Y-23762216D01*
X3418112Y-23756562D01*
X3435167Y-23756075D01*
X3453113Y-23760586D01*
X3453176Y-23760585D01*
X3453226Y-23760615D01*
X3500447Y-23772487D01*
X3511995Y-23779117D01*
X3537936Y-23798973D01*
X5402773Y-25663810D01*
X5423923Y-25692062D01*
X5436531Y-25715151D01*
X5451700Y-25774580D01*
X5451700Y-37563271D01*
X5446676Y-37598209D01*
X5443489Y-37609062D01*
X5405714Y-37667839D01*
X5342157Y-37696862D01*
X5273007Y-37686921D01*
X5266029Y-37683734D01*
X5229857Y-37658620D01*
X2247726Y-34676489D01*
X2226574Y-34648233D01*
X2213967Y-34625144D01*
X2198800Y-34565719D01*
X2198800Y-29052329D01*
X2203823Y-29017393D01*
X2208227Y-29002395D01*
X2245972Y-28943644D01*
X2247341Y-28942457D01*
X2302220Y-28914977D01*
X2309779Y-28913333D01*
X2336132Y-28910500D01*
X3878796Y-28910500D01*
X3886648Y-28908117D01*
X3947740Y-28895966D01*
X4030601Y-28840601D01*
X4085966Y-28757740D01*
X4100500Y-28684674D01*
X4100500Y-26935326D01*
X4100500Y-26935323D01*
X4100500Y-26935139D01*
X4100064Y-26933134D01*
X4085972Y-26862289D01*
X4085971Y-26862287D01*
X4085967Y-26862264D01*
X4085966Y-26862260D01*
X4085965Y-26862258D01*
X4085964Y-26862256D01*
X4030601Y-26779399D01*
X3957891Y-26730816D01*
X3953826Y-26727480D01*
X3947739Y-26724033D01*
X3947735Y-26724032D01*
X3947709Y-26724026D01*
X3874680Y-26709500D01*
X3874677Y-26709500D01*
X3874674Y-26709500D01*
X2408729Y-26709500D01*
X2394442Y-26705304D01*
X2373794Y-26704477D01*
X2362940Y-26701290D01*
X2347940Y-26691650D01*
X2341690Y-26689815D01*
X2337424Y-26684892D01*
X2304162Y-26663516D01*
X2275137Y-26599960D01*
X2285078Y-26530809D01*
X2288271Y-26523817D01*
X2313378Y-26487656D01*
X2461110Y-26339924D01*
X2489357Y-26318778D01*
X2504345Y-26310594D01*
X2548343Y-26300529D01*
X2551763Y-26298701D01*
X2555147Y-26298972D01*
X2569963Y-26295583D01*
X2583257Y-26296248D01*
X2615377Y-26302162D01*
X2650329Y-26313518D01*
X2742299Y-26343402D01*
X2913389Y-26370500D01*
X2913390Y-26370500D01*
X3086610Y-26370500D01*
X3086611Y-26370500D01*
X3257701Y-26343402D01*
X3422445Y-26289873D01*
X3576788Y-26211232D01*
X3716928Y-26109414D01*
X3839414Y-25986928D01*
X3941232Y-25846788D01*
X4019873Y-25692445D01*
X4073402Y-25527701D01*
X4100500Y-25356611D01*
X4100500Y-25183389D01*
X4073402Y-25012299D01*
X4019873Y-24847555D01*
X3941232Y-24693212D01*
X3839414Y-24553072D01*
X3716928Y-24430586D01*
X3576788Y-24328768D01*
X3422449Y-24250128D01*
X3266532Y-24199467D01*
X3262010Y-24197614D01*
X3252820Y-24195444D01*
X3248057Y-24195070D01*
X3237513Y-24193400D01*
X3126271Y-24175781D01*
X3110407Y-24173268D01*
X3086614Y-24169500D01*
X3086611Y-24169500D01*
X2913389Y-24169500D01*
X2913388Y-24169500D01*
X2873726Y-24175781D01*
X2873725Y-24175780D01*
X2742304Y-24196596D01*
X2577549Y-24250129D01*
X2423210Y-24328768D01*
X2343256Y-24386859D01*
X2343255Y-24386859D01*
X2294941Y-24421961D01*
X2287564Y-24426092D01*
X2156092Y-24557564D01*
X2151961Y-24564941D01*
X2116859Y-24613255D01*
X2116859Y-24613256D01*
X2058768Y-24693210D01*
X1980129Y-24847549D01*
X1980128Y-24847551D01*
X1980128Y-24847552D01*
X1946551Y-24950892D01*
X1926598Y-25012300D01*
X1926597Y-25012303D01*
X1899500Y-25183383D01*
X1899500Y-25356614D01*
X1923440Y-25507766D01*
X1926596Y-25527694D01*
X1926598Y-25527701D01*
X1967418Y-25653332D01*
X1973436Y-25688105D01*
X1973923Y-25705171D01*
X1957507Y-25770455D01*
X1950879Y-25781998D01*
X1931028Y-25807933D01*
X1592739Y-26146224D01*
X1592738Y-26146225D01*
X1522825Y-26216136D01*
X1473390Y-26301760D01*
X1447800Y-26397265D01*
X1447800Y-34832534D01*
X1473390Y-34928038D01*
X1481548Y-34942170D01*
X1481551Y-34942174D01*
X1522826Y-35013663D01*
X1522828Y-35013665D01*
X3887244Y-37378081D01*
X3908394Y-37406333D01*
X3911725Y-37412433D01*
X3926578Y-37480706D01*
X3902163Y-37546171D01*
X3846230Y-37588043D01*
X3778267Y-37593391D01*
X3772462Y-37592215D01*
X3740797Y-37581171D01*
X3633716Y-37526611D01*
X3614383Y-37516760D01*
X3502691Y-37480469D01*
X3374787Y-37438910D01*
X3207617Y-37412433D01*
X3125962Y-37399500D01*
X3125961Y-37399500D01*
X2874039Y-37399500D01*
X2874038Y-37399500D01*
X2792383Y-37412433D01*
X2625212Y-37438910D01*
X2625209Y-37438910D01*
X2385619Y-37516759D01*
X2385616Y-37516760D01*
X2237527Y-37592216D01*
X2161147Y-37631134D01*
X1957367Y-37779188D01*
X1957338Y-37779210D01*
X1779210Y-37957338D01*
X1779188Y-37957367D01*
X1631134Y-38161147D01*
X1516759Y-38385618D01*
X1438910Y-38625210D01*
X1437697Y-38632873D01*
X1399500Y-38874038D01*
X1399500Y-39125962D01*
X1416764Y-39234962D01*
X1428010Y-39305963D01*
X1428010Y-39305964D01*
X1438909Y-39374783D01*
X1438910Y-39374788D01*
X1512089Y-39600008D01*
X1516760Y-39614383D01*
X1631132Y-39838848D01*
X1631134Y-39838851D01*
X1657010Y-39874466D01*
X1779201Y-40042649D01*
X1779205Y-40042654D01*
X1779210Y-40042660D01*
X1957338Y-40220788D01*
X1957342Y-40220791D01*
X1957345Y-40220794D01*
X1957350Y-40220798D01*
X2130365Y-40346500D01*
X2161155Y-40368870D01*
X2304184Y-40441747D01*
X2304183Y-40441747D01*
X2340752Y-40460379D01*
X2379173Y-40479956D01*
X2380760Y-40480886D01*
X2384478Y-40482687D01*
X2386475Y-40483680D01*
X2390243Y-40484743D01*
X2600780Y-40553150D01*
X2625215Y-40561090D01*
X2874038Y-40600500D01*
X2874039Y-40600500D01*
X3125961Y-40600500D01*
X3125962Y-40600500D01*
X3374785Y-40561090D01*
X3614379Y-40483241D01*
X3838845Y-40368870D01*
X4042656Y-40220793D01*
X4220793Y-40042656D01*
X4368870Y-39838845D01*
X4483241Y-39614379D01*
X4561090Y-39374785D01*
X4600500Y-39125962D01*
X4600500Y-38874038D01*
X4561090Y-38625215D01*
X4561089Y-38625211D01*
X4561089Y-38625210D01*
X4484743Y-38390243D01*
X4484692Y-38388467D01*
X4483800Y-38386716D01*
X4482689Y-38384480D01*
X4480894Y-38380776D01*
X4479956Y-38379173D01*
X4434105Y-38289186D01*
X4419236Y-38260006D01*
X4407854Y-38226606D01*
X4406571Y-38219776D01*
X4413540Y-38150255D01*
X4456989Y-38095538D01*
X4523123Y-38072997D01*
X4589415Y-38088911D01*
X4594574Y-38091825D01*
X4621278Y-38112115D01*
X4899373Y-38390210D01*
X4920523Y-38418462D01*
X4933131Y-38441551D01*
X4948300Y-38500980D01*
X4948300Y-39299535D01*
X4950023Y-39305964D01*
X4973887Y-39395030D01*
X4973890Y-39395039D01*
X5022598Y-39479402D01*
X5022594Y-39479403D01*
X5022608Y-39479420D01*
X5023327Y-39480665D01*
X5023328Y-39480666D01*
X5911530Y-40368867D01*
X6774838Y-41232175D01*
X6821648Y-41259201D01*
X6849388Y-41281017D01*
X6857198Y-41289209D01*
X6889208Y-41351314D01*
X6882561Y-41420866D01*
X6839406Y-41475755D01*
X6838905Y-41476112D01*
X6787519Y-41497408D01*
X6785302Y-41497781D01*
X6764729Y-41499500D01*
X642330Y-41499500D01*
X607389Y-41494475D01*
X592390Y-41490070D01*
X533644Y-41452327D01*
X532457Y-41450958D01*
X504977Y-41396083D01*
X503332Y-41388521D01*
X500500Y-41362168D01*
X500500Y-2874038D01*
X1399500Y-2874038D01*
X1399500Y-3125960D01*
X1438910Y-3374786D01*
X1438910Y-3374789D01*
X1500237Y-3563533D01*
X1516760Y-3614383D01*
X1595413Y-3768747D01*
X1628873Y-3834416D01*
X1631132Y-3838848D01*
X1631133Y-3838850D01*
X1631134Y-3838851D01*
X1680567Y-3906890D01*
X1779201Y-4042649D01*
X1779205Y-4042654D01*
X1779210Y-4042660D01*
X1957338Y-4220788D01*
X1957342Y-4220791D01*
X1957345Y-4220794D01*
X1957350Y-4220798D01*
X2135117Y-4349952D01*
X2161155Y-4368870D01*
X2304184Y-4441747D01*
X2304183Y-4441747D01*
X2340752Y-4460379D01*
X2379173Y-4479956D01*
X2380760Y-4480886D01*
X2384478Y-4482687D01*
X2386475Y-4483680D01*
X2390243Y-4484743D01*
X2600780Y-4553150D01*
X2625215Y-4561090D01*
X2874038Y-4600500D01*
X2874039Y-4600500D01*
X3125961Y-4600500D01*
X3125962Y-4600500D01*
X3374785Y-4561090D01*
X3614379Y-4483241D01*
X3838845Y-4368870D01*
X4042656Y-4220793D01*
X4220793Y-4042656D01*
X4368870Y-3838845D01*
X4483241Y-3614379D01*
X4561090Y-3374785D01*
X4600500Y-3125962D01*
X4600500Y-2874038D01*
X47399500Y-2874038D01*
X47399500Y-3125960D01*
X47438910Y-3374786D01*
X47438910Y-3374789D01*
X47500237Y-3563533D01*
X47516760Y-3614383D01*
X47595413Y-3768747D01*
X47628873Y-3834416D01*
X47631132Y-3838848D01*
X47631133Y-3838850D01*
X47631134Y-3838851D01*
X47680567Y-3906890D01*
X47779201Y-4042649D01*
X47779205Y-4042654D01*
X47779210Y-4042660D01*
X47957338Y-4220788D01*
X47957342Y-4220791D01*
X47957345Y-4220794D01*
X47957350Y-4220798D01*
X48135117Y-4349952D01*
X48161155Y-4368870D01*
X48304184Y-4441747D01*
X48304183Y-4441747D01*
X48340752Y-4460379D01*
X48379173Y-4479956D01*
X48380760Y-4480886D01*
X48384478Y-4482687D01*
X48386475Y-4483680D01*
X48390243Y-4484743D01*
X48600780Y-4553150D01*
X48625215Y-4561090D01*
X48874038Y-4600500D01*
X48874039Y-4600500D01*
X49125961Y-4600500D01*
X49125962Y-4600500D01*
X49374785Y-4561090D01*
X49614379Y-4483241D01*
X49838845Y-4368870D01*
X50042656Y-4220793D01*
X50220793Y-4042656D01*
X50368870Y-3838845D01*
X50483241Y-3614379D01*
X50561090Y-3374785D01*
X50600500Y-3125962D01*
X50600500Y-2874038D01*
X50561090Y-2625215D01*
X50561089Y-2625211D01*
X50561089Y-2625210D01*
X50484743Y-2390243D01*
X50483680Y-2386475D01*
X50482687Y-2384478D01*
X50480886Y-2380760D01*
X50479956Y-2379173D01*
X50460379Y-2340752D01*
X50441747Y-2304183D01*
X50441747Y-2304184D01*
X50368870Y-2161155D01*
X50349952Y-2135117D01*
X50220798Y-1957350D01*
X50220794Y-1957345D01*
X50220791Y-1957342D01*
X50220788Y-1957338D01*
X50042660Y-1779210D01*
X50042655Y-1779206D01*
X50042654Y-1779205D01*
X50042649Y-1779201D01*
X49846743Y-1636868D01*
X49846402Y-1636577D01*
X49838838Y-1631124D01*
X49838474Y-1630941D01*
X49768747Y-1595413D01*
X49614385Y-1516761D01*
X49614384Y-1516760D01*
X49614383Y-1516760D01*
X49530487Y-1489500D01*
X49374787Y-1438910D01*
X49208903Y-1412636D01*
X49125962Y-1399500D01*
X49125961Y-1399500D01*
X48874039Y-1399500D01*
X48874038Y-1399500D01*
X48791096Y-1412636D01*
X48625212Y-1438910D01*
X48625209Y-1438910D01*
X48385619Y-1516759D01*
X48385616Y-1516760D01*
X48231253Y-1595413D01*
X48161147Y-1631134D01*
X47957367Y-1779188D01*
X47957338Y-1779210D01*
X47779210Y-1957338D01*
X47779188Y-1957367D01*
X47631134Y-2161147D01*
X47631132Y-2161151D01*
X47516760Y-2385616D01*
X47516759Y-2385618D01*
X47516759Y-2385619D01*
X47438910Y-2625209D01*
X47438910Y-2625212D01*
X47399500Y-2874038D01*
X4600500Y-2874038D01*
X4561090Y-2625215D01*
X4561089Y-2625211D01*
X4561089Y-2625210D01*
X4484743Y-2390243D01*
X4483680Y-2386475D01*
X4482687Y-2384478D01*
X4480886Y-2380760D01*
X4479956Y-2379173D01*
X4460379Y-2340752D01*
X4441747Y-2304183D01*
X4441747Y-2304184D01*
X4368870Y-2161155D01*
X4349952Y-2135117D01*
X4220798Y-1957350D01*
X4220794Y-1957345D01*
X4220791Y-1957342D01*
X4220788Y-1957338D01*
X4042660Y-1779210D01*
X4042655Y-1779206D01*
X4042654Y-1779205D01*
X4042649Y-1779201D01*
X3846743Y-1636868D01*
X3846402Y-1636577D01*
X3838838Y-1631124D01*
X3838474Y-1630941D01*
X3768747Y-1595413D01*
X3614385Y-1516761D01*
X3614384Y-1516760D01*
X3614383Y-1516760D01*
X3530487Y-1489500D01*
X3374787Y-1438910D01*
X3208903Y-1412636D01*
X3125962Y-1399500D01*
X3125961Y-1399500D01*
X2874039Y-1399500D01*
X2874038Y-1399500D01*
X2791096Y-1412636D01*
X2625212Y-1438910D01*
X2625209Y-1438910D01*
X2385619Y-1516759D01*
X2385616Y-1516760D01*
X2231253Y-1595413D01*
X2161147Y-1631134D01*
X1957367Y-1779188D01*
X1957338Y-1779210D01*
X1779210Y-1957338D01*
X1779188Y-1957367D01*
X1631134Y-2161147D01*
X1631132Y-2161151D01*
X1516760Y-2385616D01*
X1516759Y-2385618D01*
X1516759Y-2385619D01*
X1438910Y-2625209D01*
X1438910Y-2625212D01*
X1399500Y-2874038D01*
X500500Y-2874038D01*
X500500Y-642329D01*
X505523Y-607393D01*
X509927Y-592395D01*
X547672Y-533644D01*
X549041Y-532457D01*
X603920Y-504977D01*
X611479Y-503333D01*
X637832Y-500500D01*
X52658170Y-500500D01*
X52693106Y-505523D01*
G37*
G04 #@! TD.AperFunction*
G04 #@! TA.AperFunction,Conductor*
G36*
X35523994Y-29485496D02*
G01*
X35582191Y-29504862D01*
X35588709Y-29509051D01*
X35609344Y-29525681D01*
X37771573Y-31687910D01*
X37792723Y-31716162D01*
X37805331Y-31739251D01*
X37820500Y-31798680D01*
X37820500Y-31828774D01*
X37855524Y-31959486D01*
X37858016Y-31968786D01*
X37858018Y-31968791D01*
X37928635Y-32091102D01*
X37930123Y-32093868D01*
X37930353Y-32094177D01*
X38032985Y-32196809D01*
X38033674Y-32197305D01*
X38036178Y-32198653D01*
X38155069Y-32267295D01*
X38160259Y-32270518D01*
X38163815Y-32272344D01*
X38168491Y-32275044D01*
X38180424Y-32280104D01*
X38180429Y-32280107D01*
X38178426Y-32283444D01*
X38212245Y-32304053D01*
X38242781Y-32366896D01*
X38244500Y-32387472D01*
X38244500Y-41076002D01*
X38250338Y-41130312D01*
X38261543Y-41181818D01*
X38261546Y-41181827D01*
X38268779Y-41208192D01*
X38268783Y-41208203D01*
X38318105Y-41294818D01*
X38321628Y-41299796D01*
X38320521Y-41300578D01*
X38346678Y-41357858D01*
X38336731Y-41427016D01*
X38290974Y-41479818D01*
X38223939Y-41499500D01*
X22129845Y-41499500D01*
X22094910Y-41494477D01*
X22084056Y-41491290D01*
X22025278Y-41453516D01*
X21996253Y-41389960D01*
X22006174Y-41320852D01*
X22006433Y-41320285D01*
X22040312Y-41276122D01*
X22042049Y-41274689D01*
X22058979Y-41262936D01*
X22112262Y-41232175D01*
X22182175Y-41162262D01*
X26726911Y-36617525D01*
X29549500Y-36617525D01*
X29549500Y-36624925D01*
X29549500Y-36762474D01*
X29587013Y-36902477D01*
X29587017Y-36902488D01*
X29587018Y-36902489D01*
X29657635Y-37024802D01*
X29659123Y-37027568D01*
X29659353Y-37027877D01*
X29761985Y-37130509D01*
X29762674Y-37131005D01*
X29765178Y-37132353D01*
X29884069Y-37200995D01*
X29887087Y-37202869D01*
X29887514Y-37202983D01*
X29887515Y-37202984D01*
X30027525Y-37240500D01*
X30027528Y-37240500D01*
X30172472Y-37240500D01*
X30172475Y-37240500D01*
X30312485Y-37202984D01*
X30438015Y-37130509D01*
X30540509Y-37028015D01*
X30612984Y-36902485D01*
X30650500Y-36762475D01*
X30650500Y-36617525D01*
X30612984Y-36477515D01*
X30608653Y-36470014D01*
X30599324Y-36453855D01*
X30599323Y-36453854D01*
X30540513Y-36351991D01*
X30540508Y-36351984D01*
X30540493Y-36351968D01*
X30438030Y-36249505D01*
X30438014Y-36249490D01*
X30438011Y-36249488D01*
X30384241Y-36218444D01*
X30355807Y-36188623D01*
X30293408Y-36171904D01*
X30232941Y-36155702D01*
X30172475Y-36139500D01*
X30172474Y-36139500D01*
X30027525Y-36139500D01*
X29906592Y-36171904D01*
X29906591Y-36171903D01*
X29887510Y-36177017D01*
X29887507Y-36177018D01*
X29761992Y-36249485D01*
X29761984Y-36249490D01*
X29761968Y-36249505D01*
X29659505Y-36351968D01*
X29659490Y-36351984D01*
X29659485Y-36351992D01*
X29587017Y-36477509D01*
X29587004Y-36477541D01*
X29586909Y-36477914D01*
X29549500Y-36617525D01*
X26726911Y-36617525D01*
X29877588Y-33466847D01*
X29905837Y-33445700D01*
X29915766Y-33440278D01*
X29984038Y-33425427D01*
X30049502Y-33449844D01*
X30091374Y-33505777D01*
X30091408Y-33505868D01*
X30091632Y-33506470D01*
X30098859Y-33561448D01*
X30096647Y-33584709D01*
X30098864Y-33590150D01*
X30099500Y-33602688D01*
X30099500Y-33917498D01*
X30097118Y-33941686D01*
X30092427Y-33965272D01*
X30088229Y-33980942D01*
X30087020Y-33984503D01*
X30087016Y-33984513D01*
X30087013Y-33984523D01*
X30087013Y-33984524D01*
X30077358Y-34020552D01*
X30077359Y-34020553D01*
X30049500Y-34124525D01*
X30049500Y-34269472D01*
X30049499Y-34269472D01*
X30049500Y-34269475D01*
X30085850Y-34405133D01*
X30085852Y-34405140D01*
X30087016Y-34409486D01*
X30087018Y-34409491D01*
X30157635Y-34531802D01*
X30159123Y-34534568D01*
X30159353Y-34534877D01*
X30261985Y-34637509D01*
X30262674Y-34638005D01*
X30265178Y-34639353D01*
X30384069Y-34707995D01*
X30387087Y-34709869D01*
X30387514Y-34709983D01*
X30387515Y-34709984D01*
X30527525Y-34747500D01*
X30527528Y-34747500D01*
X30672472Y-34747500D01*
X30672475Y-34747500D01*
X30812485Y-34709984D01*
X30938015Y-34637509D01*
X31040509Y-34535015D01*
X31112984Y-34409485D01*
X31150500Y-34269475D01*
X31150500Y-34124525D01*
X31112984Y-33984515D01*
X31112983Y-33984513D01*
X31112982Y-33984512D01*
X31111812Y-33980143D01*
X31107639Y-33965608D01*
X31102880Y-33941680D01*
X31100500Y-33917498D01*
X31100500Y-33909505D01*
X31105522Y-33874572D01*
X31112934Y-33849327D01*
X31144228Y-33796585D01*
X31225214Y-33715599D01*
X31253457Y-33694455D01*
X31263391Y-33689031D01*
X31331661Y-33674178D01*
X31397126Y-33698592D01*
X31438999Y-33754524D01*
X31439001Y-33754528D01*
X31441682Y-33761716D01*
X31449500Y-33805050D01*
X31449500Y-36453856D01*
X31449500Y-36546144D01*
X31468626Y-36617525D01*
X31473382Y-36635276D01*
X31473388Y-36635293D01*
X31473389Y-36635294D01*
X31519521Y-36715199D01*
X31519528Y-36715208D01*
X31519530Y-36715211D01*
X31584871Y-36780552D01*
X31586385Y-36781456D01*
X31593035Y-36785565D01*
X31595656Y-36786744D01*
X31646942Y-36816355D01*
X31661259Y-36824621D01*
X31664023Y-36826338D01*
X31664607Y-36826616D01*
X31666465Y-36827084D01*
X31673054Y-36828849D01*
X31685116Y-36832081D01*
X31717558Y-36845973D01*
X31729627Y-36853329D01*
X31776623Y-36905030D01*
X31788294Y-36973189D01*
X31786393Y-36989942D01*
X31784857Y-36996901D01*
X31785207Y-36996958D01*
X31784608Y-37000647D01*
X31781986Y-37012866D01*
X31754177Y-37116652D01*
X31749500Y-37134108D01*
X31749500Y-37265891D01*
X31756817Y-37293200D01*
X31783608Y-37393188D01*
X31796325Y-37415213D01*
X31796326Y-37415214D01*
X31849500Y-37507314D01*
X31942686Y-37600500D01*
X32056814Y-37666392D01*
X32184108Y-37700500D01*
X32184110Y-37700500D01*
X32315890Y-37700500D01*
X32315892Y-37700500D01*
X32443186Y-37666392D01*
X32557314Y-37600500D01*
X32558387Y-37599426D01*
X32586640Y-37578275D01*
X32609732Y-37565667D01*
X32669157Y-37550500D01*
X35246142Y-37550500D01*
X35246144Y-37550500D01*
X35335288Y-37526614D01*
X35415212Y-37480469D01*
X35480469Y-37415212D01*
X35526614Y-37335288D01*
X35529827Y-37323294D01*
X35533761Y-37308615D01*
X35547653Y-37276171D01*
X35555788Y-37262824D01*
X35607480Y-37215830D01*
X35609163Y-37215012D01*
X35669185Y-37202711D01*
X35673578Y-37202919D01*
X35676910Y-37203078D01*
X35703107Y-37207161D01*
X35827525Y-37240500D01*
X35827528Y-37240500D01*
X35972472Y-37240500D01*
X35972475Y-37240500D01*
X36112485Y-37202984D01*
X36238015Y-37130509D01*
X36340509Y-37028015D01*
X36412984Y-36902485D01*
X36450500Y-36762475D01*
X36450500Y-36617525D01*
X36412984Y-36477515D01*
X36408653Y-36470014D01*
X36399324Y-36453855D01*
X36399323Y-36453854D01*
X36340513Y-36351991D01*
X36340508Y-36351984D01*
X36340493Y-36351968D01*
X36238030Y-36249505D01*
X36238014Y-36249490D01*
X36238011Y-36249488D01*
X36184241Y-36218444D01*
X36155807Y-36188623D01*
X36093408Y-36171904D01*
X36032941Y-36155702D01*
X35972475Y-36139500D01*
X35972474Y-36139500D01*
X35827523Y-36139500D01*
X35723812Y-36167288D01*
X35688771Y-36171478D01*
X35674897Y-36171148D01*
X35608345Y-36149875D01*
X35563859Y-36095998D01*
X35563855Y-36095989D01*
X35560509Y-36088174D01*
X35550500Y-36039368D01*
X35550500Y-32926505D01*
X35555522Y-32891572D01*
X35562934Y-32866327D01*
X35594230Y-32813583D01*
X35600500Y-32807314D01*
X35666392Y-32693186D01*
X35700500Y-32565892D01*
X35700500Y-32434108D01*
X35666392Y-32306814D01*
X35600500Y-32192686D01*
X35507314Y-32099500D01*
X35450250Y-32066554D01*
X35393187Y-32033608D01*
X35329539Y-32016554D01*
X35265892Y-31999500D01*
X35265891Y-31999500D01*
X35134108Y-31999500D01*
X35006808Y-32033609D01*
X35006806Y-32033610D01*
X34892696Y-32099493D01*
X34892682Y-32099502D01*
X34892677Y-32099506D01*
X34799506Y-32192677D01*
X34799502Y-32192682D01*
X34799493Y-32192696D01*
X34733609Y-32306807D01*
X34728059Y-32327525D01*
X34728058Y-32327527D01*
X34699500Y-32434108D01*
X34699500Y-32565895D01*
X34724282Y-32658387D01*
X34728472Y-32693424D01*
X34728025Y-32712233D01*
X34709940Y-32773827D01*
X34704518Y-32782722D01*
X34686321Y-32805862D01*
X34599501Y-32892684D01*
X34599499Y-32892687D01*
X34599495Y-32892691D01*
X34533607Y-33006813D01*
X34533607Y-33006814D01*
X34525915Y-33035517D01*
X34512019Y-33067964D01*
X34497732Y-33091401D01*
X34458908Y-33131164D01*
X33772563Y-33572388D01*
X33740464Y-33587053D01*
X33715653Y-33594342D01*
X33664569Y-33598316D01*
X33649467Y-33596334D01*
X33642408Y-33599066D01*
X33632048Y-33599500D01*
X33534103Y-33599500D01*
X33473811Y-33615655D01*
X33438771Y-33619845D01*
X33424897Y-33619515D01*
X33358345Y-33598242D01*
X33313859Y-33544365D01*
X33313855Y-33544357D01*
X33310508Y-33536540D01*
X33300499Y-33487733D01*
X33300499Y-33434110D01*
X33300499Y-33434108D01*
X33266391Y-33306814D01*
X33200499Y-33192686D01*
X33107313Y-33099500D01*
X33026319Y-33052738D01*
X32993186Y-33033608D01*
X32893187Y-33006814D01*
X32893185Y-33006813D01*
X32865892Y-32999500D01*
X32865891Y-32999500D01*
X32734107Y-32999500D01*
X32606807Y-33033609D01*
X32606805Y-33033610D01*
X32492695Y-33099493D01*
X32492689Y-33099497D01*
X32492688Y-33099498D01*
X32492685Y-33099500D01*
X32492682Y-33099502D01*
X32492679Y-33099504D01*
X32492669Y-33099513D01*
X32491601Y-33100582D01*
X32488902Y-33102601D01*
X32487945Y-33103387D01*
X32487910Y-33103344D01*
X32463359Y-33121723D01*
X32440273Y-33134330D01*
X32380842Y-33149500D01*
X32108506Y-33149500D01*
X32073571Y-33144477D01*
X32062717Y-33141290D01*
X32003939Y-33103516D01*
X31974914Y-33039960D01*
X31984854Y-32970811D01*
X31988044Y-32963824D01*
X32013153Y-32927660D01*
X35411952Y-29528860D01*
X35440202Y-29507712D01*
X35453926Y-29500218D01*
X35522184Y-29485367D01*
X35523994Y-29485496D01*
G37*
G04 #@! TD.AperFunction*
G04 #@! TA.AperFunction,Conductor*
G36*
X26683716Y-4727921D02*
G01*
X26708960Y-4735334D01*
X26761706Y-4766630D01*
X26782985Y-4787909D01*
X26783674Y-4788405D01*
X26786178Y-4789753D01*
X26905069Y-4858395D01*
X26908087Y-4860269D01*
X26908514Y-4860383D01*
X26908515Y-4860384D01*
X27048525Y-4897900D01*
X27048528Y-4897900D01*
X27193472Y-4897900D01*
X27193475Y-4897900D01*
X27333485Y-4860384D01*
X27459015Y-4787909D01*
X27475098Y-4771825D01*
X27503350Y-4750675D01*
X27526442Y-4738067D01*
X27585867Y-4722900D01*
X28854157Y-4722900D01*
X28889089Y-4727921D01*
X28902408Y-4731832D01*
X28961186Y-4769606D01*
X28990211Y-4833159D01*
X28991421Y-4841573D01*
X28988459Y-4891317D01*
X28983500Y-4909822D01*
X28983500Y-5054774D01*
X29021013Y-5194777D01*
X29021017Y-5194788D01*
X29021018Y-5194789D01*
X29093485Y-5320306D01*
X29093490Y-5320314D01*
X29093491Y-5320315D01*
X29093493Y-5320317D01*
X29109574Y-5336398D01*
X29130725Y-5364652D01*
X29143332Y-5387740D01*
X29158500Y-5447167D01*
X29158500Y-9220384D01*
X29153476Y-9255321D01*
X29146064Y-9280562D01*
X29131843Y-9311976D01*
X29126133Y-9320990D01*
X29122181Y-9325895D01*
X29086093Y-9361982D01*
X29086088Y-9361988D01*
X29013617Y-9487511D01*
X29013616Y-9487515D01*
X29008453Y-9506782D01*
X29008451Y-9506786D01*
X28976100Y-9627525D01*
X28976100Y-9772474D01*
X29013613Y-9912477D01*
X29013617Y-9912488D01*
X29013618Y-9912489D01*
X29084235Y-10034802D01*
X29085723Y-10037568D01*
X29085953Y-10037877D01*
X29188585Y-10140509D01*
X29189274Y-10141005D01*
X29191778Y-10142353D01*
X29310669Y-10210995D01*
X29313687Y-10212869D01*
X29314114Y-10212983D01*
X29314115Y-10212984D01*
X29454125Y-10250500D01*
X29454128Y-10250500D01*
X29599072Y-10250500D01*
X29599075Y-10250500D01*
X29739085Y-10212984D01*
X29864615Y-10140509D01*
X29967109Y-10038015D01*
X30039584Y-9912485D01*
X30077100Y-9772475D01*
X30077100Y-9627525D01*
X30039584Y-9487515D01*
X30039582Y-9487511D01*
X30039582Y-9487510D01*
X30038709Y-9485998D01*
X30038711Y-9485996D01*
X30038699Y-9485983D01*
X30034898Y-9479400D01*
X30002180Y-9422729D01*
X29967113Y-9361991D01*
X29967108Y-9361984D01*
X29967093Y-9361968D01*
X29958425Y-9353300D01*
X29937273Y-9325044D01*
X29924667Y-9301957D01*
X29909500Y-9242532D01*
X29909500Y-5454515D01*
X29914522Y-5419582D01*
X29921934Y-5394337D01*
X29953228Y-5341595D01*
X29974509Y-5320315D01*
X30046984Y-5194785D01*
X30084500Y-5054775D01*
X30084500Y-4909825D01*
X30080851Y-4896208D01*
X30076662Y-4861170D01*
X30076681Y-4860382D01*
X30076992Y-4847296D01*
X30098265Y-4780746D01*
X30152142Y-4736259D01*
X30159967Y-4732909D01*
X30208774Y-4722900D01*
X40749871Y-4722900D01*
X40784803Y-4727921D01*
X40810047Y-4735334D01*
X40862793Y-4766630D01*
X41452303Y-5356140D01*
X41473452Y-5384390D01*
X41478873Y-5394317D01*
X41493727Y-5462590D01*
X41469313Y-5528055D01*
X41413381Y-5569928D01*
X41413228Y-5569985D01*
X41412652Y-5570199D01*
X41357674Y-5577400D01*
X41355434Y-5577186D01*
X41335135Y-5573523D01*
X41323572Y-5570424D01*
X41323534Y-5570415D01*
X41310256Y-5566857D01*
X41269736Y-5556000D01*
X41269735Y-5556000D01*
X39325062Y-5556000D01*
X39229562Y-5581588D01*
X39229559Y-5581589D01*
X39143948Y-5631018D01*
X39143934Y-5631027D01*
X39143929Y-5631031D01*
X29273589Y-15501373D01*
X29245338Y-15522522D01*
X29222250Y-15535130D01*
X29162820Y-15550300D01*
X15908316Y-15550300D01*
X15873380Y-15545277D01*
X15848138Y-15537865D01*
X15795393Y-15506569D01*
X15774117Y-15485293D01*
X15774115Y-15485291D01*
X15731719Y-15460814D01*
X15703983Y-15439002D01*
X15694399Y-15428951D01*
X15662386Y-15366852D01*
X15669026Y-15297301D01*
X15672190Y-15289399D01*
X15699623Y-15247811D01*
X26175614Y-4771823D01*
X26203864Y-4750675D01*
X26226956Y-4738067D01*
X26286381Y-4722900D01*
X26648784Y-4722900D01*
X26683716Y-4727921D01*
G37*
G04 #@! TD.AperFunction*
G04 #@! TA.AperFunction,Conductor*
G36*
X49443039Y-30019685D02*
G01*
X49488794Y-30072489D01*
X49500000Y-30124000D01*
X49500000Y-41076000D01*
X49480315Y-41143039D01*
X49427511Y-41188794D01*
X49376000Y-41200000D01*
X38624000Y-41200000D01*
X38556961Y-41180315D01*
X38511206Y-41127511D01*
X38500000Y-41076000D01*
X38500000Y-32386719D01*
X38519685Y-32319680D01*
X38572489Y-32273925D01*
X38576545Y-32272159D01*
X38583479Y-32269285D01*
X38583485Y-32269284D01*
X38709015Y-32196809D01*
X38811509Y-32094315D01*
X38883984Y-31968785D01*
X38921500Y-31828775D01*
X38921500Y-31683825D01*
X38883984Y-31543815D01*
X38811509Y-31418285D01*
X38709015Y-31315791D01*
X38709013Y-31315790D01*
X38709011Y-31315788D01*
X38583484Y-31243315D01*
X38576548Y-31240442D01*
X38522144Y-31196602D01*
X38500079Y-31130308D01*
X38500000Y-31125881D01*
X38500000Y-30124000D01*
X38519685Y-30056961D01*
X38572489Y-30011206D01*
X38624000Y-30000000D01*
X49376000Y-30000000D01*
X49443039Y-30019685D01*
G37*
G04 #@! TD.AperFunction*
M02*
