G04 #@! TF.GenerationSoftware,KiCad,Pcbnew,10.0.5*
G04 #@! TF.CreationDate,2026-09-10T21:17:34-05:00*
G04 #@! TF.ProjectId,pnb-1,706e622d-312e-46b6-9963-61645f706362,rev?*
G04 #@! TF.SameCoordinates,Original*
G04 #@! TF.FileFunction,Soldermask,Top*
G04 #@! TF.FilePolarity,Negative*
%FSLAX46Y46*%
G04 Gerber Fmt 4.6, Leading zero omitted, Abs format (unit mm)*
G04 Created by KiCad (PCBNEW 10.0.5) date 2026-09-10 21:17:34*
%MOMM*%
%LPD*%
G01*
G04 APERTURE LIST*
%ADD10R,0.864000X0.806000*%
%ADD11R,1.700000X1.700000*%
%ADD12C,1.700000*%
%ADD13R,0.900000X0.800000*%
%ADD14R,0.806000X0.864000*%
%ADD15R,1.230000X1.860000*%
%ADD16C,2.700000*%
%ADD17R,0.800000X0.900000*%
%ADD18R,0.800000X0.800000*%
%ADD19R,0.400000X0.800000*%
%ADD20R,0.800000X0.400000*%
%ADD21R,1.200000X1.200000*%
%ADD22R,1.410000X1.350000*%
%ADD23R,1.350000X1.410000*%
%ADD24C,0.250000*%
%ADD25R,1.500000X0.800000*%
%ADD26R,0.800000X1.500000*%
%ADD27R,0.800000X1.440000*%
%ADD28R,1.440000X0.800000*%
%ADD29R,2.500000X1.100000*%
%ADD30R,2.340000X3.600000*%
%ADD31R,1.500000X1.359000*%
%ADD32R,0.505000X0.280000*%
%ADD33R,1.500000X1.200000*%
%ADD34R,0.532000X1.072000*%
%ADD35C,0.600000*%
%ADD36O,1.200000X2.000000*%
%ADD37O,1.200000X1.800000*%
%ADD38R,0.300000X1.300000*%
G04 APERTURE END LIST*
D10*
X39000000Y-34750000D03*
X39000000Y-33250000D03*
D11*
X7650000Y-38770000D03*
D12*
X7650000Y-36230000D03*
X10190000Y-38770000D03*
X10190000Y-36230000D03*
X12730000Y-38770000D03*
X12730000Y-36230000D03*
X15270000Y-38770000D03*
X15270000Y-36230000D03*
X17810000Y-38770000D03*
X17810000Y-36230000D03*
X20350000Y-38770000D03*
X20350000Y-36230000D03*
D13*
X10750000Y-17500000D03*
X10750000Y-18900000D03*
X30500000Y-9700000D03*
X30500000Y-8300000D03*
D14*
X19250000Y-32000000D03*
X20750000Y-32000000D03*
D15*
X20820000Y-23500000D03*
X25180000Y-23500000D03*
D10*
X31000000Y-12750000D03*
X31000000Y-11250000D03*
D16*
X3000000Y-3000000D03*
D17*
X52300000Y-35500000D03*
X53700000Y-35500000D03*
D10*
X28000000Y-13750000D03*
X28000000Y-12250000D03*
D16*
X55000000Y-39000000D03*
D10*
X25000000Y-13750000D03*
X25000000Y-12250000D03*
D16*
X49000000Y-3000000D03*
D18*
X24750000Y-32000000D03*
X23250000Y-32000000D03*
D13*
X31000000Y-21700000D03*
X31000000Y-20300000D03*
D19*
X51450000Y-8020000D03*
X50600000Y-8020000D03*
X49750000Y-8020000D03*
X48900000Y-8020000D03*
X48050000Y-8020000D03*
X47200000Y-8020000D03*
X46350000Y-8020000D03*
X45500000Y-8020000D03*
X44650000Y-8020000D03*
X43800000Y-8020000D03*
X42950000Y-8020000D03*
X42100000Y-8020000D03*
X41250000Y-8020000D03*
X40400000Y-8020000D03*
X39550000Y-8020000D03*
D20*
X38470000Y-9050000D03*
X38470000Y-9900000D03*
X38470000Y-10750000D03*
X38470000Y-11600000D03*
X38470000Y-12450000D03*
X38470000Y-13300000D03*
X38470000Y-14150000D03*
X38470000Y-15000000D03*
X38470000Y-15850000D03*
X38470000Y-16700000D03*
X38470000Y-17550000D03*
X38470000Y-18400000D03*
X38470000Y-19250000D03*
X38470000Y-20100000D03*
X38470000Y-20950000D03*
D19*
X39550000Y-21980000D03*
X40400000Y-21980000D03*
X41250000Y-21980000D03*
X42100000Y-21980000D03*
X42950000Y-21980000D03*
X43800000Y-21980000D03*
X44650000Y-21980000D03*
X45500000Y-21980000D03*
X46350000Y-21980000D03*
X47200000Y-21980000D03*
X48050000Y-21980000D03*
X48900000Y-21980000D03*
X49750000Y-21980000D03*
X50600000Y-21980000D03*
X51450000Y-21980000D03*
D20*
X52530000Y-20950000D03*
X52530000Y-20100000D03*
X52530000Y-19250000D03*
X52530000Y-18400000D03*
X52530000Y-17550000D03*
X52530000Y-16700000D03*
X52530000Y-15850000D03*
X52530000Y-15000000D03*
X52530000Y-14150000D03*
X52530000Y-13300000D03*
X52530000Y-12450000D03*
X52530000Y-11600000D03*
X52530000Y-10750000D03*
X52530000Y-9900000D03*
X52530000Y-9050000D03*
D18*
X52500000Y-8000000D03*
X38500000Y-8000000D03*
D21*
X47150000Y-13350000D03*
X45500000Y-13350000D03*
X43850000Y-13350000D03*
X47150000Y-15000000D03*
X45500000Y-15000000D03*
X43850000Y-15000000D03*
X47150000Y-16650000D03*
X45500000Y-16650000D03*
X43850000Y-16650000D03*
D18*
X52500000Y-22000000D03*
X38500000Y-22000000D03*
D10*
X31000000Y-19250000D03*
X31000000Y-17750000D03*
D22*
X54000000Y-31000000D03*
X56000000Y-31000000D03*
D18*
X24750000Y-29000000D03*
X23250000Y-29000000D03*
D23*
X45000000Y-5500000D03*
X45000000Y-3500000D03*
D17*
X24500000Y-5000000D03*
X23100000Y-5000000D03*
D24*
X14940000Y-14940000D03*
D25*
X8000000Y-9500000D03*
X8000000Y-10750000D03*
X8000000Y-12000000D03*
X8000000Y-13250000D03*
X8000000Y-14500000D03*
D26*
X9500000Y-16000000D03*
X10750000Y-16000000D03*
X12000000Y-16000000D03*
X13250000Y-16000000D03*
D27*
X14500000Y-16000000D03*
D28*
X16000000Y-14500000D03*
D25*
X16000000Y-13250000D03*
X16000000Y-12000000D03*
X16000000Y-10750000D03*
X16000000Y-9500000D03*
D26*
X14500000Y-8000000D03*
X13250000Y-8000000D03*
X12000000Y-8000000D03*
X10750000Y-8000000D03*
X9500000Y-8000000D03*
D10*
X30500000Y-5750000D03*
X30500000Y-4250000D03*
D17*
X52300000Y-33200000D03*
X53700000Y-33200000D03*
D29*
X50970000Y-37800000D03*
X50970000Y-35500000D03*
X50970000Y-33200000D03*
D30*
X45030000Y-35500000D03*
D16*
X3000000Y-39000000D03*
D23*
X4500000Y-8000000D03*
X4500000Y-6000000D03*
D14*
X19250000Y-29000000D03*
X20750000Y-29000000D03*
D15*
X27820000Y-23500000D03*
X32180000Y-23500000D03*
D10*
X27000000Y-34750000D03*
X27000000Y-33250000D03*
D31*
X40300000Y-39500000D03*
X42700000Y-39500000D03*
D10*
X29000000Y-26750000D03*
X29000000Y-25250000D03*
D32*
X25570000Y-5000000D03*
X25570000Y-5500000D03*
X25570000Y-6000000D03*
X28430000Y-6000000D03*
X28430000Y-5500000D03*
X28430000Y-5000000D03*
D33*
X27000000Y-5500000D03*
D34*
X34050000Y-30150000D03*
X35000000Y-30150000D03*
X35950000Y-30150000D03*
X35950000Y-27850000D03*
X35000000Y-27850000D03*
X34050000Y-27850000D03*
D13*
X49750000Y-6600000D03*
X49750000Y-5200000D03*
D11*
X3000000Y-27810000D03*
D12*
X3000000Y-25270000D03*
X3000000Y-22730000D03*
X3000000Y-20190000D03*
D35*
X30100000Y-36690000D03*
X35900000Y-36690000D03*
D36*
X37330000Y-36190000D03*
D37*
X37330000Y-40370000D03*
X28670000Y-40370000D03*
D36*
X28670000Y-36190000D03*
G36*
X30135278Y-34744557D02*
G01*
X30149923Y-34779912D01*
X30149923Y-36079935D01*
X30135278Y-36115290D01*
X30099923Y-36129935D01*
X29800318Y-36129935D01*
X29799949Y-36130088D01*
X29499950Y-36130088D01*
X29464595Y-36115443D01*
X29449950Y-36080088D01*
X29449950Y-34780065D01*
X29464595Y-34744710D01*
X29499950Y-34730065D01*
X29799555Y-34730065D01*
X29799924Y-34729912D01*
X30099923Y-34729912D01*
X30135278Y-34744557D01*
G37*
G36*
X30935431Y-34744710D02*
G01*
X30950076Y-34780065D01*
X30950076Y-36080037D01*
X30935431Y-36115392D01*
X30900076Y-36130037D01*
X30600187Y-36130037D01*
X30600127Y-36130062D01*
X30300102Y-36130062D01*
X30264747Y-36115417D01*
X30250102Y-36080062D01*
X30250102Y-34780090D01*
X30264747Y-34744735D01*
X30300102Y-34730090D01*
X30599991Y-34730090D01*
X30600051Y-34730065D01*
X30900076Y-34730065D01*
X30935431Y-34744710D01*
G37*
D38*
X31750000Y-35430000D03*
X32750000Y-35430000D03*
X33250000Y-35430000D03*
X34250000Y-35430000D03*
G36*
X36535227Y-34744557D02*
G01*
X36549872Y-34779912D01*
X36549872Y-36079884D01*
X36535227Y-36115239D01*
X36499872Y-36129884D01*
X35899848Y-36129884D01*
X35864493Y-36115239D01*
X35849848Y-36079884D01*
X35849848Y-34779912D01*
X35864493Y-34744557D01*
X35899848Y-34729912D01*
X36499872Y-34729912D01*
X36535227Y-34744557D01*
G37*
G36*
X35735227Y-34744557D02*
G01*
X35749872Y-34779912D01*
X35749872Y-36079884D01*
X35735227Y-36115239D01*
X35699872Y-36129884D01*
X35099848Y-36129884D01*
X35064493Y-36115239D01*
X35049848Y-36079884D01*
X35049848Y-34779912D01*
X35064493Y-34744557D01*
X35099848Y-34729912D01*
X35699872Y-34729912D01*
X35735227Y-34744557D01*
G37*
X34750000Y-35430000D03*
X33750000Y-35430000D03*
X32250000Y-35430000D03*
X31250000Y-35430000D03*
M02*
