M48
; DRILL file KiCad 10.0.5 date 2026-09-10T20:41:07
; FORMAT={-:-/ absolute / metric / decimal}
; #@! TF.CreationDate,2026-09-10T20:41:07-05:00
; #@! TF.GenerationSoftware,Kicad,Pcbnew,10.0.5
; #@! TF.FileFunction,Plated,1,2,PTH
FMAT,2
METRIC
; #@! TA.AperFunction,Plated,PTH,ViaDrill
T1C0.300
; #@! TA.AperFunction,Plated,PTH,ComponentDrill
T2C0.800
; #@! TA.AperFunction,Plated,PTH,ComponentDrill
T3C1.100
%
G90
G05
T1
X1.15Y-7.15
X1.15Y-13.15
X1.15Y-16.15
X1.15Y-19.15
X1.15Y-22.15
X2.0Y-10.0
X4.15Y-10.15
X4.15Y-13.15
X4.15Y-16.15
X6.6Y-7.3
X7.15Y-1.15
X7.15Y-4.15
X7.15Y-19.15
X10.15Y-1.15
X10.15Y-4.15
X13.15Y-1.15
X13.15Y-4.15
X15.436Y-15.926
X16.15Y-1.15
X16.15Y-4.15
X19.15Y-1.15
X19.15Y-4.15
X19.25Y-31.029
X22.15Y-1.15
X25.15Y-1.15
X27.121Y-4.347
X28.045Y-25.289
X28.15Y-1.15
X29.527Y-9.7
X29.534Y-4.982
X30.6Y-34.197
X31.0Y-8.6
X31.15Y-1.15
X32.25Y-37.2
X32.8Y-33.5
X33.4Y-26.0
X33.6Y-34.1
X33.75Y-36.5
X33.85Y-20.0
X33.908Y-21.017
X34.15Y-1.15
X34.285Y-31.19
X35.0Y-33.2
X35.2Y-16.85
X35.2Y-32.5
X35.315Y-28.918
X36.25Y-15.0
X36.919Y-16.656
X37.15Y-1.15
X37.423Y-6.936
X38.371Y-31.756
X39.38Y-20.161
X39.473Y-10.614
X40.15Y-1.15
X40.173Y-4.981
X40.201Y-8.935
X40.387Y-7.104
X41.217Y-8.929
X41.737Y-21.077
X42.345Y-8.935
X42.5Y-32.4
X43.1Y-34.2
X43.15Y-1.15
X43.15Y-25.15
X43.15Y-28.15
X43.735Y-7.108
X43.85Y-13.35
X43.85Y-15.0
X43.85Y-16.65
X44.217Y-8.928
X45.0Y-32.7
X45.176Y-8.935
X45.5Y-13.35
X45.5Y-15.0
X45.5Y-16.65
X46.15Y-1.15
X46.15Y-25.15
X46.15Y-28.15
X46.9Y-34.2
X46.9Y-36.8
X47.15Y-13.35
X47.15Y-15.0
X47.15Y-16.65
X47.2Y-21.034
X49.15Y-25.15
X49.15Y-28.15
X52.15Y-1.15
X52.15Y-4.15
X52.15Y-31.15
X52.15Y-40.15
T3
X3.0Y-20.19
X3.0Y-22.73
X3.0Y-25.27
X3.0Y-27.81
X7.65Y-36.23
X7.65Y-38.77
X10.19Y-36.23
X10.19Y-38.77
X12.73Y-36.23
X12.73Y-38.77
X15.27Y-36.23
X15.27Y-38.77
X17.81Y-36.23
X17.81Y-38.77
X20.35Y-36.23
X20.35Y-38.77
T2
G00X28.67Y-35.84
M15
G01X28.67Y-36.54
M16
G05
G00X28.67Y-40.17
M15
G01X28.67Y-40.57
M16
G05
G00X37.33Y-35.84
M15
G01X37.33Y-36.54
M16
G05
G00X37.33Y-40.17
M15
G01X37.33Y-40.57
M16
G05
M30
