M48
; DRILL file KiCad 10.0.5 date 2026-09-10T18:25:08
; FORMAT={-:-/ absolute / metric / decimal}
; #@! TF.CreationDate,2026-09-10T18:25:08-05:00
; #@! TF.GenerationSoftware,Kicad,Pcbnew,10.0.5
; #@! TF.FileFunction,Plated,1,2,PTH
FMAT,2
METRIC
; #@! TA.AperFunction,Plated,PTH,ViaDrill
T1C0.300
; #@! TA.AperFunction,Plated,PTH,ComponentDrill
T2C0.800
; #@! TA.AperFunction,Plated,PTH,ComponentDrill
T3C1.100
%
G90
G05
T1
X1.15Y-7.15
X1.15Y-10.15
X1.15Y-13.15
X1.15Y-16.15
X1.15Y-28.15
X1.15Y-31.15
X1.15Y-34.15
X4.15Y-7.15
X4.15Y-10.15
X4.15Y-13.15
X4.15Y-16.15
X4.15Y-31.15
X7.15Y-1.15
X7.15Y-4.15
X7.15Y-19.15
X7.635Y-32.253
X9.394Y-34.19
X10.05Y-31.5
X10.15Y-1.15
X10.75Y-5.6
X10.75Y-17.3
X11.316Y-33.718
X12.383Y-36.607
X13.15Y-1.15
X16.146Y-32.556
X16.15Y-1.15
X19.15Y-1.15
X19.15Y-7.15
X19.15Y-10.15
X22.0Y-32.4
X22.15Y-1.15
X22.15Y-7.15
X22.15Y-10.15
X22.6Y-34.2
X23.024Y-17.077
X24.5Y-32.7
X24.5Y-38.3
X25.15Y-1.15
X26.4Y-34.2
X26.4Y-36.8
X27.545Y-40.638
X28.047Y-7.841
X28.15Y-1.15
X28.562Y-10.382
X28.716Y-6.651
X29.212Y-4.64
X29.25Y-31.026
X30.312Y-26.884
X31.15Y-1.15
X31.15Y-40.15
X32.072Y-25.758
X32.593Y-32.965
X34.15Y-1.15
X34.15Y-10.15
X34.15Y-40.15
X35.812Y-21.433
X36.831Y-24.783
X37.15Y-1.15
X37.56Y-20.265
X38.584Y-7.096
X39.408Y-15.58
X40.043Y-19.466
X40.108Y-14.689
X40.136Y-20.46
X40.15Y-1.15
X40.15Y-31.15
X40.15Y-34.15
X40.346Y-6.458
X40.569Y-18.261
X40.769Y-12.559
X42.102Y-8.923
X42.95Y-7.09
X43.15Y-1.15
X43.15Y-4.15
X43.85Y-13.35
X43.85Y-15.0
X43.85Y-16.65
X43.859Y-8.935
X44.009Y-34.208
X45.5Y-13.35
X45.5Y-15.0
X45.5Y-16.65
X45.546Y-7.11
X45.901Y-8.998
X46.15Y-1.15
X47.15Y-13.35
X47.15Y-15.0
X47.15Y-16.65
X48.32Y-8.949
X49.15Y-1.15
X52.15Y-1.15
X52.15Y-4.15
X52.15Y-25.15
X52.15Y-28.15
X52.15Y-31.15
X52.15Y-34.15
X52.15Y-37.15
X52.15Y-40.15
T3
X3.0Y-20.19
X3.0Y-22.73
X3.0Y-25.27
X3.0Y-27.81
X37.65Y-36.23
X37.65Y-38.77
X40.19Y-36.23
X40.19Y-38.77
X42.73Y-36.23
X42.73Y-38.77
X45.27Y-36.23
X45.27Y-38.77
X47.81Y-36.23
X47.81Y-38.77
X50.35Y-36.23
X50.35Y-38.77
T2
G00X6.67Y-35.84
M15
G01X6.67Y-36.54
M16
G05
G00X6.67Y-40.17
M15
G01X6.67Y-40.57
M16
G05
G00X15.33Y-35.84
M15
G01X15.33Y-36.54
M16
G05
G00X15.33Y-40.17
M15
G01X15.33Y-40.57
M16
G05
M30
