G04 #@! TF.GenerationSoftware,KiCad,Pcbnew,10.0.5*
G04 #@! TF.CreationDate,2026-09-10T20:02:41-05:00*
G04 #@! TF.ProjectId,pnb-1,706e622d-312e-46b6-9963-61645f706362,rev?*
G04 #@! TF.SameCoordinates,Original*
G04 #@! TF.FileFunction,Copper,L1,Top*
G04 #@! TF.FilePolarity,Positive*
%FSLAX46Y46*%
G04 Gerber Fmt 4.6, Leading zero omitted, Abs format (unit mm)*
G04 Created by KiCad (PCBNEW 10.0.5) date 2026-09-10 20:02:41*
%MOMM*%
%LPD*%
G01*
G04 APERTURE LIST*
G04 #@! TA.AperFunction,SMDPad,CuDef*
%ADD10R,0.400000X0.800000*%
G04 #@! TD*
G04 #@! TA.AperFunction,SMDPad,CuDef*
%ADD11R,0.800000X0.400000*%
G04 #@! TD*
G04 #@! TA.AperFunction,SMDPad,CuDef*
%ADD12R,0.800000X0.800000*%
G04 #@! TD*
G04 #@! TA.AperFunction,SMDPad,CuDef*
%ADD13R,1.200000X1.200000*%
G04 #@! TD*
G04 #@! TA.AperFunction,SMDPad,CuDef*
%ADD14R,1.410000X1.350000*%
G04 #@! TD*
G04 #@! TA.AperFunction,SMDPad,CuDef*
%ADD15R,0.800000X0.900000*%
G04 #@! TD*
G04 #@! TA.AperFunction,SMDPad,CuDef*
%ADD16R,0.505000X0.280000*%
G04 #@! TD*
G04 #@! TA.AperFunction,SMDPad,CuDef*
%ADD17R,1.500000X1.200000*%
G04 #@! TD*
G04 #@! TA.AperFunction,ComponentPad*
%ADD18O,1.200000X2.000000*%
G04 #@! TD*
G04 #@! TA.AperFunction,ComponentPad*
%ADD19O,1.200000X1.800000*%
G04 #@! TD*
G04 #@! TA.AperFunction,SMDPad,CuDef*
%ADD20R,0.300000X1.300000*%
G04 #@! TD*
G04 #@! TA.AperFunction,SMDPad,CuDef*
%ADD21R,1.230000X1.860000*%
G04 #@! TD*
G04 #@! TA.AperFunction,SMDPad,CuDef*
%ADD22R,0.806000X0.864000*%
G04 #@! TD*
G04 #@! TA.AperFunction,SMDPad,CuDef*
%ADD23R,1.350000X1.410000*%
G04 #@! TD*
G04 #@! TA.AperFunction,SMDPad,CuDef*
%ADD24R,0.864000X0.806000*%
G04 #@! TD*
G04 #@! TA.AperFunction,ComponentPad*
%ADD25R,1.700000X1.700000*%
G04 #@! TD*
G04 #@! TA.AperFunction,ComponentPad*
%ADD26C,1.700000*%
G04 #@! TD*
G04 #@! TA.AperFunction,SMDPad,CuDef*
%ADD27R,0.900000X0.800000*%
G04 #@! TD*
G04 #@! TA.AperFunction,SMDPad,CuDef*
%ADD28R,2.500000X1.100000*%
G04 #@! TD*
G04 #@! TA.AperFunction,SMDPad,CuDef*
%ADD29R,2.340000X3.600000*%
G04 #@! TD*
G04 #@! TA.AperFunction,SMDPad,CuDef*
%ADD30R,0.532000X1.072000*%
G04 #@! TD*
G04 #@! TA.AperFunction,SMDPad,CuDef*
%ADD31R,1.500000X1.359000*%
G04 #@! TD*
G04 #@! TA.AperFunction,SMDPad,CuDef*
%ADD32R,1.500000X0.800000*%
G04 #@! TD*
G04 #@! TA.AperFunction,SMDPad,CuDef*
%ADD33R,0.800000X1.500000*%
G04 #@! TD*
G04 #@! TA.AperFunction,SMDPad,CuDef*
%ADD34R,4.800000X4.800000*%
G04 #@! TD*
G04 #@! TA.AperFunction,ViaPad*
%ADD35C,0.600000*%
G04 #@! TD*
G04 #@! TA.AperFunction,ViaPad*
%ADD36C,0.500000*%
G04 #@! TD*
G04 #@! TA.AperFunction,Conductor*
%ADD37C,0.250000*%
G04 #@! TD*
G04 #@! TA.AperFunction,Conductor*
%ADD38C,0.500000*%
G04 #@! TD*
G04 #@! TA.AperFunction,Conductor*
%ADD39C,0.400000*%
G04 #@! TD*
G04 #@! TA.AperFunction,Conductor*
%ADD40C,0.300000*%
G04 #@! TD*
G04 #@! TA.AperFunction,Conductor*
%ADD41C,0.200000*%
G04 #@! TD*
G04 #@! TA.AperFunction,Conductor*
%ADD42C,0.150000*%
G04 #@! TD*
G04 APERTURE END LIST*
D10*
X51450000Y-8020000D03*
X50600000Y-8020000D03*
X49750000Y-8020000D03*
X48900000Y-8020000D03*
X48050000Y-8020000D03*
X47200000Y-8020000D03*
X46350000Y-8020000D03*
X45500000Y-8020000D03*
X44650000Y-8020000D03*
X43800000Y-8020000D03*
X42950000Y-8020000D03*
X42100000Y-8020000D03*
X41250000Y-8020000D03*
X40400000Y-8020000D03*
X39550000Y-8020000D03*
D11*
X38470000Y-9050000D03*
X38470000Y-9900000D03*
X38470000Y-10750000D03*
X38470000Y-11600000D03*
X38470000Y-12450000D03*
X38470000Y-13300000D03*
X38470000Y-14150000D03*
X38470000Y-15000000D03*
X38470000Y-15850000D03*
X38470000Y-16700000D03*
X38470000Y-17550000D03*
X38470000Y-18400000D03*
X38470000Y-19250000D03*
X38470000Y-20100000D03*
X38470000Y-20950000D03*
D10*
X39550000Y-21980000D03*
X40400000Y-21980000D03*
X41250000Y-21980000D03*
X42100000Y-21980000D03*
X42950000Y-21980000D03*
X43800000Y-21980000D03*
X44650000Y-21980000D03*
X45500000Y-21980000D03*
X46350000Y-21980000D03*
X47200000Y-21980000D03*
X48050000Y-21980000D03*
X48900000Y-21980000D03*
X49750000Y-21980000D03*
X50600000Y-21980000D03*
X51450000Y-21980000D03*
D11*
X52530000Y-20950000D03*
X52530000Y-20100000D03*
X52530000Y-19250000D03*
X52530000Y-18400000D03*
X52530000Y-17550000D03*
X52530000Y-16700000D03*
X52530000Y-15850000D03*
X52530000Y-15000000D03*
X52530000Y-14150000D03*
X52530000Y-13300000D03*
X52530000Y-12450000D03*
X52530000Y-11600000D03*
X52530000Y-10750000D03*
X52530000Y-9900000D03*
X52530000Y-9050000D03*
D12*
X52500000Y-8000000D03*
X38500000Y-8000000D03*
D13*
X47150000Y-13350000D03*
X45500000Y-13350000D03*
X43850000Y-13350000D03*
X47150000Y-15000000D03*
X45500000Y-15000000D03*
X43850000Y-15000000D03*
X47150000Y-16650000D03*
X45500000Y-16650000D03*
X43850000Y-16650000D03*
D12*
X52500000Y-22000000D03*
X38500000Y-22000000D03*
D14*
X54000000Y-31000000D03*
X56000000Y-31000000D03*
D12*
X24750000Y-32000000D03*
X23250000Y-32000000D03*
X24750000Y-29000000D03*
X23250000Y-29000000D03*
D15*
X52300000Y-35500000D03*
X53700000Y-35500000D03*
X24500000Y-5000000D03*
X23100000Y-5000000D03*
D16*
X25570000Y-5000000D03*
X25570000Y-5500000D03*
X25570000Y-6000000D03*
X28430000Y-6000000D03*
X28430000Y-5500000D03*
X28430000Y-5000000D03*
D17*
X27000000Y-5500000D03*
D18*
X37330000Y-36190000D03*
D19*
X37330000Y-40370000D03*
X28670000Y-40370000D03*
D18*
X28670000Y-36190000D03*
G04 #@! TA.AperFunction,SMDPad,CuDef*
G36*
X30135278Y-34744557D02*
G01*
X30149923Y-34779912D01*
X30149923Y-36079935D01*
X30135278Y-36115290D01*
X30099923Y-36129935D01*
X29800318Y-36129935D01*
X29799949Y-36130088D01*
X29499950Y-36130088D01*
X29464595Y-36115443D01*
X29449950Y-36080088D01*
X29449950Y-34780065D01*
X29464595Y-34744710D01*
X29499950Y-34730065D01*
X29799555Y-34730065D01*
X29799924Y-34729912D01*
X30099923Y-34729912D01*
X30135278Y-34744557D01*
G37*
G04 #@! TD.AperFunction*
G04 #@! TA.AperFunction,SMDPad,CuDef*
G36*
X30935431Y-34744710D02*
G01*
X30950076Y-34780065D01*
X30950076Y-36080037D01*
X30935431Y-36115392D01*
X30900076Y-36130037D01*
X30600187Y-36130037D01*
X30600127Y-36130062D01*
X30300102Y-36130062D01*
X30264747Y-36115417D01*
X30250102Y-36080062D01*
X30250102Y-34780090D01*
X30264747Y-34744735D01*
X30300102Y-34730090D01*
X30599991Y-34730090D01*
X30600051Y-34730065D01*
X30900076Y-34730065D01*
X30935431Y-34744710D01*
G37*
G04 #@! TD.AperFunction*
D20*
X31750000Y-35430000D03*
X32750000Y-35430000D03*
X33250000Y-35430000D03*
X34250000Y-35430000D03*
G04 #@! TA.AperFunction,SMDPad,CuDef*
G36*
X36535227Y-34744557D02*
G01*
X36549872Y-34779912D01*
X36549872Y-36079884D01*
X36535227Y-36115239D01*
X36499872Y-36129884D01*
X35899848Y-36129884D01*
X35864493Y-36115239D01*
X35849848Y-36079884D01*
X35849848Y-34779912D01*
X35864493Y-34744557D01*
X35899848Y-34729912D01*
X36499872Y-34729912D01*
X36535227Y-34744557D01*
G37*
G04 #@! TD.AperFunction*
G04 #@! TA.AperFunction,SMDPad,CuDef*
G36*
X35735227Y-34744557D02*
G01*
X35749872Y-34779912D01*
X35749872Y-36079884D01*
X35735227Y-36115239D01*
X35699872Y-36129884D01*
X35099848Y-36129884D01*
X35064493Y-36115239D01*
X35049848Y-36079884D01*
X35049848Y-34779912D01*
X35064493Y-34744557D01*
X35099848Y-34729912D01*
X35699872Y-34729912D01*
X35735227Y-34744557D01*
G37*
G04 #@! TD.AperFunction*
X34750000Y-35430000D03*
X33750000Y-35430000D03*
X32250000Y-35430000D03*
X31250000Y-35430000D03*
D21*
X27820000Y-23500000D03*
X32180000Y-23500000D03*
D22*
X19250000Y-32000000D03*
X20750000Y-32000000D03*
D23*
X45000000Y-5500000D03*
X45000000Y-3500000D03*
D24*
X31000000Y-19250000D03*
X31000000Y-17750000D03*
D22*
X19250000Y-29000000D03*
X20750000Y-29000000D03*
D25*
X3000000Y-27810000D03*
D26*
X3000000Y-25270000D03*
X3000000Y-22730000D03*
X3000000Y-20190000D03*
D23*
X4500000Y-8000000D03*
X4500000Y-6000000D03*
D25*
X7650000Y-38770000D03*
D26*
X7650000Y-36230000D03*
X10190000Y-38770000D03*
X10190000Y-36230000D03*
X12730000Y-38770000D03*
X12730000Y-36230000D03*
X15270000Y-38770000D03*
X15270000Y-36230000D03*
X17810000Y-38770000D03*
X17810000Y-36230000D03*
X20350000Y-38770000D03*
X20350000Y-36230000D03*
D27*
X30500000Y-9700000D03*
X30500000Y-8300000D03*
D24*
X25000000Y-13750000D03*
X25000000Y-12250000D03*
D27*
X10750000Y-17500000D03*
X10750000Y-18900000D03*
D24*
X28000000Y-13750000D03*
X28000000Y-12250000D03*
X29000000Y-26750000D03*
X29000000Y-25250000D03*
D28*
X50970000Y-37800000D03*
X50970000Y-35500000D03*
X50970000Y-33200000D03*
D29*
X45030000Y-35500000D03*
D30*
X34050000Y-30150000D03*
X35000000Y-30150000D03*
X35950000Y-30150000D03*
X35950000Y-27850000D03*
X35000000Y-27850000D03*
X34050000Y-27850000D03*
D24*
X27000000Y-34750000D03*
X27000000Y-33250000D03*
D27*
X49750000Y-6600000D03*
X49750000Y-5200000D03*
D24*
X39000000Y-34750000D03*
X39000000Y-33250000D03*
D31*
X40300000Y-39500000D03*
X42700000Y-39500000D03*
D32*
X8000000Y-9500000D03*
X8000000Y-10750000D03*
X8000000Y-12000000D03*
X8000000Y-13250000D03*
X8000000Y-14500000D03*
D33*
X9500000Y-16000000D03*
X10750000Y-16000000D03*
X12000000Y-16000000D03*
X13250000Y-16000000D03*
X14500000Y-16000000D03*
D32*
X16000000Y-14500000D03*
X16000000Y-13250000D03*
X16000000Y-12000000D03*
X16000000Y-10750000D03*
X16000000Y-9500000D03*
D33*
X14500000Y-8000000D03*
X13250000Y-8000000D03*
X12000000Y-8000000D03*
X10750000Y-8000000D03*
X9500000Y-8000000D03*
D34*
X12000000Y-12000000D03*
D24*
X30500000Y-5750000D03*
X30500000Y-4250000D03*
D15*
X52300000Y-33200000D03*
X53700000Y-33200000D03*
D27*
X31000000Y-21700000D03*
X31000000Y-20300000D03*
D24*
X31000000Y-12750000D03*
X31000000Y-11250000D03*
D21*
X20820000Y-23500000D03*
X25180000Y-23500000D03*
D35*
X43150000Y-25150000D03*
X31000000Y-8600000D03*
X28150000Y-1150000D03*
X19150000Y-1150000D03*
X1150000Y-7150000D03*
X52150000Y-1150000D03*
X47150000Y-16649999D03*
X46150000Y-25150000D03*
X10150000Y-4150000D03*
X8191100Y-5803500D03*
X13150000Y-1150000D03*
X4150000Y-10150000D03*
X49150000Y-25150000D03*
X47150000Y-15000000D03*
X46150000Y-1150000D03*
X40150000Y-1150000D03*
X25150000Y-1150000D03*
X7150000Y-1150000D03*
X7150000Y-4150000D03*
X43850000Y-15000000D03*
X52150000Y-4150000D03*
X37423000Y-6936000D03*
X49150000Y-28150000D03*
X45500000Y-16649999D03*
X40173400Y-4980600D03*
X43850000Y-13350000D03*
X1150000Y-22150000D03*
X31150000Y-1150000D03*
X43850000Y-16649999D03*
X46150000Y-28150000D03*
X37150000Y-1150000D03*
X1150000Y-10150000D03*
X34150000Y-1150000D03*
X12000000Y-12000000D03*
X43150000Y-1150000D03*
X10150000Y-1150000D03*
X45500000Y-15000000D03*
X1150000Y-16149999D03*
X45500000Y-13350000D03*
X47150000Y-13350000D03*
X52150000Y-40150000D03*
X43150000Y-28150000D03*
X16149999Y-1150000D03*
X1150000Y-19150000D03*
X22150000Y-1150000D03*
X34285500Y-31190000D03*
X1150000Y-13150000D03*
X52150000Y-31150000D03*
X46900000Y-36800000D03*
X43100000Y-34200000D03*
X45000000Y-32700000D03*
X42500000Y-32400000D03*
X46900000Y-34200000D03*
X28044700Y-25288900D03*
X39473200Y-10614400D03*
X45176400Y-8935500D03*
X44216900Y-8928100D03*
X15436100Y-15925800D03*
X27121000Y-4347400D03*
X43735400Y-7108200D03*
X40386600Y-7104300D03*
X42344800Y-8935500D03*
X41217100Y-8928900D03*
X40201400Y-8935500D03*
D36*
X33600000Y-34100000D03*
X35000000Y-33200000D03*
X35200000Y-32500000D03*
X35200000Y-16850000D03*
X32250000Y-37200000D03*
X36250000Y-15000000D03*
X33750000Y-36500000D03*
X32799999Y-33500000D03*
X33400000Y-26000000D03*
X33850000Y-20000000D03*
D35*
X19250000Y-31028700D03*
X36918700Y-16656000D03*
X41736700Y-21076700D03*
X47200000Y-21034100D03*
X39379800Y-20160800D03*
X33907800Y-21017400D03*
X35314800Y-28918200D03*
X38371000Y-31756300D03*
X30600000Y-34197000D03*
X29526600Y-9700000D03*
X29534000Y-4982300D03*
D37*
X8191100Y-5803500D02*
X8517700Y-5476900D01*
X47150000Y-16650000D02*
X51803300Y-16650000D01*
X31238300Y-24531100D02*
X29769400Y-26000000D01*
X3000000Y-20190000D02*
X10186700Y-20190000D01*
X28968600Y-20300000D02*
X31000000Y-20300000D01*
X30500000Y-8300000D02*
X37473300Y-8300000D01*
X29769400Y-27292200D02*
X29769400Y-26000000D01*
X52530000Y-9050000D02*
X52500000Y-9020000D01*
X45000000Y-3500000D02*
X46001700Y-3500000D01*
X52530000Y-10750000D02*
X52530000Y-11600000D01*
X36570000Y-34921300D02*
X38241300Y-33250000D01*
X10190000Y-36230000D02*
X7650000Y-36230000D01*
X52500000Y-22000000D02*
X52500000Y-20950000D01*
X39206700Y-22706700D02*
X38500000Y-22000000D01*
X12000000Y-12000000D02*
X12000000Y-14726700D01*
X45000000Y-3500000D02*
X43998300Y-3500000D01*
X27000000Y-29755700D02*
X27305900Y-29755700D01*
X9500000Y-9076700D02*
X11803400Y-9076700D01*
X22736700Y-5000000D02*
X22373300Y-5000000D01*
X50675800Y-23632500D02*
X49750000Y-22706700D01*
X56000000Y-32001700D02*
X55625000Y-32001700D01*
X47693300Y-39500000D02*
X42700000Y-39500000D01*
X51803300Y-16650000D02*
X51803300Y-16700000D01*
X52530000Y-17550000D02*
X52530000Y-18400000D01*
X23100000Y-5000000D02*
X22736700Y-5000000D01*
X52500000Y-8000000D02*
X51773300Y-8000000D01*
X45500000Y-16650000D02*
X43850000Y-16650000D01*
X52500000Y-22000000D02*
X50867500Y-23632500D01*
X50867500Y-23632500D02*
X50867500Y-24865800D01*
X52500000Y-9020000D02*
X52500000Y-8000000D01*
X9500000Y-8000000D02*
X9500000Y-9076700D01*
X50600000Y-8020000D02*
X50600000Y-7293300D01*
X37330000Y-40370000D02*
X28670000Y-40370000D01*
X50970000Y-37800000D02*
X49393300Y-37800000D01*
X11803400Y-9076700D02*
X12000000Y-9273300D01*
X7994600Y-6000000D02*
X8191100Y-5803500D01*
X52530000Y-15000000D02*
X52530000Y-15850000D01*
X50867500Y-23632500D02*
X50675800Y-23632500D01*
X27000000Y-33250000D02*
X27758700Y-33250000D01*
X52530000Y-16700000D02*
X51803300Y-16700000D01*
X25180000Y-23500000D02*
X26121700Y-23500000D01*
X51803300Y-16650000D02*
X51803300Y-15850000D01*
X52530000Y-9050000D02*
X52530000Y-9900000D01*
X52530000Y-14150000D02*
X52530000Y-15000000D01*
X27000000Y-29755700D02*
X23250000Y-29755700D01*
X47150000Y-15000000D02*
X45500000Y-15000000D01*
X37473300Y-8300000D02*
X37773300Y-8000000D01*
X52530000Y-15850000D02*
X51803300Y-15850000D01*
X47150000Y-13350000D02*
X45500000Y-13350000D01*
X47150000Y-16650000D02*
X45500000Y-16650000D01*
X42700000Y-40506200D02*
X37466200Y-40506200D01*
X49750000Y-5200000D02*
X50600000Y-6050000D01*
X24698800Y-3037900D02*
X39711300Y-3037900D01*
X49750000Y-5200000D02*
X47701700Y-5200000D01*
X45500000Y-15000000D02*
X43850000Y-15000000D01*
X48900000Y-22593300D02*
X48900000Y-22706700D01*
X45500000Y-13350000D02*
X43850000Y-13350000D01*
X52530000Y-11600000D02*
X52530000Y-12450000D01*
X52530000Y-13300000D02*
X52530000Y-14150000D01*
X39000000Y-33250000D02*
X38241300Y-33250000D01*
X10750000Y-18900000D02*
X10750000Y-19626700D01*
X26121700Y-23500000D02*
X26121700Y-23146900D01*
X56000000Y-31000000D02*
X56000000Y-29998300D01*
X53700000Y-33200000D02*
X54426700Y-33200000D01*
X51753300Y-8020000D02*
X51450000Y-8020000D01*
X26149200Y-5500000D02*
X25570000Y-5500000D01*
X50600000Y-7293300D02*
X51450000Y-7293300D01*
X25570000Y-6000000D02*
X26149200Y-6000000D01*
X49750000Y-21980000D02*
X49750000Y-22706700D01*
X42700000Y-39500000D02*
X42700000Y-40506200D01*
X50600000Y-6050000D02*
X50600000Y-7293300D01*
X29800000Y-35430000D02*
X29430000Y-35430000D01*
X38500000Y-8000000D02*
X37773300Y-8000000D01*
X52546700Y-37800000D02*
X52546700Y-36653300D01*
X48900000Y-21980000D02*
X48900000Y-22593300D01*
X23250000Y-29755700D02*
X23250000Y-32000000D01*
X51773300Y-8000000D02*
X51753300Y-8020000D01*
X10186700Y-20190000D02*
X10750000Y-19626700D01*
X39711300Y-3037900D02*
X40173400Y-3500000D01*
X29430000Y-35430000D02*
X29430000Y-34921300D01*
X29769400Y-26000000D02*
X27865700Y-26000000D01*
X35000000Y-30475500D02*
X35000000Y-30150000D01*
X34285500Y-31190000D02*
X35000000Y-30475500D01*
X26149200Y-6000000D02*
X26149200Y-5500000D01*
X9500000Y-16000000D02*
X9500000Y-14923300D01*
X52500000Y-20950000D02*
X52530000Y-20950000D01*
X32180000Y-23500000D02*
X31238300Y-23500000D01*
X12000000Y-14726700D02*
X9696600Y-14726700D01*
X49393300Y-37800000D02*
X47693300Y-39500000D01*
X51803300Y-20100000D02*
X51803300Y-20479800D01*
X52530000Y-20100000D02*
X51803300Y-20100000D01*
X23250000Y-29000000D02*
X23250000Y-29755700D01*
X22373300Y-5476900D02*
X22446400Y-5550000D01*
X22648300Y-5550000D02*
X23098300Y-6000000D01*
X31238300Y-23500000D02*
X31238300Y-24531100D01*
X52273500Y-20950000D02*
X52500000Y-20950000D01*
X52530000Y-19250000D02*
X52530000Y-20100000D01*
X37423000Y-6936000D02*
X37773300Y-7286300D01*
X40173400Y-3500000D02*
X43998300Y-3500000D01*
X27865700Y-26000000D02*
X26121700Y-24256000D01*
X36570000Y-35430000D02*
X37330000Y-36190000D01*
X22373300Y-5000000D02*
X22373300Y-5476900D01*
X51803300Y-20479800D02*
X52273500Y-20950000D01*
X12000000Y-12000000D02*
X12000000Y-9273300D01*
X49750000Y-22706700D02*
X48900000Y-22706700D01*
X51450000Y-8020000D02*
X51450000Y-7293300D01*
X8517700Y-5476900D02*
X22373300Y-5476900D01*
X37773300Y-7286300D02*
X37773300Y-8000000D01*
X36200000Y-35430000D02*
X36570000Y-35430000D01*
X26121700Y-24256000D02*
X26121700Y-23500000D01*
X36570000Y-35430000D02*
X36570000Y-34921300D01*
X27305900Y-29755700D02*
X29769400Y-27292200D01*
X47701700Y-5200000D02*
X46001700Y-3500000D01*
X26121700Y-23146900D02*
X28968600Y-20300000D01*
X56000000Y-31000000D02*
X56000000Y-32001700D01*
X52530000Y-16700000D02*
X52530000Y-17550000D01*
X37466200Y-40506200D02*
X37330000Y-40370000D01*
X40173400Y-3500000D02*
X40173400Y-4980600D01*
X52530000Y-9900000D02*
X52530000Y-10750000D01*
X4500000Y-6000000D02*
X7994600Y-6000000D01*
X27000000Y-33250000D02*
X27000000Y-29755700D01*
X50867500Y-24865800D02*
X56000000Y-29998300D01*
X52546700Y-36653300D02*
X53700000Y-35500000D01*
X29430000Y-34921300D02*
X27758700Y-33250000D01*
X52530000Y-18400000D02*
X52530000Y-19250000D01*
X23098300Y-6000000D02*
X25570000Y-6000000D01*
X29430000Y-35430000D02*
X28670000Y-36190000D01*
X53700000Y-35500000D02*
X53700000Y-33200000D01*
X48900000Y-22706700D02*
X39206700Y-22706700D01*
X50970000Y-37800000D02*
X52546700Y-37800000D01*
X52530000Y-12450000D02*
X52530000Y-13300000D01*
X22446400Y-5550000D02*
X22648300Y-5550000D01*
X27000000Y-5500000D02*
X26149200Y-5500000D01*
X9696600Y-14726700D02*
X9500000Y-14923300D01*
X22736700Y-5000000D02*
X24698800Y-3037900D01*
X55625000Y-32001700D02*
X54426700Y-33200000D01*
X14070600Y-37500000D02*
X14070600Y-33449700D01*
X24228900Y-26750000D02*
X24228900Y-22443700D01*
D38*
X11460000Y-35093300D02*
X4176700Y-27810000D01*
D37*
X19979700Y-28452700D02*
X21682400Y-26750000D01*
D38*
X49750000Y-6600000D02*
X47101700Y-6600000D01*
D37*
X4176700Y-27810000D02*
X11526700Y-20460000D01*
D38*
X27422600Y-19250000D02*
X31000000Y-19250000D01*
D37*
X31000000Y-12020300D02*
X30270300Y-12020300D01*
X46900000Y-36800000D02*
X45206200Y-38493800D01*
D38*
X40300000Y-39500000D02*
X40300000Y-38931900D01*
D37*
X30270300Y-12020300D02*
X29706900Y-11456900D01*
D38*
X45030000Y-35500000D02*
X45030000Y-33373300D01*
D39*
X27293100Y-11456900D02*
X25000000Y-13750000D01*
D38*
X46900000Y-33889900D02*
X46383400Y-33373300D01*
D40*
X5800000Y-17500000D02*
X5800000Y-6500000D01*
D38*
X11460000Y-37500000D02*
X10190000Y-38770000D01*
D37*
X11526700Y-20460000D02*
X11526700Y-18276700D01*
X27817600Y-14479700D02*
X19878300Y-22419000D01*
D40*
X29706900Y-11456900D02*
X28395100Y-11456900D01*
D37*
X28758700Y-13750000D02*
X30729700Y-13750000D01*
X31508700Y-3921000D02*
X31508700Y-5500000D01*
X28000000Y-14479700D02*
X27817600Y-14479700D01*
X31508700Y-5500000D02*
X31631800Y-5623100D01*
D38*
X28000000Y-13750000D02*
X28758700Y-13750000D01*
X28000000Y-13750000D02*
X28000000Y-14479700D01*
X24228900Y-26750000D02*
X29000000Y-26750000D01*
X44876900Y-5623100D02*
X45000000Y-5500000D01*
D40*
X11526700Y-18276700D02*
X10750000Y-17500000D01*
D38*
X10750000Y-16000000D02*
X10750000Y-17500000D01*
X45000000Y-5500000D02*
X46001700Y-5500000D01*
D37*
X31108000Y-3520300D02*
X31508700Y-3921000D01*
D38*
X50970000Y-35500000D02*
X49393300Y-35500000D01*
X46900000Y-34200000D02*
X46900000Y-33889900D01*
D37*
X40300000Y-38931900D02*
X22176100Y-38931900D01*
D38*
X10750000Y-17500000D02*
X5800000Y-17500000D01*
D39*
X11460000Y-37500000D02*
X11460000Y-35093300D01*
D37*
X25570000Y-5000000D02*
X24500000Y-5000000D01*
X31631800Y-5623100D02*
X44876900Y-5623100D01*
D40*
X31508700Y-5500000D02*
X31258700Y-5750000D01*
D39*
X31000000Y-12750000D02*
X31000000Y-13479700D01*
D38*
X19250000Y-29000000D02*
X18520300Y-29000000D01*
X10750000Y-6500000D02*
X10750000Y-8000000D01*
X48093300Y-34200000D02*
X49393300Y-35500000D01*
D39*
X30729700Y-13750000D02*
X31000000Y-13479700D01*
D37*
X24228900Y-22443700D02*
X27422600Y-19250000D01*
D38*
X40300000Y-38931900D02*
X40300000Y-38493800D01*
X3000000Y-27810000D02*
X4176700Y-27810000D01*
D37*
X28395100Y-8388700D02*
X30304100Y-6479700D01*
D38*
X19878300Y-24945900D02*
X21682400Y-26750000D01*
D37*
X20744200Y-37500000D02*
X14070600Y-37500000D01*
D40*
X19250000Y-29000000D02*
X19979700Y-29000000D01*
D37*
X22176100Y-38931900D02*
X20744200Y-37500000D01*
D40*
X30304100Y-6479700D02*
X30500000Y-6479700D01*
D37*
X21682400Y-26750000D02*
X24228900Y-26750000D01*
X45206200Y-38493800D02*
X40300000Y-38493800D01*
X27049700Y-3520300D02*
X31108000Y-3520300D01*
X30500000Y-5750000D02*
X30500000Y-6479700D01*
D38*
X46900000Y-34200000D02*
X48093300Y-34200000D01*
X14070600Y-33449700D02*
X18520300Y-29000000D01*
D37*
X19878300Y-22419000D02*
X19878300Y-24945900D01*
D38*
X4500000Y-8000000D02*
X5800000Y-8000000D01*
D37*
X31000000Y-12750000D02*
X31000000Y-12020300D01*
X5800000Y-6500000D02*
X10750000Y-6500000D01*
D38*
X47101700Y-6600000D02*
X46001700Y-5500000D01*
X49750000Y-6600000D02*
X49750000Y-8020000D01*
D37*
X28395100Y-11456900D02*
X27293100Y-11456900D01*
X25570000Y-5000000D02*
X27049700Y-3520300D01*
X19979700Y-29000000D02*
X19979700Y-28452700D01*
X14070600Y-37500000D02*
X11460000Y-37500000D01*
D40*
X30500000Y-5750000D02*
X31258700Y-5750000D01*
D38*
X46383400Y-33373300D02*
X45030000Y-33373300D01*
D37*
X28395100Y-11456900D02*
X28395100Y-8388700D01*
D38*
X50970000Y-35500000D02*
X52300000Y-35500000D01*
D37*
X21761700Y-23500000D02*
X31779600Y-13482100D01*
X28847700Y-8579600D02*
X28847700Y-9961000D01*
X29725000Y-10838300D02*
X29829600Y-10838300D01*
X31000000Y-11250000D02*
X30241300Y-11250000D01*
X29829600Y-10838300D02*
X30241300Y-11250000D01*
X30422600Y-7004700D02*
X28847700Y-8579600D01*
X44871400Y-7293300D02*
X43795000Y-6216900D01*
X28847700Y-9961000D02*
X29725000Y-10838300D01*
X31779600Y-13482100D02*
X31779600Y-12029600D01*
X48900000Y-8020000D02*
X48900000Y-7293300D01*
X48900000Y-7293300D02*
X44871400Y-7293300D01*
X30692700Y-7004700D02*
X30422600Y-7004700D01*
X31480500Y-6216900D02*
X30692700Y-7004700D01*
X31779600Y-12029600D02*
X31000000Y-11250000D01*
X43795000Y-6216900D02*
X31480500Y-6216900D01*
X20820000Y-23500000D02*
X21761700Y-23500000D01*
X29000000Y-25250000D02*
X28241300Y-25250000D01*
X28202400Y-25288900D02*
X28241300Y-25250000D01*
X48050000Y-8746700D02*
X46182300Y-10614400D01*
X48050000Y-8020000D02*
X48050000Y-8746700D01*
X28044700Y-25288900D02*
X28202400Y-25288900D01*
X46182300Y-10614400D02*
X39473200Y-10614400D01*
X45176400Y-8935500D02*
X45365200Y-8746700D01*
X45500000Y-8020000D02*
X45500000Y-8746700D01*
X45365200Y-8746700D02*
X45500000Y-8746700D01*
X14574200Y-15925800D02*
X14500000Y-16000000D01*
X17226300Y-16000000D02*
X14500000Y-16000000D01*
X44216900Y-8928100D02*
X44650000Y-8495000D01*
X44650000Y-8495000D02*
X44650000Y-8020000D01*
X20246600Y-12979700D02*
X17226300Y-16000000D01*
X25000000Y-12250000D02*
X25000000Y-9430000D01*
X25000000Y-12250000D02*
X25000000Y-12979700D01*
X25000000Y-12979700D02*
X20246600Y-12979700D01*
X15436100Y-15925800D02*
X14574200Y-15925800D01*
X25000000Y-9430000D02*
X28430000Y-6000000D01*
X43800000Y-7172800D02*
X43735400Y-7108200D01*
X13250000Y-16000000D02*
X13250000Y-17076700D01*
X23171200Y-17076700D02*
X13250000Y-17076700D01*
X13250000Y-35710000D02*
X12730000Y-36230000D01*
X28000000Y-12250000D02*
X28000000Y-12979700D01*
X28430000Y-5000000D02*
X27777400Y-4347400D01*
X28000000Y-12979700D02*
X27268200Y-12979700D01*
X27777400Y-4347400D02*
X27121000Y-4347400D01*
X27268200Y-12979700D02*
X23171200Y-17076700D01*
X43800000Y-8020000D02*
X43800000Y-7172800D01*
X13250000Y-17076700D02*
X13250000Y-35710000D01*
X42950000Y-7293300D02*
X40575600Y-7293300D01*
X40575600Y-7293300D02*
X40386600Y-7104300D01*
X42950000Y-8020000D02*
X42950000Y-7293300D01*
X42100000Y-8746700D02*
X42156000Y-8746700D01*
X42156000Y-8746700D02*
X42344800Y-8935500D01*
X42100000Y-8020000D02*
X42100000Y-8746700D01*
X41250000Y-8896000D02*
X41217100Y-8928900D01*
X41250000Y-8020000D02*
X41250000Y-8896000D01*
X40201400Y-8935500D02*
X40390200Y-8746700D01*
X40390200Y-8746700D02*
X40400000Y-8746700D01*
X40400000Y-8020000D02*
X40400000Y-8746700D01*
D41*
X32250000Y-35430000D02*
X32250000Y-37200000D01*
X36250000Y-15000000D02*
X38470000Y-15000000D01*
X34550000Y-17500000D02*
X35200000Y-16850000D01*
X36800000Y-31200000D02*
X36800000Y-30150000D01*
X35950000Y-30150000D02*
X35950000Y-27850000D01*
X36800000Y-27850000D02*
X36800000Y-26800000D01*
X33250000Y-35430000D02*
X33250000Y-34500000D01*
X36800000Y-30150000D02*
X35950000Y-30150000D01*
X35000000Y-31200000D02*
X36800000Y-31200000D01*
X36800000Y-26800000D02*
X34550000Y-26800000D01*
X35950000Y-27850000D02*
X36800000Y-27850000D01*
X33250000Y-34500000D02*
X33600000Y-34100000D01*
X35000000Y-33200000D02*
X35000000Y-31200000D01*
X34550000Y-26800000D02*
X34550000Y-17500000D01*
X35200000Y-32500000D02*
X35000000Y-32500000D01*
X31700000Y-33450000D02*
X31700000Y-32000000D01*
X32750000Y-35430000D02*
X32750000Y-34500000D01*
X31700000Y-32000000D02*
X34050000Y-30150000D01*
X32799999Y-33500000D02*
X31700000Y-33450000D01*
X33750000Y-35430000D02*
X33750000Y-36500000D01*
X34050000Y-26000000D02*
X33400000Y-26000000D01*
X32750000Y-34500000D02*
X31700000Y-33450000D01*
X33850000Y-20000000D02*
X34050000Y-20000000D01*
X34050000Y-15850000D02*
X38470000Y-15850000D01*
X34050000Y-30150000D02*
X34050000Y-27850000D01*
X34050000Y-27850000D02*
X34050000Y-26000000D01*
X34050000Y-20000000D02*
X34050000Y-15850000D01*
D37*
X36962700Y-16700000D02*
X36918700Y-16656000D01*
X38470000Y-16700000D02*
X36962700Y-16700000D01*
X19250000Y-31028700D02*
X19250000Y-32000000D01*
X41913300Y-21253300D02*
X41736700Y-21076700D01*
X46350000Y-21253300D02*
X41913300Y-21253300D01*
X46350000Y-21980000D02*
X46350000Y-21253300D01*
X47200000Y-21034100D02*
X47200000Y-21980000D01*
X31815200Y-18747600D02*
X31547300Y-18479700D01*
X31815200Y-21017400D02*
X31815200Y-18747600D01*
X27820000Y-23500000D02*
X28761700Y-23500000D01*
X51450000Y-21980000D02*
X51450000Y-21253300D01*
X29835000Y-22426700D02*
X28761700Y-23500000D01*
X31000000Y-21700000D02*
X31000000Y-22426700D01*
X31000000Y-21700000D02*
X31776700Y-21700000D01*
X50357500Y-20160800D02*
X39379800Y-20160800D01*
X31815200Y-21017400D02*
X33907800Y-21017400D01*
X31000000Y-17750000D02*
X31000000Y-18479700D01*
X31000000Y-22426700D02*
X29835000Y-22426700D01*
X31776700Y-21055900D02*
X31815200Y-21017400D01*
X31776700Y-21700000D02*
X31776700Y-21055900D01*
X31547300Y-18479700D02*
X31000000Y-18479700D01*
X51450000Y-21253300D02*
X50357500Y-20160800D01*
X54000000Y-32001700D02*
X53498300Y-32001700D01*
D38*
X35400000Y-34727300D02*
X38371000Y-31756300D01*
X30600000Y-34197000D02*
X30600000Y-35430000D01*
D37*
X38371000Y-31756300D02*
X47949600Y-31756300D01*
D38*
X50970000Y-33200000D02*
X52300000Y-33200000D01*
X35109300Y-28712700D02*
X35314800Y-28918200D01*
X54000000Y-31000000D02*
X54000000Y-32001700D01*
X35400000Y-35430000D02*
X35400000Y-34727300D01*
X35000000Y-27850000D02*
X35000000Y-28712700D01*
X50970000Y-33200000D02*
X49393300Y-33200000D01*
X35000000Y-28712700D02*
X35109300Y-28712700D01*
X47949600Y-31756300D02*
X49393300Y-33200000D01*
D40*
X53498300Y-32001700D02*
X52300000Y-33200000D01*
D37*
X20750000Y-32000000D02*
X21479700Y-32000000D01*
X24023300Y-32545000D02*
X23838600Y-32729700D01*
X24750000Y-32000000D02*
X24023300Y-32000000D01*
X24023300Y-32000000D02*
X24023300Y-32545000D01*
X23838600Y-32729700D02*
X22209400Y-32729700D01*
X22209400Y-32729700D02*
X21479700Y-32000000D01*
X24750000Y-29000000D02*
X24023300Y-29000000D01*
X21479700Y-29000000D02*
X22207900Y-28271800D01*
X23840100Y-28271800D02*
X24023300Y-28455000D01*
X24023300Y-28455000D02*
X24023300Y-29000000D01*
X20750000Y-29000000D02*
X21479700Y-29000000D01*
X22207900Y-28271800D02*
X23840100Y-28271800D01*
X29016300Y-5500000D02*
X29534000Y-4982300D01*
X28430000Y-5500000D02*
X29016300Y-5500000D01*
X30500000Y-9700000D02*
X29723300Y-9700000D01*
X30500000Y-4250000D02*
X30500000Y-4979700D01*
X29723300Y-9700000D02*
X29526600Y-9700000D01*
X29534000Y-4982300D02*
X29536600Y-4979700D01*
X29536600Y-4979700D02*
X30500000Y-4979700D01*
X30575600Y-37581100D02*
X31750000Y-36406700D01*
X31750000Y-35430000D02*
X31750000Y-36406700D01*
X28264000Y-37581100D02*
X30575600Y-37581100D01*
X27000000Y-36317100D02*
X28264000Y-37581100D01*
X27000000Y-34750000D02*
X27000000Y-36317100D01*
D42*
X34750000Y-35430000D02*
X34750000Y-38000000D01*
X39000000Y-38000000D02*
X39000000Y-34750000D01*
X34750000Y-38000000D02*
X39000000Y-38000000D01*
G04 #@! TA.AperFunction,Conductor*
G36*
X47632963Y-32151485D02*
G01*
X47653605Y-32168119D01*
X49085986Y-33600500D01*
X49200114Y-33666392D01*
X49327407Y-33700500D01*
X49327408Y-33700500D01*
X49352981Y-33700500D01*
X49420020Y-33720185D01*
X49465775Y-33772989D01*
X49474598Y-33800308D01*
X49484032Y-33847735D01*
X49488707Y-33859020D01*
X49485377Y-33860399D01*
X49499980Y-33907031D01*
X49500000Y-33909249D01*
X49500000Y-37090751D01*
X49485625Y-37139703D01*
X49488707Y-37140980D01*
X49484032Y-37152264D01*
X49469500Y-37225323D01*
X49469500Y-37300500D01*
X49449815Y-37367539D01*
X49397011Y-37413294D01*
X49351880Y-37423111D01*
X49351924Y-37423439D01*
X49348005Y-37423954D01*
X49345500Y-37424500D01*
X49343864Y-37424500D01*
X49296112Y-37437295D01*
X49296111Y-37437294D01*
X49248363Y-37450089D01*
X49248362Y-37450089D01*
X49162735Y-37499527D01*
X47574082Y-39088181D01*
X47512759Y-39121666D01*
X47486401Y-39124500D01*
X43824500Y-39124500D01*
X43757461Y-39104815D01*
X43711706Y-39052011D01*
X43700500Y-39000500D01*
X43700500Y-38795823D01*
X43700499Y-38795821D01*
X43685967Y-38722764D01*
X43685966Y-38722760D01*
X43630601Y-38639899D01*
X43571635Y-38600500D01*
X43547739Y-38584533D01*
X43547735Y-38584532D01*
X43474677Y-38570000D01*
X43474674Y-38570000D01*
X41925326Y-38570000D01*
X41925323Y-38570000D01*
X41852264Y-38584532D01*
X41852260Y-38584533D01*
X41769399Y-38639899D01*
X41714033Y-38722760D01*
X41714032Y-38722764D01*
X41699500Y-38795821D01*
X41699500Y-40006700D01*
X41679815Y-40073739D01*
X41627011Y-40119494D01*
X41575500Y-40130700D01*
X38624000Y-40130700D01*
X38556961Y-40111015D01*
X38511206Y-40058211D01*
X38500000Y-40006700D01*
X38500000Y-38449500D01*
X38519685Y-38382461D01*
X38572489Y-38336706D01*
X38624000Y-38325500D01*
X39042851Y-38325500D01*
X39042853Y-38325500D01*
X39125638Y-38303318D01*
X39199862Y-38260465D01*
X39260465Y-38199862D01*
X39303318Y-38125638D01*
X39325500Y-38042853D01*
X39325500Y-35527500D01*
X39345185Y-35460461D01*
X39397989Y-35414706D01*
X39449500Y-35403500D01*
X39456676Y-35403500D01*
X39456677Y-35403499D01*
X39529740Y-35388966D01*
X39612601Y-35333601D01*
X39667966Y-35250740D01*
X39682500Y-35177674D01*
X39682500Y-34322326D01*
X39682500Y-34322323D01*
X39682499Y-34322321D01*
X39667967Y-34249264D01*
X39667966Y-34249260D01*
X39612601Y-34166399D01*
X39529740Y-34111034D01*
X39529739Y-34111033D01*
X39519585Y-34104249D01*
X39521641Y-34101171D01*
X39483855Y-34070724D01*
X39461787Y-34004431D01*
X39479064Y-33936731D01*
X39520923Y-33897754D01*
X39519585Y-33895751D01*
X39529739Y-33888966D01*
X39529740Y-33888966D01*
X39612601Y-33833601D01*
X39667966Y-33750740D01*
X39682500Y-33677674D01*
X39682500Y-32822326D01*
X39682500Y-32822323D01*
X39682499Y-32822321D01*
X39667967Y-32749264D01*
X39667966Y-32749260D01*
X39612601Y-32666399D01*
X39529740Y-32611034D01*
X39529739Y-32611033D01*
X39529735Y-32611032D01*
X39456677Y-32596500D01*
X39456674Y-32596500D01*
X38624000Y-32596500D01*
X38556961Y-32576815D01*
X38511206Y-32524011D01*
X38500000Y-32472500D01*
X38500000Y-32386719D01*
X38519685Y-32319680D01*
X38572489Y-32273925D01*
X38576545Y-32272159D01*
X38583479Y-32269285D01*
X38583485Y-32269284D01*
X38709015Y-32196809D01*
X38737705Y-32168119D01*
X38799028Y-32134634D01*
X38825386Y-32131800D01*
X47565924Y-32131800D01*
X47632963Y-32151485D01*
G37*
G04 #@! TD.AperFunction*
G04 #@! TA.AperFunction,Conductor*
G36*
X52693106Y-505523D02*
G01*
X52708104Y-509927D01*
X52766855Y-547672D01*
X52768042Y-549041D01*
X52795518Y-603902D01*
X52797163Y-611460D01*
X52800000Y-637831D01*
X52800000Y-32064414D01*
X52794976Y-32099351D01*
X52787564Y-32124592D01*
X52756269Y-32177336D01*
X52523295Y-32410310D01*
X52495039Y-32431462D01*
X52481318Y-32438954D01*
X52413046Y-32453805D01*
X52405720Y-32453281D01*
X52345678Y-32432700D01*
X52317741Y-32414034D01*
X52317740Y-32414033D01*
X52317739Y-32414033D01*
X52317735Y-32414032D01*
X52317725Y-32414030D01*
X52317709Y-32414026D01*
X52244680Y-32399500D01*
X52244677Y-32399500D01*
X52244674Y-32399500D01*
X49695326Y-32399500D01*
X49695323Y-32399500D01*
X49695319Y-32399500D01*
X49622285Y-32414027D01*
X49622262Y-32414032D01*
X49622258Y-32414033D01*
X49569481Y-32449299D01*
X49569477Y-32449301D01*
X49556050Y-32458272D01*
X49546592Y-32463999D01*
X49513270Y-32482195D01*
X49445001Y-32497049D01*
X49443196Y-32496920D01*
X49385000Y-32477552D01*
X49378485Y-32473365D01*
X49357849Y-32456735D01*
X48256916Y-31355802D01*
X48256914Y-31355800D01*
X48187617Y-31315791D01*
X48176196Y-31309197D01*
X48142788Y-31289908D01*
X48079139Y-31272854D01*
X48078930Y-31272798D01*
X48015492Y-31255800D01*
X48015491Y-31255800D01*
X47883708Y-31255800D01*
X47756414Y-31289907D01*
X47756412Y-31289907D01*
X47756412Y-31289908D01*
X47683450Y-31332034D01*
X47661891Y-31344481D01*
X47652228Y-31350060D01*
X47634941Y-31358330D01*
X47627737Y-31361115D01*
X47611273Y-31367480D01*
X47598396Y-31372458D01*
X47553684Y-31380800D01*
X38843216Y-31380800D01*
X38808280Y-31375777D01*
X38783038Y-31368365D01*
X38730291Y-31337067D01*
X38709029Y-31315804D01*
X38709014Y-31315790D01*
X38709011Y-31315788D01*
X38697595Y-31309197D01*
X38655240Y-31284743D01*
X38626807Y-31254923D01*
X38568670Y-31239346D01*
X38506072Y-31222573D01*
X38443475Y-31205800D01*
X38443474Y-31205800D01*
X38298525Y-31205800D01*
X38173330Y-31239346D01*
X38173329Y-31239345D01*
X38158510Y-31243316D01*
X38158507Y-31243318D01*
X38032992Y-31315785D01*
X38032984Y-31315790D01*
X38032968Y-31315805D01*
X37930497Y-31418276D01*
X37930493Y-31418281D01*
X37930487Y-31418290D01*
X37930485Y-31418292D01*
X37858011Y-31543823D01*
X37856334Y-31547223D01*
X37848235Y-31561245D01*
X37834874Y-31581240D01*
X37819455Y-31600028D01*
X35092686Y-34326799D01*
X34999502Y-34419982D01*
X34999500Y-34419985D01*
X34933609Y-34534111D01*
X34933608Y-34534112D01*
X34927780Y-34555864D01*
X34924866Y-34566740D01*
X34922519Y-34575500D01*
X34921213Y-34580374D01*
X34907316Y-34612823D01*
X34899181Y-34626168D01*
X34847495Y-34673156D01*
X34839520Y-34677031D01*
X34785328Y-34689500D01*
X34591091Y-34689500D01*
X34591088Y-34689500D01*
X34585033Y-34690097D01*
X34584881Y-34688554D01*
X34580869Y-34688194D01*
X34536947Y-34701944D01*
X34467090Y-34703185D01*
X34419773Y-34690200D01*
X34416934Y-34690687D01*
X34410195Y-34689626D01*
X34408915Y-34689500D01*
X34091091Y-34689500D01*
X34091088Y-34689500D01*
X34085033Y-34690097D01*
X34084881Y-34688554D01*
X34080869Y-34688194D01*
X34041283Y-34700587D01*
X33971424Y-34701829D01*
X33911984Y-34665106D01*
X33881833Y-34602077D01*
X33890546Y-34532752D01*
X33892356Y-34528785D01*
X33895419Y-34522384D01*
X33919596Y-34488217D01*
X33955503Y-34452311D01*
X34000500Y-34407314D01*
X34066392Y-34293186D01*
X34100500Y-34165892D01*
X34100500Y-34034108D01*
X34066392Y-33906814D01*
X34000500Y-33792686D01*
X33907314Y-33699500D01*
X33835808Y-33658216D01*
X33835808Y-33658215D01*
X33835806Y-33658215D01*
X33793187Y-33633608D01*
X33727210Y-33615930D01*
X33665892Y-33599500D01*
X33665891Y-33599500D01*
X33534103Y-33599500D01*
X33473811Y-33615655D01*
X33438771Y-33619845D01*
X33424897Y-33619515D01*
X33358345Y-33598242D01*
X33313859Y-33544365D01*
X33313855Y-33544357D01*
X33310508Y-33536540D01*
X33300499Y-33487733D01*
X33300499Y-33434110D01*
X33300499Y-33434108D01*
X33266391Y-33306814D01*
X33200499Y-33192686D01*
X33107313Y-33099500D01*
X33050249Y-33066554D01*
X33030047Y-33054890D01*
X32993187Y-33033608D01*
X32893187Y-33006814D01*
X32893185Y-33006813D01*
X32865892Y-32999500D01*
X32865891Y-32999500D01*
X32734107Y-32999500D01*
X32734105Y-32999500D01*
X32608618Y-33033123D01*
X32606900Y-33033556D01*
X32528451Y-33078849D01*
X32524440Y-33079821D01*
X32524567Y-33080053D01*
X32459256Y-33115679D01*
X32394245Y-33130693D01*
X32186678Y-33121258D01*
X32152008Y-33114654D01*
X32137226Y-33109574D01*
X32080224Y-33069170D01*
X32080211Y-33069154D01*
X32078161Y-33066558D01*
X32053744Y-33013310D01*
X32052765Y-33008262D01*
X32050500Y-32984670D01*
X32050500Y-32248176D01*
X32055522Y-32213244D01*
X32055779Y-32212370D01*
X32062153Y-32190658D01*
X32089353Y-32142210D01*
X32090861Y-32140550D01*
X32105906Y-32126533D01*
X33587282Y-30960343D01*
X33617828Y-30942687D01*
X33640865Y-30933450D01*
X33710412Y-30926772D01*
X33710837Y-30926855D01*
X33759323Y-30936500D01*
X33759324Y-30936500D01*
X34340676Y-30936500D01*
X34344796Y-30936500D01*
X34352648Y-30934117D01*
X34413740Y-30921966D01*
X34496601Y-30866601D01*
X34551966Y-30783740D01*
X34566500Y-30710674D01*
X34566500Y-29589326D01*
X34566500Y-29589323D01*
X34566500Y-29588600D01*
X34566064Y-29587134D01*
X34556737Y-29540243D01*
X34551967Y-29516264D01*
X34551966Y-29516260D01*
X34496601Y-29433399D01*
X34493114Y-29431069D01*
X34483541Y-29424672D01*
X34470430Y-29415912D01*
X34461766Y-29405545D01*
X34444180Y-29392334D01*
X34436108Y-29382675D01*
X34436102Y-29382669D01*
X34436088Y-29382652D01*
X34435089Y-29381545D01*
X34434960Y-29381303D01*
X34434599Y-29380871D01*
X34434690Y-29380794D01*
X34406817Y-29328361D01*
X34404149Y-29317610D01*
X34400500Y-29287749D01*
X34400500Y-29138205D01*
X34405521Y-29103278D01*
X34408707Y-29092425D01*
X34446477Y-29033644D01*
X34510031Y-29004615D01*
X34579186Y-29014553D01*
X34586172Y-29017743D01*
X34622342Y-29042856D01*
X34692686Y-29113200D01*
X34798327Y-29174192D01*
X34824008Y-29193898D01*
X34846305Y-29216195D01*
X34866010Y-29241874D01*
X34874286Y-29256208D01*
X34874289Y-29256212D01*
X34874291Y-29256215D01*
X34976785Y-29358709D01*
X34977474Y-29359205D01*
X34979978Y-29360553D01*
X35098869Y-29429195D01*
X35101887Y-29431069D01*
X35102314Y-29431183D01*
X35102315Y-29431184D01*
X35242325Y-29468700D01*
X35242328Y-29468700D01*
X35291670Y-29468700D01*
X35326606Y-29473723D01*
X35341604Y-29478127D01*
X35400355Y-29515872D01*
X35401542Y-29517241D01*
X35429018Y-29572102D01*
X35430663Y-29579660D01*
X35433500Y-29606031D01*
X35433500Y-30703080D01*
X35431327Y-30726191D01*
X35427683Y-30745400D01*
X35395849Y-30807596D01*
X35338129Y-30842015D01*
X35326217Y-30845226D01*
X35293944Y-30849500D01*
X34953856Y-30849500D01*
X34866518Y-30872902D01*
X34864796Y-30873335D01*
X34784804Y-30919519D01*
X34784786Y-30919531D01*
X34719531Y-30984786D01*
X34719519Y-30984804D01*
X34673389Y-31064704D01*
X34673388Y-31064705D01*
X34673384Y-31064716D01*
X34649500Y-31153856D01*
X34649500Y-32773494D01*
X34644476Y-32808431D01*
X34637064Y-32833672D01*
X34605769Y-32886416D01*
X34599510Y-32892674D01*
X34599505Y-32892679D01*
X34599502Y-32892683D01*
X34599500Y-32892686D01*
X34599497Y-32892690D01*
X34599493Y-32892696D01*
X34533610Y-33006806D01*
X34533609Y-33006808D01*
X34516904Y-33069154D01*
X34499500Y-33134108D01*
X34499500Y-33265891D01*
X34510465Y-33306814D01*
X34533608Y-33393188D01*
X34557234Y-33434108D01*
X34559651Y-33438294D01*
X34599500Y-33507314D01*
X34692686Y-33600500D01*
X34806814Y-33666392D01*
X34934108Y-33700500D01*
X34934110Y-33700500D01*
X35065890Y-33700500D01*
X35065892Y-33700500D01*
X35193186Y-33666392D01*
X35307314Y-33600500D01*
X35400500Y-33507314D01*
X35466392Y-33393186D01*
X35500500Y-33265892D01*
X35500500Y-33134108D01*
X35475714Y-33041607D01*
X35471525Y-33006563D01*
X35471584Y-33004121D01*
X35471973Y-32987755D01*
X35490057Y-32926171D01*
X35491083Y-32924489D01*
X35495478Y-32917277D01*
X35513669Y-32894144D01*
X35600500Y-32807314D01*
X35666392Y-32693186D01*
X35700500Y-32565892D01*
X35700500Y-32434108D01*
X35666392Y-32306814D01*
X35600500Y-32192686D01*
X35507314Y-32099500D01*
X35507312Y-32099499D01*
X35507307Y-32099495D01*
X35450973Y-32066971D01*
X35450971Y-32066970D01*
X35427934Y-32053669D01*
X35400198Y-32031857D01*
X35387208Y-32018233D01*
X35356450Y-31961897D01*
X35353994Y-31951771D01*
X35353947Y-31951267D01*
X35353819Y-31951042D01*
X35350500Y-31922543D01*
X35350500Y-31692329D01*
X35355523Y-31657393D01*
X35357668Y-31650090D01*
X35359927Y-31642394D01*
X35397672Y-31583644D01*
X35399041Y-31582457D01*
X35436586Y-31563656D01*
X35442449Y-31559104D01*
X35446379Y-31558752D01*
X35453920Y-31554977D01*
X35461479Y-31553333D01*
X35487832Y-31550500D01*
X36846142Y-31550500D01*
X36846144Y-31550500D01*
X36935288Y-31526614D01*
X37015212Y-31480469D01*
X37080469Y-31415212D01*
X37126614Y-31335288D01*
X37150500Y-31246144D01*
X37150500Y-30103856D01*
X37126614Y-30014712D01*
X37126611Y-30014706D01*
X37086744Y-29945656D01*
X37085565Y-29943035D01*
X37081456Y-29936385D01*
X37080552Y-29934871D01*
X37015211Y-29869530D01*
X37015208Y-29869528D01*
X37015199Y-29869521D01*
X36949425Y-29831547D01*
X36942895Y-29826536D01*
X36936999Y-29824094D01*
X36933596Y-29822624D01*
X36933126Y-29822412D01*
X36931234Y-29821706D01*
X36927684Y-29820235D01*
X36919520Y-29819161D01*
X36846144Y-29799500D01*
X36846143Y-29799500D01*
X36608330Y-29799500D01*
X36573389Y-29794475D01*
X36558390Y-29790070D01*
X36499644Y-29752327D01*
X36498457Y-29750958D01*
X36470977Y-29696083D01*
X36469332Y-29688521D01*
X36466500Y-29662168D01*
X36466500Y-29589139D01*
X36466064Y-29587134D01*
X36456737Y-29540243D01*
X36451967Y-29516264D01*
X36451966Y-29516260D01*
X36396601Y-29433399D01*
X36393114Y-29431069D01*
X36383541Y-29424672D01*
X36370430Y-29415912D01*
X36344174Y-29392326D01*
X36330721Y-29376228D01*
X36304473Y-29321985D01*
X36303103Y-29315404D01*
X36300500Y-29290132D01*
X36300500Y-28714921D01*
X36305522Y-28679988D01*
X36311434Y-28659853D01*
X36341949Y-28607896D01*
X36346657Y-28603103D01*
X36366227Y-28586895D01*
X36396601Y-28566601D01*
X36451966Y-28483740D01*
X36466500Y-28410674D01*
X36466500Y-28342329D01*
X36471523Y-28307393D01*
X36474336Y-28297815D01*
X36475927Y-28292394D01*
X36513672Y-28233644D01*
X36515041Y-28232457D01*
X36569920Y-28204977D01*
X36577479Y-28203333D01*
X36603832Y-28200500D01*
X36846142Y-28200500D01*
X36846144Y-28200500D01*
X36935288Y-28176614D01*
X37015212Y-28130469D01*
X37080469Y-28065212D01*
X37126614Y-27985288D01*
X37150500Y-27896144D01*
X37150500Y-26753856D01*
X37126614Y-26664712D01*
X37126611Y-26664706D01*
X37086744Y-26595656D01*
X37085565Y-26593035D01*
X37081456Y-26586385D01*
X37080552Y-26584871D01*
X37015211Y-26519530D01*
X37015208Y-26519528D01*
X37015199Y-26519521D01*
X36949425Y-26481547D01*
X36942895Y-26476536D01*
X36936999Y-26474094D01*
X36933596Y-26472624D01*
X36933126Y-26472412D01*
X36931234Y-26471706D01*
X36927684Y-26470235D01*
X36919520Y-26469161D01*
X36909182Y-26466391D01*
X36846144Y-26449500D01*
X36846143Y-26449500D01*
X35042330Y-26449500D01*
X35007389Y-26444475D01*
X34992390Y-26440070D01*
X34933644Y-26402327D01*
X34932457Y-26400958D01*
X34904977Y-26346083D01*
X34903332Y-26338521D01*
X34900500Y-26312168D01*
X34900500Y-17714373D01*
X34905522Y-17679440D01*
X34908169Y-17670426D01*
X34912934Y-17654195D01*
X34944228Y-17601453D01*
X35146258Y-17399423D01*
X35174508Y-17378275D01*
X35197600Y-17365667D01*
X35257025Y-17350500D01*
X35265890Y-17350500D01*
X35265892Y-17350500D01*
X35393186Y-17316392D01*
X35507314Y-17250500D01*
X35600500Y-17157314D01*
X35666392Y-17043186D01*
X35700500Y-16915892D01*
X35700500Y-16784108D01*
X35666392Y-16656814D01*
X35666387Y-16656806D01*
X35650167Y-16628711D01*
X35600500Y-16542686D01*
X35507314Y-16449500D01*
X35507311Y-16449498D01*
X35507307Y-16449495D01*
X35492243Y-16440798D01*
X35464504Y-16418984D01*
X35456695Y-16410793D01*
X35424683Y-16348693D01*
X35431327Y-16279140D01*
X35474446Y-16224273D01*
X35474948Y-16223915D01*
X35526412Y-16202584D01*
X35528634Y-16202210D01*
X35549161Y-16200500D01*
X36313416Y-16200500D01*
X36348348Y-16205521D01*
X36361667Y-16209432D01*
X36420445Y-16247206D01*
X36449471Y-16310761D01*
X36449473Y-16310778D01*
X36449704Y-16312386D01*
X36444148Y-16370564D01*
X36442510Y-16375298D01*
X36432713Y-16396752D01*
X36405718Y-16443508D01*
X36405690Y-16443577D01*
X36405448Y-16444513D01*
X36397193Y-16475323D01*
X36368200Y-16583525D01*
X36368200Y-16728475D01*
X36380580Y-16774678D01*
X36401113Y-16851307D01*
X36405716Y-16868485D01*
X36405718Y-16868490D01*
X36476335Y-16990802D01*
X36477823Y-16993568D01*
X36478053Y-16993877D01*
X36580685Y-17096509D01*
X36581374Y-17097005D01*
X36583878Y-17098353D01*
X36702769Y-17166995D01*
X36705787Y-17168869D01*
X36706214Y-17168983D01*
X36706215Y-17168984D01*
X36846225Y-17206500D01*
X36846228Y-17206500D01*
X36991172Y-17206500D01*
X36991175Y-17206500D01*
X37131185Y-17168984D01*
X37236466Y-17108199D01*
X37253788Y-17099917D01*
X37295461Y-17083825D01*
X37340129Y-17075500D01*
X37703841Y-17075500D01*
X37738773Y-17080521D01*
X37752092Y-17084432D01*
X37810870Y-17122206D01*
X37839896Y-17185761D01*
X37839897Y-17185768D01*
X37840642Y-17190951D01*
X37833759Y-17245808D01*
X37835802Y-17246428D01*
X37834032Y-17252259D01*
X37819500Y-17325318D01*
X37819500Y-17774682D01*
X37834028Y-17847722D01*
X37834030Y-17847730D01*
X37834034Y-17847740D01*
X37863130Y-17891288D01*
X37878362Y-17923129D01*
X37883032Y-17938046D01*
X37884278Y-18007897D01*
X37880675Y-18021031D01*
X37864197Y-18057115D01*
X37834033Y-18102259D01*
X37834031Y-18102266D01*
X37834028Y-18102276D01*
X37819500Y-18175316D01*
X37819500Y-18624682D01*
X37834028Y-18697722D01*
X37834030Y-18697730D01*
X37834034Y-18697740D01*
X37863130Y-18741288D01*
X37878362Y-18773129D01*
X37883032Y-18788046D01*
X37884278Y-18857897D01*
X37880675Y-18871031D01*
X37864197Y-18907115D01*
X37834033Y-18952259D01*
X37834031Y-18952266D01*
X37834028Y-18952276D01*
X37819500Y-19025316D01*
X37819500Y-19474682D01*
X37834028Y-19547722D01*
X37834030Y-19547730D01*
X37834034Y-19547740D01*
X37863130Y-19591288D01*
X37878362Y-19623129D01*
X37883032Y-19638046D01*
X37884278Y-19707897D01*
X37880675Y-19721031D01*
X37864197Y-19757115D01*
X37834033Y-19802259D01*
X37834031Y-19802266D01*
X37834028Y-19802276D01*
X37819500Y-19875316D01*
X37819500Y-20324682D01*
X37834028Y-20397722D01*
X37834030Y-20397730D01*
X37834034Y-20397740D01*
X37863130Y-20441288D01*
X37878362Y-20473129D01*
X37883032Y-20488046D01*
X37884278Y-20557897D01*
X37880675Y-20571031D01*
X37864197Y-20607115D01*
X37834033Y-20652259D01*
X37834031Y-20652266D01*
X37834028Y-20652276D01*
X37819500Y-20725316D01*
X37819500Y-20725321D01*
X37819500Y-21174678D01*
X37819500Y-21174680D01*
X37819499Y-21174680D01*
X37834028Y-21247717D01*
X37834032Y-21247733D01*
X37834033Y-21247740D01*
X37852404Y-21275234D01*
X37889399Y-21330601D01*
X37967871Y-21383034D01*
X37967872Y-21383034D01*
X37967873Y-21383035D01*
X37972260Y-21385966D01*
X37972264Y-21385967D01*
X37972282Y-21385970D01*
X37972288Y-21385972D01*
X37996214Y-21390731D01*
X38037681Y-21398979D01*
X38040415Y-21399703D01*
X38045323Y-21400500D01*
X38045324Y-21400500D01*
X38045326Y-21400500D01*
X38894676Y-21400500D01*
X38940506Y-21391383D01*
X38975739Y-21389494D01*
X38989571Y-21390731D01*
X39054587Y-21416312D01*
X39095451Y-21472977D01*
X39097196Y-21477921D01*
X39101878Y-21543370D01*
X39099501Y-21555323D01*
X39099500Y-21555326D01*
X39099500Y-22404678D01*
X39099500Y-22404680D01*
X39099499Y-22404680D01*
X39114028Y-22477717D01*
X39114030Y-22477724D01*
X39114033Y-22477739D01*
X39117480Y-22483826D01*
X39120816Y-22487891D01*
X39166383Y-22556087D01*
X39169399Y-22560601D01*
X39203760Y-22583560D01*
X39227223Y-22599237D01*
X39252258Y-22615965D01*
X39252260Y-22615966D01*
X39252264Y-22615967D01*
X39252280Y-22615970D01*
X39252288Y-22615972D01*
X39297021Y-22624869D01*
X39317681Y-22628979D01*
X39320415Y-22629703D01*
X39325323Y-22630500D01*
X39774676Y-22630500D01*
X39778796Y-22630500D01*
X39786648Y-22628117D01*
X39847740Y-22615966D01*
X39891289Y-22586867D01*
X39923121Y-22571638D01*
X39924093Y-22571333D01*
X39938039Y-22566966D01*
X40007895Y-22565719D01*
X40021026Y-22569321D01*
X40057110Y-22585798D01*
X40102260Y-22615966D01*
X40102261Y-22615966D01*
X40102376Y-22616043D01*
X40104374Y-22616689D01*
X40105619Y-22617115D01*
X40108084Y-22617733D01*
X40108131Y-22617747D01*
X40114239Y-22618349D01*
X40167681Y-22628979D01*
X40170415Y-22629703D01*
X40175323Y-22630500D01*
X40624676Y-22630500D01*
X40628796Y-22630500D01*
X40636648Y-22628117D01*
X40697740Y-22615966D01*
X40741289Y-22586867D01*
X40773121Y-22571638D01*
X40774093Y-22571333D01*
X40788039Y-22566966D01*
X40857895Y-22565719D01*
X40871026Y-22569321D01*
X40907110Y-22585798D01*
X40952260Y-22615966D01*
X40952261Y-22615966D01*
X40952376Y-22616043D01*
X40954374Y-22616689D01*
X40955619Y-22617115D01*
X40958084Y-22617733D01*
X40958131Y-22617747D01*
X40964239Y-22618349D01*
X41017681Y-22628979D01*
X41020415Y-22629703D01*
X41025323Y-22630500D01*
X41474676Y-22630500D01*
X41478796Y-22630500D01*
X41486648Y-22628117D01*
X41547740Y-22615966D01*
X41591289Y-22586867D01*
X41623121Y-22571638D01*
X41624093Y-22571333D01*
X41638039Y-22566966D01*
X41707895Y-22565719D01*
X41721026Y-22569321D01*
X41757110Y-22585798D01*
X41802260Y-22615966D01*
X41802261Y-22615966D01*
X41802376Y-22616043D01*
X41804374Y-22616689D01*
X41805619Y-22617115D01*
X41808084Y-22617733D01*
X41808131Y-22617747D01*
X41814239Y-22618349D01*
X41867681Y-22628979D01*
X41870415Y-22629703D01*
X41875323Y-22630500D01*
X42324676Y-22630500D01*
X42328796Y-22630500D01*
X42336648Y-22628117D01*
X42397740Y-22615966D01*
X42441289Y-22586867D01*
X42473121Y-22571638D01*
X42474093Y-22571333D01*
X42488039Y-22566966D01*
X42557895Y-22565719D01*
X42571026Y-22569321D01*
X42607110Y-22585798D01*
X42652260Y-22615966D01*
X42652261Y-22615966D01*
X42652376Y-22616043D01*
X42654374Y-22616689D01*
X42655619Y-22617115D01*
X42658084Y-22617733D01*
X42658131Y-22617747D01*
X42664239Y-22618349D01*
X42717681Y-22628979D01*
X42720415Y-22629703D01*
X42725323Y-22630500D01*
X43174676Y-22630500D01*
X43178796Y-22630500D01*
X43186648Y-22628117D01*
X43247740Y-22615966D01*
X43291289Y-22586867D01*
X43323121Y-22571638D01*
X43324093Y-22571333D01*
X43338039Y-22566966D01*
X43407895Y-22565719D01*
X43421026Y-22569321D01*
X43457110Y-22585798D01*
X43502260Y-22615966D01*
X43502261Y-22615966D01*
X43502376Y-22616043D01*
X43504374Y-22616689D01*
X43505619Y-22617115D01*
X43508084Y-22617733D01*
X43508131Y-22617747D01*
X43514239Y-22618349D01*
X43567681Y-22628979D01*
X43570415Y-22629703D01*
X43575323Y-22630500D01*
X44024676Y-22630500D01*
X44028796Y-22630500D01*
X44036648Y-22628117D01*
X44097740Y-22615966D01*
X44141289Y-22586867D01*
X44173121Y-22571638D01*
X44174093Y-22571333D01*
X44188039Y-22566966D01*
X44257895Y-22565719D01*
X44271026Y-22569321D01*
X44307110Y-22585798D01*
X44352260Y-22615966D01*
X44352261Y-22615966D01*
X44352376Y-22616043D01*
X44354374Y-22616689D01*
X44355619Y-22617115D01*
X44358084Y-22617733D01*
X44358131Y-22617747D01*
X44364239Y-22618349D01*
X44417681Y-22628979D01*
X44420415Y-22629703D01*
X44425323Y-22630500D01*
X44874676Y-22630500D01*
X44878796Y-22630500D01*
X44886648Y-22628117D01*
X44947740Y-22615966D01*
X44991289Y-22586867D01*
X45023121Y-22571638D01*
X45024093Y-22571333D01*
X45038039Y-22566966D01*
X45107895Y-22565719D01*
X45121026Y-22569321D01*
X45157110Y-22585798D01*
X45202260Y-22615966D01*
X45202261Y-22615966D01*
X45202376Y-22616043D01*
X45204374Y-22616689D01*
X45205619Y-22617115D01*
X45208084Y-22617733D01*
X45208131Y-22617747D01*
X45214239Y-22618349D01*
X45267681Y-22628979D01*
X45270415Y-22629703D01*
X45275323Y-22630500D01*
X45724676Y-22630500D01*
X45728796Y-22630500D01*
X45736648Y-22628117D01*
X45797740Y-22615966D01*
X45841289Y-22586867D01*
X45873121Y-22571638D01*
X45874093Y-22571333D01*
X45888039Y-22566966D01*
X45957895Y-22565719D01*
X45971026Y-22569321D01*
X46007110Y-22585798D01*
X46052260Y-22615966D01*
X46052261Y-22615966D01*
X46052376Y-22616043D01*
X46054374Y-22616689D01*
X46055619Y-22617115D01*
X46058084Y-22617733D01*
X46058131Y-22617747D01*
X46064239Y-22618349D01*
X46117681Y-22628979D01*
X46120415Y-22629703D01*
X46125323Y-22630500D01*
X46574676Y-22630500D01*
X46578796Y-22630500D01*
X46586648Y-22628117D01*
X46647740Y-22615966D01*
X46691289Y-22586867D01*
X46723121Y-22571638D01*
X46724093Y-22571333D01*
X46738039Y-22566966D01*
X46807895Y-22565719D01*
X46821026Y-22569321D01*
X46857110Y-22585798D01*
X46902260Y-22615966D01*
X46902261Y-22615966D01*
X46902376Y-22616043D01*
X46904374Y-22616689D01*
X46905619Y-22617115D01*
X46908084Y-22617733D01*
X46908131Y-22617747D01*
X46914239Y-22618349D01*
X46967681Y-22628979D01*
X46970415Y-22629703D01*
X46975323Y-22630500D01*
X47424676Y-22630500D01*
X47428796Y-22630500D01*
X47436648Y-22628117D01*
X47497740Y-22615966D01*
X47541289Y-22586867D01*
X47573121Y-22571638D01*
X47574093Y-22571333D01*
X47588039Y-22566966D01*
X47657895Y-22565719D01*
X47671026Y-22569321D01*
X47707110Y-22585798D01*
X47752260Y-22615966D01*
X47752261Y-22615966D01*
X47752376Y-22616043D01*
X47754374Y-22616689D01*
X47755619Y-22617115D01*
X47758084Y-22617733D01*
X47758131Y-22617747D01*
X47764239Y-22618349D01*
X47817681Y-22628979D01*
X47820415Y-22629703D01*
X47825323Y-22630500D01*
X48274676Y-22630500D01*
X48278796Y-22630500D01*
X48286648Y-22628117D01*
X48347740Y-22615966D01*
X48430601Y-22560601D01*
X48485966Y-22477740D01*
X48500500Y-22404674D01*
X48500500Y-21555326D01*
X48500500Y-21555323D01*
X48500500Y-21555139D01*
X48500064Y-21553134D01*
X48485972Y-21482289D01*
X48485967Y-21482266D01*
X48485966Y-21482260D01*
X48483065Y-21477919D01*
X48455722Y-21436996D01*
X48455722Y-21436995D01*
X48430604Y-21399403D01*
X48430600Y-21399398D01*
X48375235Y-21362405D01*
X48347740Y-21344033D01*
X48347737Y-21344032D01*
X48347735Y-21344032D01*
X48347725Y-21344030D01*
X48347709Y-21344026D01*
X48274680Y-21329500D01*
X48274677Y-21329500D01*
X48274674Y-21329500D01*
X47870197Y-21329500D01*
X47835258Y-21324476D01*
X47821940Y-21320565D01*
X47763163Y-21282789D01*
X47734141Y-21219233D01*
X47732931Y-21210816D01*
X47735894Y-21161080D01*
X47750500Y-21106575D01*
X47750500Y-20961625D01*
X47712984Y-20821615D01*
X47664554Y-20737732D01*
X47651441Y-20704980D01*
X47648167Y-20691483D01*
X47651492Y-20621697D01*
X47691982Y-20564812D01*
X47693268Y-20563802D01*
X47746498Y-20539486D01*
X47751425Y-20538537D01*
X47774872Y-20536300D01*
X50132771Y-20536300D01*
X50167703Y-20541321D01*
X50192947Y-20548734D01*
X50245693Y-20580030D01*
X50770874Y-21105211D01*
X50792023Y-21133461D01*
X50797444Y-21143388D01*
X50812298Y-21211661D01*
X50787884Y-21277126D01*
X50731952Y-21318999D01*
X50731948Y-21319001D01*
X50724760Y-21321682D01*
X50681426Y-21329500D01*
X50375319Y-21329500D01*
X50302285Y-21344027D01*
X50302262Y-21344032D01*
X50302258Y-21344033D01*
X50219399Y-21399399D01*
X50164033Y-21482258D01*
X50164032Y-21482266D01*
X50164028Y-21482281D01*
X50149500Y-21555318D01*
X50149500Y-21555321D01*
X50149500Y-22404678D01*
X50149500Y-22404680D01*
X50149499Y-22404680D01*
X50164028Y-22477717D01*
X50164030Y-22477724D01*
X50164033Y-22477739D01*
X50167480Y-22483826D01*
X50170816Y-22487891D01*
X50216383Y-22556087D01*
X50219399Y-22560601D01*
X50253760Y-22583560D01*
X50277223Y-22599237D01*
X50302258Y-22615965D01*
X50302260Y-22615966D01*
X50302264Y-22615967D01*
X50302280Y-22615970D01*
X50302288Y-22615972D01*
X50347021Y-22624869D01*
X50367681Y-22628979D01*
X50370415Y-22629703D01*
X50375323Y-22630500D01*
X50824676Y-22630500D01*
X50828796Y-22630500D01*
X50836648Y-22628117D01*
X50897740Y-22615966D01*
X50941289Y-22586867D01*
X50973121Y-22571638D01*
X50974093Y-22571333D01*
X50988039Y-22566966D01*
X51057895Y-22565719D01*
X51071026Y-22569321D01*
X51107110Y-22585798D01*
X51152260Y-22615966D01*
X51152261Y-22615966D01*
X51152376Y-22616043D01*
X51154374Y-22616689D01*
X51155619Y-22617115D01*
X51158084Y-22617733D01*
X51158131Y-22617747D01*
X51164239Y-22618349D01*
X51217681Y-22628979D01*
X51220415Y-22629703D01*
X51225323Y-22630500D01*
X51674676Y-22630500D01*
X51678796Y-22630500D01*
X51686648Y-22628117D01*
X51747740Y-22615966D01*
X51830601Y-22560601D01*
X51885966Y-22477740D01*
X51900500Y-22404674D01*
X51900500Y-21555326D01*
X51900500Y-21555323D01*
X51900500Y-21555139D01*
X51900064Y-21553134D01*
X51885972Y-21482289D01*
X51885967Y-21482266D01*
X51885966Y-21482260D01*
X51885965Y-21482258D01*
X51856301Y-21437862D01*
X51841069Y-21406023D01*
X51831165Y-21374391D01*
X51825500Y-21337340D01*
X51825500Y-21203867D01*
X51825500Y-21203865D01*
X51799910Y-21108362D01*
X51750475Y-21022738D01*
X51680562Y-20952825D01*
X50588063Y-19860326D01*
X50588062Y-19860325D01*
X50516579Y-19819054D01*
X50516574Y-19819050D01*
X50502440Y-19810890D01*
X50447586Y-19796192D01*
X50432691Y-19787592D01*
X50431816Y-19787592D01*
X50415123Y-19785392D01*
X50414996Y-19786361D01*
X50406938Y-19785300D01*
X50406937Y-19785300D01*
X50406936Y-19785300D01*
X50406935Y-19785300D01*
X39852016Y-19785300D01*
X39817080Y-19780277D01*
X39791838Y-19772865D01*
X39739091Y-19741567D01*
X39717829Y-19720304D01*
X39717814Y-19720290D01*
X39717806Y-19720285D01*
X39669996Y-19692682D01*
X39664042Y-19689244D01*
X39635608Y-19659424D01*
X39580807Y-19644739D01*
X39580807Y-19644740D01*
X39483915Y-19618778D01*
X39452275Y-19610300D01*
X39452274Y-19610300D01*
X39307318Y-19610300D01*
X39291312Y-19614589D01*
X39256275Y-19618778D01*
X39242402Y-19618448D01*
X39175850Y-19597175D01*
X39131364Y-19543298D01*
X39131360Y-19543289D01*
X39129879Y-19539830D01*
X39119963Y-19486220D01*
X39120175Y-19480765D01*
X39120174Y-19480764D01*
X39120209Y-19479876D01*
X39120500Y-19475661D01*
X39120500Y-19474774D01*
X39120593Y-19469974D01*
X39121459Y-19447604D01*
X39120500Y-19434576D01*
X39120500Y-19025141D01*
X39120072Y-19023174D01*
X39108347Y-18964233D01*
X39107746Y-18958131D01*
X39106600Y-18954350D01*
X39106141Y-18952733D01*
X39106012Y-18952329D01*
X39076868Y-18908711D01*
X39061637Y-18876875D01*
X39056967Y-18861961D01*
X39055718Y-18792106D01*
X39059323Y-18778964D01*
X39075798Y-18742889D01*
X39105966Y-18697740D01*
X39120500Y-18624674D01*
X39120500Y-18175326D01*
X39120500Y-18175323D01*
X39120500Y-18175141D01*
X39120072Y-18173174D01*
X39108347Y-18114233D01*
X39107746Y-18108131D01*
X39106600Y-18104350D01*
X39106141Y-18102733D01*
X39106012Y-18102329D01*
X39105965Y-18102259D01*
X39076867Y-18058710D01*
X39061637Y-18026875D01*
X39056967Y-18011961D01*
X39055718Y-17942106D01*
X39059323Y-17928964D01*
X39075798Y-17892889D01*
X39105966Y-17847740D01*
X39120500Y-17774674D01*
X39120500Y-17325326D01*
X39120500Y-17325323D01*
X39120500Y-17325139D01*
X39120064Y-17323134D01*
X39108349Y-17264239D01*
X39107747Y-17258131D01*
X39107733Y-17258084D01*
X39107115Y-17255619D01*
X39106689Y-17254374D01*
X39106043Y-17252376D01*
X39105966Y-17252260D01*
X39076867Y-17208710D01*
X39061637Y-17176875D01*
X39059166Y-17168984D01*
X39056966Y-17161960D01*
X39055718Y-17092106D01*
X39059323Y-17078964D01*
X39075798Y-17042889D01*
X39105966Y-16997740D01*
X39120500Y-16924674D01*
X39120500Y-16475326D01*
X39120500Y-16475323D01*
X39120500Y-16475139D01*
X39120064Y-16473134D01*
X39108349Y-16414239D01*
X39107747Y-16408131D01*
X39107733Y-16408084D01*
X39107115Y-16405619D01*
X39106689Y-16404374D01*
X39106043Y-16402376D01*
X39105966Y-16402260D01*
X39076867Y-16358710D01*
X39061637Y-16326875D01*
X39056967Y-16311961D01*
X39055718Y-16242106D01*
X39059323Y-16228964D01*
X39075798Y-16192889D01*
X39105966Y-16147740D01*
X39120500Y-16074674D01*
X39120500Y-15625326D01*
X39120500Y-15625323D01*
X39120500Y-15625139D01*
X39120064Y-15623134D01*
X39108349Y-15564239D01*
X39107747Y-15558131D01*
X39107733Y-15558084D01*
X39107115Y-15555619D01*
X39106689Y-15554374D01*
X39106043Y-15552376D01*
X39105966Y-15552260D01*
X39076867Y-15508710D01*
X39061637Y-15476875D01*
X39056967Y-15461961D01*
X39055718Y-15392106D01*
X39059323Y-15378964D01*
X39075798Y-15342889D01*
X39105966Y-15297740D01*
X39120500Y-15224674D01*
X39120500Y-14775326D01*
X39120500Y-14775323D01*
X39120500Y-14775139D01*
X39120064Y-14773134D01*
X39108349Y-14714239D01*
X39107747Y-14708131D01*
X39107733Y-14708084D01*
X39107115Y-14705619D01*
X39106689Y-14704374D01*
X39106043Y-14702376D01*
X39105966Y-14702260D01*
X39076867Y-14658710D01*
X39061637Y-14626875D01*
X39056967Y-14611961D01*
X39055718Y-14542106D01*
X39059323Y-14528964D01*
X39075798Y-14492889D01*
X39105966Y-14447740D01*
X39120500Y-14374674D01*
X39120500Y-13925326D01*
X39120500Y-13925323D01*
X39120500Y-13925141D01*
X39120072Y-13923174D01*
X39108347Y-13864233D01*
X39107746Y-13858131D01*
X39106600Y-13854350D01*
X39106141Y-13852733D01*
X39106012Y-13852329D01*
X39076868Y-13808711D01*
X39061637Y-13776875D01*
X39056967Y-13761961D01*
X39055718Y-13692106D01*
X39059323Y-13678964D01*
X39075798Y-13642889D01*
X39105966Y-13597740D01*
X39120500Y-13524674D01*
X39120500Y-13075326D01*
X39120500Y-13075323D01*
X39120500Y-13075141D01*
X39120072Y-13073174D01*
X39108347Y-13014233D01*
X39107746Y-13008131D01*
X39106600Y-13004350D01*
X39106141Y-13002733D01*
X39106012Y-13002329D01*
X39076868Y-12958711D01*
X39061637Y-12926875D01*
X39056967Y-12911961D01*
X39055718Y-12842106D01*
X39059323Y-12828964D01*
X39075798Y-12792889D01*
X39105966Y-12747740D01*
X39120500Y-12674674D01*
X39120500Y-12225326D01*
X39120500Y-12225323D01*
X39120500Y-12225141D01*
X39120072Y-12223174D01*
X39108347Y-12164233D01*
X39107746Y-12158131D01*
X39106600Y-12154350D01*
X39106141Y-12152733D01*
X39106012Y-12152329D01*
X39076868Y-12108711D01*
X39061637Y-12076875D01*
X39056967Y-12061961D01*
X39055718Y-11992106D01*
X39059323Y-11978964D01*
X39075798Y-11942889D01*
X39105966Y-11897740D01*
X39120500Y-11824674D01*
X39120500Y-11375326D01*
X39120500Y-11375323D01*
X39120500Y-11375141D01*
X39120072Y-11373174D01*
X39111887Y-11332026D01*
X39113385Y-11315285D01*
X39103560Y-11283863D01*
X39102340Y-11214004D01*
X39139083Y-11154576D01*
X39202120Y-11124446D01*
X39204865Y-11124003D01*
X39256389Y-11126555D01*
X39301077Y-11138396D01*
X39302804Y-11138662D01*
X39400725Y-11164900D01*
X39400728Y-11164900D01*
X39545672Y-11164900D01*
X39545675Y-11164900D01*
X39685685Y-11127384D01*
X39811215Y-11054909D01*
X39827298Y-11038825D01*
X39855550Y-11017675D01*
X39878642Y-11005067D01*
X39938067Y-10989900D01*
X46231734Y-10989900D01*
X46231735Y-10989900D01*
X46231736Y-10989900D01*
X46276544Y-10977893D01*
X46276552Y-10977893D01*
X46276552Y-10977891D01*
X46288569Y-10974672D01*
X46305610Y-10970105D01*
X46305610Y-10970106D01*
X46305619Y-10970101D01*
X46327238Y-10964310D01*
X46412862Y-10914875D01*
X46482775Y-10844962D01*
X46482774Y-10844962D01*
X46541343Y-10786393D01*
X48350475Y-8977263D01*
X48399911Y-8891637D01*
X48425500Y-8796136D01*
X48425500Y-8786157D01*
X48430522Y-8751224D01*
X48434251Y-8738524D01*
X48434433Y-8737905D01*
X48472206Y-8679128D01*
X48535758Y-8650103D01*
X48539292Y-8649595D01*
X48583512Y-8655957D01*
X48584224Y-8652379D01*
X48597768Y-8655073D01*
X48606678Y-8657190D01*
X48608996Y-8657832D01*
X48614234Y-8658347D01*
X48667696Y-8668982D01*
X48670420Y-8669704D01*
X48675323Y-8670500D01*
X49124676Y-8670500D01*
X49128796Y-8670500D01*
X49136648Y-8668117D01*
X49197740Y-8655966D01*
X49241289Y-8626867D01*
X49273121Y-8611638D01*
X49277800Y-8610173D01*
X49288039Y-8606966D01*
X49357895Y-8605719D01*
X49371026Y-8609321D01*
X49407110Y-8625798D01*
X49452260Y-8655966D01*
X49452261Y-8655966D01*
X49452376Y-8656043D01*
X49454374Y-8656689D01*
X49455619Y-8657115D01*
X49458084Y-8657733D01*
X49458131Y-8657747D01*
X49464239Y-8658349D01*
X49517681Y-8668979D01*
X49520415Y-8669703D01*
X49525323Y-8670500D01*
X49974676Y-8670500D01*
X49978796Y-8670500D01*
X49986648Y-8668117D01*
X50047740Y-8655966D01*
X50130601Y-8600601D01*
X50185966Y-8517740D01*
X50200500Y-8444674D01*
X50200500Y-8290260D01*
X50204725Y-8258167D01*
X50225514Y-8180580D01*
X50226449Y-8175651D01*
X50231142Y-8158136D01*
X50250500Y-8085892D01*
X50250500Y-7351639D01*
X50255522Y-7316706D01*
X50261434Y-7296571D01*
X50291947Y-7244614D01*
X50296662Y-7239815D01*
X50316227Y-7223612D01*
X50380601Y-7180601D01*
X50435966Y-7097740D01*
X50450500Y-7024674D01*
X50450500Y-6175326D01*
X50450500Y-6175323D01*
X50450500Y-6175139D01*
X50450064Y-6173134D01*
X50435972Y-6102289D01*
X50435971Y-6102288D01*
X50435967Y-6102264D01*
X50435966Y-6102260D01*
X50420969Y-6079815D01*
X50420881Y-6079684D01*
X50409855Y-6063181D01*
X50380601Y-6019399D01*
X50341202Y-5993074D01*
X50307891Y-5970816D01*
X50303826Y-5967480D01*
X50297739Y-5964033D01*
X50297735Y-5964032D01*
X50297709Y-5964026D01*
X50224680Y-5949500D01*
X50224677Y-5949500D01*
X50224674Y-5949500D01*
X49275326Y-5949500D01*
X49275323Y-5949500D01*
X49275319Y-5949500D01*
X49202285Y-5964027D01*
X49202262Y-5964032D01*
X49202258Y-5964033D01*
X49119399Y-6019398D01*
X49119397Y-6019399D01*
X49112602Y-6029570D01*
X49089017Y-6055825D01*
X49072922Y-6069276D01*
X49018698Y-6095522D01*
X49012118Y-6096893D01*
X48986825Y-6099500D01*
X47378206Y-6099500D01*
X47343270Y-6094477D01*
X47318028Y-6087065D01*
X47265283Y-6055769D01*
X46309016Y-5099502D01*
X46309014Y-5099500D01*
X46228545Y-5053041D01*
X46194887Y-5033608D01*
X46115583Y-5012359D01*
X46067592Y-4999500D01*
X46067591Y-4999500D01*
X46049500Y-4999500D01*
X46016394Y-4989778D01*
X46015292Y-4989434D01*
X45987414Y-4970811D01*
X45958644Y-4952327D01*
X45957457Y-4950958D01*
X45957337Y-4950719D01*
X45957193Y-4950623D01*
X45956551Y-4949150D01*
X45929977Y-4896083D01*
X45928332Y-4888521D01*
X45925500Y-4862168D01*
X45925500Y-4770139D01*
X45925064Y-4768134D01*
X45910970Y-4697279D01*
X45910967Y-4697266D01*
X45910967Y-4697264D01*
X45910966Y-4697260D01*
X45903053Y-4685417D01*
X45903051Y-4685414D01*
X45903051Y-4685413D01*
X45875575Y-4644293D01*
X45855601Y-4614399D01*
X45806696Y-4581722D01*
X45793912Y-4573180D01*
X45793912Y-4573179D01*
X45772742Y-4559034D01*
X45772739Y-4559033D01*
X45772735Y-4559032D01*
X45772725Y-4559030D01*
X45772709Y-4559026D01*
X45699680Y-4544500D01*
X45699677Y-4544500D01*
X45699674Y-4544500D01*
X44300326Y-4544500D01*
X44300323Y-4544500D01*
X44300319Y-4544500D01*
X44227285Y-4559027D01*
X44227262Y-4559032D01*
X44227258Y-4559033D01*
X44144399Y-4614399D01*
X44089033Y-4697258D01*
X44089032Y-4697266D01*
X44089029Y-4697279D01*
X44074500Y-4770318D01*
X44074500Y-5105770D01*
X44069475Y-5140714D01*
X44065070Y-5155712D01*
X44027327Y-5214455D01*
X44025958Y-5215642D01*
X43971097Y-5243118D01*
X43963539Y-5244763D01*
X43937168Y-5247600D01*
X32026030Y-5247600D01*
X31991089Y-5242575D01*
X31976090Y-5238170D01*
X31917344Y-5200427D01*
X31916157Y-5199058D01*
X31888677Y-5144183D01*
X31887032Y-5136621D01*
X31884200Y-5110268D01*
X31884200Y-3871567D01*
X31884200Y-3871565D01*
X31858610Y-3776062D01*
X31809175Y-3690438D01*
X31739262Y-3620525D01*
X31338563Y-3219826D01*
X31338562Y-3219825D01*
X31275882Y-3183637D01*
X31252940Y-3170391D01*
X31252933Y-3170388D01*
X31211235Y-3159215D01*
X31211232Y-3159214D01*
X31157437Y-3144800D01*
X31157436Y-3144800D01*
X31157435Y-3144800D01*
X27099136Y-3144800D01*
X27000264Y-3144800D01*
X26904764Y-3170388D01*
X26904754Y-3170392D01*
X26819140Y-3219821D01*
X26819138Y-3219823D01*
X26819131Y-3219829D01*
X25478389Y-4560573D01*
X25450138Y-4581722D01*
X25427050Y-4594330D01*
X25367620Y-4609500D01*
X25300975Y-4609500D01*
X25289914Y-4609006D01*
X25286624Y-4608711D01*
X25267183Y-4606970D01*
X25260303Y-4606354D01*
X25195286Y-4580767D01*
X25195245Y-4580735D01*
X25193815Y-4579623D01*
X25156237Y-4531223D01*
X25153149Y-4524127D01*
X25145232Y-4498840D01*
X25135971Y-4452285D01*
X25135970Y-4452281D01*
X25135967Y-4452264D01*
X25135966Y-4452260D01*
X25132130Y-4446519D01*
X25080601Y-4369399D01*
X25080600Y-4369398D01*
X25007891Y-4320816D01*
X25003826Y-4317480D01*
X24997739Y-4314033D01*
X24997735Y-4314032D01*
X24997709Y-4314026D01*
X24924680Y-4299500D01*
X24924677Y-4299500D01*
X24924674Y-4299500D01*
X24075326Y-4299500D01*
X24075323Y-4299500D01*
X24075319Y-4299500D01*
X24002285Y-4314027D01*
X24002262Y-4314032D01*
X24002258Y-4314033D01*
X23919399Y-4369399D01*
X23864033Y-4452258D01*
X23864032Y-4452266D01*
X23864028Y-4452281D01*
X23849500Y-4525318D01*
X23849500Y-4525321D01*
X23849500Y-5474678D01*
X23849500Y-5474680D01*
X23849499Y-5474680D01*
X23864028Y-5547717D01*
X23864032Y-5547735D01*
X23864033Y-5547739D01*
X23867480Y-5553826D01*
X23870816Y-5557891D01*
X23919398Y-5630600D01*
X23919403Y-5630604D01*
X23970393Y-5664674D01*
X23970394Y-5664674D01*
X24002258Y-5685965D01*
X24002260Y-5685966D01*
X24002264Y-5685967D01*
X24002280Y-5685970D01*
X24002288Y-5685972D01*
X24047021Y-5694869D01*
X24067681Y-5698979D01*
X24070415Y-5699703D01*
X24075323Y-5700500D01*
X24924676Y-5700500D01*
X24928796Y-5700500D01*
X24936648Y-5698117D01*
X24997740Y-5685966D01*
X25080601Y-5630601D01*
X25135966Y-5547740D01*
X25141866Y-5518080D01*
X25144354Y-5505569D01*
X25156091Y-5472298D01*
X25163340Y-5458439D01*
X25211847Y-5408165D01*
X25213461Y-5407245D01*
X25272577Y-5391039D01*
X25285590Y-5390807D01*
X25301724Y-5390520D01*
X25303932Y-5390500D01*
X25851296Y-5390500D01*
X25859148Y-5388117D01*
X25920240Y-5375966D01*
X26003101Y-5320601D01*
X26058466Y-5237740D01*
X26073000Y-5164674D01*
X26073000Y-5097227D01*
X26078022Y-5062294D01*
X26080739Y-5053041D01*
X26085434Y-5037049D01*
X26116728Y-4984307D01*
X26456668Y-4644366D01*
X26462262Y-4641311D01*
X26465863Y-4636048D01*
X26484919Y-4623218D01*
X26487071Y-4622042D01*
X26497099Y-4616566D01*
X26514520Y-4612776D01*
X26517989Y-4610883D01*
X26521930Y-4611164D01*
X26565371Y-4601714D01*
X26630836Y-4626130D01*
X26630841Y-4626133D01*
X26637648Y-4631229D01*
X26670720Y-4668492D01*
X26680489Y-4685413D01*
X26680491Y-4685415D01*
X26782985Y-4787909D01*
X26782986Y-4787910D01*
X26782988Y-4787911D01*
X26905069Y-4858395D01*
X26908087Y-4860269D01*
X26908514Y-4860383D01*
X26908515Y-4860384D01*
X27048525Y-4897900D01*
X27048528Y-4897900D01*
X27193472Y-4897900D01*
X27193475Y-4897900D01*
X27333485Y-4860384D01*
X27459015Y-4787909D01*
X27472658Y-4774264D01*
X27500908Y-4753116D01*
X27514629Y-4745624D01*
X27582887Y-4730772D01*
X27584697Y-4730901D01*
X27642895Y-4750268D01*
X27649406Y-4754452D01*
X27670052Y-4771089D01*
X27878073Y-4979110D01*
X27899223Y-5007362D01*
X27911831Y-5030451D01*
X27927000Y-5089880D01*
X27927000Y-5120307D01*
X27921737Y-5138228D01*
X27936777Y-5213828D01*
X27939160Y-5238022D01*
X27939160Y-5261979D01*
X27936777Y-5286171D01*
X27927000Y-5335320D01*
X27927000Y-5620307D01*
X27921737Y-5638228D01*
X27926999Y-5664676D01*
X27934125Y-5700500D01*
X27936777Y-5713828D01*
X27939160Y-5738022D01*
X27939160Y-5761979D01*
X27936777Y-5786171D01*
X27927000Y-5835320D01*
X27927000Y-5902771D01*
X27921976Y-5937708D01*
X27914564Y-5962949D01*
X27883269Y-6015693D01*
X24698363Y-9200598D01*
X24695504Y-9206402D01*
X24695138Y-9207037D01*
X24695096Y-9207110D01*
X24656082Y-9274682D01*
X24650088Y-9285064D01*
X24650088Y-9285066D01*
X24643753Y-9308709D01*
X24627188Y-9370532D01*
X24627182Y-9370550D01*
X24627183Y-9370551D01*
X24624500Y-9380564D01*
X24624500Y-11460759D01*
X24619475Y-11495703D01*
X24615070Y-11510701D01*
X24577299Y-11569469D01*
X24571747Y-11574280D01*
X24514736Y-11602185D01*
X24470264Y-11611031D01*
X24470262Y-11611032D01*
X24470258Y-11611033D01*
X24387399Y-11666399D01*
X24332033Y-11749258D01*
X24332032Y-11749266D01*
X24332028Y-11749281D01*
X24317500Y-11822318D01*
X24317500Y-12462370D01*
X24312475Y-12497314D01*
X24308070Y-12512312D01*
X24270327Y-12571055D01*
X24268958Y-12572242D01*
X24214097Y-12599718D01*
X24206539Y-12601363D01*
X24180168Y-12604200D01*
X20197160Y-12604200D01*
X20119809Y-12624926D01*
X20119807Y-12624927D01*
X20103462Y-12629307D01*
X20101775Y-12629732D01*
X20101672Y-12629783D01*
X20016036Y-12679226D01*
X20016033Y-12679228D01*
X17119689Y-15575573D01*
X17091438Y-15596722D01*
X17068350Y-15609330D01*
X17008920Y-15624500D01*
X15982516Y-15624500D01*
X15947580Y-15619477D01*
X15922338Y-15612065D01*
X15869594Y-15580770D01*
X15774117Y-15485293D01*
X15774114Y-15485290D01*
X15774107Y-15485285D01*
X15720341Y-15454244D01*
X15691906Y-15424422D01*
X15642632Y-15411221D01*
X15642632Y-15411220D01*
X15642628Y-15411220D01*
X15596599Y-15398886D01*
X15564163Y-15384995D01*
X15558947Y-15381815D01*
X15511949Y-15330118D01*
X15500362Y-15261216D01*
X15527865Y-15196987D01*
X15585723Y-15157825D01*
X15590237Y-15156382D01*
X15627976Y-15150500D01*
X16778796Y-15150500D01*
X16786648Y-15148117D01*
X16847740Y-15135966D01*
X16930601Y-15080601D01*
X16985966Y-14997740D01*
X17000500Y-14924674D01*
X17000500Y-14075326D01*
X17000500Y-14075323D01*
X17000500Y-14075141D01*
X17000072Y-14073174D01*
X16988347Y-14014233D01*
X16987746Y-14008131D01*
X16986600Y-14004350D01*
X16986141Y-14002733D01*
X16986012Y-14002329D01*
X16956868Y-13958711D01*
X16941637Y-13926875D01*
X16936967Y-13911961D01*
X16935718Y-13842106D01*
X16939323Y-13828964D01*
X16955798Y-13792889D01*
X16985966Y-13747740D01*
X17000500Y-13674674D01*
X17000500Y-12825326D01*
X17000500Y-12825323D01*
X17000500Y-12825141D01*
X17000072Y-12823174D01*
X16988347Y-12764233D01*
X16987746Y-12758131D01*
X16986600Y-12754350D01*
X16986141Y-12752733D01*
X16986012Y-12752329D01*
X16982945Y-12747739D01*
X16956867Y-12708710D01*
X16941637Y-12676875D01*
X16936967Y-12661961D01*
X16935718Y-12592106D01*
X16939323Y-12578964D01*
X16955798Y-12542889D01*
X16985966Y-12497740D01*
X17000500Y-12424674D01*
X17000500Y-11575326D01*
X17000500Y-11575323D01*
X17000500Y-11575141D01*
X17000072Y-11573174D01*
X16988347Y-11514233D01*
X16987746Y-11508131D01*
X16986600Y-11504350D01*
X16986141Y-11502733D01*
X16986012Y-11502329D01*
X16963369Y-11468440D01*
X16956867Y-11458710D01*
X16941637Y-11426875D01*
X16936967Y-11411961D01*
X16935718Y-11342106D01*
X16939323Y-11328964D01*
X16955798Y-11292889D01*
X16985966Y-11247740D01*
X17000500Y-11174674D01*
X17000500Y-10325326D01*
X17000500Y-10325323D01*
X17000500Y-10325141D01*
X17000072Y-10323174D01*
X16988347Y-10264233D01*
X16987746Y-10258131D01*
X16986600Y-10254350D01*
X16986141Y-10252733D01*
X16986012Y-10252329D01*
X16966903Y-10223730D01*
X16956867Y-10208710D01*
X16941637Y-10176875D01*
X16936967Y-10161961D01*
X16935718Y-10092106D01*
X16939323Y-10078964D01*
X16955798Y-10042889D01*
X16985966Y-9997740D01*
X17000500Y-9924674D01*
X17000500Y-9075326D01*
X17000500Y-9075323D01*
X17000500Y-9075139D01*
X17000064Y-9073134D01*
X16985972Y-9002289D01*
X16985970Y-9002281D01*
X16985967Y-9002264D01*
X16985966Y-9002260D01*
X16980659Y-8994318D01*
X16976269Y-8987747D01*
X16930604Y-8919402D01*
X16930600Y-8919398D01*
X16857891Y-8870816D01*
X16853826Y-8867480D01*
X16847739Y-8864033D01*
X16847735Y-8864032D01*
X16847709Y-8864026D01*
X16774680Y-8849500D01*
X16774677Y-8849500D01*
X16774674Y-8849500D01*
X15292330Y-8849500D01*
X15257389Y-8844475D01*
X15242390Y-8840070D01*
X15183644Y-8802327D01*
X15182457Y-8800958D01*
X15154977Y-8746083D01*
X15153332Y-8738521D01*
X15150500Y-8712168D01*
X15150500Y-7225139D01*
X15150064Y-7223134D01*
X15135972Y-7152289D01*
X15135969Y-7152274D01*
X15135967Y-7152264D01*
X15135966Y-7152260D01*
X15135959Y-7152250D01*
X15125001Y-7135849D01*
X15124999Y-7135847D01*
X15080601Y-7069399D01*
X15072936Y-7064277D01*
X15000499Y-7015877D01*
X15000494Y-7015874D01*
X14997739Y-7014033D01*
X14997709Y-7014026D01*
X14924680Y-6999500D01*
X14924677Y-6999500D01*
X14924674Y-6999500D01*
X14075326Y-6999500D01*
X14075323Y-6999500D01*
X14026617Y-7009188D01*
X14002263Y-7014032D01*
X14002259Y-7014033D01*
X13958712Y-7043130D01*
X13926869Y-7058363D01*
X13911951Y-7063033D01*
X13842098Y-7064277D01*
X13828962Y-7060673D01*
X13792881Y-7044195D01*
X13757895Y-7020819D01*
X13751549Y-7015611D01*
X13743927Y-7012454D01*
X13735763Y-7011650D01*
X13674681Y-6999500D01*
X13674677Y-6999500D01*
X13674674Y-6999500D01*
X12825326Y-6999500D01*
X12825323Y-6999500D01*
X12776617Y-7009188D01*
X12752263Y-7014032D01*
X12752259Y-7014033D01*
X12708712Y-7043130D01*
X12676869Y-7058363D01*
X12661951Y-7063033D01*
X12592098Y-7064277D01*
X12578962Y-7060673D01*
X12542881Y-7044195D01*
X12507895Y-7020819D01*
X12501549Y-7015611D01*
X12493927Y-7012454D01*
X12485763Y-7011650D01*
X12424681Y-6999500D01*
X12424677Y-6999500D01*
X12424674Y-6999500D01*
X11575326Y-6999500D01*
X11575323Y-6999500D01*
X11575318Y-6999500D01*
X11502265Y-7014031D01*
X11502262Y-7014032D01*
X11502258Y-7014034D01*
X11458710Y-7043131D01*
X11426874Y-7058362D01*
X11413582Y-7062524D01*
X11343723Y-7063771D01*
X11284280Y-7027052D01*
X11281328Y-7023642D01*
X11280657Y-7022838D01*
X11254450Y-6968606D01*
X11253092Y-6962069D01*
X11250500Y-6936848D01*
X11250500Y-6434110D01*
X11250500Y-6434108D01*
X11216392Y-6306814D01*
X11150500Y-6192686D01*
X11057314Y-6099500D01*
X10961863Y-6044391D01*
X10943187Y-6033608D01*
X10848667Y-6008282D01*
X10848667Y-6008281D01*
X10815893Y-5999500D01*
X10815892Y-5999500D01*
X10684108Y-5999500D01*
X10556812Y-6033608D01*
X10556810Y-6033609D01*
X10556809Y-6033609D01*
X10477005Y-6079683D01*
X10477006Y-6079684D01*
X10452630Y-6093758D01*
X10435342Y-6102030D01*
X10434868Y-6102213D01*
X10398793Y-6116158D01*
X10354084Y-6124500D01*
X5970480Y-6124500D01*
X5954289Y-6123438D01*
X5938313Y-6121334D01*
X5922412Y-6118171D01*
X5852728Y-6099500D01*
X5852727Y-6099500D01*
X5747273Y-6099500D01*
X5645413Y-6126792D01*
X5645408Y-6126795D01*
X5554088Y-6179518D01*
X5554082Y-6179523D01*
X5479523Y-6254082D01*
X5479518Y-6254088D01*
X5426795Y-6345408D01*
X5426792Y-6345413D01*
X5399500Y-6447273D01*
X5399500Y-6915323D01*
X5394475Y-6950264D01*
X5390564Y-6963581D01*
X5352787Y-7022357D01*
X5289237Y-7051378D01*
X5278339Y-7052945D01*
X5236499Y-7051824D01*
X5199679Y-7044500D01*
X5199678Y-7044500D01*
X5199674Y-7044500D01*
X3800326Y-7044500D01*
X3800323Y-7044500D01*
X3800319Y-7044500D01*
X3727285Y-7059027D01*
X3727262Y-7059032D01*
X3727258Y-7059033D01*
X3644399Y-7114399D01*
X3589033Y-7197258D01*
X3589032Y-7197266D01*
X3589028Y-7197281D01*
X3574500Y-7270318D01*
X3574500Y-7270321D01*
X3574500Y-8729678D01*
X3574500Y-8729680D01*
X3574499Y-8729680D01*
X3589028Y-8802717D01*
X3589032Y-8802735D01*
X3589033Y-8802739D01*
X3592480Y-8808826D01*
X3595816Y-8812891D01*
X3644399Y-8885601D01*
X3727256Y-8940964D01*
X3727258Y-8940965D01*
X3727259Y-8940965D01*
X3727260Y-8940966D01*
X3727264Y-8940967D01*
X3727279Y-8940970D01*
X3727288Y-8940972D01*
X3766170Y-8948706D01*
X3792681Y-8953979D01*
X3795415Y-8954703D01*
X3800323Y-8955500D01*
X3800324Y-8955500D01*
X3800326Y-8955500D01*
X5199675Y-8955500D01*
X5220004Y-8951456D01*
X5233831Y-8948705D01*
X5269057Y-8946817D01*
X5282890Y-8948055D01*
X5347906Y-8973635D01*
X5388771Y-9030300D01*
X5389309Y-9031825D01*
X5392434Y-9040684D01*
X5399500Y-9081942D01*
X5399500Y-17143133D01*
X5395275Y-17175227D01*
X5387112Y-17205691D01*
X5374724Y-17235597D01*
X5333555Y-17306902D01*
X5333126Y-17308608D01*
X5322715Y-17347463D01*
X5321143Y-17353334D01*
X5299500Y-17434108D01*
X5299500Y-17565891D01*
X5309028Y-17601451D01*
X5333608Y-17693188D01*
X5335546Y-17696544D01*
X5366554Y-17750250D01*
X5399500Y-17807314D01*
X5492686Y-17900500D01*
X5606814Y-17966392D01*
X5734108Y-18000500D01*
X9981768Y-18000500D01*
X10016700Y-18005522D01*
X10023462Y-18007507D01*
X10036834Y-18011434D01*
X10088803Y-18041958D01*
X10093594Y-18046665D01*
X10109795Y-18066229D01*
X10119394Y-18080595D01*
X10119398Y-18080600D01*
X10202258Y-18135965D01*
X10202260Y-18135966D01*
X10202264Y-18135967D01*
X10202280Y-18135970D01*
X10202288Y-18135972D01*
X10247021Y-18144869D01*
X10267681Y-18148979D01*
X10270415Y-18149703D01*
X10275323Y-18150500D01*
X10275324Y-18150500D01*
X10275326Y-18150500D01*
X10764915Y-18150500D01*
X10799847Y-18155521D01*
X10825091Y-18162934D01*
X10877837Y-18194230D01*
X11102273Y-18418665D01*
X11123423Y-18446917D01*
X11136031Y-18470006D01*
X11151200Y-18529435D01*
X11151200Y-20235270D01*
X11146176Y-20270207D01*
X11138764Y-20295448D01*
X11107469Y-20348192D01*
X4324788Y-27130873D01*
X4296538Y-27152022D01*
X4286611Y-27157443D01*
X4218338Y-27172297D01*
X4152873Y-27147883D01*
X4111000Y-27091951D01*
X4108313Y-27084745D01*
X4100500Y-27041425D01*
X4100500Y-26935139D01*
X4100064Y-26933134D01*
X4085972Y-26862289D01*
X4085967Y-26862266D01*
X4085967Y-26862264D01*
X4085966Y-26862260D01*
X4085965Y-26862258D01*
X4085964Y-26862256D01*
X4030601Y-26779399D01*
X3957891Y-26730816D01*
X3953826Y-26727480D01*
X3947739Y-26724033D01*
X3947735Y-26724032D01*
X3947709Y-26724026D01*
X3874680Y-26709500D01*
X3874677Y-26709500D01*
X3874674Y-26709500D01*
X2125326Y-26709500D01*
X2125323Y-26709500D01*
X2125319Y-26709500D01*
X2052285Y-26724027D01*
X2052262Y-26724032D01*
X2052258Y-26724033D01*
X1969399Y-26779399D01*
X1914033Y-26862258D01*
X1914032Y-26862266D01*
X1914028Y-26862281D01*
X1899500Y-26935318D01*
X1899500Y-26935321D01*
X1899500Y-28684678D01*
X1899500Y-28684680D01*
X1899499Y-28684680D01*
X1914028Y-28757717D01*
X1914032Y-28757735D01*
X1914033Y-28757739D01*
X1917480Y-28763826D01*
X1920816Y-28767891D01*
X1969399Y-28840601D01*
X2052256Y-28895964D01*
X2052258Y-28895965D01*
X2052259Y-28895965D01*
X2052260Y-28895966D01*
X2052264Y-28895967D01*
X2052279Y-28895970D01*
X2052288Y-28895972D01*
X2097021Y-28904869D01*
X2117681Y-28908979D01*
X2120415Y-28909703D01*
X2125323Y-28910500D01*
X3874676Y-28910500D01*
X3878796Y-28910500D01*
X3886648Y-28908117D01*
X3947740Y-28895966D01*
X4030601Y-28840601D01*
X4085966Y-28757740D01*
X4092091Y-28726945D01*
X4103828Y-28693677D01*
X4110146Y-28681599D01*
X4158661Y-28631324D01*
X4226658Y-28615258D01*
X4286126Y-28634172D01*
X4293118Y-28638578D01*
X4314691Y-28655805D01*
X10960573Y-35301687D01*
X10981723Y-35329939D01*
X10994331Y-35353028D01*
X11009500Y-35412457D01*
X11009500Y-37173494D01*
X11004476Y-37208431D01*
X10997064Y-37233672D01*
X10965769Y-37286416D01*
X10595468Y-37656716D01*
X10567211Y-37677869D01*
X10552226Y-37686051D01*
X10486618Y-37701063D01*
X10482577Y-37700861D01*
X10472452Y-37700355D01*
X10449245Y-37696975D01*
X10447703Y-37696598D01*
X10447698Y-37696597D01*
X10447685Y-37696595D01*
X10308180Y-37674500D01*
X10308177Y-37674498D01*
X10308177Y-37674499D01*
X10289238Y-37671500D01*
X10276613Y-37669500D01*
X10276611Y-37669500D01*
X10103389Y-37669500D01*
X10103387Y-37669500D01*
X10090761Y-37671500D01*
X10071820Y-37674500D01*
X10071819Y-37674500D01*
X9932306Y-37696595D01*
X9932305Y-37696596D01*
X9767549Y-37750129D01*
X9613218Y-37828764D01*
X9613205Y-37828772D01*
X9548890Y-37875500D01*
X9484942Y-37921961D01*
X9477563Y-37926093D01*
X9346093Y-38057563D01*
X9341963Y-38064939D01*
X9321360Y-38093298D01*
X9321358Y-38093300D01*
X9248772Y-38193205D01*
X9248768Y-38193211D01*
X9248766Y-38193213D01*
X9248764Y-38193218D01*
X9170129Y-38347549D01*
X9170128Y-38347551D01*
X9170128Y-38347552D01*
X9157759Y-38385619D01*
X9116596Y-38512305D01*
X9089500Y-38683383D01*
X9089500Y-38856614D01*
X9111262Y-38994015D01*
X9116596Y-39027693D01*
X9116597Y-39027697D01*
X9116598Y-39027701D01*
X9150715Y-39132703D01*
X9170128Y-39192447D01*
X9226842Y-39303756D01*
X9248768Y-39346788D01*
X9350586Y-39486928D01*
X9473072Y-39609414D01*
X9613212Y-39711232D01*
X9767555Y-39789873D01*
X9932299Y-39843402D01*
X10103389Y-39870500D01*
X10103390Y-39870500D01*
X10276610Y-39870500D01*
X10276611Y-39870500D01*
X10447701Y-39843402D01*
X10612445Y-39789873D01*
X10766788Y-39711232D01*
X10906928Y-39609414D01*
X11029414Y-39486928D01*
X11131232Y-39346788D01*
X11209873Y-39192445D01*
X11263402Y-39027701D01*
X11290500Y-38856611D01*
X11290500Y-38683389D01*
X11269226Y-38549073D01*
X11263404Y-38512311D01*
X11263402Y-38512302D01*
X11263402Y-38512299D01*
X11263398Y-38512288D01*
X11263330Y-38512001D01*
X11263197Y-38511001D01*
X11262640Y-38507484D01*
X11262727Y-38507470D01*
X11259951Y-38486587D01*
X11259426Y-38468247D01*
X11275842Y-38402968D01*
X11282471Y-38391423D01*
X11302324Y-38365487D01*
X11417565Y-38250246D01*
X11548938Y-38118873D01*
X11577181Y-38097730D01*
X11583287Y-38094396D01*
X11651556Y-38079543D01*
X11717021Y-38103958D01*
X11758894Y-38159890D01*
X11764244Y-38227855D01*
X11763068Y-38233658D01*
X11752023Y-38265324D01*
X11710131Y-38347543D01*
X11656596Y-38512305D01*
X11629500Y-38683383D01*
X11629500Y-38856614D01*
X11651262Y-38994015D01*
X11656596Y-39027693D01*
X11656597Y-39027697D01*
X11656598Y-39027701D01*
X11690715Y-39132703D01*
X11710128Y-39192447D01*
X11766842Y-39303756D01*
X11788768Y-39346788D01*
X11890586Y-39486928D01*
X12013072Y-39609414D01*
X12153212Y-39711232D01*
X12307555Y-39789873D01*
X12472299Y-39843402D01*
X12643389Y-39870500D01*
X12643390Y-39870500D01*
X12816610Y-39870500D01*
X12816611Y-39870500D01*
X12987701Y-39843402D01*
X13152445Y-39789873D01*
X13306788Y-39711232D01*
X13446928Y-39609414D01*
X13569414Y-39486928D01*
X13671232Y-39346788D01*
X13749873Y-39192445D01*
X13803402Y-39027701D01*
X13830500Y-38856611D01*
X13830500Y-38683389D01*
X13803402Y-38512299D01*
X13749873Y-38347555D01*
X13671232Y-38193212D01*
X13622141Y-38125644D01*
X13593924Y-38086806D01*
X13577452Y-38055587D01*
X13573102Y-38043394D01*
X13569115Y-37973638D01*
X13603475Y-37912801D01*
X13660088Y-37881363D01*
X13669090Y-37879133D01*
X13698891Y-37875500D01*
X14298406Y-37875500D01*
X14333338Y-37880522D01*
X14340916Y-37882746D01*
X14345763Y-37884170D01*
X14404542Y-37921943D01*
X14433568Y-37985498D01*
X14425726Y-38049786D01*
X14422240Y-38058374D01*
X14407674Y-38084607D01*
X14401359Y-38093300D01*
X14328773Y-38193203D01*
X14328772Y-38193205D01*
X14328768Y-38193211D01*
X14328766Y-38193213D01*
X14328764Y-38193218D01*
X14250129Y-38347549D01*
X14250128Y-38347551D01*
X14250128Y-38347552D01*
X14237759Y-38385619D01*
X14196596Y-38512305D01*
X14169500Y-38683383D01*
X14169500Y-38856614D01*
X14191262Y-38994015D01*
X14196596Y-39027693D01*
X14196597Y-39027697D01*
X14196598Y-39027701D01*
X14230715Y-39132703D01*
X14250128Y-39192447D01*
X14306842Y-39303756D01*
X14328768Y-39346788D01*
X14430586Y-39486928D01*
X14553072Y-39609414D01*
X14693212Y-39711232D01*
X14847555Y-39789873D01*
X15012299Y-39843402D01*
X15183389Y-39870500D01*
X15183390Y-39870500D01*
X15356610Y-39870500D01*
X15356611Y-39870500D01*
X15527701Y-39843402D01*
X15692445Y-39789873D01*
X15846788Y-39711232D01*
X15986928Y-39609414D01*
X16109414Y-39486928D01*
X16211232Y-39346788D01*
X16289873Y-39192445D01*
X16343402Y-39027701D01*
X16370500Y-38856611D01*
X16370500Y-38683389D01*
X16343402Y-38512299D01*
X16289873Y-38347555D01*
X16211232Y-38193212D01*
X16162141Y-38125644D01*
X16133924Y-38086806D01*
X16117452Y-38055587D01*
X16113102Y-38043394D01*
X16109115Y-37973638D01*
X16143475Y-37912801D01*
X16200088Y-37881363D01*
X16209090Y-37879133D01*
X16238891Y-37875500D01*
X16838406Y-37875500D01*
X16873338Y-37880522D01*
X16880916Y-37882746D01*
X16885763Y-37884170D01*
X16944542Y-37921943D01*
X16973568Y-37985498D01*
X16965726Y-38049786D01*
X16962240Y-38058374D01*
X16947674Y-38084607D01*
X16941359Y-38093300D01*
X16868773Y-38193203D01*
X16868772Y-38193205D01*
X16868768Y-38193211D01*
X16868766Y-38193213D01*
X16868764Y-38193218D01*
X16790129Y-38347549D01*
X16790128Y-38347551D01*
X16790128Y-38347552D01*
X16777759Y-38385619D01*
X16736596Y-38512305D01*
X16709500Y-38683383D01*
X16709500Y-38856614D01*
X16731262Y-38994015D01*
X16736596Y-39027693D01*
X16736597Y-39027697D01*
X16736598Y-39027701D01*
X16770715Y-39132703D01*
X16790128Y-39192447D01*
X16846842Y-39303756D01*
X16868768Y-39346788D01*
X16970586Y-39486928D01*
X17093072Y-39609414D01*
X17233212Y-39711232D01*
X17387555Y-39789873D01*
X17552299Y-39843402D01*
X17723389Y-39870500D01*
X17723390Y-39870500D01*
X17896610Y-39870500D01*
X17896611Y-39870500D01*
X18067701Y-39843402D01*
X18232445Y-39789873D01*
X18386788Y-39711232D01*
X18526928Y-39609414D01*
X18649414Y-39486928D01*
X18751232Y-39346788D01*
X18829873Y-39192445D01*
X18883402Y-39027701D01*
X18910500Y-38856611D01*
X18910500Y-38683389D01*
X18883402Y-38512299D01*
X18829873Y-38347555D01*
X18751232Y-38193212D01*
X18702141Y-38125644D01*
X18673924Y-38086806D01*
X18657452Y-38055587D01*
X18653102Y-38043394D01*
X18649115Y-37973638D01*
X18683475Y-37912801D01*
X18740088Y-37881363D01*
X18749090Y-37879133D01*
X18778891Y-37875500D01*
X19378406Y-37875500D01*
X19413338Y-37880522D01*
X19420916Y-37882746D01*
X19425763Y-37884170D01*
X19484542Y-37921943D01*
X19513568Y-37985498D01*
X19505726Y-38049786D01*
X19502240Y-38058374D01*
X19487674Y-38084607D01*
X19481359Y-38093300D01*
X19408773Y-38193203D01*
X19408772Y-38193205D01*
X19408768Y-38193211D01*
X19408766Y-38193213D01*
X19408764Y-38193218D01*
X19330129Y-38347549D01*
X19330128Y-38347551D01*
X19330128Y-38347552D01*
X19317759Y-38385619D01*
X19276596Y-38512305D01*
X19249500Y-38683383D01*
X19249500Y-38856614D01*
X19271262Y-38994015D01*
X19276596Y-39027693D01*
X19276597Y-39027697D01*
X19276598Y-39027701D01*
X19310715Y-39132703D01*
X19330128Y-39192447D01*
X19386842Y-39303756D01*
X19408768Y-39346788D01*
X19510586Y-39486928D01*
X19633072Y-39609414D01*
X19773212Y-39711232D01*
X19927555Y-39789873D01*
X20092299Y-39843402D01*
X20263389Y-39870500D01*
X20263390Y-39870500D01*
X20436610Y-39870500D01*
X20436611Y-39870500D01*
X20607701Y-39843402D01*
X20772445Y-39789873D01*
X20926788Y-39711232D01*
X21066928Y-39609414D01*
X21189414Y-39486928D01*
X21291232Y-39346788D01*
X21369873Y-39192445D01*
X21423402Y-39027701D01*
X21425949Y-39011613D01*
X21436368Y-38977912D01*
X21441919Y-38966203D01*
X21488415Y-38914060D01*
X21555728Y-38895330D01*
X21617999Y-38913130D01*
X21625939Y-38917918D01*
X21649587Y-38936424D01*
X21875625Y-39162462D01*
X21945538Y-39232375D01*
X22031162Y-39281810D01*
X22078911Y-39294605D01*
X22078912Y-39294605D01*
X22088963Y-39297297D01*
X22088999Y-39297319D01*
X22089003Y-39297308D01*
X22126664Y-39307400D01*
X22126665Y-39307400D01*
X38120500Y-39307400D01*
X38187539Y-39327085D01*
X38233294Y-39379889D01*
X38244500Y-39431400D01*
X38244500Y-40006702D01*
X38250338Y-40061012D01*
X38261543Y-40112518D01*
X38261546Y-40112527D01*
X38268779Y-40138892D01*
X38268783Y-40138903D01*
X38318105Y-40225518D01*
X38318110Y-40225525D01*
X38318112Y-40225528D01*
X38344580Y-40256074D01*
X38363863Y-40278328D01*
X38363866Y-40278331D01*
X38363867Y-40278332D01*
X38396641Y-40309957D01*
X38484976Y-40356165D01*
X38484977Y-40356165D01*
X38484977Y-40356166D01*
X38529218Y-40369156D01*
X38552015Y-40375850D01*
X38552019Y-40375850D01*
X38552021Y-40375851D01*
X38563652Y-40377523D01*
X38624000Y-40386200D01*
X39370845Y-40386200D01*
X39437884Y-40405885D01*
X39439736Y-40407098D01*
X39452258Y-40415465D01*
X39452260Y-40415466D01*
X39452264Y-40415467D01*
X39452280Y-40415470D01*
X39452288Y-40415472D01*
X39497021Y-40424369D01*
X39517681Y-40428479D01*
X39520415Y-40429203D01*
X39525323Y-40430000D01*
X41074676Y-40430000D01*
X41078796Y-40430000D01*
X41086648Y-40427617D01*
X41147740Y-40415466D01*
X41147741Y-40415465D01*
X41147742Y-40415465D01*
X41160263Y-40407099D01*
X41226940Y-40386220D01*
X41229155Y-40386200D01*
X41575500Y-40386200D01*
X41629813Y-40380361D01*
X41681324Y-40369155D01*
X41707698Y-40361919D01*
X41736574Y-40345475D01*
X41794318Y-40312594D01*
X41794319Y-40312592D01*
X41794328Y-40312588D01*
X41847132Y-40266833D01*
X41878757Y-40234059D01*
X41924965Y-40145724D01*
X41926970Y-40138898D01*
X41934715Y-40112518D01*
X41944650Y-40078685D01*
X41955000Y-40006700D01*
X41955000Y-38993300D01*
X41974685Y-38926261D01*
X42027489Y-38880506D01*
X42079000Y-38869300D01*
X43321000Y-38869300D01*
X43388039Y-38888985D01*
X43433794Y-38941789D01*
X43445000Y-38993300D01*
X43445000Y-39000502D01*
X43450838Y-39054812D01*
X43462043Y-39106318D01*
X43462046Y-39106327D01*
X43469279Y-39132692D01*
X43469283Y-39132703D01*
X43518605Y-39219318D01*
X43518610Y-39219325D01*
X43518612Y-39219328D01*
X43545080Y-39249874D01*
X43564363Y-39272128D01*
X43564366Y-39272131D01*
X43564367Y-39272132D01*
X43597141Y-39303757D01*
X43685476Y-39349965D01*
X43685477Y-39349965D01*
X43685477Y-39349966D01*
X43735605Y-39364684D01*
X43752515Y-39369650D01*
X43752519Y-39369650D01*
X43752521Y-39369651D01*
X43764152Y-39371323D01*
X43824500Y-39380000D01*
X43824501Y-39380000D01*
X47486401Y-39380000D01*
X47486402Y-39380000D01*
X47487838Y-39379922D01*
X47513715Y-39378536D01*
X47540073Y-39375702D01*
X47635207Y-39345913D01*
X47696530Y-39312428D01*
X47754748Y-39268847D01*
X49307689Y-37715903D01*
X49363270Y-37683812D01*
X49394194Y-37675525D01*
X49399868Y-37674148D01*
X49399906Y-37674139D01*
X49399912Y-37674139D01*
X49402417Y-37673593D01*
X49402416Y-37673592D01*
X49402437Y-37673588D01*
X49402493Y-37673576D01*
X49406186Y-37672772D01*
X49406187Y-37672773D01*
X49451309Y-37662958D01*
X49451314Y-37662957D01*
X49451318Y-37662956D01*
X49477698Y-37655719D01*
X49564328Y-37606388D01*
X49617132Y-37560633D01*
X49648757Y-37527859D01*
X49694965Y-37439524D01*
X49695146Y-37438910D01*
X49708571Y-37393186D01*
X49714650Y-37372485D01*
X49725000Y-37300500D01*
X49725000Y-37262697D01*
X49727381Y-37238514D01*
X49734623Y-37202108D01*
X49734621Y-37202107D01*
X49735712Y-37196626D01*
X49738356Y-37185870D01*
X49745147Y-37162748D01*
X49745147Y-37162746D01*
X49745149Y-37162740D01*
X49755500Y-37090751D01*
X49755500Y-36424500D01*
X49775185Y-36357461D01*
X49827989Y-36311706D01*
X49879500Y-36300500D01*
X52248796Y-36300500D01*
X52256648Y-36298117D01*
X52317740Y-36285966D01*
X52372897Y-36249111D01*
X52382343Y-36243393D01*
X52419201Y-36223268D01*
X52425686Y-36219726D01*
X52433121Y-36215667D01*
X52492546Y-36200500D01*
X52658170Y-36200500D01*
X52693106Y-36205523D01*
X52708104Y-36209927D01*
X52766855Y-36247672D01*
X52768042Y-36249041D01*
X52795518Y-36303902D01*
X52797163Y-36311460D01*
X52800000Y-36337831D01*
X52800000Y-41357670D01*
X52794975Y-41392614D01*
X52790570Y-41407612D01*
X52752827Y-41466355D01*
X52751458Y-41467542D01*
X52696597Y-41495018D01*
X52689039Y-41496663D01*
X52662668Y-41499500D01*
X642330Y-41499500D01*
X607389Y-41494475D01*
X592390Y-41490070D01*
X533644Y-41452327D01*
X532457Y-41450958D01*
X504977Y-41396083D01*
X503332Y-41388521D01*
X500500Y-41362168D01*
X500500Y-38874038D01*
X1399500Y-38874038D01*
X1399500Y-39125961D01*
X1422651Y-39272128D01*
X1438910Y-39374786D01*
X1438910Y-39374789D01*
X1475348Y-39486930D01*
X1516760Y-39614383D01*
X1631132Y-39838848D01*
X1631134Y-39838851D01*
X1654128Y-39870500D01*
X1779201Y-40042649D01*
X1779205Y-40042654D01*
X1779210Y-40042660D01*
X1957338Y-40220788D01*
X1957342Y-40220791D01*
X1957345Y-40220794D01*
X1957350Y-40220798D01*
X2135117Y-40349952D01*
X2161155Y-40368870D01*
X2252607Y-40415467D01*
X2281128Y-40429999D01*
X2379169Y-40479954D01*
X2380763Y-40480887D01*
X2384450Y-40482673D01*
X2386479Y-40483681D01*
X2390245Y-40484744D01*
X2615209Y-40557839D01*
X2625215Y-40561090D01*
X2874038Y-40600500D01*
X2874039Y-40600500D01*
X3125961Y-40600500D01*
X3125962Y-40600500D01*
X3374785Y-40561090D01*
X3614379Y-40483241D01*
X3838845Y-40368870D01*
X4042656Y-40220793D01*
X4220793Y-40042656D01*
X4368870Y-39838845D01*
X4467802Y-39644680D01*
X6549499Y-39644680D01*
X6564028Y-39717717D01*
X6564032Y-39717735D01*
X6564033Y-39717739D01*
X6567480Y-39723826D01*
X6570816Y-39727891D01*
X6619399Y-39800601D01*
X6702256Y-39855964D01*
X6702258Y-39855965D01*
X6702259Y-39855965D01*
X6702260Y-39855966D01*
X6702264Y-39855967D01*
X6702279Y-39855970D01*
X6702288Y-39855972D01*
X6747021Y-39864869D01*
X6767681Y-39868979D01*
X6770415Y-39869703D01*
X6775323Y-39870500D01*
X8524676Y-39870500D01*
X8528796Y-39870500D01*
X8536648Y-39868117D01*
X8597740Y-39855966D01*
X8680601Y-39800601D01*
X8735966Y-39717740D01*
X8750500Y-39644674D01*
X8750500Y-37895326D01*
X8750500Y-37895323D01*
X8750500Y-37895139D01*
X8750064Y-37893134D01*
X8735972Y-37822289D01*
X8735967Y-37822266D01*
X8735966Y-37822260D01*
X8707195Y-37779201D01*
X8680601Y-37739399D01*
X8680600Y-37739398D01*
X8607891Y-37690816D01*
X8603826Y-37687480D01*
X8597739Y-37684033D01*
X8597735Y-37684032D01*
X8597709Y-37684026D01*
X8524680Y-37669500D01*
X8524677Y-37669500D01*
X8524674Y-37669500D01*
X6775326Y-37669500D01*
X6775323Y-37669500D01*
X6775319Y-37669500D01*
X6702285Y-37684027D01*
X6702262Y-37684032D01*
X6702258Y-37684033D01*
X6619399Y-37739399D01*
X6564033Y-37822258D01*
X6564032Y-37822266D01*
X6564028Y-37822281D01*
X6549500Y-37895318D01*
X6549500Y-37895321D01*
X6549500Y-39644678D01*
X6549500Y-39644680D01*
X6549499Y-39644680D01*
X4467802Y-39644680D01*
X4483241Y-39614379D01*
X4561090Y-39374785D01*
X4600500Y-39125962D01*
X4600500Y-38874038D01*
X4561090Y-38625215D01*
X4561089Y-38625211D01*
X4561089Y-38625210D01*
X4484743Y-38390243D01*
X4483680Y-38386475D01*
X4482687Y-38384478D01*
X4480888Y-38380765D01*
X4479956Y-38379173D01*
X4414264Y-38250246D01*
X4368870Y-38161155D01*
X4343070Y-38125644D01*
X4224263Y-37962119D01*
X4224261Y-37962117D01*
X4224259Y-37962114D01*
X4224257Y-37962110D01*
X4224255Y-37962108D01*
X4221395Y-37958171D01*
X4220799Y-37957351D01*
X4220792Y-37957343D01*
X4042662Y-37779212D01*
X4042660Y-37779210D01*
X4042655Y-37779206D01*
X4042654Y-37779205D01*
X4042649Y-37779201D01*
X3846743Y-37636868D01*
X3846402Y-37636577D01*
X3838838Y-37631124D01*
X3838474Y-37630941D01*
X3778724Y-37600497D01*
X3719234Y-37570185D01*
X3614383Y-37516760D01*
X3538761Y-37492189D01*
X3374787Y-37438910D01*
X3208903Y-37412636D01*
X3125962Y-37399500D01*
X3125961Y-37399500D01*
X2874039Y-37399500D01*
X2874038Y-37399500D01*
X2791096Y-37412636D01*
X2625212Y-37438910D01*
X2625209Y-37438910D01*
X2385619Y-37516759D01*
X2385616Y-37516760D01*
X2176248Y-37623439D01*
X2161147Y-37631134D01*
X1957367Y-37779188D01*
X1957338Y-37779210D01*
X1779210Y-37957338D01*
X1779188Y-37957367D01*
X1631134Y-38161147D01*
X1631132Y-38161151D01*
X1516760Y-38385616D01*
X1516759Y-38385618D01*
X1516759Y-38385619D01*
X1438910Y-38625209D01*
X1438910Y-38625212D01*
X1438910Y-38625213D01*
X1438910Y-38625214D01*
X1399500Y-38874038D01*
X500500Y-38874038D01*
X500500Y-25183383D01*
X1899500Y-25183383D01*
X1899500Y-25356610D01*
X1924824Y-25516505D01*
X1926598Y-25527701D01*
X1980127Y-25692445D01*
X2058768Y-25846788D01*
X2160586Y-25986928D01*
X2283072Y-26109414D01*
X2423212Y-26211232D01*
X2577555Y-26289873D01*
X2742299Y-26343402D01*
X2913389Y-26370500D01*
X2913390Y-26370500D01*
X3086610Y-26370500D01*
X3086611Y-26370500D01*
X3257701Y-26343402D01*
X3422445Y-26289873D01*
X3576788Y-26211232D01*
X3716928Y-26109414D01*
X3839414Y-25986928D01*
X3941232Y-25846788D01*
X4019873Y-25692445D01*
X4073402Y-25527701D01*
X4100500Y-25356611D01*
X4100500Y-25183389D01*
X4073402Y-25012299D01*
X4019873Y-24847555D01*
X3941232Y-24693212D01*
X3839414Y-24553072D01*
X3716928Y-24430586D01*
X3576788Y-24328768D01*
X3422449Y-24250128D01*
X3266532Y-24199467D01*
X3262010Y-24197614D01*
X3252820Y-24195444D01*
X3248057Y-24195070D01*
X3237513Y-24193400D01*
X3126271Y-24175781D01*
X3110407Y-24173268D01*
X3086614Y-24169500D01*
X3086611Y-24169500D01*
X2913389Y-24169500D01*
X2913388Y-24169500D01*
X2873726Y-24175781D01*
X2873725Y-24175780D01*
X2742304Y-24196596D01*
X2577549Y-24250129D01*
X2423210Y-24328768D01*
X2343256Y-24386859D01*
X2343255Y-24386859D01*
X2294941Y-24421961D01*
X2287564Y-24426092D01*
X2156093Y-24557563D01*
X2151961Y-24564942D01*
X2064355Y-24685521D01*
X2058768Y-24693211D01*
X2058766Y-24693213D01*
X2058764Y-24693218D01*
X1980129Y-24847547D01*
X1926598Y-25012297D01*
X1926596Y-25012303D01*
X1916442Y-25076416D01*
X1899500Y-25183383D01*
X500500Y-25183383D01*
X500500Y-22643389D01*
X1899500Y-22643389D01*
X1899500Y-22816611D01*
X1926598Y-22987701D01*
X1980127Y-23152445D01*
X2058768Y-23306788D01*
X2160586Y-23446928D01*
X2283072Y-23569414D01*
X2423212Y-23671232D01*
X2577555Y-23749873D01*
X2742299Y-23803402D01*
X2913389Y-23830500D01*
X2913390Y-23830500D01*
X3086610Y-23830500D01*
X3086611Y-23830500D01*
X3257701Y-23803402D01*
X3422445Y-23749873D01*
X3576788Y-23671232D01*
X3716928Y-23569414D01*
X3839414Y-23446928D01*
X3941232Y-23306788D01*
X4019873Y-23152445D01*
X4073402Y-22987701D01*
X4100500Y-22816611D01*
X4100500Y-22643389D01*
X4073402Y-22472299D01*
X4019873Y-22307555D01*
X4019871Y-22307552D01*
X4019871Y-22307550D01*
X3978387Y-22226133D01*
X3941232Y-22153212D01*
X3839414Y-22013072D01*
X3716928Y-21890586D01*
X3576788Y-21788768D01*
X3576780Y-21788764D01*
X3422449Y-21710128D01*
X3266532Y-21659467D01*
X3262010Y-21657614D01*
X3252820Y-21655444D01*
X3248057Y-21655070D01*
X3237513Y-21653400D01*
X3126271Y-21635781D01*
X3110407Y-21633268D01*
X3086614Y-21629500D01*
X3086611Y-21629500D01*
X2913389Y-21629500D01*
X2913388Y-21629500D01*
X2873726Y-21635781D01*
X2873725Y-21635780D01*
X2742304Y-21656596D01*
X2577549Y-21710129D01*
X2423218Y-21788764D01*
X2423205Y-21788772D01*
X2345897Y-21844940D01*
X2294942Y-21881961D01*
X2287563Y-21886093D01*
X2156092Y-22017564D01*
X2151961Y-22024941D01*
X2058772Y-22153205D01*
X2058768Y-22153211D01*
X2058766Y-22153213D01*
X2058764Y-22153218D01*
X1980129Y-22307549D01*
X1926596Y-22472304D01*
X1905064Y-22608254D01*
X1903843Y-22615966D01*
X1899500Y-22643389D01*
X500500Y-22643389D01*
X500500Y-2874038D01*
X1399500Y-2874038D01*
X1399500Y-3125960D01*
X1438910Y-3374786D01*
X1438910Y-3374789D01*
X1500237Y-3563533D01*
X1516760Y-3614383D01*
X1595413Y-3768747D01*
X1599139Y-3776060D01*
X1631130Y-3838845D01*
X1631135Y-3838853D01*
X1725176Y-3968289D01*
X1779201Y-4042649D01*
X1779205Y-4042654D01*
X1779210Y-4042660D01*
X1957338Y-4220788D01*
X1957342Y-4220791D01*
X1957345Y-4220794D01*
X1957350Y-4220798D01*
X2103173Y-4326744D01*
X2161155Y-4368870D01*
X2284662Y-4431800D01*
X2284661Y-4431800D01*
X2324828Y-4452266D01*
X2379173Y-4479956D01*
X2380760Y-4480886D01*
X2384478Y-4482687D01*
X2386475Y-4483680D01*
X2390243Y-4484743D01*
X2533291Y-4531222D01*
X2625215Y-4561090D01*
X2874038Y-4600500D01*
X2874039Y-4600500D01*
X3125961Y-4600500D01*
X3125962Y-4600500D01*
X3374785Y-4561090D01*
X3614379Y-4483241D01*
X3838845Y-4368870D01*
X4042656Y-4220793D01*
X4220793Y-4042656D01*
X4368870Y-3838845D01*
X4483241Y-3614379D01*
X4561090Y-3374785D01*
X4600500Y-3125962D01*
X4600500Y-2874038D01*
X47399500Y-2874038D01*
X47399500Y-3125960D01*
X47438910Y-3374786D01*
X47438910Y-3374789D01*
X47500237Y-3563533D01*
X47516760Y-3614383D01*
X47595413Y-3768747D01*
X47599139Y-3776060D01*
X47631130Y-3838845D01*
X47631135Y-3838853D01*
X47725176Y-3968289D01*
X47779201Y-4042649D01*
X47779205Y-4042654D01*
X47779210Y-4042660D01*
X47957338Y-4220788D01*
X47957342Y-4220791D01*
X47957345Y-4220794D01*
X47957350Y-4220798D01*
X48103173Y-4326744D01*
X48161155Y-4368870D01*
X48284662Y-4431800D01*
X48284661Y-4431800D01*
X48324828Y-4452266D01*
X48379173Y-4479956D01*
X48380760Y-4480886D01*
X48384478Y-4482687D01*
X48386475Y-4483680D01*
X48390243Y-4484743D01*
X48533291Y-4531222D01*
X48625215Y-4561090D01*
X48874038Y-4600500D01*
X48874039Y-4600500D01*
X49125961Y-4600500D01*
X49125962Y-4600500D01*
X49374785Y-4561090D01*
X49614379Y-4483241D01*
X49838845Y-4368870D01*
X50042656Y-4220793D01*
X50220793Y-4042656D01*
X50368870Y-3838845D01*
X50483241Y-3614379D01*
X50561090Y-3374785D01*
X50600500Y-3125962D01*
X50600500Y-2874038D01*
X50561090Y-2625215D01*
X50561089Y-2625211D01*
X50561089Y-2625210D01*
X50484743Y-2390243D01*
X50483680Y-2386475D01*
X50482687Y-2384478D01*
X50480886Y-2380760D01*
X50479956Y-2379173D01*
X50460379Y-2340752D01*
X50441747Y-2304183D01*
X50441747Y-2304184D01*
X50368870Y-2161155D01*
X50349952Y-2135117D01*
X50220798Y-1957350D01*
X50220794Y-1957345D01*
X50220791Y-1957342D01*
X50220788Y-1957338D01*
X50042660Y-1779210D01*
X50042655Y-1779206D01*
X50042654Y-1779205D01*
X50042649Y-1779201D01*
X49846743Y-1636868D01*
X49846402Y-1636577D01*
X49838838Y-1631124D01*
X49838474Y-1630941D01*
X49768747Y-1595413D01*
X49614385Y-1516761D01*
X49614384Y-1516760D01*
X49614383Y-1516760D01*
X49530487Y-1489500D01*
X49374787Y-1438910D01*
X49208903Y-1412636D01*
X49125962Y-1399500D01*
X49125961Y-1399500D01*
X48874039Y-1399500D01*
X48874038Y-1399500D01*
X48791096Y-1412636D01*
X48625212Y-1438910D01*
X48625209Y-1438910D01*
X48385619Y-1516759D01*
X48385616Y-1516760D01*
X48231253Y-1595413D01*
X48161147Y-1631134D01*
X47957367Y-1779188D01*
X47957338Y-1779210D01*
X47779210Y-1957338D01*
X47779188Y-1957367D01*
X47631134Y-2161147D01*
X47631132Y-2161151D01*
X47516760Y-2385616D01*
X47516759Y-2385618D01*
X47516759Y-2385619D01*
X47438910Y-2625209D01*
X47438910Y-2625212D01*
X47399500Y-2874038D01*
X4600500Y-2874038D01*
X4561090Y-2625215D01*
X4561089Y-2625211D01*
X4561089Y-2625210D01*
X4484743Y-2390243D01*
X4483680Y-2386475D01*
X4482687Y-2384478D01*
X4480886Y-2380760D01*
X4479956Y-2379173D01*
X4460379Y-2340752D01*
X4441747Y-2304183D01*
X4441747Y-2304184D01*
X4368870Y-2161155D01*
X4349952Y-2135117D01*
X4220798Y-1957350D01*
X4220794Y-1957345D01*
X4220791Y-1957342D01*
X4220788Y-1957338D01*
X4042660Y-1779210D01*
X4042655Y-1779206D01*
X4042654Y-1779205D01*
X4042649Y-1779201D01*
X3846743Y-1636868D01*
X3846402Y-1636577D01*
X3838838Y-1631124D01*
X3838474Y-1630941D01*
X3768747Y-1595413D01*
X3614385Y-1516761D01*
X3614384Y-1516760D01*
X3614383Y-1516760D01*
X3530487Y-1489500D01*
X3374787Y-1438910D01*
X3208903Y-1412636D01*
X3125962Y-1399500D01*
X3125961Y-1399500D01*
X2874039Y-1399500D01*
X2874038Y-1399500D01*
X2791096Y-1412636D01*
X2625212Y-1438910D01*
X2625209Y-1438910D01*
X2385619Y-1516759D01*
X2385616Y-1516760D01*
X2231253Y-1595413D01*
X2161147Y-1631134D01*
X1957367Y-1779188D01*
X1957338Y-1779210D01*
X1779210Y-1957338D01*
X1779188Y-1957367D01*
X1631134Y-2161147D01*
X1631132Y-2161151D01*
X1516760Y-2385616D01*
X1516759Y-2385618D01*
X1516759Y-2385619D01*
X1438910Y-2625209D01*
X1438910Y-2625212D01*
X1399500Y-2874038D01*
X500500Y-2874038D01*
X500500Y-642329D01*
X505523Y-607393D01*
X509927Y-592395D01*
X547672Y-533644D01*
X549041Y-532457D01*
X603920Y-504977D01*
X611479Y-503333D01*
X637832Y-500500D01*
X52658170Y-500500D01*
X52693106Y-505523D01*
G37*
G04 #@! TD.AperFunction*
G04 #@! TA.AperFunction,Conductor*
G36*
X33470516Y-21397921D02*
G01*
X33495760Y-21405334D01*
X33548506Y-21436630D01*
X33569785Y-21457909D01*
X33570474Y-21458405D01*
X33572978Y-21459753D01*
X33691869Y-21528395D01*
X33694887Y-21530269D01*
X33695314Y-21530383D01*
X33695315Y-21530384D01*
X33835325Y-21567900D01*
X33835328Y-21567900D01*
X33980272Y-21567900D01*
X33980275Y-21567900D01*
X34026192Y-21555596D01*
X34061227Y-21551407D01*
X34075102Y-21551737D01*
X34141654Y-21573011D01*
X34186135Y-21626877D01*
X34189483Y-21634693D01*
X34199500Y-21683518D01*
X34199500Y-25507670D01*
X34198214Y-25512046D01*
X34199185Y-25516505D01*
X34194475Y-25542614D01*
X34190070Y-25557612D01*
X34180429Y-25572616D01*
X34179815Y-25574709D01*
X34178168Y-25576136D01*
X34152327Y-25616355D01*
X34150958Y-25617542D01*
X34096097Y-25645018D01*
X34088539Y-25646663D01*
X34062168Y-25649500D01*
X33826506Y-25649500D01*
X33791570Y-25644477D01*
X33766328Y-25637065D01*
X33713583Y-25605769D01*
X33707316Y-25599502D01*
X33707314Y-25599500D01*
X33650250Y-25566554D01*
X33593187Y-25533608D01*
X33529539Y-25516554D01*
X33465892Y-25499500D01*
X33465891Y-25499500D01*
X33334108Y-25499500D01*
X33206808Y-25533609D01*
X33206806Y-25533610D01*
X33092696Y-25599493D01*
X33092682Y-25599502D01*
X33092677Y-25599506D01*
X32999506Y-25692677D01*
X32999502Y-25692682D01*
X32999493Y-25692696D01*
X32933610Y-25806806D01*
X32933609Y-25806808D01*
X32909777Y-25895751D01*
X32899500Y-25934108D01*
X32899500Y-26065891D01*
X32932555Y-26189258D01*
X32933609Y-26193190D01*
X32963380Y-26244755D01*
X32999495Y-26307307D01*
X32999498Y-26307311D01*
X32999500Y-26307314D01*
X33092686Y-26400500D01*
X33206814Y-26466392D01*
X33334108Y-26500500D01*
X33334110Y-26500500D01*
X33465889Y-26500500D01*
X33465892Y-26500500D01*
X33526192Y-26484342D01*
X33561228Y-26480153D01*
X33575102Y-26480483D01*
X33641654Y-26501757D01*
X33686135Y-26555623D01*
X33689483Y-26563439D01*
X33699500Y-26612264D01*
X33699500Y-26985077D01*
X33694476Y-27020014D01*
X33688564Y-27040147D01*
X33658050Y-27092103D01*
X33653343Y-27096895D01*
X33633771Y-27113105D01*
X33603399Y-27133398D01*
X33548033Y-27216258D01*
X33548032Y-27216266D01*
X33548028Y-27216281D01*
X33533500Y-27289318D01*
X33533500Y-27289321D01*
X33533500Y-28410678D01*
X33533500Y-28410680D01*
X33533499Y-28410680D01*
X33548028Y-28483717D01*
X33548032Y-28483733D01*
X33548033Y-28483740D01*
X33558563Y-28499499D01*
X33573440Y-28521765D01*
X33603399Y-28566601D01*
X33629569Y-28584086D01*
X33655823Y-28607669D01*
X33669279Y-28623770D01*
X33695524Y-28677998D01*
X33696894Y-28684575D01*
X33699500Y-28709862D01*
X33699500Y-29285077D01*
X33694476Y-29320014D01*
X33688564Y-29340147D01*
X33658050Y-29392103D01*
X33653343Y-29396895D01*
X33633772Y-29413103D01*
X33606885Y-29431069D01*
X33603399Y-29433398D01*
X33548033Y-29516258D01*
X33548033Y-29516260D01*
X33548032Y-29516264D01*
X33546367Y-29524635D01*
X33533500Y-29589318D01*
X33533500Y-30032502D01*
X33528477Y-30067438D01*
X33521846Y-30090020D01*
X33494642Y-30138473D01*
X33493150Y-30140115D01*
X33478078Y-30154157D01*
X31521364Y-31694548D01*
X31521212Y-31694669D01*
X31519250Y-31696214D01*
X31519247Y-31696216D01*
X31502961Y-31709038D01*
X31484788Y-31719531D01*
X31466861Y-31737457D01*
X31446938Y-31753142D01*
X31434369Y-31769949D01*
X31419531Y-31784788D01*
X31406854Y-31806744D01*
X31391669Y-31827051D01*
X31383879Y-31846536D01*
X31373386Y-31864712D01*
X31366822Y-31889206D01*
X31357413Y-31912746D01*
X31354932Y-31933581D01*
X31349500Y-31953856D01*
X31349500Y-31979213D01*
X31347140Y-31999029D01*
X31347140Y-31999031D01*
X31346705Y-32002685D01*
X31346504Y-32004368D01*
X31346503Y-32004386D01*
X31346503Y-32004387D01*
X31347593Y-32011939D01*
X31348547Y-32020778D01*
X31349182Y-32029626D01*
X31349500Y-32038502D01*
X31349500Y-33439220D01*
X31349372Y-33444851D01*
X31347766Y-33480181D01*
X31348451Y-33488177D01*
X31349500Y-33496143D01*
X31349500Y-33496144D01*
X31353541Y-33511227D01*
X31358655Y-33530313D01*
X31359987Y-33535779D01*
X31367579Y-33570316D01*
X31370315Y-33577875D01*
X31373386Y-33585290D01*
X31391076Y-33615930D01*
X31393779Y-33620866D01*
X31410047Y-33652253D01*
X31414651Y-33658853D01*
X31419529Y-33665211D01*
X31419530Y-33665212D01*
X31444574Y-33690256D01*
X31448422Y-33694283D01*
X31459401Y-33706308D01*
X31463799Y-33714340D01*
X31483364Y-33730071D01*
X31485248Y-33732779D01*
X31488232Y-33734195D01*
X31493344Y-33739026D01*
X31920717Y-34166399D01*
X32074452Y-34320134D01*
X32219530Y-34465211D01*
X32240679Y-34493461D01*
X32246100Y-34503388D01*
X32260954Y-34571661D01*
X32236540Y-34637126D01*
X32180608Y-34678999D01*
X32180604Y-34679001D01*
X32173416Y-34681682D01*
X32130082Y-34689500D01*
X32091091Y-34689500D01*
X32091088Y-34689500D01*
X32085033Y-34690097D01*
X32084881Y-34688554D01*
X32080869Y-34688194D01*
X32036947Y-34701944D01*
X31967090Y-34703185D01*
X31919773Y-34690200D01*
X31916934Y-34690687D01*
X31910195Y-34689626D01*
X31908915Y-34689500D01*
X31591091Y-34689500D01*
X31591088Y-34689500D01*
X31585033Y-34690097D01*
X31584881Y-34688554D01*
X31580869Y-34688194D01*
X31536947Y-34701944D01*
X31467090Y-34703185D01*
X31419773Y-34690200D01*
X31416934Y-34690687D01*
X31415878Y-34690400D01*
X31415321Y-34690488D01*
X31409879Y-34689595D01*
X31408915Y-34689500D01*
X31408913Y-34689500D01*
X31242330Y-34689500D01*
X31207389Y-34684475D01*
X31192390Y-34680070D01*
X31133644Y-34642327D01*
X31132457Y-34640958D01*
X31104977Y-34586083D01*
X31103332Y-34578521D01*
X31100500Y-34552168D01*
X31100500Y-34476503D01*
X31102883Y-34452311D01*
X31106577Y-34433741D01*
X31109679Y-34425507D01*
X31108756Y-34425260D01*
X31110879Y-34417335D01*
X31116092Y-34401975D01*
X31124190Y-34382421D01*
X31127522Y-34355226D01*
X31150500Y-34269475D01*
X31150500Y-34124525D01*
X31112984Y-33984515D01*
X31106329Y-33972989D01*
X31092503Y-33949041D01*
X31040516Y-33858996D01*
X31040508Y-33858984D01*
X31040493Y-33858968D01*
X30938030Y-33756505D01*
X30938014Y-33756490D01*
X30938011Y-33756488D01*
X30899544Y-33734279D01*
X30884240Y-33725443D01*
X30855808Y-33695624D01*
X30796807Y-33679815D01*
X30796807Y-33679814D01*
X30686757Y-33650327D01*
X30672475Y-33646500D01*
X30672474Y-33646500D01*
X30527525Y-33646500D01*
X30403195Y-33679813D01*
X30403196Y-33679814D01*
X30387509Y-33684017D01*
X30387507Y-33684018D01*
X30261992Y-33756485D01*
X30261984Y-33756490D01*
X30261968Y-33756505D01*
X30159505Y-33858968D01*
X30159490Y-33858984D01*
X30159485Y-33858992D01*
X30087017Y-33984509D01*
X30086989Y-33984578D01*
X30086748Y-33985511D01*
X30051298Y-34117816D01*
X30049500Y-34124525D01*
X30049500Y-34269475D01*
X30085004Y-34401975D01*
X30086433Y-34407308D01*
X30086433Y-34407311D01*
X30087017Y-34409488D01*
X30088226Y-34413051D01*
X30092420Y-34428704D01*
X30097116Y-34452306D01*
X30099500Y-34476503D01*
X30099500Y-35495895D01*
X30123559Y-35585689D01*
X30123531Y-35586836D01*
X30135430Y-35631233D01*
X30141320Y-35653212D01*
X30145375Y-35668340D01*
X30149602Y-35700440D01*
X30149602Y-35997670D01*
X30144577Y-36032614D01*
X30140172Y-36047612D01*
X30102429Y-36106355D01*
X30101060Y-36107542D01*
X30046188Y-36135021D01*
X30007440Y-36143450D01*
X30006630Y-36144096D01*
X29991941Y-36149034D01*
X29940173Y-36162906D01*
X29887507Y-36177018D01*
X29761992Y-36249485D01*
X29761984Y-36249490D01*
X29761968Y-36249505D01*
X29659505Y-36351968D01*
X29659490Y-36351984D01*
X29659485Y-36351992D01*
X29587017Y-36477509D01*
X29586989Y-36477578D01*
X29586748Y-36478511D01*
X29563335Y-36565891D01*
X29549500Y-36617525D01*
X29549500Y-36762475D01*
X29586486Y-36900507D01*
X29587017Y-36902487D01*
X29645719Y-37004162D01*
X29658836Y-37036927D01*
X29661362Y-37047340D01*
X29662109Y-37050416D01*
X29658782Y-37120207D01*
X29618280Y-37177097D01*
X29617004Y-37178101D01*
X29563803Y-37202408D01*
X29558881Y-37203357D01*
X29535405Y-37205600D01*
X28488729Y-37205600D01*
X28453793Y-37200577D01*
X28428551Y-37193165D01*
X28375806Y-37161869D01*
X27424426Y-36210489D01*
X27403274Y-36182233D01*
X27390667Y-36159144D01*
X27375500Y-36099719D01*
X27375500Y-35539239D01*
X27380523Y-35504303D01*
X27384927Y-35489305D01*
X27422690Y-35430538D01*
X27423920Y-35429471D01*
X27428244Y-35425724D01*
X27485264Y-35397812D01*
X27529740Y-35388966D01*
X27612601Y-35333601D01*
X27667966Y-35250740D01*
X27682500Y-35177674D01*
X27682500Y-34322326D01*
X27682500Y-34322323D01*
X27682500Y-34322139D01*
X27682064Y-34320134D01*
X27667972Y-34249289D01*
X27667967Y-34249266D01*
X27667966Y-34249260D01*
X27648102Y-34219531D01*
X27648102Y-34219530D01*
X27633882Y-34198248D01*
X27612601Y-34166399D01*
X27573202Y-34140074D01*
X27539891Y-34117816D01*
X27535826Y-34114480D01*
X27529739Y-34111033D01*
X27529735Y-34111032D01*
X27529709Y-34111026D01*
X27456680Y-34096500D01*
X27456677Y-34096500D01*
X27456674Y-34096500D01*
X26543326Y-34096500D01*
X26543323Y-34096500D01*
X26543319Y-34096500D01*
X26470285Y-34111027D01*
X26470262Y-34111032D01*
X26470258Y-34111033D01*
X26387399Y-34166399D01*
X26332033Y-34249258D01*
X26332032Y-34249266D01*
X26332028Y-34249281D01*
X26317500Y-34322318D01*
X26317500Y-34322321D01*
X26317500Y-35177678D01*
X26317500Y-35177680D01*
X26317499Y-35177680D01*
X26332028Y-35250717D01*
X26332032Y-35250735D01*
X26332033Y-35250739D01*
X26335480Y-35256826D01*
X26338816Y-35260891D01*
X26386939Y-35332913D01*
X26387399Y-35333601D01*
X26470260Y-35388966D01*
X26507208Y-35396315D01*
X26540489Y-35408056D01*
X26554340Y-35415301D01*
X26604613Y-35463808D01*
X26608249Y-35470192D01*
X26624500Y-35531560D01*
X26624500Y-36366535D01*
X26626956Y-36375700D01*
X26650089Y-36462036D01*
X26654699Y-36470020D01*
X26662780Y-36491457D01*
X26676207Y-36507274D01*
X26697676Y-36544462D01*
X26699058Y-36547031D01*
X26699444Y-36547581D01*
X26699526Y-36547663D01*
X27963525Y-37811662D01*
X28033438Y-37881575D01*
X28118303Y-37930572D01*
X28118323Y-37930593D01*
X28118328Y-37930586D01*
X28119062Y-37931010D01*
X28166811Y-37943805D01*
X28166812Y-37943805D01*
X28174612Y-37945895D01*
X28174626Y-37945898D01*
X28176863Y-37946497D01*
X28176899Y-37946519D01*
X28176903Y-37946508D01*
X28214564Y-37956600D01*
X28214565Y-37956600D01*
X28214566Y-37956600D01*
X30625035Y-37956600D01*
X30625036Y-37956600D01*
X30672786Y-37943805D01*
X30720538Y-37931010D01*
X30806162Y-37881575D01*
X30876075Y-37811662D01*
X31525214Y-37162522D01*
X31553457Y-37141378D01*
X31563391Y-37135954D01*
X31631661Y-37121101D01*
X31697126Y-37145515D01*
X31738999Y-37201447D01*
X31741604Y-37208431D01*
X31741682Y-37208639D01*
X31749500Y-37251973D01*
X31749500Y-37265891D01*
X31766554Y-37329539D01*
X31783608Y-37393188D01*
X31783609Y-37393190D01*
X31786237Y-37397741D01*
X31786239Y-37397744D01*
X31849500Y-37507314D01*
X31942686Y-37600500D01*
X32056814Y-37666392D01*
X32184108Y-37700500D01*
X32184110Y-37700500D01*
X32315890Y-37700500D01*
X32315892Y-37700500D01*
X32443186Y-37666392D01*
X32557314Y-37600500D01*
X32650500Y-37507314D01*
X32716392Y-37393186D01*
X32750500Y-37265892D01*
X32750500Y-37134108D01*
X32716392Y-37006814D01*
X32650500Y-36892686D01*
X32649426Y-36891612D01*
X32628274Y-36863356D01*
X32615667Y-36840267D01*
X32600500Y-36780842D01*
X32600500Y-36312328D01*
X32605523Y-36277392D01*
X32609927Y-36262394D01*
X32647672Y-36203643D01*
X32649041Y-36202456D01*
X32703920Y-36174976D01*
X32711479Y-36173332D01*
X32737832Y-36170499D01*
X32908910Y-36170499D01*
X32908912Y-36170499D01*
X32908913Y-36170498D01*
X32914971Y-36169902D01*
X32915123Y-36171450D01*
X32919137Y-36171809D01*
X32947560Y-36162905D01*
X32947561Y-36162906D01*
X32963028Y-36158060D01*
X33032882Y-36156805D01*
X33052715Y-36162243D01*
X33052715Y-36162241D01*
X33080237Y-36169788D01*
X33083044Y-36169308D01*
X33089830Y-36170376D01*
X33091082Y-36170499D01*
X33091087Y-36170500D01*
X33140704Y-36170499D01*
X33175631Y-36175519D01*
X33188953Y-36179431D01*
X33247729Y-36217201D01*
X33276757Y-36280756D01*
X33276758Y-36280759D01*
X33277968Y-36289174D01*
X33275005Y-36338915D01*
X33249500Y-36434104D01*
X33249500Y-36434106D01*
X33249500Y-36565891D01*
X33283608Y-36693187D01*
X33303435Y-36727527D01*
X33349500Y-36807314D01*
X33442686Y-36900500D01*
X33556814Y-36966392D01*
X33684108Y-37000500D01*
X33684110Y-37000500D01*
X33815890Y-37000500D01*
X33815892Y-37000500D01*
X33943186Y-36966392D01*
X34057314Y-36900500D01*
X34150500Y-36807314D01*
X34184200Y-36748941D01*
X34206012Y-36721205D01*
X34214207Y-36713391D01*
X34276307Y-36681380D01*
X34345860Y-36688024D01*
X34400754Y-36731180D01*
X34401112Y-36731684D01*
X34422408Y-36783068D01*
X34422781Y-36785285D01*
X34424500Y-36805858D01*
X34424500Y-38042853D01*
X34441493Y-38106270D01*
X34445074Y-38119634D01*
X34445075Y-38119639D01*
X34446682Y-38125637D01*
X34446683Y-38125639D01*
X34446685Y-38125644D01*
X34487684Y-38196658D01*
X34489069Y-38199233D01*
X34489453Y-38199780D01*
X34550190Y-38260517D01*
X34550705Y-38260895D01*
X34553315Y-38262300D01*
X34624355Y-38303314D01*
X34624362Y-38303318D01*
X34641878Y-38308011D01*
X34674333Y-38321910D01*
X34677451Y-38323811D01*
X34679550Y-38325091D01*
X34726542Y-38376797D01*
X34738120Y-38445701D01*
X34710608Y-38509926D01*
X34652764Y-38549073D01*
X34648273Y-38550509D01*
X34610508Y-38556400D01*
X22400829Y-38556400D01*
X22365893Y-38551377D01*
X22340651Y-38543965D01*
X22287906Y-38512669D01*
X21053455Y-37278218D01*
X21032306Y-37249968D01*
X21025651Y-37237780D01*
X21010800Y-37169510D01*
X21035214Y-37104049D01*
X21043021Y-37093620D01*
X21063746Y-37073202D01*
X21063218Y-37072583D01*
X21066925Y-37069417D01*
X21121848Y-37014494D01*
X21189414Y-36946928D01*
X21291232Y-36806788D01*
X21369873Y-36652445D01*
X21423402Y-36487701D01*
X21425016Y-36477515D01*
X21425017Y-36477509D01*
X21427467Y-36462039D01*
X21448919Y-36326591D01*
X21450500Y-36316611D01*
X21450500Y-36143389D01*
X21423402Y-35972299D01*
X21369873Y-35807555D01*
X21291232Y-35653212D01*
X21189414Y-35513072D01*
X21066928Y-35390586D01*
X20926788Y-35288768D01*
X20915089Y-35282807D01*
X20772449Y-35210128D01*
X20616532Y-35159467D01*
X20612010Y-35157614D01*
X20602820Y-35155444D01*
X20598057Y-35155070D01*
X20587513Y-35153400D01*
X20476271Y-35135781D01*
X20460407Y-35133268D01*
X20436614Y-35129500D01*
X20436611Y-35129500D01*
X20263389Y-35129500D01*
X20263388Y-35129500D01*
X20223726Y-35135781D01*
X20223725Y-35135780D01*
X20092304Y-35156596D01*
X19927549Y-35210129D01*
X19773210Y-35288768D01*
X19741772Y-35311610D01*
X19712452Y-35332913D01*
X19653674Y-35375618D01*
X19644942Y-35381962D01*
X19637562Y-35386094D01*
X19506092Y-35517564D01*
X19501961Y-35524941D01*
X19466859Y-35573255D01*
X19466859Y-35573256D01*
X19408768Y-35653210D01*
X19330129Y-35807549D01*
X19276596Y-35972305D01*
X19276595Y-35972306D01*
X19264649Y-36047739D01*
X19264649Y-36047741D01*
X19249500Y-36143384D01*
X19249500Y-36316613D01*
X19251078Y-36326580D01*
X19251081Y-36326590D01*
X19251081Y-36326591D01*
X19268109Y-36434104D01*
X19274983Y-36477509D01*
X19276598Y-36487701D01*
X19330128Y-36652449D01*
X19370500Y-36731682D01*
X19408294Y-36805858D01*
X19408769Y-36806789D01*
X19408770Y-36806791D01*
X19416683Y-36817682D01*
X19478298Y-36902488D01*
X19486074Y-36913191D01*
X19502546Y-36944409D01*
X19506897Y-36956605D01*
X19510883Y-37026361D01*
X19476524Y-37087199D01*
X19419923Y-37118633D01*
X19410925Y-37120862D01*
X19381109Y-37124500D01*
X18781594Y-37124500D01*
X18746656Y-37119476D01*
X18734230Y-37115827D01*
X18675453Y-37078051D01*
X18646430Y-37014494D01*
X18654272Y-36950215D01*
X18657760Y-36941622D01*
X18672337Y-36915377D01*
X18751229Y-36806792D01*
X18751231Y-36806789D01*
X18751232Y-36806788D01*
X18829873Y-36652445D01*
X18883402Y-36487701D01*
X18885016Y-36477515D01*
X18885017Y-36477509D01*
X18887467Y-36462039D01*
X18908919Y-36326591D01*
X18910500Y-36316611D01*
X18910500Y-36143389D01*
X18883402Y-35972299D01*
X18829873Y-35807555D01*
X18751232Y-35653212D01*
X18649414Y-35513072D01*
X18526928Y-35390586D01*
X18386788Y-35288768D01*
X18375089Y-35282807D01*
X18232449Y-35210128D01*
X18076532Y-35159467D01*
X18072010Y-35157614D01*
X18062820Y-35155444D01*
X18058057Y-35155070D01*
X18047513Y-35153400D01*
X17936271Y-35135781D01*
X17920407Y-35133268D01*
X17896614Y-35129500D01*
X17896611Y-35129500D01*
X17723389Y-35129500D01*
X17723388Y-35129500D01*
X17683726Y-35135781D01*
X17683725Y-35135780D01*
X17552304Y-35156596D01*
X17387549Y-35210129D01*
X17233210Y-35288768D01*
X17201772Y-35311610D01*
X17172452Y-35332913D01*
X17113674Y-35375618D01*
X17104942Y-35381962D01*
X17097562Y-35386094D01*
X16966092Y-35517564D01*
X16961961Y-35524941D01*
X16926859Y-35573255D01*
X16926859Y-35573256D01*
X16868768Y-35653210D01*
X16790129Y-35807549D01*
X16736596Y-35972305D01*
X16736595Y-35972306D01*
X16724649Y-36047739D01*
X16724649Y-36047741D01*
X16709500Y-36143384D01*
X16709500Y-36316613D01*
X16711078Y-36326580D01*
X16711081Y-36326590D01*
X16711081Y-36326591D01*
X16728109Y-36434104D01*
X16734983Y-36477509D01*
X16736598Y-36487701D01*
X16790128Y-36652449D01*
X16830500Y-36731682D01*
X16868294Y-36805858D01*
X16868769Y-36806789D01*
X16868770Y-36806791D01*
X16876683Y-36817682D01*
X16938298Y-36902488D01*
X16946074Y-36913191D01*
X16962546Y-36944409D01*
X16966897Y-36956605D01*
X16970883Y-37026361D01*
X16936524Y-37087199D01*
X16879923Y-37118633D01*
X16870925Y-37120862D01*
X16841109Y-37124500D01*
X16241594Y-37124500D01*
X16206656Y-37119476D01*
X16194230Y-37115827D01*
X16135453Y-37078051D01*
X16106430Y-37014494D01*
X16114272Y-36950215D01*
X16117760Y-36941622D01*
X16132337Y-36915377D01*
X16211229Y-36806792D01*
X16211231Y-36806789D01*
X16211232Y-36806788D01*
X16289873Y-36652445D01*
X16343402Y-36487701D01*
X16345016Y-36477515D01*
X16345017Y-36477509D01*
X16347467Y-36462039D01*
X16368919Y-36326591D01*
X16370500Y-36316611D01*
X16370500Y-36143389D01*
X16343402Y-35972299D01*
X16289873Y-35807555D01*
X16211232Y-35653212D01*
X16109414Y-35513072D01*
X15986928Y-35390586D01*
X15846788Y-35288768D01*
X15835089Y-35282807D01*
X15692449Y-35210128D01*
X15536532Y-35159467D01*
X15532010Y-35157614D01*
X15522820Y-35155444D01*
X15518057Y-35155070D01*
X15507513Y-35153400D01*
X15396271Y-35135781D01*
X15380407Y-35133268D01*
X15356614Y-35129500D01*
X15356611Y-35129500D01*
X15183389Y-35129500D01*
X15183388Y-35129500D01*
X15143726Y-35135781D01*
X15143725Y-35135780D01*
X15012304Y-35156596D01*
X14847549Y-35210129D01*
X14693214Y-35288766D01*
X14693210Y-35288768D01*
X14693207Y-35288770D01*
X14693203Y-35288773D01*
X14657407Y-35314780D01*
X14626189Y-35331251D01*
X14613993Y-35335602D01*
X14544237Y-35339588D01*
X14483399Y-35305229D01*
X14451962Y-35248612D01*
X14449732Y-35239609D01*
X14446100Y-35209816D01*
X14446100Y-33851204D01*
X14451122Y-33816271D01*
X14458534Y-33791026D01*
X14489828Y-33738284D01*
X15771432Y-32456680D01*
X18596499Y-32456680D01*
X18611028Y-32529717D01*
X18611032Y-32529735D01*
X18611033Y-32529739D01*
X18614480Y-32535826D01*
X18617816Y-32539891D01*
X18666399Y-32612601D01*
X18749256Y-32667964D01*
X18749258Y-32667965D01*
X18749259Y-32667965D01*
X18749260Y-32667966D01*
X18749264Y-32667967D01*
X18749279Y-32667970D01*
X18749288Y-32667972D01*
X18794021Y-32676869D01*
X18814681Y-32680979D01*
X18817415Y-32681703D01*
X18822323Y-32682500D01*
X19677676Y-32682500D01*
X19681796Y-32682500D01*
X19689648Y-32680117D01*
X19750740Y-32667966D01*
X19833601Y-32612601D01*
X19869697Y-32558577D01*
X19876239Y-32549674D01*
X19898828Y-32521641D01*
X19903720Y-32515569D01*
X19961111Y-32475720D01*
X20030936Y-32473224D01*
X20091025Y-32508873D01*
X20102245Y-32520923D01*
X20105701Y-32524635D01*
X20118051Y-32540243D01*
X20166399Y-32612601D01*
X20249256Y-32667964D01*
X20249258Y-32667965D01*
X20249259Y-32667965D01*
X20249260Y-32667966D01*
X20249264Y-32667967D01*
X20249279Y-32667970D01*
X20249288Y-32667972D01*
X20294021Y-32676869D01*
X20314681Y-32680979D01*
X20317415Y-32681703D01*
X20322323Y-32682500D01*
X20322324Y-32682500D01*
X20322326Y-32682500D01*
X21174094Y-32682500D01*
X21177676Y-32682500D01*
X21177677Y-32682499D01*
X21250740Y-32667966D01*
X21333601Y-32612601D01*
X21340846Y-32601756D01*
X21365176Y-32581421D01*
X21367174Y-32580552D01*
X21376148Y-32575814D01*
X21379729Y-32575087D01*
X21429239Y-32553537D01*
X21498205Y-32564712D01*
X21501761Y-32566413D01*
X21508143Y-32569467D01*
X21542302Y-32593640D01*
X21978837Y-33030175D01*
X21979531Y-33030675D01*
X21982056Y-33032034D01*
X21984784Y-33033609D01*
X22021650Y-33054893D01*
X22064463Y-33079611D01*
X22159964Y-33105200D01*
X22159965Y-33105200D01*
X22159966Y-33105200D01*
X23888035Y-33105200D01*
X23888036Y-33105200D01*
X23935786Y-33092405D01*
X23983538Y-33079610D01*
X24069162Y-33030175D01*
X24139075Y-32960262D01*
X24323774Y-32775563D01*
X24323775Y-32775562D01*
X24351270Y-32727938D01*
X24373085Y-32700197D01*
X24386708Y-32687207D01*
X24443043Y-32656450D01*
X24445502Y-32655853D01*
X24453170Y-32653994D01*
X24482398Y-32650500D01*
X25178796Y-32650500D01*
X25186648Y-32648117D01*
X25247740Y-32635966D01*
X25330601Y-32580601D01*
X25385966Y-32497740D01*
X25400500Y-32424674D01*
X25400500Y-31575326D01*
X25400500Y-31575323D01*
X25400500Y-31575139D01*
X25400064Y-31573134D01*
X25385972Y-31502289D01*
X25385971Y-31502287D01*
X25385967Y-31502264D01*
X25385966Y-31502260D01*
X25385965Y-31502258D01*
X25385964Y-31502256D01*
X25330601Y-31419399D01*
X25257891Y-31370816D01*
X25253826Y-31367480D01*
X25247739Y-31364033D01*
X25247735Y-31364032D01*
X25247709Y-31364026D01*
X25174680Y-31349500D01*
X25174677Y-31349500D01*
X25174674Y-31349500D01*
X24325326Y-31349500D01*
X24325323Y-31349500D01*
X24325319Y-31349500D01*
X24252285Y-31364027D01*
X24252262Y-31364032D01*
X24252258Y-31364033D01*
X24169399Y-31419399D01*
X24114033Y-31502258D01*
X24114032Y-31502262D01*
X24113049Y-31507207D01*
X24101304Y-31540494D01*
X24096072Y-31550499D01*
X24094058Y-31554348D01*
X24045556Y-31604613D01*
X24039174Y-31608248D01*
X23981921Y-31623409D01*
X23981925Y-31623439D01*
X23981697Y-31623468D01*
X23977804Y-31624500D01*
X23973865Y-31624500D01*
X23878360Y-31650090D01*
X23792739Y-31699523D01*
X23792733Y-31699528D01*
X23722828Y-31769433D01*
X23722823Y-31769439D01*
X23673390Y-31855060D01*
X23647800Y-31950565D01*
X23647800Y-32212370D01*
X23642775Y-32247314D01*
X23638370Y-32262312D01*
X23600627Y-32321055D01*
X23599258Y-32322242D01*
X23544397Y-32349718D01*
X23536839Y-32351363D01*
X23510468Y-32354200D01*
X22434130Y-32354200D01*
X22399194Y-32349177D01*
X22373952Y-32341765D01*
X22321207Y-32310469D01*
X21710263Y-31699526D01*
X21710262Y-31699525D01*
X21624638Y-31650090D01*
X21624637Y-31650089D01*
X21624633Y-31650088D01*
X21582935Y-31638915D01*
X21582932Y-31638914D01*
X21529138Y-31624500D01*
X21524659Y-31623911D01*
X21505906Y-31619947D01*
X21489300Y-31615070D01*
X21430532Y-31577301D01*
X21425720Y-31571748D01*
X21397813Y-31514734D01*
X21388967Y-31470263D01*
X21388966Y-31470260D01*
X21354982Y-31419399D01*
X21333601Y-31387399D01*
X21333600Y-31387398D01*
X21260891Y-31338816D01*
X21256826Y-31335480D01*
X21250739Y-31332033D01*
X21250735Y-31332032D01*
X21250709Y-31332026D01*
X21177680Y-31317500D01*
X21177677Y-31317500D01*
X21177674Y-31317500D01*
X20322326Y-31317500D01*
X20322323Y-31317500D01*
X20322319Y-31317500D01*
X20249285Y-31332027D01*
X20249262Y-31332032D01*
X20249258Y-31332033D01*
X20166398Y-31387398D01*
X20130280Y-31441455D01*
X20123723Y-31450378D01*
X20096272Y-31484438D01*
X20038877Y-31524282D01*
X19969052Y-31526771D01*
X19908966Y-31491115D01*
X19902750Y-31484438D01*
X19894273Y-31475331D01*
X19881932Y-31459733D01*
X19852186Y-31415214D01*
X19852186Y-31415213D01*
X19833602Y-31387401D01*
X19833601Y-31387399D01*
X19833598Y-31387397D01*
X19829188Y-31384450D01*
X19802929Y-31360865D01*
X19792902Y-31348868D01*
X19765016Y-31284807D01*
X19763663Y-31274030D01*
X19766922Y-31226483D01*
X19800500Y-31101175D01*
X19800500Y-30956225D01*
X19763449Y-30817952D01*
X19762985Y-30816110D01*
X19762706Y-30815523D01*
X19760994Y-30812767D01*
X19690513Y-30690690D01*
X19690508Y-30690684D01*
X19690493Y-30690668D01*
X19588030Y-30588205D01*
X19588014Y-30588190D01*
X19588006Y-30588185D01*
X19534243Y-30557145D01*
X19505808Y-30527324D01*
X19451007Y-30512639D01*
X19451007Y-30512640D01*
X19386740Y-30495420D01*
X19322475Y-30478200D01*
X19322474Y-30478200D01*
X19177525Y-30478200D01*
X19048994Y-30512639D01*
X19048993Y-30512640D01*
X19041338Y-30514691D01*
X19037510Y-30515717D01*
X18911991Y-30588185D01*
X18911984Y-30588190D01*
X18911968Y-30588205D01*
X18809505Y-30690668D01*
X18809490Y-30690684D01*
X18809485Y-30690692D01*
X18745182Y-30802068D01*
X18745179Y-30802072D01*
X18737016Y-30816209D01*
X18728097Y-30849499D01*
X18699500Y-30956225D01*
X18699500Y-31101175D01*
X18731909Y-31222127D01*
X18736099Y-31257171D01*
X18735727Y-31272798D01*
X18714452Y-31339350D01*
X18708368Y-31348339D01*
X18674570Y-31381937D01*
X18666404Y-31387393D01*
X18666396Y-31387401D01*
X18611034Y-31470256D01*
X18611033Y-31470259D01*
X18611033Y-31470260D01*
X18611033Y-31470263D01*
X18611032Y-31470266D01*
X18611028Y-31470281D01*
X18596500Y-31543318D01*
X18596500Y-31543321D01*
X18596500Y-32456678D01*
X18596500Y-32456680D01*
X18596499Y-32456680D01*
X15771432Y-32456680D01*
X18551332Y-29676779D01*
X18579587Y-29655629D01*
X18593307Y-29648138D01*
X18661576Y-29633288D01*
X18668903Y-29633812D01*
X18728946Y-29654393D01*
X18749258Y-29667965D01*
X18749260Y-29667966D01*
X18749264Y-29667967D01*
X18749280Y-29667970D01*
X18749288Y-29667972D01*
X18787135Y-29675500D01*
X18814681Y-29680979D01*
X18817415Y-29681703D01*
X18822323Y-29682500D01*
X19677676Y-29682500D01*
X19681796Y-29682500D01*
X19689648Y-29680117D01*
X19750740Y-29667966D01*
X19833601Y-29612601D01*
X19869691Y-29558586D01*
X19873694Y-29555240D01*
X19876239Y-29549674D01*
X19898828Y-29521641D01*
X19903720Y-29515569D01*
X19961111Y-29475720D01*
X20030936Y-29473224D01*
X20091026Y-29508874D01*
X20098816Y-29517241D01*
X20102245Y-29520923D01*
X20105701Y-29524635D01*
X20118051Y-29540243D01*
X20162009Y-29606031D01*
X20166399Y-29612601D01*
X20223120Y-29650500D01*
X20224063Y-29651130D01*
X20249258Y-29667965D01*
X20249260Y-29667966D01*
X20249264Y-29667967D01*
X20249280Y-29667970D01*
X20249288Y-29667972D01*
X20287135Y-29675500D01*
X20314681Y-29680979D01*
X20317415Y-29681703D01*
X20322323Y-29682500D01*
X21177676Y-29682500D01*
X21181796Y-29682500D01*
X21189648Y-29680117D01*
X21250740Y-29667966D01*
X21333601Y-29612601D01*
X21388966Y-29529740D01*
X21391647Y-29516264D01*
X21396315Y-29492794D01*
X21408057Y-29459511D01*
X21415304Y-29445657D01*
X21463816Y-29395381D01*
X21470210Y-29391740D01*
X21521295Y-29378217D01*
X21521077Y-29376561D01*
X21529128Y-29375500D01*
X21529135Y-29375500D01*
X21529136Y-29375500D01*
X21576886Y-29362705D01*
X21624638Y-29349910D01*
X21710262Y-29300475D01*
X21780175Y-29230562D01*
X22314513Y-28696223D01*
X22342763Y-28675075D01*
X22365855Y-28662467D01*
X22425280Y-28647300D01*
X23505970Y-28647300D01*
X23540906Y-28652323D01*
X23555904Y-28656727D01*
X23614655Y-28694472D01*
X23615842Y-28695841D01*
X23643318Y-28750702D01*
X23644963Y-28758260D01*
X23647800Y-28784631D01*
X23647800Y-28950564D01*
X23647800Y-28950565D01*
X23647800Y-29049435D01*
X23673390Y-29144938D01*
X23722825Y-29230562D01*
X23792738Y-29300475D01*
X23878362Y-29349910D01*
X23973865Y-29375500D01*
X23973867Y-29375500D01*
X23981925Y-29376561D01*
X23981842Y-29377184D01*
X24005060Y-29380523D01*
X24020058Y-29384927D01*
X24078825Y-29422690D01*
X24083637Y-29428242D01*
X24111552Y-29485267D01*
X24114032Y-29497737D01*
X24114033Y-29497741D01*
X24114153Y-29497980D01*
X24115255Y-29499568D01*
X24163720Y-29572102D01*
X24169399Y-29580601D01*
X24244365Y-29630691D01*
X24252260Y-29635966D01*
X24252264Y-29635967D01*
X24252282Y-29635970D01*
X24252288Y-29635972D01*
X24297021Y-29644869D01*
X24317681Y-29648979D01*
X24320415Y-29649703D01*
X24325323Y-29650500D01*
X25174676Y-29650500D01*
X25178796Y-29650500D01*
X25186648Y-29648117D01*
X25247740Y-29635966D01*
X25330601Y-29580601D01*
X25385966Y-29497740D01*
X25400500Y-29424674D01*
X25400500Y-28575326D01*
X25400500Y-28575323D01*
X25400500Y-28575139D01*
X25400064Y-28573134D01*
X25385972Y-28502289D01*
X25385967Y-28502266D01*
X25385966Y-28502260D01*
X25377237Y-28489196D01*
X25377237Y-28489195D01*
X25354938Y-28455823D01*
X25330601Y-28419399D01*
X25282709Y-28387399D01*
X25257891Y-28370816D01*
X25253826Y-28367480D01*
X25247739Y-28364033D01*
X25247735Y-28364032D01*
X25247709Y-28364026D01*
X25174680Y-28349500D01*
X25174677Y-28349500D01*
X25174674Y-28349500D01*
X24485401Y-28349500D01*
X24450465Y-28344477D01*
X24432407Y-28339174D01*
X24377600Y-28305765D01*
X24370411Y-28298225D01*
X24352770Y-28274660D01*
X24323775Y-28224438D01*
X24253862Y-28154525D01*
X24070663Y-27971326D01*
X24070662Y-27971325D01*
X23985038Y-27921890D01*
X23985037Y-27921889D01*
X23985033Y-27921888D01*
X23943335Y-27910715D01*
X23943332Y-27910714D01*
X23889537Y-27896300D01*
X23889536Y-27896300D01*
X23889535Y-27896300D01*
X22257336Y-27896300D01*
X22158464Y-27896300D01*
X22158459Y-27896300D01*
X22142800Y-27900496D01*
X22142795Y-27900496D01*
X22093751Y-27913638D01*
X22078733Y-27917663D01*
X22078730Y-27917663D01*
X22062965Y-27921887D01*
X21977331Y-27971329D01*
X21544236Y-28404425D01*
X21515983Y-28425576D01*
X21503801Y-28432228D01*
X21435528Y-28447080D01*
X21370065Y-28422664D01*
X21370059Y-28422660D01*
X21370058Y-28422659D01*
X21361245Y-28416061D01*
X21342252Y-28396021D01*
X21342238Y-28396036D01*
X21333601Y-28387399D01*
X21260891Y-28338816D01*
X21256826Y-28335480D01*
X21250739Y-28332033D01*
X21250735Y-28332032D01*
X21250709Y-28332026D01*
X21177680Y-28317500D01*
X21177677Y-28317500D01*
X21177674Y-28317500D01*
X20963129Y-28317500D01*
X20928194Y-28312477D01*
X20917340Y-28309290D01*
X20858562Y-28271516D01*
X20829537Y-28207960D01*
X20839477Y-28138811D01*
X20842667Y-28131824D01*
X20867776Y-28095660D01*
X21241826Y-27721611D01*
X21665209Y-27298226D01*
X21693457Y-27277080D01*
X21723198Y-27260840D01*
X21750516Y-27249904D01*
X21875586Y-27216392D01*
X21979788Y-27156230D01*
X21997071Y-27147963D01*
X21997530Y-27147785D01*
X21997531Y-27147786D01*
X22033608Y-27133839D01*
X22078315Y-27125500D01*
X23829083Y-27125500D01*
X23864019Y-27130523D01*
X23896529Y-27140069D01*
X23923593Y-27151659D01*
X24035710Y-27216390D01*
X24035711Y-27216390D01*
X24035714Y-27216392D01*
X24163008Y-27250500D01*
X28247764Y-27250500D01*
X28282696Y-27255522D01*
X28289458Y-27257507D01*
X28302830Y-27261434D01*
X28354786Y-27291945D01*
X28359586Y-27296661D01*
X28375789Y-27316225D01*
X28387399Y-27333601D01*
X28470256Y-27388964D01*
X28470258Y-27388965D01*
X28470259Y-27388965D01*
X28470260Y-27388966D01*
X28470264Y-27388967D01*
X28470279Y-27388970D01*
X28470288Y-27388972D01*
X28515021Y-27397869D01*
X28535681Y-27401979D01*
X28538415Y-27402703D01*
X28543323Y-27403500D01*
X29456676Y-27403500D01*
X29460796Y-27403500D01*
X29468648Y-27401117D01*
X29529740Y-27388966D01*
X29612601Y-27333601D01*
X29667966Y-27250740D01*
X29682500Y-27177674D01*
X29682500Y-26322326D01*
X29682500Y-26322323D01*
X29682500Y-26322139D01*
X29682064Y-26320134D01*
X29667972Y-26249289D01*
X29667967Y-26249266D01*
X29667967Y-26249264D01*
X29667966Y-26249260D01*
X29662676Y-26241343D01*
X29612601Y-26166399D01*
X29582037Y-26145977D01*
X29558588Y-26130309D01*
X29549677Y-26123762D01*
X29515571Y-26096280D01*
X29475720Y-26038889D01*
X29473223Y-25969064D01*
X29508871Y-25908976D01*
X29514509Y-25903726D01*
X29520923Y-25897754D01*
X29520922Y-25897753D01*
X29524633Y-25894299D01*
X29540235Y-25881952D01*
X29612601Y-25833601D01*
X29667966Y-25750740D01*
X29682500Y-25677674D01*
X29682500Y-24822326D01*
X29682500Y-24822323D01*
X29682500Y-24822139D01*
X29682064Y-24820134D01*
X29667972Y-24749289D01*
X29667971Y-24749288D01*
X29667967Y-24749264D01*
X29667966Y-24749260D01*
X29660710Y-24738400D01*
X29612601Y-24666399D01*
X29611954Y-24665967D01*
X29557235Y-24629405D01*
X29529740Y-24611033D01*
X29529737Y-24611032D01*
X29529735Y-24611032D01*
X29529725Y-24611030D01*
X29529709Y-24611026D01*
X29456680Y-24596500D01*
X29456677Y-24596500D01*
X29456674Y-24596500D01*
X28826175Y-24596500D01*
X28791239Y-24591477D01*
X28777043Y-24587308D01*
X28718267Y-24549533D01*
X28689668Y-24488714D01*
X28687186Y-24473822D01*
X28685500Y-24453442D01*
X28685500Y-24017329D01*
X28690523Y-23982393D01*
X28694927Y-23967395D01*
X28732661Y-23908653D01*
X28732832Y-23908504D01*
X28734034Y-23907462D01*
X28788909Y-23879978D01*
X28801958Y-23877139D01*
X28810703Y-23875615D01*
X28811132Y-23875500D01*
X28811135Y-23875500D01*
X28811136Y-23875500D01*
X28815379Y-23874362D01*
X28821110Y-23872972D01*
X28834184Y-23870127D01*
X28845935Y-23866175D01*
X28858886Y-23862705D01*
X28906638Y-23849910D01*
X28992262Y-23800475D01*
X29062175Y-23730562D01*
X29941613Y-22851123D01*
X29969863Y-22829975D01*
X29992955Y-22817367D01*
X30052380Y-22802200D01*
X31049432Y-22802200D01*
X31049435Y-22802200D01*
X31144938Y-22776610D01*
X31230562Y-22727175D01*
X31300475Y-22657262D01*
X31349910Y-22571638D01*
X31375500Y-22476135D01*
X31375500Y-22476130D01*
X31376262Y-22473287D01*
X31379194Y-22459407D01*
X31384927Y-22439883D01*
X31422696Y-22381113D01*
X31428252Y-22376298D01*
X31485259Y-22348394D01*
X31535769Y-22338347D01*
X31541863Y-22337747D01*
X31541900Y-22337736D01*
X31552820Y-22335000D01*
X31563015Y-22325759D01*
X31630601Y-22280601D01*
X31685966Y-22197740D01*
X31685967Y-22197737D01*
X31686950Y-22192792D01*
X31698692Y-22159510D01*
X31705940Y-22145654D01*
X31754455Y-22095379D01*
X31760848Y-22091739D01*
X31818078Y-22076589D01*
X31818075Y-22076561D01*
X31818299Y-22076531D01*
X31822196Y-22075500D01*
X31826132Y-22075500D01*
X31826135Y-22075500D01*
X31921638Y-22049910D01*
X32007262Y-22000475D01*
X32077175Y-21930562D01*
X32126610Y-21844938D01*
X32152200Y-21749435D01*
X32152200Y-21534729D01*
X32157223Y-21499793D01*
X32161627Y-21484795D01*
X32199372Y-21426044D01*
X32200741Y-21424857D01*
X32255620Y-21397377D01*
X32263179Y-21395733D01*
X32289532Y-21392900D01*
X33435584Y-21392900D01*
X33470516Y-21397921D01*
G37*
G04 #@! TD.AperFunction*
G04 #@! TA.AperFunction,Conductor*
G36*
X38274020Y-32663605D02*
G01*
X38324398Y-32698584D01*
X38363854Y-32744118D01*
X38363860Y-32744125D01*
X38363865Y-32744130D01*
X38363867Y-32744132D01*
X38396641Y-32775757D01*
X38484976Y-32821965D01*
X38484977Y-32821965D01*
X38484977Y-32821966D01*
X38524845Y-32833672D01*
X38552015Y-32841650D01*
X38552019Y-32841650D01*
X38552021Y-32841651D01*
X38563652Y-32843323D01*
X38624000Y-32852000D01*
X39303000Y-32852000D01*
X39370039Y-32871685D01*
X39415794Y-32924489D01*
X39427000Y-32976000D01*
X39427000Y-33584047D01*
X39407315Y-33651086D01*
X39383740Y-33675071D01*
X39384392Y-33675771D01*
X39380188Y-33679685D01*
X39375768Y-33683182D01*
X39371829Y-33687190D01*
X39370296Y-33688213D01*
X39368832Y-33688670D01*
X39366474Y-33690535D01*
X39353913Y-33704150D01*
X39304950Y-33749742D01*
X39304943Y-33749749D01*
X39274521Y-33783621D01*
X39231498Y-33873551D01*
X39231495Y-33873559D01*
X39214222Y-33941242D01*
X39214222Y-33941246D01*
X39214221Y-33941251D01*
X39214221Y-33941252D01*
X39206937Y-33986216D01*
X39206937Y-33986218D01*
X39205948Y-33992327D01*
X39175797Y-34055357D01*
X39116356Y-34092080D01*
X39083543Y-34096500D01*
X38543319Y-34096500D01*
X38470285Y-34111027D01*
X38470262Y-34111032D01*
X38470258Y-34111033D01*
X38387399Y-34166399D01*
X38332033Y-34249258D01*
X38332032Y-34249266D01*
X38332028Y-34249281D01*
X38317500Y-34322318D01*
X38317500Y-34322321D01*
X38317500Y-35177678D01*
X38317500Y-35177680D01*
X38317499Y-35177680D01*
X38332028Y-35250717D01*
X38332032Y-35250735D01*
X38332033Y-35250739D01*
X38335480Y-35256826D01*
X38338816Y-35260891D01*
X38353460Y-35282807D01*
X38387399Y-35333601D01*
X38450283Y-35375618D01*
X38470258Y-35388965D01*
X38470260Y-35388966D01*
X38470264Y-35388967D01*
X38470280Y-35388970D01*
X38470288Y-35388972D01*
X38507200Y-35396314D01*
X38535681Y-35401979D01*
X38538417Y-35402704D01*
X38551716Y-35404862D01*
X38566795Y-35408285D01*
X38582606Y-35412928D01*
X38641355Y-35450672D01*
X38642542Y-35452041D01*
X38670018Y-35506902D01*
X38671663Y-35514460D01*
X38674500Y-35540831D01*
X38674500Y-37532670D01*
X38669475Y-37567614D01*
X38665070Y-37582612D01*
X38627327Y-37641355D01*
X38625958Y-37642542D01*
X38571097Y-37670018D01*
X38563539Y-37671663D01*
X38537168Y-37674500D01*
X35217330Y-37674500D01*
X35182389Y-37669475D01*
X35167390Y-37665070D01*
X35108644Y-37627327D01*
X35107457Y-37625958D01*
X35079977Y-37571083D01*
X35078332Y-37563521D01*
X35075500Y-37537168D01*
X35075500Y-36372213D01*
X35080523Y-36337277D01*
X35083660Y-36326596D01*
X35084927Y-36322278D01*
X35122672Y-36263528D01*
X35124041Y-36262341D01*
X35178920Y-36234861D01*
X35186479Y-36233217D01*
X35212832Y-36230384D01*
X35297093Y-36230384D01*
X35332025Y-36235405D01*
X35345344Y-36239316D01*
X35404122Y-36277090D01*
X35433148Y-36340645D01*
X35433150Y-36340662D01*
X35433381Y-36342270D01*
X35427817Y-36400471D01*
X35426178Y-36405205D01*
X35416391Y-36426632D01*
X35387019Y-36477509D01*
X35387016Y-36477515D01*
X35349500Y-36617525D01*
X35349500Y-36617527D01*
X35349500Y-36762472D01*
X35349499Y-36762472D01*
X35355018Y-36783068D01*
X35386484Y-36900499D01*
X35387017Y-36902488D01*
X35454632Y-37019601D01*
X35457635Y-37024801D01*
X35459125Y-37027571D01*
X35459353Y-37027877D01*
X35561985Y-37130509D01*
X35562674Y-37131005D01*
X35565178Y-37132353D01*
X35684069Y-37200995D01*
X35687087Y-37202869D01*
X35687514Y-37202983D01*
X35687515Y-37202984D01*
X35827525Y-37240500D01*
X35827528Y-37240500D01*
X35972472Y-37240500D01*
X35972475Y-37240500D01*
X36112485Y-37202984D01*
X36238015Y-37130509D01*
X36340509Y-37028015D01*
X36412984Y-36902485D01*
X36450500Y-36762475D01*
X36450500Y-36617525D01*
X36412984Y-36477515D01*
X36412983Y-36477514D01*
X36412983Y-36477512D01*
X36404049Y-36462039D01*
X36404047Y-36462037D01*
X36340511Y-36351988D01*
X36340506Y-36351982D01*
X36340493Y-36351968D01*
X36238030Y-36249505D01*
X36238014Y-36249490D01*
X36238011Y-36249488D01*
X36204922Y-36230384D01*
X36112488Y-36177017D01*
X36112489Y-36177017D01*
X35989039Y-36143938D01*
X35987652Y-36143398D01*
X35942267Y-36130072D01*
X35883516Y-36092327D01*
X35882329Y-36090958D01*
X35854849Y-36036083D01*
X35853204Y-36028521D01*
X35850372Y-36002168D01*
X35850372Y-35700484D01*
X35854598Y-35668387D01*
X35864555Y-35631233D01*
X35864556Y-35631228D01*
X35864555Y-35631227D01*
X35875659Y-35589794D01*
X35876428Y-35585728D01*
X35900500Y-35495892D01*
X35900500Y-35003804D01*
X35905522Y-34968871D01*
X35912934Y-34943626D01*
X35944228Y-34890884D01*
X38143007Y-32692104D01*
X38204328Y-32658621D01*
X38274020Y-32663605D01*
G37*
G04 #@! TD.AperFunction*
G04 #@! TA.AperFunction,Conductor*
G36*
X30282696Y-19755522D02*
G01*
X30288122Y-19757115D01*
X30302830Y-19761434D01*
X30354786Y-19791945D01*
X30359586Y-19796661D01*
X30375788Y-19816224D01*
X30387399Y-19833601D01*
X30449831Y-19875316D01*
X30449846Y-19875326D01*
X30470258Y-19888965D01*
X30470260Y-19888966D01*
X30470264Y-19888967D01*
X30470280Y-19888970D01*
X30470288Y-19888972D01*
X30515021Y-19897869D01*
X30535681Y-19901979D01*
X30538415Y-19902703D01*
X30543323Y-19903500D01*
X30543324Y-19903500D01*
X30543326Y-19903500D01*
X31297870Y-19903500D01*
X31332806Y-19908523D01*
X31347804Y-19912927D01*
X31406555Y-19950672D01*
X31407742Y-19952041D01*
X31435218Y-20006902D01*
X31436863Y-20014460D01*
X31439700Y-20040831D01*
X31439700Y-20839064D01*
X31435482Y-20871130D01*
X31433697Y-20877800D01*
X31415413Y-20946094D01*
X31401515Y-20978560D01*
X31396883Y-20986160D01*
X31345191Y-21033157D01*
X31337218Y-21037031D01*
X31283026Y-21049500D01*
X30525319Y-21049500D01*
X30452285Y-21064027D01*
X30452262Y-21064032D01*
X30452258Y-21064033D01*
X30369399Y-21119399D01*
X30314033Y-21202258D01*
X30314032Y-21202266D01*
X30314028Y-21202281D01*
X30299500Y-21275318D01*
X30299500Y-21909370D01*
X30294475Y-21944314D01*
X30290070Y-21959312D01*
X30252327Y-22018055D01*
X30250958Y-22019242D01*
X30196097Y-22046718D01*
X30188539Y-22048363D01*
X30162168Y-22051200D01*
X29785559Y-22051200D01*
X29769900Y-22055396D01*
X29769895Y-22055396D01*
X29733870Y-22065050D01*
X29705833Y-22072563D01*
X29705830Y-22072563D01*
X29690064Y-22076788D01*
X29690062Y-22076789D01*
X29636318Y-22107819D01*
X29607127Y-22124673D01*
X29607118Y-22124678D01*
X29604434Y-22126227D01*
X29604432Y-22126228D01*
X28909788Y-22820874D01*
X28881538Y-22842023D01*
X28871611Y-22847444D01*
X28803338Y-22862298D01*
X28737873Y-22837884D01*
X28696000Y-22781952D01*
X28696000Y-22781951D01*
X28693313Y-22774746D01*
X28685500Y-22731426D01*
X28685500Y-22545139D01*
X28685064Y-22543134D01*
X28670972Y-22472289D01*
X28670967Y-22472266D01*
X28670967Y-22472264D01*
X28670966Y-22472260D01*
X28668170Y-22468075D01*
X28615601Y-22389399D01*
X28542597Y-22340620D01*
X28535696Y-22336009D01*
X28535686Y-22336002D01*
X28535633Y-22335967D01*
X28532739Y-22334033D01*
X28532735Y-22334032D01*
X28532709Y-22334026D01*
X28459680Y-22319500D01*
X28459677Y-22319500D01*
X28459674Y-22319500D01*
X27180326Y-22319500D01*
X27180323Y-22319500D01*
X27180319Y-22319500D01*
X27107285Y-22334027D01*
X27107262Y-22334032D01*
X27107258Y-22334033D01*
X27024399Y-22389399D01*
X26969033Y-22472258D01*
X26969032Y-22472266D01*
X26969028Y-22472281D01*
X26954500Y-22545318D01*
X26954500Y-22545321D01*
X26954500Y-24454678D01*
X26954500Y-24454680D01*
X26954499Y-24454680D01*
X26969028Y-24527717D01*
X26969032Y-24527735D01*
X26969033Y-24527739D01*
X26972480Y-24533826D01*
X26975816Y-24537891D01*
X27024399Y-24610601D01*
X27107256Y-24665964D01*
X27107258Y-24665965D01*
X27107259Y-24665965D01*
X27107260Y-24665966D01*
X27107264Y-24665967D01*
X27107279Y-24665970D01*
X27107288Y-24665972D01*
X27152021Y-24674869D01*
X27172681Y-24678979D01*
X27175415Y-24679703D01*
X27180323Y-24680500D01*
X27180324Y-24680500D01*
X27180326Y-24680500D01*
X27557384Y-24680500D01*
X27592311Y-24685521D01*
X27603164Y-24688707D01*
X27661945Y-24726477D01*
X27690974Y-24790031D01*
X27681035Y-24859190D01*
X27681034Y-24859192D01*
X27677849Y-24866167D01*
X27652733Y-24902342D01*
X27604200Y-24950874D01*
X27604189Y-24950886D01*
X27604185Y-24950892D01*
X27531717Y-25076409D01*
X27531689Y-25076478D01*
X27531448Y-25077411D01*
X27503052Y-25183389D01*
X27494200Y-25216425D01*
X27494200Y-25361375D01*
X27521958Y-25464968D01*
X27531211Y-25499501D01*
X27531716Y-25501387D01*
X27602335Y-25623702D01*
X27603823Y-25626468D01*
X27604053Y-25626777D01*
X27706685Y-25729409D01*
X27707374Y-25729905D01*
X27709878Y-25731253D01*
X27828769Y-25799895D01*
X27831787Y-25801769D01*
X27832214Y-25801883D01*
X27832215Y-25801884D01*
X27972225Y-25839400D01*
X27972228Y-25839400D01*
X28117172Y-25839400D01*
X28117175Y-25839400D01*
X28248018Y-25804340D01*
X28259017Y-25804601D01*
X28281578Y-25800124D01*
X28292000Y-25800248D01*
X28292028Y-25800244D01*
X28292555Y-25800220D01*
X28292704Y-25800256D01*
X28295724Y-25800292D01*
X28295715Y-25800984D01*
X28316320Y-25805966D01*
X28317863Y-25806003D01*
X28318636Y-25806526D01*
X28360468Y-25816641D01*
X28362456Y-25817812D01*
X28372489Y-25823846D01*
X28372653Y-25823940D01*
X28376049Y-25825983D01*
X28382242Y-25830353D01*
X28382334Y-25830216D01*
X28387396Y-25833598D01*
X28387397Y-25833599D01*
X28387399Y-25833601D01*
X28441474Y-25869732D01*
X28450386Y-25876281D01*
X28478359Y-25898826D01*
X28478359Y-25898827D01*
X28484439Y-25903727D01*
X28524282Y-25961122D01*
X28526771Y-26030947D01*
X28491114Y-26091033D01*
X28491112Y-26091035D01*
X28475333Y-26105723D01*
X28459731Y-26118066D01*
X28444445Y-26128278D01*
X28444436Y-26128287D01*
X28387402Y-26166395D01*
X28387398Y-26166399D01*
X28378597Y-26179571D01*
X28378213Y-26179997D01*
X28378126Y-26180271D01*
X28377518Y-26180771D01*
X28370059Y-26189076D01*
X28370295Y-26189258D01*
X28367314Y-26193119D01*
X28362550Y-26197437D01*
X28355029Y-26205811D01*
X28351676Y-26208614D01*
X28351048Y-26207862D01*
X28338711Y-26219045D01*
X28339065Y-26219532D01*
X28332229Y-26224492D01*
X28284688Y-26245523D01*
X28278100Y-26246895D01*
X28252819Y-26249500D01*
X24746230Y-26249500D01*
X24711289Y-26244475D01*
X24696290Y-26240070D01*
X24637544Y-26202327D01*
X24636357Y-26200958D01*
X24608877Y-26146083D01*
X24607232Y-26138521D01*
X24604400Y-26112168D01*
X24604400Y-22668428D01*
X24609422Y-22633495D01*
X24616834Y-22608250D01*
X24648128Y-22555508D01*
X27404214Y-19799423D01*
X27432464Y-19778275D01*
X27455556Y-19765667D01*
X27514981Y-19750500D01*
X30247764Y-19750500D01*
X30282696Y-19755522D01*
G37*
G04 #@! TD.AperFunction*
G04 #@! TA.AperFunction,Conductor*
G36*
X39848811Y-6597421D02*
G01*
X39862130Y-6601332D01*
X39920908Y-6639106D01*
X39949934Y-6702661D01*
X39949936Y-6702678D01*
X39950167Y-6704286D01*
X39944611Y-6762464D01*
X39942973Y-6767198D01*
X39933176Y-6788653D01*
X39873615Y-6891812D01*
X39872713Y-6895183D01*
X39872713Y-6895184D01*
X39836100Y-7031825D01*
X39836100Y-7176777D01*
X39841301Y-7196188D01*
X39845490Y-7231226D01*
X39845160Y-7245101D01*
X39823887Y-7311654D01*
X39770013Y-7356139D01*
X39762198Y-7359486D01*
X39713380Y-7369500D01*
X39325319Y-7369500D01*
X39252285Y-7384027D01*
X39252262Y-7384032D01*
X39252258Y-7384033D01*
X39169399Y-7439399D01*
X39114033Y-7522258D01*
X39114032Y-7522266D01*
X39114028Y-7522281D01*
X39099500Y-7595318D01*
X39099500Y-8444678D01*
X39100319Y-8448796D01*
X39102209Y-8484041D01*
X39100972Y-8497865D01*
X39075390Y-8562883D01*
X39018719Y-8603749D01*
X39018710Y-8603753D01*
X39013771Y-8605495D01*
X38948337Y-8610173D01*
X38894674Y-8599500D01*
X38045326Y-8599500D01*
X38045323Y-8599500D01*
X38045319Y-8599500D01*
X37972285Y-8614027D01*
X37972262Y-8614032D01*
X37972258Y-8614033D01*
X37889399Y-8669399D01*
X37834033Y-8752258D01*
X37834032Y-8752266D01*
X37834028Y-8752281D01*
X37819500Y-8825318D01*
X37819500Y-9274682D01*
X37834028Y-9347722D01*
X37834030Y-9347730D01*
X37834034Y-9347740D01*
X37863130Y-9391288D01*
X37878362Y-9423129D01*
X37883032Y-9438046D01*
X37884278Y-9507897D01*
X37880675Y-9521031D01*
X37864197Y-9557115D01*
X37834033Y-9602259D01*
X37834031Y-9602266D01*
X37834028Y-9602276D01*
X37819500Y-9675316D01*
X37819500Y-10124682D01*
X37834028Y-10197722D01*
X37834030Y-10197730D01*
X37834034Y-10197740D01*
X37863130Y-10241288D01*
X37878362Y-10273129D01*
X37883032Y-10288046D01*
X37884278Y-10357897D01*
X37880675Y-10371031D01*
X37864197Y-10407115D01*
X37834033Y-10452259D01*
X37834031Y-10452266D01*
X37834028Y-10452276D01*
X37819500Y-10525316D01*
X37819500Y-10525321D01*
X37819500Y-10974675D01*
X37831651Y-11035763D01*
X37832455Y-11043929D01*
X37835611Y-11051548D01*
X37840815Y-11057890D01*
X37845424Y-11064787D01*
X37863130Y-11091288D01*
X37878361Y-11123125D01*
X37883032Y-11138045D01*
X37884278Y-11207897D01*
X37880675Y-11221031D01*
X37864197Y-11257115D01*
X37834033Y-11302259D01*
X37834031Y-11302266D01*
X37834028Y-11302276D01*
X37819500Y-11375316D01*
X37819500Y-11824682D01*
X37834028Y-11897722D01*
X37834030Y-11897730D01*
X37834034Y-11897740D01*
X37863130Y-11941288D01*
X37878362Y-11973129D01*
X37883032Y-11988046D01*
X37884278Y-12057897D01*
X37880675Y-12071031D01*
X37864197Y-12107115D01*
X37834033Y-12152259D01*
X37834031Y-12152266D01*
X37834028Y-12152276D01*
X37819500Y-12225316D01*
X37819500Y-12674682D01*
X37831650Y-12735763D01*
X37832454Y-12743927D01*
X37835611Y-12751548D01*
X37840815Y-12757889D01*
X37863130Y-12791287D01*
X37878363Y-12823129D01*
X37879050Y-12825323D01*
X37883034Y-12838050D01*
X37884278Y-12907897D01*
X37880675Y-12921031D01*
X37864197Y-12957115D01*
X37834033Y-13002259D01*
X37834031Y-13002266D01*
X37834028Y-13002276D01*
X37819500Y-13075316D01*
X37819500Y-13524682D01*
X37834028Y-13597722D01*
X37834030Y-13597730D01*
X37834034Y-13597740D01*
X37863130Y-13641288D01*
X37878362Y-13673129D01*
X37883032Y-13688046D01*
X37884278Y-13757897D01*
X37880675Y-13771031D01*
X37864197Y-13807115D01*
X37834033Y-13852259D01*
X37834031Y-13852266D01*
X37834028Y-13852276D01*
X37819500Y-13925316D01*
X37819500Y-14374682D01*
X37834029Y-14447724D01*
X37834031Y-14447731D01*
X37834036Y-14447747D01*
X37837286Y-14454083D01*
X37845282Y-14473610D01*
X37849355Y-14486617D01*
X37850603Y-14556476D01*
X37813885Y-14615919D01*
X37758467Y-14644596D01*
X37750413Y-14646424D01*
X37722967Y-14649500D01*
X36676506Y-14649500D01*
X36641570Y-14644477D01*
X36616328Y-14637065D01*
X36563583Y-14605769D01*
X36557316Y-14599502D01*
X36557314Y-14599500D01*
X36463943Y-14545592D01*
X36443187Y-14533608D01*
X36379539Y-14516554D01*
X36315892Y-14499500D01*
X36315891Y-14499500D01*
X36184108Y-14499500D01*
X36056808Y-14533609D01*
X36056806Y-14533610D01*
X35942696Y-14599493D01*
X35942682Y-14599502D01*
X35942677Y-14599506D01*
X35849506Y-14692677D01*
X35849502Y-14692682D01*
X35849493Y-14692696D01*
X35783610Y-14806806D01*
X35783609Y-14806808D01*
X35763944Y-14880200D01*
X35749500Y-14934108D01*
X35749500Y-15065891D01*
X35777880Y-15171809D01*
X35783609Y-15193190D01*
X35800620Y-15222653D01*
X35801787Y-15224674D01*
X35807812Y-15235108D01*
X35807813Y-15235112D01*
X35807814Y-15235112D01*
X35843972Y-15297740D01*
X35844159Y-15298063D01*
X35857274Y-15330822D01*
X35860547Y-15344313D01*
X35857223Y-15414102D01*
X35816730Y-15470989D01*
X35815453Y-15471994D01*
X35762242Y-15496308D01*
X35757320Y-15497257D01*
X35733844Y-15499500D01*
X34003856Y-15499500D01*
X33916518Y-15522902D01*
X33914796Y-15523335D01*
X33834804Y-15569519D01*
X33834786Y-15569531D01*
X33769531Y-15634786D01*
X33769519Y-15634804D01*
X33723389Y-15714704D01*
X33723388Y-15714705D01*
X33723384Y-15714716D01*
X33699500Y-15803856D01*
X33699500Y-19419541D01*
X33694476Y-19454479D01*
X33689174Y-19472534D01*
X33655765Y-19527342D01*
X33648226Y-19534530D01*
X33624660Y-19552171D01*
X33542685Y-19599500D01*
X33542677Y-19599506D01*
X33449506Y-19692677D01*
X33449502Y-19692682D01*
X33449493Y-19692696D01*
X33383610Y-19806806D01*
X33383609Y-19806808D01*
X33349500Y-19934108D01*
X33349500Y-20065890D01*
X33383608Y-20193188D01*
X33407905Y-20235270D01*
X33416554Y-20250250D01*
X33449500Y-20307314D01*
X33449502Y-20307316D01*
X33540720Y-20398534D01*
X33553181Y-20413089D01*
X33564498Y-20428588D01*
X33588131Y-20494339D01*
X33572826Y-20561781D01*
X33571149Y-20564810D01*
X33569255Y-20568230D01*
X33520210Y-20616984D01*
X33502363Y-20626730D01*
X33442934Y-20641900D01*
X32332530Y-20641900D01*
X32297589Y-20636875D01*
X32282590Y-20632470D01*
X32223844Y-20594727D01*
X32222657Y-20593358D01*
X32195177Y-20538483D01*
X32193532Y-20530921D01*
X32190700Y-20504568D01*
X32190700Y-18698165D01*
X32190699Y-18698159D01*
X32185084Y-18677204D01*
X32185083Y-18677202D01*
X32185083Y-18677201D01*
X32165111Y-18602663D01*
X32115675Y-18517037D01*
X31777863Y-18179226D01*
X31777862Y-18179225D01*
X31777859Y-18179223D01*
X31777855Y-18179220D01*
X31759935Y-18168874D01*
X31732196Y-18147059D01*
X31719207Y-18133437D01*
X31688449Y-18077101D01*
X31685994Y-18066979D01*
X31682500Y-18037751D01*
X31682500Y-17322139D01*
X31682064Y-17320134D01*
X31667972Y-17249289D01*
X31667967Y-17249266D01*
X31667966Y-17249260D01*
X31666425Y-17246954D01*
X31630970Y-17193891D01*
X31630970Y-17193890D01*
X31630968Y-17193889D01*
X31612601Y-17166399D01*
X31599007Y-17157316D01*
X31549894Y-17124500D01*
X31529740Y-17111033D01*
X31529737Y-17111032D01*
X31529735Y-17111032D01*
X31529725Y-17111030D01*
X31529709Y-17111026D01*
X31456680Y-17096500D01*
X31456677Y-17096500D01*
X31456674Y-17096500D01*
X30543326Y-17096500D01*
X30543323Y-17096500D01*
X30543319Y-17096500D01*
X30470285Y-17111027D01*
X30470262Y-17111032D01*
X30470258Y-17111033D01*
X30387399Y-17166399D01*
X30332033Y-17249258D01*
X30332032Y-17249266D01*
X30332028Y-17249281D01*
X30317500Y-17322318D01*
X30317500Y-17322321D01*
X30317500Y-18177678D01*
X30317500Y-18177680D01*
X30317499Y-18177680D01*
X30332028Y-18250717D01*
X30332032Y-18250735D01*
X30332033Y-18250739D01*
X30333648Y-18253591D01*
X30335085Y-18255306D01*
X30387399Y-18333601D01*
X30441474Y-18369732D01*
X30450386Y-18376281D01*
X30478359Y-18398826D01*
X30478359Y-18398827D01*
X30484439Y-18403727D01*
X30524282Y-18461122D01*
X30526771Y-18530947D01*
X30491114Y-18591033D01*
X30491112Y-18591035D01*
X30475333Y-18605723D01*
X30459731Y-18618066D01*
X30444445Y-18628278D01*
X30444436Y-18628287D01*
X30387402Y-18666395D01*
X30387397Y-18666401D01*
X30378596Y-18679572D01*
X30355015Y-18705823D01*
X30338918Y-18719276D01*
X30284679Y-18745526D01*
X30278100Y-18746896D01*
X30252821Y-18749500D01*
X27368475Y-18749500D01*
X27349369Y-18748019D01*
X27348581Y-18747896D01*
X27333382Y-18745526D01*
X27329086Y-18744856D01*
X27265880Y-18715077D01*
X27228808Y-18655854D01*
X27229638Y-18585993D01*
X27230716Y-18582477D01*
X27261584Y-18531152D01*
X32080073Y-13712664D01*
X32087677Y-13699496D01*
X32129507Y-13627044D01*
X32129509Y-13627039D01*
X32129510Y-13627038D01*
X32143155Y-13576113D01*
X32155100Y-13531536D01*
X32155100Y-13432664D01*
X32155100Y-11980165D01*
X32129510Y-11884662D01*
X32080075Y-11799038D01*
X32010162Y-11729125D01*
X31731426Y-11450389D01*
X31710274Y-11422133D01*
X31697667Y-11399044D01*
X31682500Y-11339619D01*
X31682500Y-10822139D01*
X31682064Y-10820134D01*
X31667972Y-10749289D01*
X31667967Y-10749266D01*
X31667966Y-10749260D01*
X31643986Y-10713371D01*
X31643986Y-10713370D01*
X31612604Y-10666403D01*
X31612600Y-10666398D01*
X31539891Y-10617816D01*
X31535826Y-10614480D01*
X31529739Y-10611033D01*
X31529735Y-10611032D01*
X31529709Y-10611026D01*
X31456680Y-10596500D01*
X31456677Y-10596500D01*
X31456674Y-10596500D01*
X31014773Y-10596500D01*
X30979843Y-10591478D01*
X30973981Y-10589757D01*
X30915201Y-10551985D01*
X30886174Y-10488431D01*
X30896115Y-10419272D01*
X30941822Y-10366496D01*
X30942346Y-10366158D01*
X30943310Y-10365538D01*
X30986199Y-10348207D01*
X31035767Y-10338347D01*
X31041863Y-10337747D01*
X31041898Y-10337737D01*
X31052821Y-10335000D01*
X31063019Y-10325756D01*
X31130601Y-10280601D01*
X31185966Y-10197740D01*
X31200500Y-10124674D01*
X31200500Y-9275326D01*
X31200500Y-9275323D01*
X31200500Y-9275139D01*
X31200064Y-9273134D01*
X31185972Y-9202289D01*
X31185967Y-9202266D01*
X31185966Y-9202260D01*
X31184855Y-9200598D01*
X31175780Y-9187016D01*
X31130601Y-9119399D01*
X31123101Y-9114388D01*
X31064640Y-9075326D01*
X31047739Y-9064033D01*
X31047735Y-9064032D01*
X31047725Y-9064030D01*
X31047709Y-9064026D01*
X30974680Y-9049500D01*
X30974677Y-9049500D01*
X30974674Y-9049500D01*
X30025326Y-9049500D01*
X30025323Y-9049500D01*
X30025319Y-9049500D01*
X29952285Y-9064027D01*
X29952262Y-9064032D01*
X29952256Y-9064034D01*
X29869396Y-9119399D01*
X29865462Y-9123333D01*
X29846970Y-9143920D01*
X29834981Y-9153939D01*
X29770917Y-9181824D01*
X29760143Y-9183177D01*
X29712599Y-9179918D01*
X29615641Y-9153939D01*
X29599075Y-9149500D01*
X29599074Y-9149500D01*
X29454121Y-9149500D01*
X29396512Y-9164936D01*
X29380331Y-9164550D01*
X29361472Y-9169126D01*
X29347598Y-9168796D01*
X29330610Y-9163366D01*
X29326663Y-9163272D01*
X29323393Y-9161059D01*
X29281046Y-9147523D01*
X29236560Y-9093646D01*
X29236556Y-9093638D01*
X29233209Y-9085821D01*
X29223200Y-9037014D01*
X29223200Y-8804328D01*
X29228222Y-8769395D01*
X29235634Y-8744150D01*
X29266928Y-8691408D01*
X30529213Y-7429123D01*
X30557463Y-7407975D01*
X30580555Y-7395367D01*
X30639980Y-7380200D01*
X30742135Y-7380200D01*
X30742136Y-7380200D01*
X30789886Y-7367405D01*
X30837638Y-7354610D01*
X30923262Y-7305175D01*
X30993175Y-7235262D01*
X31587113Y-6641323D01*
X31615363Y-6620175D01*
X31638455Y-6607567D01*
X31697880Y-6592400D01*
X39813879Y-6592400D01*
X39848811Y-6597421D01*
G37*
G04 #@! TD.AperFunction*
G04 #@! TA.AperFunction,Conductor*
G36*
X10084077Y-6880523D02*
G01*
X10097144Y-6884360D01*
X10155922Y-6922135D01*
X10184946Y-6985692D01*
X10177999Y-7047704D01*
X10175044Y-7055416D01*
X10162355Y-7079939D01*
X10114038Y-7152250D01*
X10114035Y-7152256D01*
X10114031Y-7152267D01*
X10114029Y-7152274D01*
X10099500Y-7225316D01*
X10099500Y-7225321D01*
X10099500Y-8774678D01*
X10099500Y-8774680D01*
X10099499Y-8774680D01*
X10114028Y-8847717D01*
X10114032Y-8847735D01*
X10114033Y-8847739D01*
X10117480Y-8853826D01*
X10120816Y-8857891D01*
X10169398Y-8930600D01*
X10169402Y-8930604D01*
X10242105Y-8979181D01*
X10246171Y-8982517D01*
X10252259Y-8985965D01*
X10252260Y-8985966D01*
X10252264Y-8985967D01*
X10252282Y-8985970D01*
X10252288Y-8985972D01*
X10294222Y-8994313D01*
X10317681Y-8998979D01*
X10320415Y-8999703D01*
X10325323Y-9000500D01*
X11174676Y-9000500D01*
X11178796Y-9000500D01*
X11186648Y-8998117D01*
X11247740Y-8985966D01*
X11291289Y-8956867D01*
X11323121Y-8941638D01*
X11325270Y-8940965D01*
X11338039Y-8936966D01*
X11407895Y-8935719D01*
X11421026Y-8939321D01*
X11457110Y-8955798D01*
X11502260Y-8985966D01*
X11502261Y-8985966D01*
X11502376Y-8986043D01*
X11504374Y-8986689D01*
X11505619Y-8987115D01*
X11508084Y-8987733D01*
X11508131Y-8987747D01*
X11514239Y-8988349D01*
X11567681Y-8998979D01*
X11570415Y-8999703D01*
X11575323Y-9000500D01*
X12424676Y-9000500D01*
X12428796Y-9000500D01*
X12436648Y-8998117D01*
X12497740Y-8985966D01*
X12541289Y-8956867D01*
X12573121Y-8941638D01*
X12575270Y-8940965D01*
X12588039Y-8936966D01*
X12657895Y-8935719D01*
X12671026Y-8939321D01*
X12707110Y-8955798D01*
X12752260Y-8985966D01*
X12752261Y-8985966D01*
X12752376Y-8986043D01*
X12754374Y-8986689D01*
X12755619Y-8987115D01*
X12758084Y-8987733D01*
X12758131Y-8987747D01*
X12764239Y-8988349D01*
X12817681Y-8998979D01*
X12820415Y-8999703D01*
X12825323Y-9000500D01*
X13674676Y-9000500D01*
X13678796Y-9000500D01*
X13686648Y-8998117D01*
X13747740Y-8985966D01*
X13791289Y-8956867D01*
X13823121Y-8941638D01*
X13825270Y-8940965D01*
X13838039Y-8936966D01*
X13907895Y-8935719D01*
X13921026Y-8939321D01*
X13957110Y-8955798D01*
X14002260Y-8985966D01*
X14002261Y-8985966D01*
X14002376Y-8986043D01*
X14004374Y-8986689D01*
X14005619Y-8987115D01*
X14008084Y-8987733D01*
X14008131Y-8987747D01*
X14014239Y-8988349D01*
X14067681Y-8998979D01*
X14070415Y-8999703D01*
X14075323Y-9000500D01*
X14075324Y-9000500D01*
X14857670Y-9000500D01*
X14892606Y-9005523D01*
X14907604Y-9009927D01*
X14966355Y-9047672D01*
X14967542Y-9049041D01*
X14995018Y-9103902D01*
X14996663Y-9111460D01*
X14999500Y-9137831D01*
X14999500Y-9924682D01*
X15014028Y-9997722D01*
X15014030Y-9997730D01*
X15014034Y-9997740D01*
X15043130Y-10041288D01*
X15058362Y-10073129D01*
X15063032Y-10088046D01*
X15064278Y-10157897D01*
X15060675Y-10171031D01*
X15044197Y-10207115D01*
X15014033Y-10252259D01*
X15014031Y-10252266D01*
X15014028Y-10252276D01*
X14999500Y-10325316D01*
X14999500Y-11174682D01*
X15014028Y-11247722D01*
X15014030Y-11247730D01*
X15014034Y-11247740D01*
X15043130Y-11291288D01*
X15058362Y-11323129D01*
X15063032Y-11338046D01*
X15064278Y-11407897D01*
X15060675Y-11421031D01*
X15044197Y-11457115D01*
X15014033Y-11502259D01*
X15014031Y-11502266D01*
X15014028Y-11502276D01*
X14999500Y-11575316D01*
X14999500Y-12424682D01*
X15014028Y-12497722D01*
X15014030Y-12497730D01*
X15014034Y-12497740D01*
X15043130Y-12541288D01*
X15058362Y-12573129D01*
X15063032Y-12588046D01*
X15064278Y-12657897D01*
X15060675Y-12671031D01*
X15044197Y-12707115D01*
X15014033Y-12752259D01*
X15014031Y-12752266D01*
X15014028Y-12752276D01*
X14999500Y-12825316D01*
X14999500Y-13674682D01*
X15014028Y-13747722D01*
X15014030Y-13747730D01*
X15014034Y-13747740D01*
X15043130Y-13791288D01*
X15058362Y-13823129D01*
X15063032Y-13838046D01*
X15064278Y-13907897D01*
X15060675Y-13921031D01*
X15044197Y-13957115D01*
X15014033Y-14002259D01*
X15014031Y-14002266D01*
X15014028Y-14002276D01*
X14999500Y-14075316D01*
X14999500Y-14857670D01*
X14994475Y-14892614D01*
X14990070Y-14907612D01*
X14952327Y-14966355D01*
X14950958Y-14967542D01*
X14896097Y-14995018D01*
X14888539Y-14996663D01*
X14862168Y-14999500D01*
X14075323Y-14999500D01*
X14033138Y-15007891D01*
X14002263Y-15014032D01*
X14002259Y-15014033D01*
X13958712Y-15043130D01*
X13926869Y-15058363D01*
X13911951Y-15063033D01*
X13842095Y-15064276D01*
X13828960Y-15060672D01*
X13792884Y-15044197D01*
X13786067Y-15039642D01*
X13769024Y-15028255D01*
X13757890Y-15020815D01*
X13751548Y-15015611D01*
X13743927Y-15012454D01*
X13735763Y-15011650D01*
X13674681Y-14999500D01*
X13674677Y-14999500D01*
X13674674Y-14999500D01*
X12825326Y-14999500D01*
X12825323Y-14999500D01*
X12783138Y-15007891D01*
X12752263Y-15014032D01*
X12752259Y-15014033D01*
X12708712Y-15043130D01*
X12676869Y-15058363D01*
X12661951Y-15063033D01*
X12592095Y-15064276D01*
X12578960Y-15060672D01*
X12542884Y-15044197D01*
X12536067Y-15039642D01*
X12519024Y-15028255D01*
X12507890Y-15020815D01*
X12501548Y-15015611D01*
X12493927Y-15012454D01*
X12485763Y-15011650D01*
X12424681Y-14999500D01*
X12424677Y-14999500D01*
X12424674Y-14999500D01*
X11575326Y-14999500D01*
X11575323Y-14999500D01*
X11533138Y-15007891D01*
X11502263Y-15014032D01*
X11502259Y-15014033D01*
X11458712Y-15043130D01*
X11426869Y-15058363D01*
X11411951Y-15063033D01*
X11342095Y-15064276D01*
X11328960Y-15060672D01*
X11292884Y-15044197D01*
X11286067Y-15039642D01*
X11269024Y-15028255D01*
X11257890Y-15020815D01*
X11251548Y-15015611D01*
X11243927Y-15012454D01*
X11235763Y-15011650D01*
X11174681Y-14999500D01*
X11174677Y-14999500D01*
X11174674Y-14999500D01*
X10325326Y-14999500D01*
X10325323Y-14999500D01*
X10325319Y-14999500D01*
X10252285Y-15014027D01*
X10252262Y-15014032D01*
X10252258Y-15014033D01*
X10169399Y-15069399D01*
X10114033Y-15152258D01*
X10114032Y-15152266D01*
X10114028Y-15152281D01*
X10099500Y-15225318D01*
X10099500Y-15225321D01*
X10099500Y-16774678D01*
X10099500Y-16774680D01*
X10099499Y-16774680D01*
X10111264Y-16833820D01*
X10113154Y-16869063D01*
X10111917Y-16882888D01*
X10086336Y-16947906D01*
X10029667Y-16988772D01*
X10019285Y-16992435D01*
X9978028Y-16999500D01*
X6342330Y-16999500D01*
X6307389Y-16994475D01*
X6292390Y-16990070D01*
X6233644Y-16952327D01*
X6232457Y-16950958D01*
X6204977Y-16896083D01*
X6203332Y-16888521D01*
X6200500Y-16862168D01*
X6200500Y-14924680D01*
X6999499Y-14924680D01*
X7014028Y-14997717D01*
X7014032Y-14997735D01*
X7014033Y-14997739D01*
X7017480Y-15003826D01*
X7020816Y-15007891D01*
X7059570Y-15065891D01*
X7069399Y-15080601D01*
X7103156Y-15103156D01*
X7127708Y-15119561D01*
X7152258Y-15135965D01*
X7152260Y-15135966D01*
X7152264Y-15135967D01*
X7152280Y-15135970D01*
X7152288Y-15135972D01*
X7197021Y-15144869D01*
X7217681Y-15148979D01*
X7220415Y-15149703D01*
X7225323Y-15150500D01*
X8774676Y-15150500D01*
X8778796Y-15150500D01*
X8786648Y-15148117D01*
X8847740Y-15135966D01*
X8930601Y-15080601D01*
X8985966Y-14997740D01*
X9000500Y-14924674D01*
X9000500Y-14075326D01*
X9000500Y-14075323D01*
X9000500Y-14075141D01*
X9000072Y-14073174D01*
X8988347Y-14014233D01*
X8987746Y-14008131D01*
X8986600Y-14004350D01*
X8986141Y-14002733D01*
X8986012Y-14002329D01*
X8956868Y-13958711D01*
X8941637Y-13926875D01*
X8936967Y-13911961D01*
X8935718Y-13842106D01*
X8939323Y-13828964D01*
X8955798Y-13792889D01*
X8985966Y-13747740D01*
X9000500Y-13674674D01*
X9000500Y-12825326D01*
X9000500Y-12825323D01*
X9000500Y-12825141D01*
X9000072Y-12823174D01*
X8988347Y-12764233D01*
X8987746Y-12758131D01*
X8986600Y-12754350D01*
X8986141Y-12752733D01*
X8986012Y-12752329D01*
X8982945Y-12747739D01*
X8956867Y-12708710D01*
X8941637Y-12676875D01*
X8936967Y-12661961D01*
X8935718Y-12592106D01*
X8939323Y-12578964D01*
X8955798Y-12542889D01*
X8985966Y-12497740D01*
X9000500Y-12424674D01*
X9000500Y-11575326D01*
X9000500Y-11575323D01*
X9000500Y-11575141D01*
X9000072Y-11573174D01*
X8988347Y-11514233D01*
X8987746Y-11508131D01*
X8986600Y-11504350D01*
X8986141Y-11502733D01*
X8986012Y-11502329D01*
X8963369Y-11468440D01*
X8956867Y-11458710D01*
X8941637Y-11426875D01*
X8936967Y-11411961D01*
X8935718Y-11342106D01*
X8939323Y-11328964D01*
X8955798Y-11292889D01*
X8985966Y-11247740D01*
X9000500Y-11174674D01*
X9000500Y-10325326D01*
X9000500Y-10325323D01*
X9000500Y-10325141D01*
X9000072Y-10323174D01*
X8988347Y-10264233D01*
X8987746Y-10258131D01*
X8986600Y-10254350D01*
X8986141Y-10252733D01*
X8986012Y-10252329D01*
X8966903Y-10223730D01*
X8956867Y-10208710D01*
X8941637Y-10176875D01*
X8936967Y-10161961D01*
X8935718Y-10092106D01*
X8939323Y-10078964D01*
X8955798Y-10042889D01*
X8985966Y-9997740D01*
X9000500Y-9924674D01*
X9000500Y-9075326D01*
X9000500Y-9075323D01*
X9000500Y-9075139D01*
X9000064Y-9073134D01*
X8985972Y-9002289D01*
X8985970Y-9002281D01*
X8985967Y-9002264D01*
X8985966Y-9002260D01*
X8980659Y-8994318D01*
X8976269Y-8987747D01*
X8930604Y-8919402D01*
X8930600Y-8919398D01*
X8857891Y-8870816D01*
X8853826Y-8867480D01*
X8847739Y-8864033D01*
X8847735Y-8864032D01*
X8847709Y-8864026D01*
X8774680Y-8849500D01*
X8774677Y-8849500D01*
X8774674Y-8849500D01*
X7225326Y-8849500D01*
X7225323Y-8849500D01*
X7225319Y-8849500D01*
X7152285Y-8864027D01*
X7152262Y-8864032D01*
X7152258Y-8864033D01*
X7069399Y-8919399D01*
X7014033Y-9002258D01*
X7014032Y-9002266D01*
X7014028Y-9002281D01*
X6999500Y-9075318D01*
X6999500Y-9924682D01*
X7014028Y-9997722D01*
X7014030Y-9997730D01*
X7014034Y-9997740D01*
X7043130Y-10041288D01*
X7058362Y-10073129D01*
X7063032Y-10088046D01*
X7064278Y-10157897D01*
X7060675Y-10171031D01*
X7044197Y-10207115D01*
X7014033Y-10252259D01*
X7014031Y-10252266D01*
X7014028Y-10252276D01*
X6999500Y-10325316D01*
X6999500Y-11174682D01*
X7014028Y-11247722D01*
X7014030Y-11247730D01*
X7014034Y-11247740D01*
X7043130Y-11291288D01*
X7058362Y-11323129D01*
X7063032Y-11338046D01*
X7064278Y-11407897D01*
X7060675Y-11421031D01*
X7044197Y-11457115D01*
X7014033Y-11502259D01*
X7014031Y-11502266D01*
X7014028Y-11502276D01*
X6999500Y-11575316D01*
X6999500Y-12424682D01*
X7014028Y-12497722D01*
X7014030Y-12497730D01*
X7014034Y-12497740D01*
X7043130Y-12541288D01*
X7058362Y-12573129D01*
X7063032Y-12588046D01*
X7064278Y-12657897D01*
X7060675Y-12671031D01*
X7044197Y-12707115D01*
X7014033Y-12752259D01*
X7014031Y-12752266D01*
X7014028Y-12752276D01*
X6999500Y-12825316D01*
X6999500Y-13674682D01*
X7014028Y-13747722D01*
X7014030Y-13747730D01*
X7014034Y-13747740D01*
X7043130Y-13791288D01*
X7058362Y-13823129D01*
X7063032Y-13838046D01*
X7064278Y-13907897D01*
X7060675Y-13921031D01*
X7044197Y-13957115D01*
X7014033Y-14002259D01*
X7014031Y-14002266D01*
X7014028Y-14002276D01*
X6999500Y-14075316D01*
X6999500Y-14075321D01*
X6999500Y-14924678D01*
X6999500Y-14924680D01*
X6999499Y-14924680D01*
X6200500Y-14924680D01*
X6200500Y-8356863D01*
X6204723Y-8324776D01*
X6212887Y-8294304D01*
X6225275Y-8264402D01*
X6266389Y-8193191D01*
X6266388Y-8193191D01*
X6266392Y-8193186D01*
X6300500Y-8065892D01*
X6300500Y-7934108D01*
X6266392Y-7806814D01*
X6225275Y-7735598D01*
X6212888Y-7705691D01*
X6204725Y-7675225D01*
X6200500Y-7643133D01*
X6200500Y-7017329D01*
X6205523Y-6982393D01*
X6209572Y-6968606D01*
X6209927Y-6967394D01*
X6247672Y-6908644D01*
X6249041Y-6907457D01*
X6303920Y-6879977D01*
X6311479Y-6878333D01*
X6337832Y-6875500D01*
X10049141Y-6875500D01*
X10084077Y-6880523D01*
G37*
G04 #@! TD.AperFunction*
M02*
