G04 #@! TF.GenerationSoftware,KiCad,Pcbnew,10.0.5*
G04 #@! TF.CreationDate,2026-09-10T18:25:08-05:00*
G04 #@! TF.ProjectId,pnb-1,706e622d-312e-46b6-9963-61645f706362,rev?*
G04 #@! TF.SameCoordinates,Original*
G04 #@! TF.FileFunction,Soldermask,Top*
G04 #@! TF.FilePolarity,Negative*
%FSLAX46Y46*%
G04 Gerber Fmt 4.6, Leading zero omitted, Abs format (unit mm)*
G04 Created by KiCad (PCBNEW 10.0.5) date 2026-09-10 18:25:08*
%MOMM*%
%LPD*%
G01*
G04 APERTURE LIST*
%ADD10R,1.350000X1.410000*%
%ADD11R,1.700000X1.700000*%
%ADD12C,1.700000*%
%ADD13C,2.700000*%
%ADD14R,0.864000X0.806000*%
%ADD15R,0.900000X0.800000*%
%ADD16R,2.500000X1.100000*%
%ADD17R,2.340000X3.600000*%
%ADD18R,0.800000X0.800000*%
%ADD19R,0.505000X0.280000*%
%ADD20R,1.500000X1.200000*%
%ADD21R,1.230000X1.860000*%
%ADD22R,0.806000X0.864000*%
%ADD23R,1.500000X0.800000*%
%ADD24R,0.800000X1.500000*%
%ADD25R,4.800000X4.800000*%
%ADD26R,0.400000X0.800000*%
%ADD27R,0.800000X0.400000*%
%ADD28R,1.200000X1.200000*%
%ADD29R,0.532000X1.072000*%
%ADD30C,0.600000*%
%ADD31O,1.200000X2.000000*%
%ADD32O,1.200000X1.800000*%
%ADD33R,0.300000X1.300000*%
G04 APERTURE END LIST*
D10*
X35500000Y-38000000D03*
X35500000Y-36000000D03*
D11*
X3000000Y-27810000D03*
D12*
X3000000Y-25270000D03*
X3000000Y-22730000D03*
X3000000Y-20190000D03*
D13*
X3000000Y-3000000D03*
D14*
X28000000Y-13750000D03*
X28000000Y-12250000D03*
D15*
X22500000Y-37700000D03*
X22500000Y-36300000D03*
D10*
X47400000Y-5900000D03*
X47400000Y-3900000D03*
D15*
X49750000Y-5900000D03*
X49750000Y-4500000D03*
D14*
X5500000Y-34750000D03*
X5500000Y-33250000D03*
D16*
X30470000Y-37800000D03*
X30470000Y-35500000D03*
X30470000Y-33200000D03*
D17*
X24530000Y-35500000D03*
D13*
X3000000Y-39000000D03*
D18*
X34750000Y-29000000D03*
X33250000Y-29000000D03*
D19*
X25570000Y-5000000D03*
X25570000Y-5500000D03*
X25570000Y-6000000D03*
X28430000Y-6000000D03*
X28430000Y-5500000D03*
X28430000Y-5000000D03*
D20*
X27000000Y-5500000D03*
D18*
X34750000Y-32000000D03*
X33250000Y-32000000D03*
D10*
X19500000Y-38000000D03*
X19500000Y-36000000D03*
D15*
X30500000Y-9700000D03*
X30500000Y-8300000D03*
D14*
X35500000Y-16250000D03*
X35500000Y-14750000D03*
X30500000Y-5750000D03*
X30500000Y-4250000D03*
D15*
X23500000Y-5700000D03*
X23500000Y-4300000D03*
D21*
X28820000Y-23500000D03*
X33180000Y-23500000D03*
D13*
X55000000Y-39000000D03*
D22*
X14450000Y-31600000D03*
X15950000Y-31600000D03*
D15*
X8900000Y-18000000D03*
X8900000Y-19400000D03*
D14*
X35500000Y-26250000D03*
X35500000Y-24750000D03*
D23*
X8000000Y-9500000D03*
X8000000Y-10750000D03*
X8000000Y-12000000D03*
X8000000Y-13250000D03*
X8000000Y-14500000D03*
D24*
X9500000Y-16000000D03*
X10750000Y-16000000D03*
X12000000Y-16000000D03*
X13250000Y-16000000D03*
X14500000Y-16000000D03*
D23*
X16000000Y-14500000D03*
X16000000Y-13250000D03*
X16000000Y-12000000D03*
X16000000Y-10750000D03*
X16000000Y-9500000D03*
D24*
X14500000Y-8000000D03*
X13250000Y-8000000D03*
X12000000Y-8000000D03*
X10750000Y-8000000D03*
X9500000Y-8000000D03*
D25*
X12000000Y-12000000D03*
D14*
X25000000Y-13750000D03*
X25000000Y-12250000D03*
D26*
X51450000Y-8020000D03*
X50600000Y-8020000D03*
X49750000Y-8020000D03*
X48900000Y-8020000D03*
X48050000Y-8020000D03*
X47200000Y-8020000D03*
X46350000Y-8020000D03*
X45500000Y-8020000D03*
X44650000Y-8020000D03*
X43800000Y-8020000D03*
X42950000Y-8020000D03*
X42100000Y-8020000D03*
X41250000Y-8020000D03*
X40400000Y-8020000D03*
X39550000Y-8020000D03*
D27*
X38470000Y-9050000D03*
X38470000Y-9900000D03*
X38470000Y-10750000D03*
X38470000Y-11600000D03*
X38470000Y-12450000D03*
X38470000Y-13300000D03*
X38470000Y-14150000D03*
X38470000Y-15000000D03*
X38470000Y-15850000D03*
X38470000Y-16700000D03*
X38470000Y-17550000D03*
X38470000Y-18400000D03*
X38470000Y-19250000D03*
X38470000Y-20100000D03*
X38470000Y-20950000D03*
D26*
X39550000Y-21980000D03*
X40400000Y-21980000D03*
X41250000Y-21980000D03*
X42100000Y-21980000D03*
X42950000Y-21980000D03*
X43800000Y-21980000D03*
X44650000Y-21980000D03*
X45500000Y-21980000D03*
X46350000Y-21980000D03*
X47200000Y-21980000D03*
X48050000Y-21980000D03*
X48900000Y-21980000D03*
X49750000Y-21980000D03*
X50600000Y-21980000D03*
X51450000Y-21980000D03*
D27*
X52530000Y-20950000D03*
X52530000Y-20100000D03*
X52530000Y-19250000D03*
X52530000Y-18400000D03*
X52530000Y-17550000D03*
X52530000Y-16700000D03*
X52530000Y-15850000D03*
X52530000Y-15000000D03*
X52530000Y-14150000D03*
X52530000Y-13300000D03*
X52530000Y-12450000D03*
X52530000Y-11600000D03*
X52530000Y-10750000D03*
X52530000Y-9900000D03*
X52530000Y-9050000D03*
D18*
X52500000Y-8000000D03*
X38500000Y-8000000D03*
D28*
X47150000Y-13350000D03*
X45500000Y-13350000D03*
X43850000Y-13350000D03*
X47150000Y-15000000D03*
X45500000Y-15000000D03*
X43850000Y-15000000D03*
X47150000Y-16650000D03*
X45500000Y-16650000D03*
X43850000Y-16650000D03*
D18*
X52500000Y-22000000D03*
X38500000Y-22000000D03*
D11*
X37650000Y-38770000D03*
D12*
X37650000Y-36230000D03*
X40190000Y-38770000D03*
X40190000Y-36230000D03*
X42730000Y-38770000D03*
X42730000Y-36230000D03*
X45270000Y-38770000D03*
X45270000Y-36230000D03*
X47810000Y-38770000D03*
X47810000Y-36230000D03*
X50350000Y-38770000D03*
X50350000Y-36230000D03*
D14*
X38500000Y-29750000D03*
X38500000Y-28250000D03*
D10*
X12900000Y-6300000D03*
X12900000Y-4300000D03*
D21*
X20820000Y-23500000D03*
X25180000Y-23500000D03*
D22*
X29250000Y-29000000D03*
X30750000Y-29000000D03*
D15*
X32500000Y-37700000D03*
X32500000Y-36300000D03*
D29*
X10050000Y-32650000D03*
X11000000Y-32650000D03*
X11950000Y-32650000D03*
X11950000Y-30350000D03*
X11000000Y-30350000D03*
X10050000Y-30350000D03*
D15*
X35500000Y-20200000D03*
X35500000Y-18800000D03*
D22*
X29250000Y-32000000D03*
X30750000Y-32000000D03*
D13*
X55000000Y-3000000D03*
D30*
X8100000Y-36690000D03*
X13900000Y-36690000D03*
D31*
X15330000Y-36190000D03*
D32*
X15330000Y-40370000D03*
X6670000Y-40370000D03*
D31*
X6670000Y-36190000D03*
G36*
X8135278Y-34744557D02*
G01*
X8149923Y-34779912D01*
X8149923Y-36079935D01*
X8135278Y-36115290D01*
X8099923Y-36129935D01*
X7800318Y-36129935D01*
X7799949Y-36130088D01*
X7499950Y-36130088D01*
X7464595Y-36115443D01*
X7449950Y-36080088D01*
X7449950Y-34780065D01*
X7464595Y-34744710D01*
X7499950Y-34730065D01*
X7799555Y-34730065D01*
X7799924Y-34729912D01*
X8099923Y-34729912D01*
X8135278Y-34744557D01*
G37*
G36*
X8935431Y-34744710D02*
G01*
X8950076Y-34780065D01*
X8950076Y-36080037D01*
X8935431Y-36115392D01*
X8900076Y-36130037D01*
X8600187Y-36130037D01*
X8600127Y-36130062D01*
X8300102Y-36130062D01*
X8264747Y-36115417D01*
X8250102Y-36080062D01*
X8250102Y-34780090D01*
X8264747Y-34744735D01*
X8300102Y-34730090D01*
X8599991Y-34730090D01*
X8600051Y-34730065D01*
X8900076Y-34730065D01*
X8935431Y-34744710D01*
G37*
D33*
X9750000Y-35430000D03*
X10750000Y-35430000D03*
X11250000Y-35430000D03*
X12250000Y-35430000D03*
G36*
X14535227Y-34744557D02*
G01*
X14549872Y-34779912D01*
X14549872Y-36079884D01*
X14535227Y-36115239D01*
X14499872Y-36129884D01*
X13899848Y-36129884D01*
X13864493Y-36115239D01*
X13849848Y-36079884D01*
X13849848Y-34779912D01*
X13864493Y-34744557D01*
X13899848Y-34729912D01*
X14499872Y-34729912D01*
X14535227Y-34744557D01*
G37*
G36*
X13735227Y-34744557D02*
G01*
X13749872Y-34779912D01*
X13749872Y-36079884D01*
X13735227Y-36115239D01*
X13699872Y-36129884D01*
X13099848Y-36129884D01*
X13064493Y-36115239D01*
X13049848Y-36079884D01*
X13049848Y-34779912D01*
X13064493Y-34744557D01*
X13099848Y-34729912D01*
X13699872Y-34729912D01*
X13735227Y-34744557D01*
G37*
X12750000Y-35430000D03*
X11750000Y-35430000D03*
X10250000Y-35430000D03*
X9250000Y-35430000D03*
M02*
