G04 #@! TF.GenerationSoftware,KiCad,Pcbnew,10.0.5*
G04 #@! TF.CreationDate,2026-09-10T18:25:08-05:00*
G04 #@! TF.ProjectId,pnb-1,706e622d-312e-46b6-9963-61645f706362,rev?*
G04 #@! TF.SameCoordinates,Original*
G04 #@! TF.FileFunction,Legend,Top*
G04 #@! TF.FilePolarity,Positive*
%FSLAX46Y46*%
G04 Gerber Fmt 4.6, Leading zero omitted, Abs format (unit mm)*
G04 Created by KiCad (PCBNEW 10.0.5) date 2026-09-10 18:25:08*
%MOMM*%
%LPD*%
G01*
G04 APERTURE LIST*
%ADD10C,0.150000*%
%ADD11C,0.250000*%
%ADD12C,0.400000*%
%ADD13C,0.300000*%
%ADD14R,1.350000X1.410000*%
%ADD15R,1.700000X1.700000*%
%ADD16C,1.700000*%
%ADD17C,2.700000*%
%ADD18R,0.864000X0.806000*%
%ADD19R,0.900000X0.800000*%
%ADD20R,2.500000X1.100000*%
%ADD21R,2.340000X3.600000*%
%ADD22R,0.800000X0.800000*%
%ADD23R,0.505000X0.280000*%
%ADD24R,1.500000X1.200000*%
%ADD25R,1.230000X1.860000*%
%ADD26R,0.806000X0.864000*%
%ADD27R,1.500000X0.800000*%
%ADD28R,0.800000X1.500000*%
%ADD29R,4.800000X4.800000*%
%ADD30R,0.400000X0.800000*%
%ADD31R,0.800000X0.400000*%
%ADD32R,1.200000X1.200000*%
%ADD33R,0.532000X1.072000*%
%ADD34C,0.600000*%
%ADD35O,1.200000X2.000000*%
%ADD36O,1.200000X1.800000*%
%ADD37R,0.300000X1.300000*%
G04 APERTURE END LIST*
D10*
X9095238Y-33462295D02*
X9095238Y-34109914D01*
X9095238Y-34109914D02*
X9133333Y-34186104D01*
X9133333Y-34186104D02*
X9171428Y-34224200D01*
X9171428Y-34224200D02*
X9247619Y-34262295D01*
X9247619Y-34262295D02*
X9400000Y-34262295D01*
X9400000Y-34262295D02*
X9476190Y-34224200D01*
X9476190Y-34224200D02*
X9514285Y-34186104D01*
X9514285Y-34186104D02*
X9552381Y-34109914D01*
X9552381Y-34109914D02*
X9552381Y-33462295D01*
X9895237Y-34224200D02*
X10009523Y-34262295D01*
X10009523Y-34262295D02*
X10199999Y-34262295D01*
X10199999Y-34262295D02*
X10276190Y-34224200D01*
X10276190Y-34224200D02*
X10314285Y-34186104D01*
X10314285Y-34186104D02*
X10352380Y-34109914D01*
X10352380Y-34109914D02*
X10352380Y-34033723D01*
X10352380Y-34033723D02*
X10314285Y-33957533D01*
X10314285Y-33957533D02*
X10276190Y-33919438D01*
X10276190Y-33919438D02*
X10199999Y-33881342D01*
X10199999Y-33881342D02*
X10047618Y-33843247D01*
X10047618Y-33843247D02*
X9971428Y-33805152D01*
X9971428Y-33805152D02*
X9933333Y-33767057D01*
X9933333Y-33767057D02*
X9895237Y-33690866D01*
X9895237Y-33690866D02*
X9895237Y-33614676D01*
X9895237Y-33614676D02*
X9933333Y-33538485D01*
X9933333Y-33538485D02*
X9971428Y-33500390D01*
X9971428Y-33500390D02*
X10047618Y-33462295D01*
X10047618Y-33462295D02*
X10238095Y-33462295D01*
X10238095Y-33462295D02*
X10352380Y-33500390D01*
X10961904Y-33843247D02*
X11076190Y-33881342D01*
X11076190Y-33881342D02*
X11114285Y-33919438D01*
X11114285Y-33919438D02*
X11152381Y-33995628D01*
X11152381Y-33995628D02*
X11152381Y-34109914D01*
X11152381Y-34109914D02*
X11114285Y-34186104D01*
X11114285Y-34186104D02*
X11076190Y-34224200D01*
X11076190Y-34224200D02*
X11000000Y-34262295D01*
X11000000Y-34262295D02*
X10695238Y-34262295D01*
X10695238Y-34262295D02*
X10695238Y-33462295D01*
X10695238Y-33462295D02*
X10961904Y-33462295D01*
X10961904Y-33462295D02*
X11038095Y-33500390D01*
X11038095Y-33500390D02*
X11076190Y-33538485D01*
X11076190Y-33538485D02*
X11114285Y-33614676D01*
X11114285Y-33614676D02*
X11114285Y-33690866D01*
X11114285Y-33690866D02*
X11076190Y-33767057D01*
X11076190Y-33767057D02*
X11038095Y-33805152D01*
X11038095Y-33805152D02*
X10961904Y-33843247D01*
X10961904Y-33843247D02*
X10695238Y-33843247D01*
X11495238Y-33957533D02*
X12104762Y-33957533D01*
X12942857Y-34186104D02*
X12904761Y-34224200D01*
X12904761Y-34224200D02*
X12790476Y-34262295D01*
X12790476Y-34262295D02*
X12714285Y-34262295D01*
X12714285Y-34262295D02*
X12599999Y-34224200D01*
X12599999Y-34224200D02*
X12523809Y-34148009D01*
X12523809Y-34148009D02*
X12485714Y-34071819D01*
X12485714Y-34071819D02*
X12447618Y-33919438D01*
X12447618Y-33919438D02*
X12447618Y-33805152D01*
X12447618Y-33805152D02*
X12485714Y-33652771D01*
X12485714Y-33652771D02*
X12523809Y-33576580D01*
X12523809Y-33576580D02*
X12599999Y-33500390D01*
X12599999Y-33500390D02*
X12714285Y-33462295D01*
X12714285Y-33462295D02*
X12790476Y-33462295D01*
X12790476Y-33462295D02*
X12904761Y-33500390D01*
X12904761Y-33500390D02*
X12942857Y-33538485D01*
X10209523Y-18524200D02*
X10323809Y-18562295D01*
X10323809Y-18562295D02*
X10514285Y-18562295D01*
X10514285Y-18562295D02*
X10590476Y-18524200D01*
X10590476Y-18524200D02*
X10628571Y-18486104D01*
X10628571Y-18486104D02*
X10666666Y-18409914D01*
X10666666Y-18409914D02*
X10666666Y-18333723D01*
X10666666Y-18333723D02*
X10628571Y-18257533D01*
X10628571Y-18257533D02*
X10590476Y-18219438D01*
X10590476Y-18219438D02*
X10514285Y-18181342D01*
X10514285Y-18181342D02*
X10361904Y-18143247D01*
X10361904Y-18143247D02*
X10285714Y-18105152D01*
X10285714Y-18105152D02*
X10247619Y-18067057D01*
X10247619Y-18067057D02*
X10209523Y-17990866D01*
X10209523Y-17990866D02*
X10209523Y-17914676D01*
X10209523Y-17914676D02*
X10247619Y-17838485D01*
X10247619Y-17838485D02*
X10285714Y-17800390D01*
X10285714Y-17800390D02*
X10361904Y-17762295D01*
X10361904Y-17762295D02*
X10552381Y-17762295D01*
X10552381Y-17762295D02*
X10666666Y-17800390D01*
X11466667Y-18486104D02*
X11428571Y-18524200D01*
X11428571Y-18524200D02*
X11314286Y-18562295D01*
X11314286Y-18562295D02*
X11238095Y-18562295D01*
X11238095Y-18562295D02*
X11123809Y-18524200D01*
X11123809Y-18524200D02*
X11047619Y-18448009D01*
X11047619Y-18448009D02*
X11009524Y-18371819D01*
X11009524Y-18371819D02*
X10971428Y-18219438D01*
X10971428Y-18219438D02*
X10971428Y-18105152D01*
X10971428Y-18105152D02*
X11009524Y-17952771D01*
X11009524Y-17952771D02*
X11047619Y-17876580D01*
X11047619Y-17876580D02*
X11123809Y-17800390D01*
X11123809Y-17800390D02*
X11238095Y-17762295D01*
X11238095Y-17762295D02*
X11314286Y-17762295D01*
X11314286Y-17762295D02*
X11428571Y-17800390D01*
X11428571Y-17800390D02*
X11466667Y-17838485D01*
X11809524Y-18562295D02*
X11809524Y-17762295D01*
X11809524Y-17762295D02*
X12000000Y-17762295D01*
X12000000Y-17762295D02*
X12114286Y-17800390D01*
X12114286Y-17800390D02*
X12190476Y-17876580D01*
X12190476Y-17876580D02*
X12228571Y-17952771D01*
X12228571Y-17952771D02*
X12266667Y-18105152D01*
X12266667Y-18105152D02*
X12266667Y-18219438D01*
X12266667Y-18219438D02*
X12228571Y-18371819D01*
X12228571Y-18371819D02*
X12190476Y-18448009D01*
X12190476Y-18448009D02*
X12114286Y-18524200D01*
X12114286Y-18524200D02*
X12000000Y-18562295D01*
X12000000Y-18562295D02*
X11809524Y-18562295D01*
X12952381Y-18028961D02*
X12952381Y-18562295D01*
X12761905Y-17724200D02*
X12571428Y-18295628D01*
X12571428Y-18295628D02*
X13066667Y-18295628D01*
X13790476Y-18562295D02*
X13333333Y-18562295D01*
X13561905Y-18562295D02*
X13561905Y-17762295D01*
X13561905Y-17762295D02*
X13485714Y-17876580D01*
X13485714Y-17876580D02*
X13409524Y-17952771D01*
X13409524Y-17952771D02*
X13333333Y-17990866D01*
X21914285Y-20543247D02*
X22028571Y-20581342D01*
X22028571Y-20581342D02*
X22066666Y-20619438D01*
X22066666Y-20619438D02*
X22104762Y-20695628D01*
X22104762Y-20695628D02*
X22104762Y-20809914D01*
X22104762Y-20809914D02*
X22066666Y-20886104D01*
X22066666Y-20886104D02*
X22028571Y-20924200D01*
X22028571Y-20924200D02*
X21952381Y-20962295D01*
X21952381Y-20962295D02*
X21647619Y-20962295D01*
X21647619Y-20962295D02*
X21647619Y-20162295D01*
X21647619Y-20162295D02*
X21914285Y-20162295D01*
X21914285Y-20162295D02*
X21990476Y-20200390D01*
X21990476Y-20200390D02*
X22028571Y-20238485D01*
X22028571Y-20238485D02*
X22066666Y-20314676D01*
X22066666Y-20314676D02*
X22066666Y-20390866D01*
X22066666Y-20390866D02*
X22028571Y-20467057D01*
X22028571Y-20467057D02*
X21990476Y-20505152D01*
X21990476Y-20505152D02*
X21914285Y-20543247D01*
X21914285Y-20543247D02*
X21647619Y-20543247D01*
X22600000Y-20162295D02*
X22752381Y-20162295D01*
X22752381Y-20162295D02*
X22828571Y-20200390D01*
X22828571Y-20200390D02*
X22904762Y-20276580D01*
X22904762Y-20276580D02*
X22942857Y-20428961D01*
X22942857Y-20428961D02*
X22942857Y-20695628D01*
X22942857Y-20695628D02*
X22904762Y-20848009D01*
X22904762Y-20848009D02*
X22828571Y-20924200D01*
X22828571Y-20924200D02*
X22752381Y-20962295D01*
X22752381Y-20962295D02*
X22600000Y-20962295D01*
X22600000Y-20962295D02*
X22523809Y-20924200D01*
X22523809Y-20924200D02*
X22447619Y-20848009D01*
X22447619Y-20848009D02*
X22409523Y-20695628D01*
X22409523Y-20695628D02*
X22409523Y-20428961D01*
X22409523Y-20428961D02*
X22447619Y-20276580D01*
X22447619Y-20276580D02*
X22523809Y-20200390D01*
X22523809Y-20200390D02*
X22600000Y-20162295D01*
X23438095Y-20162295D02*
X23590476Y-20162295D01*
X23590476Y-20162295D02*
X23666666Y-20200390D01*
X23666666Y-20200390D02*
X23742857Y-20276580D01*
X23742857Y-20276580D02*
X23780952Y-20428961D01*
X23780952Y-20428961D02*
X23780952Y-20695628D01*
X23780952Y-20695628D02*
X23742857Y-20848009D01*
X23742857Y-20848009D02*
X23666666Y-20924200D01*
X23666666Y-20924200D02*
X23590476Y-20962295D01*
X23590476Y-20962295D02*
X23438095Y-20962295D01*
X23438095Y-20962295D02*
X23361904Y-20924200D01*
X23361904Y-20924200D02*
X23285714Y-20848009D01*
X23285714Y-20848009D02*
X23247618Y-20695628D01*
X23247618Y-20695628D02*
X23247618Y-20428961D01*
X23247618Y-20428961D02*
X23285714Y-20276580D01*
X23285714Y-20276580D02*
X23361904Y-20200390D01*
X23361904Y-20200390D02*
X23438095Y-20162295D01*
X24009523Y-20162295D02*
X24466666Y-20162295D01*
X24238094Y-20962295D02*
X24238094Y-20162295D01*
X25114285Y-2143247D02*
X25228571Y-2181342D01*
X25228571Y-2181342D02*
X25266666Y-2219438D01*
X25266666Y-2219438D02*
X25304762Y-2295628D01*
X25304762Y-2295628D02*
X25304762Y-2409914D01*
X25304762Y-2409914D02*
X25266666Y-2486104D01*
X25266666Y-2486104D02*
X25228571Y-2524200D01*
X25228571Y-2524200D02*
X25152381Y-2562295D01*
X25152381Y-2562295D02*
X24847619Y-2562295D01*
X24847619Y-2562295D02*
X24847619Y-1762295D01*
X24847619Y-1762295D02*
X25114285Y-1762295D01*
X25114285Y-1762295D02*
X25190476Y-1800390D01*
X25190476Y-1800390D02*
X25228571Y-1838485D01*
X25228571Y-1838485D02*
X25266666Y-1914676D01*
X25266666Y-1914676D02*
X25266666Y-1990866D01*
X25266666Y-1990866D02*
X25228571Y-2067057D01*
X25228571Y-2067057D02*
X25190476Y-2105152D01*
X25190476Y-2105152D02*
X25114285Y-2143247D01*
X25114285Y-2143247D02*
X24847619Y-2143247D01*
X25647619Y-2562295D02*
X25647619Y-1762295D01*
X25647619Y-2143247D02*
X26104762Y-2143247D01*
X26104762Y-2562295D02*
X26104762Y-1762295D01*
X26904761Y-2562295D02*
X26447618Y-2562295D01*
X26676190Y-2562295D02*
X26676190Y-1762295D01*
X26676190Y-1762295D02*
X26599999Y-1876580D01*
X26599999Y-1876580D02*
X26523809Y-1952771D01*
X26523809Y-1952771D02*
X26447618Y-1990866D01*
X27171428Y-1762295D02*
X27704762Y-1762295D01*
X27704762Y-1762295D02*
X27361904Y-2562295D01*
X28390476Y-1762295D02*
X28009524Y-1762295D01*
X28009524Y-1762295D02*
X27971428Y-2143247D01*
X27971428Y-2143247D02*
X28009524Y-2105152D01*
X28009524Y-2105152D02*
X28085714Y-2067057D01*
X28085714Y-2067057D02*
X28276190Y-2067057D01*
X28276190Y-2067057D02*
X28352381Y-2105152D01*
X28352381Y-2105152D02*
X28390476Y-2143247D01*
X28390476Y-2143247D02*
X28428571Y-2219438D01*
X28428571Y-2219438D02*
X28428571Y-2409914D01*
X28428571Y-2409914D02*
X28390476Y-2486104D01*
X28390476Y-2486104D02*
X28352381Y-2524200D01*
X28352381Y-2524200D02*
X28276190Y-2562295D01*
X28276190Y-2562295D02*
X28085714Y-2562295D01*
X28085714Y-2562295D02*
X28009524Y-2524200D01*
X28009524Y-2524200D02*
X27971428Y-2486104D01*
X28923810Y-1762295D02*
X29000000Y-1762295D01*
X29000000Y-1762295D02*
X29076191Y-1800390D01*
X29076191Y-1800390D02*
X29114286Y-1838485D01*
X29114286Y-1838485D02*
X29152381Y-1914676D01*
X29152381Y-1914676D02*
X29190476Y-2067057D01*
X29190476Y-2067057D02*
X29190476Y-2257533D01*
X29190476Y-2257533D02*
X29152381Y-2409914D01*
X29152381Y-2409914D02*
X29114286Y-2486104D01*
X29114286Y-2486104D02*
X29076191Y-2524200D01*
X29076191Y-2524200D02*
X29000000Y-2562295D01*
X29000000Y-2562295D02*
X28923810Y-2562295D01*
X28923810Y-2562295D02*
X28847619Y-2524200D01*
X28847619Y-2524200D02*
X28809524Y-2486104D01*
X28809524Y-2486104D02*
X28771429Y-2409914D01*
X28771429Y-2409914D02*
X28733333Y-2257533D01*
X28733333Y-2257533D02*
X28733333Y-2067057D01*
X28733333Y-2067057D02*
X28771429Y-1914676D01*
X28771429Y-1914676D02*
X28809524Y-1838485D01*
X28809524Y-1838485D02*
X28847619Y-1800390D01*
X28847619Y-1800390D02*
X28923810Y-1762295D01*
X29838095Y-20962295D02*
X29571428Y-20581342D01*
X29380952Y-20962295D02*
X29380952Y-20162295D01*
X29380952Y-20162295D02*
X29685714Y-20162295D01*
X29685714Y-20162295D02*
X29761904Y-20200390D01*
X29761904Y-20200390D02*
X29799999Y-20238485D01*
X29799999Y-20238485D02*
X29838095Y-20314676D01*
X29838095Y-20314676D02*
X29838095Y-20428961D01*
X29838095Y-20428961D02*
X29799999Y-20505152D01*
X29799999Y-20505152D02*
X29761904Y-20543247D01*
X29761904Y-20543247D02*
X29685714Y-20581342D01*
X29685714Y-20581342D02*
X29380952Y-20581342D01*
X30180952Y-20543247D02*
X30447618Y-20543247D01*
X30561904Y-20962295D02*
X30180952Y-20962295D01*
X30180952Y-20962295D02*
X30180952Y-20162295D01*
X30180952Y-20162295D02*
X30561904Y-20162295D01*
X30866666Y-20924200D02*
X30980952Y-20962295D01*
X30980952Y-20962295D02*
X31171428Y-20962295D01*
X31171428Y-20962295D02*
X31247619Y-20924200D01*
X31247619Y-20924200D02*
X31285714Y-20886104D01*
X31285714Y-20886104D02*
X31323809Y-20809914D01*
X31323809Y-20809914D02*
X31323809Y-20733723D01*
X31323809Y-20733723D02*
X31285714Y-20657533D01*
X31285714Y-20657533D02*
X31247619Y-20619438D01*
X31247619Y-20619438D02*
X31171428Y-20581342D01*
X31171428Y-20581342D02*
X31019047Y-20543247D01*
X31019047Y-20543247D02*
X30942857Y-20505152D01*
X30942857Y-20505152D02*
X30904762Y-20467057D01*
X30904762Y-20467057D02*
X30866666Y-20390866D01*
X30866666Y-20390866D02*
X30866666Y-20314676D01*
X30866666Y-20314676D02*
X30904762Y-20238485D01*
X30904762Y-20238485D02*
X30942857Y-20200390D01*
X30942857Y-20200390D02*
X31019047Y-20162295D01*
X31019047Y-20162295D02*
X31209524Y-20162295D01*
X31209524Y-20162295D02*
X31323809Y-20200390D01*
X31666667Y-20543247D02*
X31933333Y-20543247D01*
X32047619Y-20962295D02*
X31666667Y-20962295D01*
X31666667Y-20962295D02*
X31666667Y-20162295D01*
X31666667Y-20162295D02*
X32047619Y-20162295D01*
X32276191Y-20162295D02*
X32733334Y-20162295D01*
X32504762Y-20962295D02*
X32504762Y-20162295D01*
X30723808Y-33162295D02*
X30723808Y-33733723D01*
X30723808Y-33733723D02*
X30685713Y-33848009D01*
X30685713Y-33848009D02*
X30609522Y-33924200D01*
X30609522Y-33924200D02*
X30495237Y-33962295D01*
X30495237Y-33962295D02*
X30419046Y-33962295D01*
X31028570Y-33162295D02*
X31523808Y-33162295D01*
X31523808Y-33162295D02*
X31257142Y-33467057D01*
X31257142Y-33467057D02*
X31371427Y-33467057D01*
X31371427Y-33467057D02*
X31447618Y-33505152D01*
X31447618Y-33505152D02*
X31485713Y-33543247D01*
X31485713Y-33543247D02*
X31523808Y-33619438D01*
X31523808Y-33619438D02*
X31523808Y-33809914D01*
X31523808Y-33809914D02*
X31485713Y-33886104D01*
X31485713Y-33886104D02*
X31447618Y-33924200D01*
X31447618Y-33924200D02*
X31371427Y-33962295D01*
X31371427Y-33962295D02*
X31142856Y-33962295D01*
X31142856Y-33962295D02*
X31066665Y-33924200D01*
X31066665Y-33924200D02*
X31028570Y-33886104D01*
X31866666Y-33886104D02*
X31904761Y-33924200D01*
X31904761Y-33924200D02*
X31866666Y-33962295D01*
X31866666Y-33962295D02*
X31828570Y-33924200D01*
X31828570Y-33924200D02*
X31866666Y-33886104D01*
X31866666Y-33886104D02*
X31866666Y-33962295D01*
X31866666Y-33467057D02*
X31904761Y-33505152D01*
X31904761Y-33505152D02*
X31866666Y-33543247D01*
X31866666Y-33543247D02*
X31828570Y-33505152D01*
X31828570Y-33505152D02*
X31866666Y-33467057D01*
X31866666Y-33467057D02*
X31866666Y-33543247D01*
X33238094Y-33162295D02*
X32857142Y-33162295D01*
X32857142Y-33162295D02*
X32819046Y-33543247D01*
X32819046Y-33543247D02*
X32857142Y-33505152D01*
X32857142Y-33505152D02*
X32933332Y-33467057D01*
X32933332Y-33467057D02*
X33123808Y-33467057D01*
X33123808Y-33467057D02*
X33199999Y-33505152D01*
X33199999Y-33505152D02*
X33238094Y-33543247D01*
X33238094Y-33543247D02*
X33276189Y-33619438D01*
X33276189Y-33619438D02*
X33276189Y-33809914D01*
X33276189Y-33809914D02*
X33238094Y-33886104D01*
X33238094Y-33886104D02*
X33199999Y-33924200D01*
X33199999Y-33924200D02*
X33123808Y-33962295D01*
X33123808Y-33962295D02*
X32933332Y-33962295D01*
X32933332Y-33962295D02*
X32857142Y-33924200D01*
X32857142Y-33924200D02*
X32819046Y-33886104D01*
X33504761Y-33162295D02*
X33771428Y-33962295D01*
X33771428Y-33962295D02*
X34038094Y-33162295D01*
X35333332Y-33200390D02*
X35257142Y-33162295D01*
X35257142Y-33162295D02*
X35142856Y-33162295D01*
X35142856Y-33162295D02*
X35028570Y-33200390D01*
X35028570Y-33200390D02*
X34952380Y-33276580D01*
X34952380Y-33276580D02*
X34914285Y-33352771D01*
X34914285Y-33352771D02*
X34876189Y-33505152D01*
X34876189Y-33505152D02*
X34876189Y-33619438D01*
X34876189Y-33619438D02*
X34914285Y-33771819D01*
X34914285Y-33771819D02*
X34952380Y-33848009D01*
X34952380Y-33848009D02*
X35028570Y-33924200D01*
X35028570Y-33924200D02*
X35142856Y-33962295D01*
X35142856Y-33962295D02*
X35219047Y-33962295D01*
X35219047Y-33962295D02*
X35333332Y-33924200D01*
X35333332Y-33924200D02*
X35371428Y-33886104D01*
X35371428Y-33886104D02*
X35371428Y-33619438D01*
X35371428Y-33619438D02*
X35219047Y-33619438D01*
X36247618Y-33162295D02*
X36742856Y-33162295D01*
X36742856Y-33162295D02*
X36476190Y-33467057D01*
X36476190Y-33467057D02*
X36590475Y-33467057D01*
X36590475Y-33467057D02*
X36666666Y-33505152D01*
X36666666Y-33505152D02*
X36704761Y-33543247D01*
X36704761Y-33543247D02*
X36742856Y-33619438D01*
X36742856Y-33619438D02*
X36742856Y-33809914D01*
X36742856Y-33809914D02*
X36704761Y-33886104D01*
X36704761Y-33886104D02*
X36666666Y-33924200D01*
X36666666Y-33924200D02*
X36590475Y-33962295D01*
X36590475Y-33962295D02*
X36361904Y-33962295D01*
X36361904Y-33962295D02*
X36285713Y-33924200D01*
X36285713Y-33924200D02*
X36247618Y-33886104D01*
X36971428Y-33162295D02*
X37238095Y-33962295D01*
X37238095Y-33962295D02*
X37504761Y-33162295D01*
X37695237Y-33162295D02*
X38190475Y-33162295D01*
X38190475Y-33162295D02*
X37923809Y-33467057D01*
X37923809Y-33467057D02*
X38038094Y-33467057D01*
X38038094Y-33467057D02*
X38114285Y-33505152D01*
X38114285Y-33505152D02*
X38152380Y-33543247D01*
X38152380Y-33543247D02*
X38190475Y-33619438D01*
X38190475Y-33619438D02*
X38190475Y-33809914D01*
X38190475Y-33809914D02*
X38152380Y-33886104D01*
X38152380Y-33886104D02*
X38114285Y-33924200D01*
X38114285Y-33924200D02*
X38038094Y-33962295D01*
X38038094Y-33962295D02*
X37809523Y-33962295D01*
X37809523Y-33962295D02*
X37733332Y-33924200D01*
X37733332Y-33924200D02*
X37695237Y-33886104D01*
X39561904Y-33200390D02*
X39485714Y-33162295D01*
X39485714Y-33162295D02*
X39371428Y-33162295D01*
X39371428Y-33162295D02*
X39257142Y-33200390D01*
X39257142Y-33200390D02*
X39180952Y-33276580D01*
X39180952Y-33276580D02*
X39142857Y-33352771D01*
X39142857Y-33352771D02*
X39104761Y-33505152D01*
X39104761Y-33505152D02*
X39104761Y-33619438D01*
X39104761Y-33619438D02*
X39142857Y-33771819D01*
X39142857Y-33771819D02*
X39180952Y-33848009D01*
X39180952Y-33848009D02*
X39257142Y-33924200D01*
X39257142Y-33924200D02*
X39371428Y-33962295D01*
X39371428Y-33962295D02*
X39447619Y-33962295D01*
X39447619Y-33962295D02*
X39561904Y-33924200D01*
X39561904Y-33924200D02*
X39600000Y-33886104D01*
X39600000Y-33886104D02*
X39600000Y-33619438D01*
X39600000Y-33619438D02*
X39447619Y-33619438D01*
X40514285Y-33924200D02*
X40628571Y-33962295D01*
X40628571Y-33962295D02*
X40819047Y-33962295D01*
X40819047Y-33962295D02*
X40895238Y-33924200D01*
X40895238Y-33924200D02*
X40933333Y-33886104D01*
X40933333Y-33886104D02*
X40971428Y-33809914D01*
X40971428Y-33809914D02*
X40971428Y-33733723D01*
X40971428Y-33733723D02*
X40933333Y-33657533D01*
X40933333Y-33657533D02*
X40895238Y-33619438D01*
X40895238Y-33619438D02*
X40819047Y-33581342D01*
X40819047Y-33581342D02*
X40666666Y-33543247D01*
X40666666Y-33543247D02*
X40590476Y-33505152D01*
X40590476Y-33505152D02*
X40552381Y-33467057D01*
X40552381Y-33467057D02*
X40514285Y-33390866D01*
X40514285Y-33390866D02*
X40514285Y-33314676D01*
X40514285Y-33314676D02*
X40552381Y-33238485D01*
X40552381Y-33238485D02*
X40590476Y-33200390D01*
X40590476Y-33200390D02*
X40666666Y-33162295D01*
X40666666Y-33162295D02*
X40857143Y-33162295D01*
X40857143Y-33162295D02*
X40971428Y-33200390D01*
X41314286Y-33962295D02*
X41314286Y-33162295D01*
X41314286Y-33162295D02*
X41504762Y-33162295D01*
X41504762Y-33162295D02*
X41619048Y-33200390D01*
X41619048Y-33200390D02*
X41695238Y-33276580D01*
X41695238Y-33276580D02*
X41733333Y-33352771D01*
X41733333Y-33352771D02*
X41771429Y-33505152D01*
X41771429Y-33505152D02*
X41771429Y-33619438D01*
X41771429Y-33619438D02*
X41733333Y-33771819D01*
X41733333Y-33771819D02*
X41695238Y-33848009D01*
X41695238Y-33848009D02*
X41619048Y-33924200D01*
X41619048Y-33924200D02*
X41504762Y-33962295D01*
X41504762Y-33962295D02*
X41314286Y-33962295D01*
X42076190Y-33733723D02*
X42457143Y-33733723D01*
X42000000Y-33962295D02*
X42266667Y-33162295D01*
X42266667Y-33162295D02*
X42533333Y-33962295D01*
X43371428Y-33924200D02*
X43485714Y-33962295D01*
X43485714Y-33962295D02*
X43676190Y-33962295D01*
X43676190Y-33962295D02*
X43752381Y-33924200D01*
X43752381Y-33924200D02*
X43790476Y-33886104D01*
X43790476Y-33886104D02*
X43828571Y-33809914D01*
X43828571Y-33809914D02*
X43828571Y-33733723D01*
X43828571Y-33733723D02*
X43790476Y-33657533D01*
X43790476Y-33657533D02*
X43752381Y-33619438D01*
X43752381Y-33619438D02*
X43676190Y-33581342D01*
X43676190Y-33581342D02*
X43523809Y-33543247D01*
X43523809Y-33543247D02*
X43447619Y-33505152D01*
X43447619Y-33505152D02*
X43409524Y-33467057D01*
X43409524Y-33467057D02*
X43371428Y-33390866D01*
X43371428Y-33390866D02*
X43371428Y-33314676D01*
X43371428Y-33314676D02*
X43409524Y-33238485D01*
X43409524Y-33238485D02*
X43447619Y-33200390D01*
X43447619Y-33200390D02*
X43523809Y-33162295D01*
X43523809Y-33162295D02*
X43714286Y-33162295D01*
X43714286Y-33162295D02*
X43828571Y-33200390D01*
X44628572Y-33886104D02*
X44590476Y-33924200D01*
X44590476Y-33924200D02*
X44476191Y-33962295D01*
X44476191Y-33962295D02*
X44400000Y-33962295D01*
X44400000Y-33962295D02*
X44285714Y-33924200D01*
X44285714Y-33924200D02*
X44209524Y-33848009D01*
X44209524Y-33848009D02*
X44171429Y-33771819D01*
X44171429Y-33771819D02*
X44133333Y-33619438D01*
X44133333Y-33619438D02*
X44133333Y-33505152D01*
X44133333Y-33505152D02*
X44171429Y-33352771D01*
X44171429Y-33352771D02*
X44209524Y-33276580D01*
X44209524Y-33276580D02*
X44285714Y-33200390D01*
X44285714Y-33200390D02*
X44400000Y-33162295D01*
X44400000Y-33162295D02*
X44476191Y-33162295D01*
X44476191Y-33162295D02*
X44590476Y-33200390D01*
X44590476Y-33200390D02*
X44628572Y-33238485D01*
X45352381Y-33962295D02*
X44971429Y-33962295D01*
X44971429Y-33962295D02*
X44971429Y-33162295D01*
X46190476Y-33733723D02*
X46571429Y-33733723D01*
X46114286Y-33962295D02*
X46380953Y-33162295D01*
X46380953Y-33162295D02*
X46647619Y-33962295D01*
X47790476Y-33543247D02*
X47904762Y-33581342D01*
X47904762Y-33581342D02*
X47942857Y-33619438D01*
X47942857Y-33619438D02*
X47980953Y-33695628D01*
X47980953Y-33695628D02*
X47980953Y-33809914D01*
X47980953Y-33809914D02*
X47942857Y-33886104D01*
X47942857Y-33886104D02*
X47904762Y-33924200D01*
X47904762Y-33924200D02*
X47828572Y-33962295D01*
X47828572Y-33962295D02*
X47523810Y-33962295D01*
X47523810Y-33962295D02*
X47523810Y-33162295D01*
X47523810Y-33162295D02*
X47790476Y-33162295D01*
X47790476Y-33162295D02*
X47866667Y-33200390D01*
X47866667Y-33200390D02*
X47904762Y-33238485D01*
X47904762Y-33238485D02*
X47942857Y-33314676D01*
X47942857Y-33314676D02*
X47942857Y-33390866D01*
X47942857Y-33390866D02*
X47904762Y-33467057D01*
X47904762Y-33467057D02*
X47866667Y-33505152D01*
X47866667Y-33505152D02*
X47790476Y-33543247D01*
X47790476Y-33543247D02*
X47523810Y-33543247D01*
X48895238Y-33733723D02*
X49276191Y-33733723D01*
X48819048Y-33962295D02*
X49085715Y-33162295D01*
X49085715Y-33162295D02*
X49352381Y-33962295D01*
X49619048Y-33962295D02*
X49619048Y-33162295D01*
X49619048Y-33162295D02*
X49809524Y-33162295D01*
X49809524Y-33162295D02*
X49923810Y-33200390D01*
X49923810Y-33200390D02*
X50000000Y-33276580D01*
X50000000Y-33276580D02*
X50038095Y-33352771D01*
X50038095Y-33352771D02*
X50076191Y-33505152D01*
X50076191Y-33505152D02*
X50076191Y-33619438D01*
X50076191Y-33619438D02*
X50038095Y-33771819D01*
X50038095Y-33771819D02*
X50000000Y-33848009D01*
X50000000Y-33848009D02*
X49923810Y-33924200D01*
X49923810Y-33924200D02*
X49809524Y-33962295D01*
X49809524Y-33962295D02*
X49619048Y-33962295D01*
X50838095Y-33962295D02*
X50380952Y-33962295D01*
X50609524Y-33962295D02*
X50609524Y-33162295D01*
X50609524Y-33162295D02*
X50533333Y-33276580D01*
X50533333Y-33276580D02*
X50457143Y-33352771D01*
X50457143Y-33352771D02*
X50380952Y-33390866D01*
X51752381Y-33733723D02*
X52133334Y-33733723D01*
X51676191Y-33962295D02*
X51942858Y-33162295D01*
X51942858Y-33162295D02*
X52209524Y-33962295D01*
X52476191Y-33962295D02*
X52476191Y-33162295D01*
X52476191Y-33162295D02*
X52666667Y-33162295D01*
X52666667Y-33162295D02*
X52780953Y-33200390D01*
X52780953Y-33200390D02*
X52857143Y-33276580D01*
X52857143Y-33276580D02*
X52895238Y-33352771D01*
X52895238Y-33352771D02*
X52933334Y-33505152D01*
X52933334Y-33505152D02*
X52933334Y-33619438D01*
X52933334Y-33619438D02*
X52895238Y-33771819D01*
X52895238Y-33771819D02*
X52857143Y-33848009D01*
X52857143Y-33848009D02*
X52780953Y-33924200D01*
X52780953Y-33924200D02*
X52666667Y-33962295D01*
X52666667Y-33962295D02*
X52476191Y-33962295D01*
X53238095Y-33238485D02*
X53276191Y-33200390D01*
X53276191Y-33200390D02*
X53352381Y-33162295D01*
X53352381Y-33162295D02*
X53542857Y-33162295D01*
X53542857Y-33162295D02*
X53619048Y-33200390D01*
X53619048Y-33200390D02*
X53657143Y-33238485D01*
X53657143Y-33238485D02*
X53695238Y-33314676D01*
X53695238Y-33314676D02*
X53695238Y-33390866D01*
X53695238Y-33390866D02*
X53657143Y-33505152D01*
X53657143Y-33505152D02*
X53200000Y-33962295D01*
X53200000Y-33962295D02*
X53695238Y-33962295D01*
X55104763Y-33886104D02*
X55066667Y-33924200D01*
X55066667Y-33924200D02*
X54952382Y-33962295D01*
X54952382Y-33962295D02*
X54876191Y-33962295D01*
X54876191Y-33962295D02*
X54761905Y-33924200D01*
X54761905Y-33924200D02*
X54685715Y-33848009D01*
X54685715Y-33848009D02*
X54647620Y-33771819D01*
X54647620Y-33771819D02*
X54609524Y-33619438D01*
X54609524Y-33619438D02*
X54609524Y-33505152D01*
X54609524Y-33505152D02*
X54647620Y-33352771D01*
X54647620Y-33352771D02*
X54685715Y-33276580D01*
X54685715Y-33276580D02*
X54761905Y-33200390D01*
X54761905Y-33200390D02*
X54876191Y-33162295D01*
X54876191Y-33162295D02*
X54952382Y-33162295D01*
X54952382Y-33162295D02*
X55066667Y-33200390D01*
X55066667Y-33200390D02*
X55104763Y-33238485D01*
X56057144Y-33962295D02*
X56057144Y-33162295D01*
X56438096Y-33962295D02*
X56438096Y-33162295D01*
X56438096Y-33162295D02*
X56895239Y-33962295D01*
X56895239Y-33962295D02*
X56895239Y-33162295D01*
X57161905Y-33162295D02*
X57619048Y-33162295D01*
X57390476Y-33962295D02*
X57390476Y-33162295D01*
X6062295Y-30285714D02*
X6709914Y-30285714D01*
X6709914Y-30285714D02*
X6786104Y-30247619D01*
X6786104Y-30247619D02*
X6824200Y-30209524D01*
X6824200Y-30209524D02*
X6862295Y-30133333D01*
X6862295Y-30133333D02*
X6862295Y-29980952D01*
X6862295Y-29980952D02*
X6824200Y-29904762D01*
X6824200Y-29904762D02*
X6786104Y-29866667D01*
X6786104Y-29866667D02*
X6709914Y-29828571D01*
X6709914Y-29828571D02*
X6062295Y-29828571D01*
X6633723Y-29485715D02*
X6633723Y-29104762D01*
X6862295Y-29561905D02*
X6062295Y-29295238D01*
X6062295Y-29295238D02*
X6862295Y-29028572D01*
X6862295Y-28304762D02*
X6481342Y-28571429D01*
X6862295Y-28761905D02*
X6062295Y-28761905D01*
X6062295Y-28761905D02*
X6062295Y-28457143D01*
X6062295Y-28457143D02*
X6100390Y-28380953D01*
X6100390Y-28380953D02*
X6138485Y-28342858D01*
X6138485Y-28342858D02*
X6214676Y-28304762D01*
X6214676Y-28304762D02*
X6328961Y-28304762D01*
X6328961Y-28304762D02*
X6405152Y-28342858D01*
X6405152Y-28342858D02*
X6443247Y-28380953D01*
X6443247Y-28380953D02*
X6481342Y-28457143D01*
X6481342Y-28457143D02*
X6481342Y-28761905D01*
X6062295Y-28076191D02*
X6062295Y-27619048D01*
X6862295Y-27847620D02*
X6062295Y-27847620D01*
X6062295Y-26819048D02*
X6062295Y-26323810D01*
X6062295Y-26323810D02*
X6367057Y-26590476D01*
X6367057Y-26590476D02*
X6367057Y-26476191D01*
X6367057Y-26476191D02*
X6405152Y-26400000D01*
X6405152Y-26400000D02*
X6443247Y-26361905D01*
X6443247Y-26361905D02*
X6519438Y-26323810D01*
X6519438Y-26323810D02*
X6709914Y-26323810D01*
X6709914Y-26323810D02*
X6786104Y-26361905D01*
X6786104Y-26361905D02*
X6824200Y-26400000D01*
X6824200Y-26400000D02*
X6862295Y-26476191D01*
X6862295Y-26476191D02*
X6862295Y-26704762D01*
X6862295Y-26704762D02*
X6824200Y-26780953D01*
X6824200Y-26780953D02*
X6786104Y-26819048D01*
X6062295Y-26095238D02*
X6862295Y-25828571D01*
X6862295Y-25828571D02*
X6062295Y-25561905D01*
X6062295Y-25371429D02*
X6062295Y-24876191D01*
X6062295Y-24876191D02*
X6367057Y-25142857D01*
X6367057Y-25142857D02*
X6367057Y-25028572D01*
X6367057Y-25028572D02*
X6405152Y-24952381D01*
X6405152Y-24952381D02*
X6443247Y-24914286D01*
X6443247Y-24914286D02*
X6519438Y-24876191D01*
X6519438Y-24876191D02*
X6709914Y-24876191D01*
X6709914Y-24876191D02*
X6786104Y-24914286D01*
X6786104Y-24914286D02*
X6824200Y-24952381D01*
X6824200Y-24952381D02*
X6862295Y-25028572D01*
X6862295Y-25028572D02*
X6862295Y-25257143D01*
X6862295Y-25257143D02*
X6824200Y-25333334D01*
X6824200Y-25333334D02*
X6786104Y-25371429D01*
X6062295Y-24038095D02*
X6062295Y-23580952D01*
X6862295Y-23809524D02*
X6062295Y-23809524D01*
X6062295Y-23390476D02*
X6862295Y-22857142D01*
X6062295Y-22857142D02*
X6862295Y-23390476D01*
X6862295Y-21485713D02*
X6481342Y-21752380D01*
X6862295Y-21942856D02*
X6062295Y-21942856D01*
X6062295Y-21942856D02*
X6062295Y-21638094D01*
X6062295Y-21638094D02*
X6100390Y-21561904D01*
X6100390Y-21561904D02*
X6138485Y-21523809D01*
X6138485Y-21523809D02*
X6214676Y-21485713D01*
X6214676Y-21485713D02*
X6328961Y-21485713D01*
X6328961Y-21485713D02*
X6405152Y-21523809D01*
X6405152Y-21523809D02*
X6443247Y-21561904D01*
X6443247Y-21561904D02*
X6481342Y-21638094D01*
X6481342Y-21638094D02*
X6481342Y-21942856D01*
X6062295Y-21219047D02*
X6862295Y-20685713D01*
X6062295Y-20685713D02*
X6862295Y-21219047D01*
X6100390Y-19352380D02*
X6062295Y-19428570D01*
X6062295Y-19428570D02*
X6062295Y-19542856D01*
X6062295Y-19542856D02*
X6100390Y-19657142D01*
X6100390Y-19657142D02*
X6176580Y-19733332D01*
X6176580Y-19733332D02*
X6252771Y-19771427D01*
X6252771Y-19771427D02*
X6405152Y-19809523D01*
X6405152Y-19809523D02*
X6519438Y-19809523D01*
X6519438Y-19809523D02*
X6671819Y-19771427D01*
X6671819Y-19771427D02*
X6748009Y-19733332D01*
X6748009Y-19733332D02*
X6824200Y-19657142D01*
X6824200Y-19657142D02*
X6862295Y-19542856D01*
X6862295Y-19542856D02*
X6862295Y-19466665D01*
X6862295Y-19466665D02*
X6824200Y-19352380D01*
X6824200Y-19352380D02*
X6786104Y-19314284D01*
X6786104Y-19314284D02*
X6519438Y-19314284D01*
X6519438Y-19314284D02*
X6519438Y-19466665D01*
X6862295Y-18971427D02*
X6062295Y-18971427D01*
X6062295Y-18971427D02*
X6862295Y-18514284D01*
X6862295Y-18514284D02*
X6062295Y-18514284D01*
X6862295Y-18133332D02*
X6062295Y-18133332D01*
X6062295Y-18133332D02*
X6062295Y-17942856D01*
X6062295Y-17942856D02*
X6100390Y-17828570D01*
X6100390Y-17828570D02*
X6176580Y-17752380D01*
X6176580Y-17752380D02*
X6252771Y-17714285D01*
X6252771Y-17714285D02*
X6405152Y-17676189D01*
X6405152Y-17676189D02*
X6519438Y-17676189D01*
X6519438Y-17676189D02*
X6671819Y-17714285D01*
X6671819Y-17714285D02*
X6748009Y-17752380D01*
X6748009Y-17752380D02*
X6824200Y-17828570D01*
X6824200Y-17828570D02*
X6862295Y-17942856D01*
X6862295Y-17942856D02*
X6862295Y-18133332D01*
X19285713Y-27954819D02*
X19285713Y-26954819D01*
X19285713Y-26954819D02*
X19666665Y-26954819D01*
X19666665Y-26954819D02*
X19761903Y-27002438D01*
X19761903Y-27002438D02*
X19809522Y-27050057D01*
X19809522Y-27050057D02*
X19857141Y-27145295D01*
X19857141Y-27145295D02*
X19857141Y-27288152D01*
X19857141Y-27288152D02*
X19809522Y-27383390D01*
X19809522Y-27383390D02*
X19761903Y-27431009D01*
X19761903Y-27431009D02*
X19666665Y-27478628D01*
X19666665Y-27478628D02*
X19285713Y-27478628D01*
X20285713Y-27954819D02*
X20285713Y-26954819D01*
X20285713Y-26954819D02*
X20857141Y-27954819D01*
X20857141Y-27954819D02*
X20857141Y-26954819D01*
X21666665Y-27431009D02*
X21809522Y-27478628D01*
X21809522Y-27478628D02*
X21857141Y-27526247D01*
X21857141Y-27526247D02*
X21904760Y-27621485D01*
X21904760Y-27621485D02*
X21904760Y-27764342D01*
X21904760Y-27764342D02*
X21857141Y-27859580D01*
X21857141Y-27859580D02*
X21809522Y-27907200D01*
X21809522Y-27907200D02*
X21714284Y-27954819D01*
X21714284Y-27954819D02*
X21333332Y-27954819D01*
X21333332Y-27954819D02*
X21333332Y-26954819D01*
X21333332Y-26954819D02*
X21666665Y-26954819D01*
X21666665Y-26954819D02*
X21761903Y-27002438D01*
X21761903Y-27002438D02*
X21809522Y-27050057D01*
X21809522Y-27050057D02*
X21857141Y-27145295D01*
X21857141Y-27145295D02*
X21857141Y-27240533D01*
X21857141Y-27240533D02*
X21809522Y-27335771D01*
X21809522Y-27335771D02*
X21761903Y-27383390D01*
X21761903Y-27383390D02*
X21666665Y-27431009D01*
X21666665Y-27431009D02*
X21333332Y-27431009D01*
X22333332Y-27573866D02*
X23095237Y-27573866D01*
X24095236Y-27954819D02*
X23523808Y-27954819D01*
X23809522Y-27954819D02*
X23809522Y-26954819D01*
X23809522Y-26954819D02*
X23714284Y-27097676D01*
X23714284Y-27097676D02*
X23619046Y-27192914D01*
X23619046Y-27192914D02*
X23523808Y-27240533D01*
X25285713Y-27954819D02*
X25285713Y-27288152D01*
X25285713Y-27478628D02*
X25333332Y-27383390D01*
X25333332Y-27383390D02*
X25380951Y-27335771D01*
X25380951Y-27335771D02*
X25476189Y-27288152D01*
X25476189Y-27288152D02*
X25571427Y-27288152D01*
X26285713Y-27907200D02*
X26190475Y-27954819D01*
X26190475Y-27954819D02*
X25999999Y-27954819D01*
X25999999Y-27954819D02*
X25904761Y-27907200D01*
X25904761Y-27907200D02*
X25857142Y-27811961D01*
X25857142Y-27811961D02*
X25857142Y-27431009D01*
X25857142Y-27431009D02*
X25904761Y-27335771D01*
X25904761Y-27335771D02*
X25999999Y-27288152D01*
X25999999Y-27288152D02*
X26190475Y-27288152D01*
X26190475Y-27288152D02*
X26285713Y-27335771D01*
X26285713Y-27335771D02*
X26333332Y-27431009D01*
X26333332Y-27431009D02*
X26333332Y-27526247D01*
X26333332Y-27526247D02*
X25857142Y-27621485D01*
X26666666Y-27288152D02*
X26904761Y-27954819D01*
X26904761Y-27954819D02*
X27142856Y-27288152D01*
X28238095Y-27669104D02*
X28714285Y-27669104D01*
X28142857Y-27954819D02*
X28476190Y-26954819D01*
X28476190Y-26954819D02*
X28809523Y-27954819D01*
X30333333Y-27954819D02*
X30333333Y-27431009D01*
X30333333Y-27431009D02*
X30285714Y-27335771D01*
X30285714Y-27335771D02*
X30190476Y-27288152D01*
X30190476Y-27288152D02*
X30000000Y-27288152D01*
X30000000Y-27288152D02*
X29904762Y-27335771D01*
X30333333Y-27907200D02*
X30238095Y-27954819D01*
X30238095Y-27954819D02*
X30000000Y-27954819D01*
X30000000Y-27954819D02*
X29904762Y-27907200D01*
X29904762Y-27907200D02*
X29857143Y-27811961D01*
X29857143Y-27811961D02*
X29857143Y-27716723D01*
X29857143Y-27716723D02*
X29904762Y-27621485D01*
X29904762Y-27621485D02*
X30000000Y-27573866D01*
X30000000Y-27573866D02*
X30238095Y-27573866D01*
X30238095Y-27573866D02*
X30333333Y-27526247D01*
X30809524Y-27954819D02*
X30809524Y-27288152D01*
X30809524Y-27478628D02*
X30857143Y-27383390D01*
X30857143Y-27383390D02*
X30904762Y-27335771D01*
X30904762Y-27335771D02*
X31000000Y-27288152D01*
X31000000Y-27288152D02*
X31095238Y-27288152D01*
X31285715Y-27288152D02*
X31666667Y-27288152D01*
X31428572Y-26954819D02*
X31428572Y-27811961D01*
X31428572Y-27811961D02*
X31476191Y-27907200D01*
X31476191Y-27907200D02*
X31571429Y-27954819D01*
X31571429Y-27954819D02*
X31666667Y-27954819D01*
X32380953Y-27907200D02*
X32285715Y-27954819D01*
X32285715Y-27954819D02*
X32095239Y-27954819D01*
X32095239Y-27954819D02*
X32000001Y-27907200D01*
X32000001Y-27907200D02*
X31952382Y-27811961D01*
X31952382Y-27811961D02*
X31952382Y-27431009D01*
X31952382Y-27431009D02*
X32000001Y-27335771D01*
X32000001Y-27335771D02*
X32095239Y-27288152D01*
X32095239Y-27288152D02*
X32285715Y-27288152D01*
X32285715Y-27288152D02*
X32380953Y-27335771D01*
X32380953Y-27335771D02*
X32428572Y-27431009D01*
X32428572Y-27431009D02*
X32428572Y-27526247D01*
X32428572Y-27526247D02*
X31952382Y-27621485D01*
X32857144Y-27954819D02*
X32857144Y-27288152D01*
X32857144Y-27478628D02*
X32904763Y-27383390D01*
X32904763Y-27383390D02*
X32952382Y-27335771D01*
X32952382Y-27335771D02*
X33047620Y-27288152D01*
X33047620Y-27288152D02*
X33142858Y-27288152D01*
X33904763Y-27954819D02*
X33904763Y-27431009D01*
X33904763Y-27431009D02*
X33857144Y-27335771D01*
X33857144Y-27335771D02*
X33761906Y-27288152D01*
X33761906Y-27288152D02*
X33571430Y-27288152D01*
X33571430Y-27288152D02*
X33476192Y-27335771D01*
X33904763Y-27907200D02*
X33809525Y-27954819D01*
X33809525Y-27954819D02*
X33571430Y-27954819D01*
X33571430Y-27954819D02*
X33476192Y-27907200D01*
X33476192Y-27907200D02*
X33428573Y-27811961D01*
X33428573Y-27811961D02*
X33428573Y-27716723D01*
X33428573Y-27716723D02*
X33476192Y-27621485D01*
X33476192Y-27621485D02*
X33571430Y-27573866D01*
X33571430Y-27573866D02*
X33809525Y-27573866D01*
X33809525Y-27573866D02*
X33904763Y-27526247D01*
X34380954Y-27859580D02*
X34428573Y-27907200D01*
X34428573Y-27907200D02*
X34380954Y-27954819D01*
X34380954Y-27954819D02*
X34333335Y-27907200D01*
X34333335Y-27907200D02*
X34380954Y-27859580D01*
X34380954Y-27859580D02*
X34380954Y-27954819D01*
X34809525Y-27907200D02*
X34904763Y-27954819D01*
X34904763Y-27954819D02*
X35095239Y-27954819D01*
X35095239Y-27954819D02*
X35190477Y-27907200D01*
X35190477Y-27907200D02*
X35238096Y-27811961D01*
X35238096Y-27811961D02*
X35238096Y-27764342D01*
X35238096Y-27764342D02*
X35190477Y-27669104D01*
X35190477Y-27669104D02*
X35095239Y-27621485D01*
X35095239Y-27621485D02*
X34952382Y-27621485D01*
X34952382Y-27621485D02*
X34857144Y-27573866D01*
X34857144Y-27573866D02*
X34809525Y-27478628D01*
X34809525Y-27478628D02*
X34809525Y-27431009D01*
X34809525Y-27431009D02*
X34857144Y-27335771D01*
X34857144Y-27335771D02*
X34952382Y-27288152D01*
X34952382Y-27288152D02*
X35095239Y-27288152D01*
X35095239Y-27288152D02*
X35190477Y-27335771D01*
X35666668Y-27288152D02*
X35666668Y-28288152D01*
X35666668Y-27335771D02*
X35761906Y-27288152D01*
X35761906Y-27288152D02*
X35952382Y-27288152D01*
X35952382Y-27288152D02*
X36047620Y-27335771D01*
X36047620Y-27335771D02*
X36095239Y-27383390D01*
X36095239Y-27383390D02*
X36142858Y-27478628D01*
X36142858Y-27478628D02*
X36142858Y-27764342D01*
X36142858Y-27764342D02*
X36095239Y-27859580D01*
X36095239Y-27859580D02*
X36047620Y-27907200D01*
X36047620Y-27907200D02*
X35952382Y-27954819D01*
X35952382Y-27954819D02*
X35761906Y-27954819D01*
X35761906Y-27954819D02*
X35666668Y-27907200D01*
X37000001Y-27954819D02*
X37000001Y-27431009D01*
X37000001Y-27431009D02*
X36952382Y-27335771D01*
X36952382Y-27335771D02*
X36857144Y-27288152D01*
X36857144Y-27288152D02*
X36666668Y-27288152D01*
X36666668Y-27288152D02*
X36571430Y-27335771D01*
X37000001Y-27907200D02*
X36904763Y-27954819D01*
X36904763Y-27954819D02*
X36666668Y-27954819D01*
X36666668Y-27954819D02*
X36571430Y-27907200D01*
X36571430Y-27907200D02*
X36523811Y-27811961D01*
X36523811Y-27811961D02*
X36523811Y-27716723D01*
X36523811Y-27716723D02*
X36571430Y-27621485D01*
X36571430Y-27621485D02*
X36666668Y-27573866D01*
X36666668Y-27573866D02*
X36904763Y-27573866D01*
X36904763Y-27573866D02*
X37000001Y-27526247D01*
X37904763Y-27907200D02*
X37809525Y-27954819D01*
X37809525Y-27954819D02*
X37619049Y-27954819D01*
X37619049Y-27954819D02*
X37523811Y-27907200D01*
X37523811Y-27907200D02*
X37476192Y-27859580D01*
X37476192Y-27859580D02*
X37428573Y-27764342D01*
X37428573Y-27764342D02*
X37428573Y-27478628D01*
X37428573Y-27478628D02*
X37476192Y-27383390D01*
X37476192Y-27383390D02*
X37523811Y-27335771D01*
X37523811Y-27335771D02*
X37619049Y-27288152D01*
X37619049Y-27288152D02*
X37809525Y-27288152D01*
X37809525Y-27288152D02*
X37904763Y-27335771D01*
X38714287Y-27907200D02*
X38619049Y-27954819D01*
X38619049Y-27954819D02*
X38428573Y-27954819D01*
X38428573Y-27954819D02*
X38333335Y-27907200D01*
X38333335Y-27907200D02*
X38285716Y-27811961D01*
X38285716Y-27811961D02*
X38285716Y-27431009D01*
X38285716Y-27431009D02*
X38333335Y-27335771D01*
X38333335Y-27335771D02*
X38428573Y-27288152D01*
X38428573Y-27288152D02*
X38619049Y-27288152D01*
X38619049Y-27288152D02*
X38714287Y-27335771D01*
X38714287Y-27335771D02*
X38761906Y-27431009D01*
X38761906Y-27431009D02*
X38761906Y-27526247D01*
X38761906Y-27526247D02*
X38285716Y-27621485D01*
X34600000Y-35190000D02*
X34600000Y-36600000D01*
X34600000Y-38810000D02*
X34600000Y-37400000D01*
X36250000Y-35040000D02*
X34750000Y-35040000D01*
X36250000Y-38960000D02*
X34750000Y-38960000D01*
X36400000Y-36600000D02*
X36400000Y-35190000D01*
X36400000Y-37400000D02*
X36400000Y-38810000D01*
X34600000Y-35190000D02*
G75*
G02*
X34750000Y-35040000I150000J0D01*
G01*
X34750000Y-38960000D02*
G75*
G02*
X34600000Y-38810000I0J150000D01*
G01*
X36250000Y-35040000D02*
G75*
G02*
X36400000Y-35190000I0J-150000D01*
G01*
X36400000Y-38810000D02*
G75*
G02*
X36250000Y-38960000I-150000J0D01*
G01*
X36160000Y-38000000D02*
G75*
G02*
X36100000Y-38000000I-30000J0D01*
G01*
X36100000Y-38000000D02*
G75*
G02*
X36160000Y-38000000I30000J0D01*
G01*
D11*
X1730000Y-18920000D02*
X4270000Y-18920000D01*
X1730000Y-26520000D02*
X1730000Y-18920000D01*
X1730000Y-26520000D02*
X4270000Y-26520000D01*
X1730000Y-29080000D02*
X1730000Y-26520000D01*
X4270000Y-18920000D02*
X4270000Y-29080000D01*
X4270000Y-29080000D02*
X1730000Y-29080000D01*
D10*
X4280000Y-29080000D02*
G75*
G02*
X4220000Y-29080000I-30000J0D01*
G01*
X4220000Y-29080000D02*
G75*
G02*
X4280000Y-29080000I30000J0D01*
G01*
X27340000Y-11610000D02*
X27340000Y-12570000D01*
X27340000Y-14390000D02*
X27340000Y-13430000D01*
X28660000Y-11610000D02*
X27340000Y-11610000D01*
X28660000Y-12570000D02*
X28660000Y-11610000D01*
X28660000Y-13430000D02*
X28660000Y-14390000D01*
X28660000Y-14390000D02*
X27340000Y-14390000D01*
X28430000Y-13800000D02*
G75*
G02*
X28370000Y-13800000I-30000J0D01*
G01*
X28370000Y-13800000D02*
G75*
G02*
X28430000Y-13800000I30000J0D01*
G01*
D11*
X21790000Y-36720000D02*
X21790000Y-35920000D01*
X21790000Y-37280000D02*
X21790000Y-38080000D01*
X22100000Y-35610000D02*
X22900000Y-35610000D01*
X22900000Y-38390000D02*
X22100000Y-38390000D01*
X23210000Y-36720000D02*
X23210000Y-35920000D01*
X23210000Y-37280000D02*
X23210000Y-38080000D01*
X21790000Y-35920000D02*
G75*
G02*
X22100000Y-35610000I310000J0D01*
G01*
X22100000Y-38390000D02*
G75*
G02*
X21790000Y-38080000I0J310000D01*
G01*
X22900000Y-35610000D02*
G75*
G02*
X23210000Y-35920000I0J-310000D01*
G01*
X23210000Y-38080000D02*
G75*
G02*
X22900000Y-38390000I-310000J0D01*
G01*
D10*
X22930000Y-37800000D02*
G75*
G02*
X22870000Y-37800000I-30000J0D01*
G01*
X22870000Y-37800000D02*
G75*
G02*
X22930000Y-37800000I30000J0D01*
G01*
X46500000Y-3090000D02*
X46500000Y-4500000D01*
X46500000Y-6710000D02*
X46500000Y-5300000D01*
X48150000Y-2940000D02*
X46650000Y-2940000D01*
X48150000Y-6860000D02*
X46650000Y-6860000D01*
X48300000Y-4500000D02*
X48300000Y-3090000D01*
X48300000Y-5300000D02*
X48300000Y-6710000D01*
X46500000Y-3090000D02*
G75*
G02*
X46650000Y-2940000I150000J0D01*
G01*
X46650000Y-6860000D02*
G75*
G02*
X46500000Y-6710000I0J150000D01*
G01*
X48150000Y-2940000D02*
G75*
G02*
X48300000Y-3090000I0J-150000D01*
G01*
X48300000Y-6710000D02*
G75*
G02*
X48150000Y-6860000I-150000J0D01*
G01*
X48060000Y-5900000D02*
G75*
G02*
X48000000Y-5900000I-30000J0D01*
G01*
X48000000Y-5900000D02*
G75*
G02*
X48060000Y-5900000I30000J0D01*
G01*
D11*
X49040000Y-4920000D02*
X49040000Y-4120000D01*
X49040000Y-5480000D02*
X49040000Y-6280000D01*
X49350000Y-3810000D02*
X50150000Y-3810000D01*
X50150000Y-6590000D02*
X49350000Y-6590000D01*
X50460000Y-4920000D02*
X50460000Y-4120000D01*
X50460000Y-5480000D02*
X50460000Y-6280000D01*
X49040000Y-4120000D02*
G75*
G02*
X49350000Y-3810000I310000J0D01*
G01*
X49350000Y-6590000D02*
G75*
G02*
X49040000Y-6280000I0J310000D01*
G01*
X50150000Y-3810000D02*
G75*
G02*
X50460000Y-4120000I0J-310000D01*
G01*
X50460000Y-6280000D02*
G75*
G02*
X50150000Y-6590000I-310000J0D01*
G01*
D10*
X50180000Y-6000000D02*
G75*
G02*
X50120000Y-6000000I-30000J0D01*
G01*
X50120000Y-6000000D02*
G75*
G02*
X50180000Y-6000000I30000J0D01*
G01*
X4840000Y-32610000D02*
X4840000Y-33570000D01*
X4840000Y-35390000D02*
X4840000Y-34430000D01*
X6160000Y-32610000D02*
X4840000Y-32610000D01*
X6160000Y-33570000D02*
X6160000Y-32610000D01*
X6160000Y-34430000D02*
X6160000Y-35390000D01*
X6160000Y-35390000D02*
X4840000Y-35390000D01*
X5930000Y-34800000D02*
G75*
G02*
X5870000Y-34800000I-30000J0D01*
G01*
X5870000Y-34800000D02*
G75*
G02*
X5930000Y-34800000I30000J0D01*
G01*
X25930000Y-32170000D02*
X28870000Y-32170000D01*
X25930000Y-38830000D02*
X25930000Y-32170000D01*
X28870000Y-32170000D02*
X28870000Y-38830000D01*
X28870000Y-38830000D02*
X25930000Y-38830000D01*
X30930000Y-38750000D02*
G75*
G02*
X30870000Y-38750000I-30000J0D01*
G01*
X30870000Y-38750000D02*
G75*
G02*
X30930000Y-38750000I30000J0D01*
G01*
D11*
X32300000Y-28600000D02*
X32300000Y-29400000D01*
X32300000Y-29400000D02*
X32600000Y-29700000D01*
X32600000Y-28300000D02*
X32300000Y-28600000D01*
X32600000Y-29700000D02*
X33700000Y-29700000D01*
X33700000Y-28300000D02*
X32600000Y-28300000D01*
X34090000Y-28600000D02*
X34090000Y-29380000D01*
X34090000Y-29000000D02*
X33880000Y-29000000D01*
X34200000Y-28300000D02*
X35470000Y-28300000D01*
X35470000Y-28300000D02*
X35470000Y-29700000D01*
X35470000Y-29700000D02*
X34200000Y-29700000D01*
D10*
X34850000Y-28600000D02*
G75*
G02*
X34750000Y-28600000I-50000J0D01*
G01*
X34750000Y-28600000D02*
G75*
G02*
X34850000Y-28600000I50000J0D01*
G01*
X25420000Y-4620000D02*
X28580000Y-4620000D01*
X25420000Y-6380000D02*
X28580000Y-6380000D01*
X25100000Y-5000000D02*
G75*
G02*
X24940000Y-5000000I-80000J0D01*
G01*
X24940000Y-5000000D02*
G75*
G02*
X25100000Y-5000000I80000J0D01*
G01*
X25530000Y-4700000D02*
G75*
G02*
X25470000Y-4700000I-30000J0D01*
G01*
X25470000Y-4700000D02*
G75*
G02*
X25530000Y-4700000I30000J0D01*
G01*
D11*
X32300000Y-31600000D02*
X32300000Y-32400000D01*
X32300000Y-32400000D02*
X32600000Y-32700000D01*
X32600000Y-31300000D02*
X32300000Y-31600000D01*
X32600000Y-32700000D02*
X33700000Y-32700000D01*
X33700000Y-31300000D02*
X32600000Y-31300000D01*
X34090000Y-31600000D02*
X34090000Y-32380000D01*
X34090000Y-32000000D02*
X33880000Y-32000000D01*
X34200000Y-31300000D02*
X35470000Y-31300000D01*
X35470000Y-31300000D02*
X35470000Y-32700000D01*
X35470000Y-32700000D02*
X34200000Y-32700000D01*
D10*
X34850000Y-31600000D02*
G75*
G02*
X34750000Y-31600000I-50000J0D01*
G01*
X34750000Y-31600000D02*
G75*
G02*
X34850000Y-31600000I50000J0D01*
G01*
X18600000Y-35190000D02*
X18600000Y-36600000D01*
X18600000Y-38810000D02*
X18600000Y-37400000D01*
X20250000Y-35040000D02*
X18750000Y-35040000D01*
X20250000Y-38960000D02*
X18750000Y-38960000D01*
X20400000Y-36600000D02*
X20400000Y-35190000D01*
X20400000Y-37400000D02*
X20400000Y-38810000D01*
X18600000Y-35190000D02*
G75*
G02*
X18750000Y-35040000I150000J0D01*
G01*
X18750000Y-38960000D02*
G75*
G02*
X18600000Y-38810000I0J150000D01*
G01*
X20250000Y-35040000D02*
G75*
G02*
X20400000Y-35190000I0J-150000D01*
G01*
X20400000Y-38810000D02*
G75*
G02*
X20250000Y-38960000I-150000J0D01*
G01*
X20160000Y-38000000D02*
G75*
G02*
X20100000Y-38000000I-30000J0D01*
G01*
X20100000Y-38000000D02*
G75*
G02*
X20160000Y-38000000I30000J0D01*
G01*
D11*
X29790000Y-8720000D02*
X29790000Y-7920000D01*
X29790000Y-9280000D02*
X29790000Y-10080000D01*
X30100000Y-7610000D02*
X30900000Y-7610000D01*
X30900000Y-10390000D02*
X30100000Y-10390000D01*
X31210000Y-8720000D02*
X31210000Y-7920000D01*
X31210000Y-9280000D02*
X31210000Y-10080000D01*
X29790000Y-7920000D02*
G75*
G02*
X30100000Y-7610000I310000J0D01*
G01*
X30100000Y-10390000D02*
G75*
G02*
X29790000Y-10080000I0J310000D01*
G01*
X30900000Y-7610000D02*
G75*
G02*
X31210000Y-7920000I0J-310000D01*
G01*
X31210000Y-10080000D02*
G75*
G02*
X30900000Y-10390000I-310000J0D01*
G01*
D10*
X30930000Y-9800000D02*
G75*
G02*
X30870000Y-9800000I-30000J0D01*
G01*
X30870000Y-9800000D02*
G75*
G02*
X30930000Y-9800000I30000J0D01*
G01*
X34840000Y-14110000D02*
X34840000Y-15070000D01*
X34840000Y-16890000D02*
X34840000Y-15930000D01*
X36160000Y-14110000D02*
X34840000Y-14110000D01*
X36160000Y-15070000D02*
X36160000Y-14110000D01*
X36160000Y-15930000D02*
X36160000Y-16890000D01*
X36160000Y-16890000D02*
X34840000Y-16890000D01*
X35930000Y-16300000D02*
G75*
G02*
X35870000Y-16300000I-30000J0D01*
G01*
X35870000Y-16300000D02*
G75*
G02*
X35930000Y-16300000I30000J0D01*
G01*
X29840000Y-3610000D02*
X29840000Y-4570000D01*
X29840000Y-6390000D02*
X29840000Y-5430000D01*
X31160000Y-3610000D02*
X29840000Y-3610000D01*
X31160000Y-4570000D02*
X31160000Y-3610000D01*
X31160000Y-5430000D02*
X31160000Y-6390000D01*
X31160000Y-6390000D02*
X29840000Y-6390000D01*
X30930000Y-5800000D02*
G75*
G02*
X30870000Y-5800000I-30000J0D01*
G01*
X30870000Y-5800000D02*
G75*
G02*
X30930000Y-5800000I30000J0D01*
G01*
D11*
X22790000Y-4720000D02*
X22790000Y-3920000D01*
X22790000Y-5280000D02*
X22790000Y-6080000D01*
X23100000Y-3610000D02*
X23900000Y-3610000D01*
X23900000Y-6390000D02*
X23100000Y-6390000D01*
X24210000Y-4720000D02*
X24210000Y-3920000D01*
X24210000Y-5280000D02*
X24210000Y-6080000D01*
X22790000Y-3920000D02*
G75*
G02*
X23100000Y-3610000I310000J0D01*
G01*
X23100000Y-6390000D02*
G75*
G02*
X22790000Y-6080000I0J310000D01*
G01*
X23900000Y-3610000D02*
G75*
G02*
X24210000Y-3920000I0J-310000D01*
G01*
X24210000Y-6080000D02*
G75*
G02*
X23900000Y-6390000I-310000J0D01*
G01*
D10*
X23930000Y-5800000D02*
G75*
G02*
X23870000Y-5800000I-30000J0D01*
G01*
X23870000Y-5800000D02*
G75*
G02*
X23930000Y-5800000I30000J0D01*
G01*
X28970000Y-21960000D02*
X28970000Y-22390000D01*
X28970000Y-25040000D02*
X28970000Y-24610000D01*
X33030000Y-21960000D02*
X28970000Y-21960000D01*
X33030000Y-21960000D02*
X33030000Y-22390000D01*
X33030000Y-24610000D02*
X33030000Y-25040000D01*
X33030000Y-25040000D02*
X28970000Y-25040000D01*
D11*
X31900000Y-23500000D02*
G75*
G02*
X30100000Y-23500000I-900000J0D01*
G01*
X30100000Y-23500000D02*
G75*
G02*
X31900000Y-23500000I900000J0D01*
G01*
D10*
X33530000Y-22030000D02*
G75*
G02*
X33470000Y-22030000I-30000J0D01*
G01*
X33470000Y-22030000D02*
G75*
G02*
X33530000Y-22030000I30000J0D01*
G01*
X13810000Y-30940000D02*
X14770000Y-30940000D01*
X13810000Y-32260000D02*
X13810000Y-30940000D01*
X14770000Y-32260000D02*
X13810000Y-32260000D01*
X15630000Y-32260000D02*
X16590000Y-32260000D01*
X16590000Y-30940000D02*
X15630000Y-30940000D01*
X16590000Y-32260000D02*
X16590000Y-30940000D01*
X14430000Y-32000000D02*
G75*
G02*
X14370000Y-32000000I-30000J0D01*
G01*
X14370000Y-32000000D02*
G75*
G02*
X14430000Y-32000000I30000J0D01*
G01*
D11*
X8190000Y-18420000D02*
X8190000Y-17620000D01*
X8190000Y-18980000D02*
X8190000Y-19780000D01*
X8500000Y-17310000D02*
X9300000Y-17310000D01*
X9300000Y-20090000D02*
X8500000Y-20090000D01*
X9610000Y-18420000D02*
X9610000Y-17620000D01*
X9610000Y-18980000D02*
X9610000Y-19780000D01*
X8190000Y-17620000D02*
G75*
G02*
X8500000Y-17310000I310000J0D01*
G01*
X8500000Y-20090000D02*
G75*
G02*
X8190000Y-19780000I0J310000D01*
G01*
X9300000Y-17310000D02*
G75*
G02*
X9610000Y-17620000I0J-310000D01*
G01*
X9610000Y-19780000D02*
G75*
G02*
X9300000Y-20090000I-310000J0D01*
G01*
D10*
X8530000Y-17900000D02*
G75*
G02*
X8470000Y-17900000I-30000J0D01*
G01*
X8470000Y-17900000D02*
G75*
G02*
X8530000Y-17900000I30000J0D01*
G01*
X34840000Y-24110000D02*
X34840000Y-25070000D01*
X34840000Y-26890000D02*
X34840000Y-25930000D01*
X36160000Y-24110000D02*
X34840000Y-24110000D01*
X36160000Y-25070000D02*
X36160000Y-24110000D01*
X36160000Y-25930000D02*
X36160000Y-26890000D01*
X36160000Y-26890000D02*
X34840000Y-26890000D01*
X35930000Y-26300000D02*
G75*
G02*
X35870000Y-26300000I-30000J0D01*
G01*
X35870000Y-26300000D02*
G75*
G02*
X35930000Y-26300000I30000J0D01*
G01*
D11*
X7000000Y-7000000D02*
X8870000Y-7000000D01*
X7000000Y-8870000D02*
X7000000Y-7000000D01*
X7000000Y-17000000D02*
X7000000Y-15130000D01*
X8870000Y-17000000D02*
X7000000Y-17000000D01*
X15130000Y-7000000D02*
X17000000Y-7000000D01*
X17000000Y-7000000D02*
X17000000Y-8870000D01*
X17000000Y-15130000D02*
X17000000Y-17000000D01*
X17000000Y-17000000D02*
X15130000Y-17000000D01*
D12*
X6410000Y-8310000D02*
G75*
G02*
X6010000Y-8310000I-200000J0D01*
G01*
X6010000Y-8310000D02*
G75*
G02*
X6410000Y-8310000I200000J0D01*
G01*
D10*
X6980000Y-6950000D02*
G75*
G02*
X6920000Y-6950000I-30000J0D01*
G01*
X6920000Y-6950000D02*
G75*
G02*
X6980000Y-6950000I30000J0D01*
G01*
X24340000Y-11610000D02*
X24340000Y-12570000D01*
X24340000Y-14390000D02*
X24340000Y-13430000D01*
X25660000Y-11610000D02*
X24340000Y-11610000D01*
X25660000Y-12570000D02*
X25660000Y-11610000D01*
X25660000Y-13430000D02*
X25660000Y-14390000D01*
X25660000Y-14390000D02*
X24340000Y-14390000D01*
X25430000Y-13800000D02*
G75*
G02*
X25370000Y-13800000I-30000J0D01*
G01*
X25370000Y-13800000D02*
G75*
G02*
X25430000Y-13800000I30000J0D01*
G01*
D11*
X37800000Y-7300000D02*
X58300000Y-7300000D01*
X37800000Y-22800000D02*
X37800000Y-7300000D01*
X53250000Y-7300000D02*
X53250000Y-22800000D01*
X53250000Y-22800000D02*
X53290000Y-22800000D01*
X54900000Y-8500000D02*
X57600000Y-8500000D01*
X56000000Y-11600000D02*
X56000000Y-13800000D01*
X56000000Y-13800000D02*
X57600000Y-13800000D01*
X56000000Y-16000000D02*
X56000000Y-18200000D01*
X56000000Y-18200000D02*
X57600000Y-18200000D01*
X57600000Y-8500000D02*
X57600000Y-10100000D01*
X57600000Y-10100000D02*
X54900000Y-10100000D01*
X57600000Y-10100000D02*
X57600000Y-11600000D01*
X57600000Y-11600000D02*
X56000000Y-11600000D01*
X57600000Y-13800000D02*
X57600000Y-16000000D01*
X57600000Y-16000000D02*
X56000000Y-16000000D01*
X57600000Y-18200000D02*
X57600000Y-20300000D01*
X57600000Y-20300000D02*
X54900000Y-20300000D01*
X58300000Y-7300000D02*
X58300000Y-22800000D01*
X58300000Y-22800000D02*
X37800000Y-22800000D01*
X51940000Y-6800000D02*
G75*
G02*
X51660000Y-6800000I-140000J0D01*
G01*
X51660000Y-6800000D02*
G75*
G02*
X51940000Y-6800000I140000J0D01*
G01*
D10*
X58310000Y-7300000D02*
G75*
G02*
X58250000Y-7300000I-30000J0D01*
G01*
X58250000Y-7300000D02*
G75*
G02*
X58310000Y-7300000I30000J0D01*
G01*
D11*
X36380000Y-35000000D02*
X36380000Y-40000000D01*
X36380000Y-37500000D02*
X38920000Y-37490000D01*
X36380000Y-40000000D02*
X51620000Y-40000000D01*
X38920000Y-37490000D02*
X38920000Y-40000000D01*
X51620000Y-35000000D02*
X36380000Y-35000000D01*
X51620000Y-40000000D02*
X51620000Y-35000000D01*
D10*
X36410000Y-40000000D02*
G75*
G02*
X36350000Y-40000000I-30000J0D01*
G01*
X36350000Y-40000000D02*
G75*
G02*
X36410000Y-40000000I30000J0D01*
G01*
X37840000Y-27610000D02*
X37840000Y-28570000D01*
X37840000Y-30390000D02*
X37840000Y-29430000D01*
X39160000Y-27610000D02*
X37840000Y-27610000D01*
X39160000Y-28570000D02*
X39160000Y-27610000D01*
X39160000Y-29430000D02*
X39160000Y-30390000D01*
X39160000Y-30390000D02*
X37840000Y-30390000D01*
X38930000Y-29800000D02*
G75*
G02*
X38870000Y-29800000I-30000J0D01*
G01*
X38870000Y-29800000D02*
G75*
G02*
X38930000Y-29800000I30000J0D01*
G01*
X12000000Y-3490000D02*
X12000000Y-4900000D01*
X12000000Y-7110000D02*
X12000000Y-5700000D01*
X13650000Y-3340000D02*
X12150000Y-3340000D01*
X13650000Y-7260000D02*
X12150000Y-7260000D01*
X13800000Y-4900000D02*
X13800000Y-3490000D01*
X13800000Y-5700000D02*
X13800000Y-7110000D01*
X12000000Y-3490000D02*
G75*
G02*
X12150000Y-3340000I150000J0D01*
G01*
X12150000Y-7260000D02*
G75*
G02*
X12000000Y-7110000I0J150000D01*
G01*
X13650000Y-3340000D02*
G75*
G02*
X13800000Y-3490000I0J-150000D01*
G01*
X13800000Y-7110000D02*
G75*
G02*
X13650000Y-7260000I-150000J0D01*
G01*
X13560000Y-6300000D02*
G75*
G02*
X13500000Y-6300000I-30000J0D01*
G01*
X13500000Y-6300000D02*
G75*
G02*
X13560000Y-6300000I30000J0D01*
G01*
X20970000Y-21960000D02*
X20970000Y-22390000D01*
X20970000Y-25040000D02*
X20970000Y-24610000D01*
X25030000Y-21960000D02*
X20970000Y-21960000D01*
X25030000Y-21960000D02*
X25030000Y-22390000D01*
X25030000Y-24610000D02*
X25030000Y-25040000D01*
X25030000Y-25040000D02*
X20970000Y-25040000D01*
D11*
X23900000Y-23500000D02*
G75*
G02*
X22100000Y-23500000I-900000J0D01*
G01*
X22100000Y-23500000D02*
G75*
G02*
X23900000Y-23500000I900000J0D01*
G01*
D10*
X25530000Y-22030000D02*
G75*
G02*
X25470000Y-22030000I-30000J0D01*
G01*
X25470000Y-22030000D02*
G75*
G02*
X25530000Y-22030000I30000J0D01*
G01*
X28610000Y-28340000D02*
X29570000Y-28340000D01*
X28610000Y-29660000D02*
X28610000Y-28340000D01*
X29570000Y-29660000D02*
X28610000Y-29660000D01*
X30430000Y-29660000D02*
X31390000Y-29660000D01*
X31390000Y-28340000D02*
X30430000Y-28340000D01*
X31390000Y-29660000D02*
X31390000Y-28340000D01*
X29230000Y-29400000D02*
G75*
G02*
X29170000Y-29400000I-30000J0D01*
G01*
X29170000Y-29400000D02*
G75*
G02*
X29230000Y-29400000I30000J0D01*
G01*
D11*
X31790000Y-36720000D02*
X31790000Y-35920000D01*
X31790000Y-37280000D02*
X31790000Y-38080000D01*
X32100000Y-35610000D02*
X32900000Y-35610000D01*
X32900000Y-38390000D02*
X32100000Y-38390000D01*
X33210000Y-36720000D02*
X33210000Y-35920000D01*
X33210000Y-37280000D02*
X33210000Y-38080000D01*
X31790000Y-35920000D02*
G75*
G02*
X32100000Y-35610000I310000J0D01*
G01*
X32100000Y-38390000D02*
G75*
G02*
X31790000Y-38080000I0J310000D01*
G01*
X32900000Y-35610000D02*
G75*
G02*
X33210000Y-35920000I0J-310000D01*
G01*
X33210000Y-38080000D02*
G75*
G02*
X32900000Y-38390000I-310000J0D01*
G01*
D10*
X32930000Y-37800000D02*
G75*
G02*
X32870000Y-37800000I-30000J0D01*
G01*
X32870000Y-37800000D02*
G75*
G02*
X32930000Y-37800000I30000J0D01*
G01*
X9460000Y-32390000D02*
X9460000Y-30610000D01*
X12540000Y-32390000D02*
X12540000Y-30610000D01*
D13*
X9480000Y-32800000D02*
G75*
G02*
X9180000Y-32800000I-150000J0D01*
G01*
X9180000Y-32800000D02*
G75*
G02*
X9480000Y-32800000I150000J0D01*
G01*
D10*
X9570000Y-32900000D02*
G75*
G02*
X9510000Y-32900000I-30000J0D01*
G01*
X9510000Y-32900000D02*
G75*
G02*
X9570000Y-32900000I30000J0D01*
G01*
D11*
X34790000Y-19220000D02*
X34790000Y-18420000D01*
X34790000Y-19780000D02*
X34790000Y-20580000D01*
X35100000Y-18110000D02*
X35900000Y-18110000D01*
X35900000Y-20890000D02*
X35100000Y-20890000D01*
X36210000Y-19220000D02*
X36210000Y-18420000D01*
X36210000Y-19780000D02*
X36210000Y-20580000D01*
X34790000Y-18420000D02*
G75*
G02*
X35100000Y-18110000I310000J0D01*
G01*
X35100000Y-20890000D02*
G75*
G02*
X34790000Y-20580000I0J310000D01*
G01*
X35900000Y-18110000D02*
G75*
G02*
X36210000Y-18420000I0J-310000D01*
G01*
X36210000Y-20580000D02*
G75*
G02*
X35900000Y-20890000I-310000J0D01*
G01*
D10*
X35930000Y-20300000D02*
G75*
G02*
X35870000Y-20300000I-30000J0D01*
G01*
X35870000Y-20300000D02*
G75*
G02*
X35930000Y-20300000I30000J0D01*
G01*
X28610000Y-31340000D02*
X29570000Y-31340000D01*
X28610000Y-32660000D02*
X28610000Y-31340000D01*
X29570000Y-32660000D02*
X28610000Y-32660000D01*
X30430000Y-32660000D02*
X31390000Y-32660000D01*
X31390000Y-31340000D02*
X30430000Y-31340000D01*
X31390000Y-32660000D02*
X31390000Y-31340000D01*
X29230000Y-32400000D02*
G75*
G02*
X29170000Y-32400000I-30000J0D01*
G01*
X29170000Y-32400000D02*
G75*
G02*
X29230000Y-32400000I30000J0D01*
G01*
D11*
X6530000Y-39280000D02*
X6530000Y-37410000D01*
X6530000Y-42990000D02*
X6530000Y-41510000D01*
X15470000Y-39280000D02*
X15470000Y-37410000D01*
X15470000Y-42990000D02*
X6530000Y-42990000D01*
X15470000Y-42990000D02*
X15470000Y-41510000D01*
D10*
X15500000Y-35140000D02*
G75*
G02*
X15440000Y-35140000I-30000J0D01*
G01*
X15440000Y-35140000D02*
G75*
G02*
X15500000Y-35140000I30000J0D01*
G01*
%LPC*%
D14*
X35500000Y-38000000D03*
X35500000Y-36000000D03*
D15*
X3000000Y-27810000D03*
D16*
X3000000Y-25270000D03*
X3000000Y-22730000D03*
X3000000Y-20190000D03*
D17*
X3000000Y-3000000D03*
D18*
X28000000Y-13750000D03*
X28000000Y-12250000D03*
D19*
X22500000Y-37700000D03*
X22500000Y-36300000D03*
D14*
X47400000Y-5900000D03*
X47400000Y-3900000D03*
D19*
X49750000Y-5900000D03*
X49750000Y-4500000D03*
D18*
X5500000Y-34750000D03*
X5500000Y-33250000D03*
D20*
X30470000Y-37800000D03*
X30470000Y-35500000D03*
X30470000Y-33200000D03*
D21*
X24530000Y-35500000D03*
D17*
X3000000Y-39000000D03*
D22*
X34750000Y-29000000D03*
X33250000Y-29000000D03*
D23*
X25570000Y-5000000D03*
X25570000Y-5500000D03*
X25570000Y-6000000D03*
X28430000Y-6000000D03*
X28430000Y-5500000D03*
X28430000Y-5000000D03*
D24*
X27000000Y-5500000D03*
D22*
X34750000Y-32000000D03*
X33250000Y-32000000D03*
D14*
X19500000Y-38000000D03*
X19500000Y-36000000D03*
D19*
X30500000Y-9700000D03*
X30500000Y-8300000D03*
D18*
X35500000Y-16250000D03*
X35500000Y-14750000D03*
X30500000Y-5750000D03*
X30500000Y-4250000D03*
D19*
X23500000Y-5700000D03*
X23500000Y-4300000D03*
D25*
X28820000Y-23500000D03*
X33180000Y-23500000D03*
D17*
X55000000Y-39000000D03*
D26*
X14450000Y-31600000D03*
X15950000Y-31600000D03*
D19*
X8900000Y-18000000D03*
X8900000Y-19400000D03*
D18*
X35500000Y-26250000D03*
X35500000Y-24750000D03*
D27*
X8000000Y-9500000D03*
X8000000Y-10750000D03*
X8000000Y-12000000D03*
X8000000Y-13250000D03*
X8000000Y-14500000D03*
D28*
X9500000Y-16000000D03*
X10750000Y-16000000D03*
X12000000Y-16000000D03*
X13250000Y-16000000D03*
X14500000Y-16000000D03*
D27*
X16000000Y-14500000D03*
X16000000Y-13250000D03*
X16000000Y-12000000D03*
X16000000Y-10750000D03*
X16000000Y-9500000D03*
D28*
X14500000Y-8000000D03*
X13250000Y-8000000D03*
X12000000Y-8000000D03*
X10750000Y-8000000D03*
X9500000Y-8000000D03*
D29*
X12000000Y-12000000D03*
D18*
X25000000Y-13750000D03*
X25000000Y-12250000D03*
D30*
X51450000Y-8020000D03*
X50600000Y-8020000D03*
X49750000Y-8020000D03*
X48900000Y-8020000D03*
X48050000Y-8020000D03*
X47200000Y-8020000D03*
X46350000Y-8020000D03*
X45500000Y-8020000D03*
X44650000Y-8020000D03*
X43800000Y-8020000D03*
X42950000Y-8020000D03*
X42100000Y-8020000D03*
X41250000Y-8020000D03*
X40400000Y-8020000D03*
X39550000Y-8020000D03*
D31*
X38470000Y-9050000D03*
X38470000Y-9900000D03*
X38470000Y-10750000D03*
X38470000Y-11600000D03*
X38470000Y-12450000D03*
X38470000Y-13300000D03*
X38470000Y-14150000D03*
X38470000Y-15000000D03*
X38470000Y-15850000D03*
X38470000Y-16700000D03*
X38470000Y-17550000D03*
X38470000Y-18400000D03*
X38470000Y-19250000D03*
X38470000Y-20100000D03*
X38470000Y-20950000D03*
D30*
X39550000Y-21980000D03*
X40400000Y-21980000D03*
X41250000Y-21980000D03*
X42100000Y-21980000D03*
X42950000Y-21980000D03*
X43800000Y-21980000D03*
X44650000Y-21980000D03*
X45500000Y-21980000D03*
X46350000Y-21980000D03*
X47200000Y-21980000D03*
X48050000Y-21980000D03*
X48900000Y-21980000D03*
X49750000Y-21980000D03*
X50600000Y-21980000D03*
X51450000Y-21980000D03*
D31*
X52530000Y-20950000D03*
X52530000Y-20100000D03*
X52530000Y-19250000D03*
X52530000Y-18400000D03*
X52530000Y-17550000D03*
X52530000Y-16700000D03*
X52530000Y-15850000D03*
X52530000Y-15000000D03*
X52530000Y-14150000D03*
X52530000Y-13300000D03*
X52530000Y-12450000D03*
X52530000Y-11600000D03*
X52530000Y-10750000D03*
X52530000Y-9900000D03*
X52530000Y-9050000D03*
D22*
X52500000Y-8000000D03*
X38500000Y-8000000D03*
D32*
X47150000Y-13350000D03*
X45500000Y-13350000D03*
X43850000Y-13350000D03*
X47150000Y-15000000D03*
X45500000Y-15000000D03*
X43850000Y-15000000D03*
X47150000Y-16650000D03*
X45500000Y-16650000D03*
X43850000Y-16650000D03*
D22*
X52500000Y-22000000D03*
X38500000Y-22000000D03*
D15*
X37650000Y-38770000D03*
D16*
X37650000Y-36230000D03*
X40190000Y-38770000D03*
X40190000Y-36230000D03*
X42730000Y-38770000D03*
X42730000Y-36230000D03*
X45270000Y-38770000D03*
X45270000Y-36230000D03*
X47810000Y-38770000D03*
X47810000Y-36230000D03*
X50350000Y-38770000D03*
X50350000Y-36230000D03*
D18*
X38500000Y-29750000D03*
X38500000Y-28250000D03*
D14*
X12900000Y-6300000D03*
X12900000Y-4300000D03*
D25*
X20820000Y-23500000D03*
X25180000Y-23500000D03*
D26*
X29250000Y-29000000D03*
X30750000Y-29000000D03*
D19*
X32500000Y-37700000D03*
X32500000Y-36300000D03*
D33*
X10050000Y-32650000D03*
X11000000Y-32650000D03*
X11950000Y-32650000D03*
X11950000Y-30350000D03*
X11000000Y-30350000D03*
X10050000Y-30350000D03*
D19*
X35500000Y-20200000D03*
X35500000Y-18800000D03*
D26*
X29250000Y-32000000D03*
X30750000Y-32000000D03*
D17*
X55000000Y-3000000D03*
D34*
X8100000Y-36690000D03*
X13900000Y-36690000D03*
D35*
X15330000Y-36190000D03*
D36*
X15330000Y-40370000D03*
X6670000Y-40370000D03*
D35*
X6670000Y-36190000D03*
G36*
X8135278Y-34744557D02*
G01*
X8149923Y-34779912D01*
X8149923Y-36079935D01*
X8135278Y-36115290D01*
X8099923Y-36129935D01*
X7800318Y-36129935D01*
X7799949Y-36130088D01*
X7499950Y-36130088D01*
X7464595Y-36115443D01*
X7449950Y-36080088D01*
X7449950Y-34780065D01*
X7464595Y-34744710D01*
X7499950Y-34730065D01*
X7799555Y-34730065D01*
X7799924Y-34729912D01*
X8099923Y-34729912D01*
X8135278Y-34744557D01*
G37*
G36*
X8935431Y-34744710D02*
G01*
X8950076Y-34780065D01*
X8950076Y-36080037D01*
X8935431Y-36115392D01*
X8900076Y-36130037D01*
X8600187Y-36130037D01*
X8600127Y-36130062D01*
X8300102Y-36130062D01*
X8264747Y-36115417D01*
X8250102Y-36080062D01*
X8250102Y-34780090D01*
X8264747Y-34744735D01*
X8300102Y-34730090D01*
X8599991Y-34730090D01*
X8600051Y-34730065D01*
X8900076Y-34730065D01*
X8935431Y-34744710D01*
G37*
D37*
X9750000Y-35430000D03*
X10750000Y-35430000D03*
X11250000Y-35430000D03*
X12250000Y-35430000D03*
G36*
X14535227Y-34744557D02*
G01*
X14549872Y-34779912D01*
X14549872Y-36079884D01*
X14535227Y-36115239D01*
X14499872Y-36129884D01*
X13899848Y-36129884D01*
X13864493Y-36115239D01*
X13849848Y-36079884D01*
X13849848Y-34779912D01*
X13864493Y-34744557D01*
X13899848Y-34729912D01*
X14499872Y-34729912D01*
X14535227Y-34744557D01*
G37*
G36*
X13735227Y-34744557D02*
G01*
X13749872Y-34779912D01*
X13749872Y-36079884D01*
X13735227Y-36115239D01*
X13699872Y-36129884D01*
X13099848Y-36129884D01*
X13064493Y-36115239D01*
X13049848Y-36079884D01*
X13049848Y-34779912D01*
X13064493Y-34744557D01*
X13099848Y-34729912D01*
X13699872Y-34729912D01*
X13735227Y-34744557D01*
G37*
X12750000Y-35430000D03*
X11750000Y-35430000D03*
X10250000Y-35430000D03*
X9250000Y-35430000D03*
%LPD*%
M02*
