%TF.GenerationSoftware,KiCad,Pcbnew,10.0.5*%
%TF.CreationDate,2026-09-10T20:41:08-05:00*%
%TF.ProjectId,pnb-1,706e622d-312e-46b6-9963-61645f706362,rev?*%
%TF.SameCoordinates,Original*%
%TF.FileFunction,Drillmap*%
%TF.FilePolarity,Positive*%
%FSLAX45Y45*%
G04 Gerber Fmt 4.5, Leading zero omitted, Abs format (unit mm)*
G04 Created by KiCad (PCBNEW 10.0.5) date 2026-09-10 20:41:08*
%MOMM*%
%LPD*%
G01*
G04 APERTURE LIST*
%ADD10C,0.100000*%
%ADD11C,0.200000*%
%ADD12C,0.270000*%
G04 APERTURE END LIST*
D10*
X0Y0D02*
X5800000Y0D01*
X0Y-4200000D02*
X0Y0D01*
X5800000Y0D02*
X5800000Y-4200000D01*
X5800000Y-4200000D02*
X0Y-4200000D01*
D11*
D10*
X1481500Y-1481500D02*
X1506500Y-1506500D01*
X1506500Y-1481500D02*
X1481500Y-1506500D01*
X3040000Y-3669000D02*
G75*
G02*
X2980000Y-3669000I-30000J0D01*
G01*
X2980000Y-3669000D02*
G75*
G02*
X3040000Y-3669000I30000J0D01*
G01*
X3620000Y-3669000D02*
G75*
G02*
X3560000Y-3669000I-30000J0D01*
G01*
X3560000Y-3669000D02*
G75*
G02*
X3620000Y-3669000I30000J0D01*
G01*
D12*
X300000Y-165000D02*
X300000Y-435000D01*
X165000Y-300000D02*
X435000Y-300000D01*
X300000Y-3765000D02*
X300000Y-4035000D01*
X165000Y-3900000D02*
X435000Y-3900000D01*
X4900000Y-165000D02*
X4900000Y-435000D01*
X4765000Y-300000D02*
X5035000Y-300000D01*
X5500000Y-3765000D02*
X5500000Y-4035000D01*
X5365000Y-3900000D02*
X5635000Y-3900000D01*
D11*
X255777Y-4516484D02*
X255777Y-4316484D01*
X255777Y-4316484D02*
X303396Y-4316484D01*
X303396Y-4316484D02*
X331967Y-4326008D01*
X331967Y-4326008D02*
X351015Y-4345055D01*
X351015Y-4345055D02*
X360539Y-4364103D01*
X360539Y-4364103D02*
X370062Y-4402198D01*
X370062Y-4402198D02*
X370062Y-4430770D01*
X370062Y-4430770D02*
X360539Y-4468865D01*
X360539Y-4468865D02*
X351015Y-4487912D01*
X351015Y-4487912D02*
X331967Y-4506960D01*
X331967Y-4506960D02*
X303396Y-4516484D01*
X303396Y-4516484D02*
X255777Y-4516484D01*
X455777Y-4516484D02*
X455777Y-4383150D01*
X455777Y-4421246D02*
X465301Y-4402198D01*
X465301Y-4402198D02*
X474824Y-4392674D01*
X474824Y-4392674D02*
X493872Y-4383150D01*
X493872Y-4383150D02*
X512920Y-4383150D01*
X579586Y-4516484D02*
X579586Y-4383150D01*
X579586Y-4316484D02*
X570063Y-4326008D01*
X570063Y-4326008D02*
X579586Y-4335531D01*
X579586Y-4335531D02*
X589110Y-4326008D01*
X589110Y-4326008D02*
X579586Y-4316484D01*
X579586Y-4316484D02*
X579586Y-4335531D01*
X703396Y-4516484D02*
X684348Y-4506960D01*
X684348Y-4506960D02*
X674824Y-4487912D01*
X674824Y-4487912D02*
X674824Y-4316484D01*
X808158Y-4516484D02*
X789110Y-4506960D01*
X789110Y-4506960D02*
X779586Y-4487912D01*
X779586Y-4487912D02*
X779586Y-4316484D01*
X1036729Y-4516484D02*
X1036729Y-4316484D01*
X1036729Y-4316484D02*
X1103396Y-4459341D01*
X1103396Y-4459341D02*
X1170063Y-4316484D01*
X1170063Y-4316484D02*
X1170063Y-4516484D01*
X1351015Y-4516484D02*
X1351015Y-4411722D01*
X1351015Y-4411722D02*
X1341491Y-4392674D01*
X1341491Y-4392674D02*
X1322444Y-4383150D01*
X1322444Y-4383150D02*
X1284348Y-4383150D01*
X1284348Y-4383150D02*
X1265301Y-4392674D01*
X1351015Y-4506960D02*
X1331967Y-4516484D01*
X1331967Y-4516484D02*
X1284348Y-4516484D01*
X1284348Y-4516484D02*
X1265301Y-4506960D01*
X1265301Y-4506960D02*
X1255777Y-4487912D01*
X1255777Y-4487912D02*
X1255777Y-4468865D01*
X1255777Y-4468865D02*
X1265301Y-4449817D01*
X1265301Y-4449817D02*
X1284348Y-4440293D01*
X1284348Y-4440293D02*
X1331967Y-4440293D01*
X1331967Y-4440293D02*
X1351015Y-4430770D01*
X1446253Y-4383150D02*
X1446253Y-4583150D01*
X1446253Y-4392674D02*
X1465301Y-4383150D01*
X1465301Y-4383150D02*
X1503396Y-4383150D01*
X1503396Y-4383150D02*
X1522443Y-4392674D01*
X1522443Y-4392674D02*
X1531967Y-4402198D01*
X1531967Y-4402198D02*
X1541491Y-4421246D01*
X1541491Y-4421246D02*
X1541491Y-4478389D01*
X1541491Y-4478389D02*
X1531967Y-4497436D01*
X1531967Y-4497436D02*
X1522443Y-4506960D01*
X1522443Y-4506960D02*
X1503396Y-4516484D01*
X1503396Y-4516484D02*
X1465301Y-4516484D01*
X1465301Y-4516484D02*
X1446253Y-4506960D01*
X1627205Y-4497436D02*
X1636729Y-4506960D01*
X1636729Y-4506960D02*
X1627205Y-4516484D01*
X1627205Y-4516484D02*
X1617682Y-4506960D01*
X1617682Y-4506960D02*
X1627205Y-4497436D01*
X1627205Y-4497436D02*
X1627205Y-4516484D01*
X1627205Y-4392674D02*
X1636729Y-4402198D01*
X1636729Y-4402198D02*
X1627205Y-4411722D01*
X1627205Y-4411722D02*
X1617682Y-4402198D01*
X1617682Y-4402198D02*
X1627205Y-4392674D01*
X1627205Y-4392674D02*
X1627205Y-4411722D01*
D10*
X-30000Y-4832500D02*
X-5000Y-4857500D01*
X-5000Y-4832500D02*
X-30000Y-4857500D01*
D11*
X293872Y-4736484D02*
X312920Y-4736484D01*
X312920Y-4736484D02*
X331967Y-4746008D01*
X331967Y-4746008D02*
X341491Y-4755531D01*
X341491Y-4755531D02*
X351015Y-4774579D01*
X351015Y-4774579D02*
X360539Y-4812674D01*
X360539Y-4812674D02*
X360539Y-4860293D01*
X360539Y-4860293D02*
X351015Y-4898389D01*
X351015Y-4898389D02*
X341491Y-4917436D01*
X341491Y-4917436D02*
X331967Y-4926960D01*
X331967Y-4926960D02*
X312920Y-4936484D01*
X312920Y-4936484D02*
X293872Y-4936484D01*
X293872Y-4936484D02*
X274824Y-4926960D01*
X274824Y-4926960D02*
X265301Y-4917436D01*
X265301Y-4917436D02*
X255777Y-4898389D01*
X255777Y-4898389D02*
X246253Y-4860293D01*
X246253Y-4860293D02*
X246253Y-4812674D01*
X246253Y-4812674D02*
X255777Y-4774579D01*
X255777Y-4774579D02*
X265301Y-4755531D01*
X265301Y-4755531D02*
X274824Y-4746008D01*
X274824Y-4746008D02*
X293872Y-4736484D01*
X446253Y-4917436D02*
X455777Y-4926960D01*
X455777Y-4926960D02*
X446253Y-4936484D01*
X446253Y-4936484D02*
X436729Y-4926960D01*
X436729Y-4926960D02*
X446253Y-4917436D01*
X446253Y-4917436D02*
X446253Y-4936484D01*
X531967Y-4755531D02*
X541491Y-4746008D01*
X541491Y-4746008D02*
X560539Y-4736484D01*
X560539Y-4736484D02*
X608158Y-4736484D01*
X608158Y-4736484D02*
X627205Y-4746008D01*
X627205Y-4746008D02*
X636729Y-4755531D01*
X636729Y-4755531D02*
X646253Y-4774579D01*
X646253Y-4774579D02*
X646253Y-4793627D01*
X646253Y-4793627D02*
X636729Y-4822198D01*
X636729Y-4822198D02*
X522443Y-4936484D01*
X522443Y-4936484D02*
X646253Y-4936484D01*
X827205Y-4736484D02*
X731967Y-4736484D01*
X731967Y-4736484D02*
X722443Y-4831722D01*
X722443Y-4831722D02*
X731967Y-4822198D01*
X731967Y-4822198D02*
X751015Y-4812674D01*
X751015Y-4812674D02*
X798634Y-4812674D01*
X798634Y-4812674D02*
X817682Y-4822198D01*
X817682Y-4822198D02*
X827205Y-4831722D01*
X827205Y-4831722D02*
X836729Y-4850770D01*
X836729Y-4850770D02*
X836729Y-4898389D01*
X836729Y-4898389D02*
X827205Y-4917436D01*
X827205Y-4917436D02*
X817682Y-4926960D01*
X817682Y-4926960D02*
X798634Y-4936484D01*
X798634Y-4936484D02*
X751015Y-4936484D01*
X751015Y-4936484D02*
X731967Y-4926960D01*
X731967Y-4926960D02*
X722443Y-4917436D01*
X960539Y-4736484D02*
X979586Y-4736484D01*
X979586Y-4736484D02*
X998634Y-4746008D01*
X998634Y-4746008D02*
X1008158Y-4755531D01*
X1008158Y-4755531D02*
X1017682Y-4774579D01*
X1017682Y-4774579D02*
X1027205Y-4812674D01*
X1027205Y-4812674D02*
X1027205Y-4860293D01*
X1027205Y-4860293D02*
X1017682Y-4898389D01*
X1017682Y-4898389D02*
X1008158Y-4917436D01*
X1008158Y-4917436D02*
X998634Y-4926960D01*
X998634Y-4926960D02*
X979586Y-4936484D01*
X979586Y-4936484D02*
X960539Y-4936484D01*
X960539Y-4936484D02*
X941491Y-4926960D01*
X941491Y-4926960D02*
X931967Y-4917436D01*
X931967Y-4917436D02*
X922443Y-4898389D01*
X922443Y-4898389D02*
X912920Y-4860293D01*
X912920Y-4860293D02*
X912920Y-4812674D01*
X912920Y-4812674D02*
X922443Y-4774579D01*
X922443Y-4774579D02*
X931967Y-4755531D01*
X931967Y-4755531D02*
X941491Y-4746008D01*
X941491Y-4746008D02*
X960539Y-4736484D01*
X1112920Y-4936484D02*
X1112920Y-4803150D01*
X1112920Y-4822198D02*
X1122444Y-4812674D01*
X1122444Y-4812674D02*
X1141491Y-4803150D01*
X1141491Y-4803150D02*
X1170063Y-4803150D01*
X1170063Y-4803150D02*
X1189110Y-4812674D01*
X1189110Y-4812674D02*
X1198634Y-4831722D01*
X1198634Y-4831722D02*
X1198634Y-4936484D01*
X1198634Y-4831722D02*
X1208158Y-4812674D01*
X1208158Y-4812674D02*
X1227205Y-4803150D01*
X1227205Y-4803150D02*
X1255777Y-4803150D01*
X1255777Y-4803150D02*
X1274825Y-4812674D01*
X1274825Y-4812674D02*
X1284348Y-4831722D01*
X1284348Y-4831722D02*
X1284348Y-4936484D01*
X1379586Y-4936484D02*
X1379586Y-4803150D01*
X1379586Y-4822198D02*
X1389110Y-4812674D01*
X1389110Y-4812674D02*
X1408158Y-4803150D01*
X1408158Y-4803150D02*
X1436729Y-4803150D01*
X1436729Y-4803150D02*
X1455777Y-4812674D01*
X1455777Y-4812674D02*
X1465301Y-4831722D01*
X1465301Y-4831722D02*
X1465301Y-4936484D01*
X1465301Y-4831722D02*
X1474824Y-4812674D01*
X1474824Y-4812674D02*
X1493872Y-4803150D01*
X1493872Y-4803150D02*
X1522443Y-4803150D01*
X1522443Y-4803150D02*
X1541491Y-4812674D01*
X1541491Y-4812674D02*
X1551015Y-4831722D01*
X1551015Y-4831722D02*
X1551015Y-4936484D01*
X1941491Y-4726960D02*
X1770063Y-4984103D01*
X2198634Y-4736484D02*
X2217682Y-4736484D01*
X2217682Y-4736484D02*
X2236729Y-4746008D01*
X2236729Y-4746008D02*
X2246253Y-4755531D01*
X2246253Y-4755531D02*
X2255777Y-4774579D01*
X2255777Y-4774579D02*
X2265301Y-4812674D01*
X2265301Y-4812674D02*
X2265301Y-4860293D01*
X2265301Y-4860293D02*
X2255777Y-4898389D01*
X2255777Y-4898389D02*
X2246253Y-4917436D01*
X2246253Y-4917436D02*
X2236729Y-4926960D01*
X2236729Y-4926960D02*
X2217682Y-4936484D01*
X2217682Y-4936484D02*
X2198634Y-4936484D01*
X2198634Y-4936484D02*
X2179587Y-4926960D01*
X2179587Y-4926960D02*
X2170063Y-4917436D01*
X2170063Y-4917436D02*
X2160539Y-4898389D01*
X2160539Y-4898389D02*
X2151015Y-4860293D01*
X2151015Y-4860293D02*
X2151015Y-4812674D01*
X2151015Y-4812674D02*
X2160539Y-4774579D01*
X2160539Y-4774579D02*
X2170063Y-4755531D01*
X2170063Y-4755531D02*
X2179587Y-4746008D01*
X2179587Y-4746008D02*
X2198634Y-4736484D01*
X2351015Y-4917436D02*
X2360539Y-4926960D01*
X2360539Y-4926960D02*
X2351015Y-4936484D01*
X2351015Y-4936484D02*
X2341491Y-4926960D01*
X2341491Y-4926960D02*
X2351015Y-4917436D01*
X2351015Y-4917436D02*
X2351015Y-4936484D01*
X2484348Y-4736484D02*
X2503396Y-4736484D01*
X2503396Y-4736484D02*
X2522444Y-4746008D01*
X2522444Y-4746008D02*
X2531968Y-4755531D01*
X2531968Y-4755531D02*
X2541491Y-4774579D01*
X2541491Y-4774579D02*
X2551015Y-4812674D01*
X2551015Y-4812674D02*
X2551015Y-4860293D01*
X2551015Y-4860293D02*
X2541491Y-4898389D01*
X2541491Y-4898389D02*
X2531968Y-4917436D01*
X2531968Y-4917436D02*
X2522444Y-4926960D01*
X2522444Y-4926960D02*
X2503396Y-4936484D01*
X2503396Y-4936484D02*
X2484348Y-4936484D01*
X2484348Y-4936484D02*
X2465301Y-4926960D01*
X2465301Y-4926960D02*
X2455777Y-4917436D01*
X2455777Y-4917436D02*
X2446253Y-4898389D01*
X2446253Y-4898389D02*
X2436729Y-4860293D01*
X2436729Y-4860293D02*
X2436729Y-4812674D01*
X2436729Y-4812674D02*
X2446253Y-4774579D01*
X2446253Y-4774579D02*
X2455777Y-4755531D01*
X2455777Y-4755531D02*
X2465301Y-4746008D01*
X2465301Y-4746008D02*
X2484348Y-4736484D01*
X2674825Y-4736484D02*
X2693872Y-4736484D01*
X2693872Y-4736484D02*
X2712920Y-4746008D01*
X2712920Y-4746008D02*
X2722444Y-4755531D01*
X2722444Y-4755531D02*
X2731968Y-4774579D01*
X2731968Y-4774579D02*
X2741491Y-4812674D01*
X2741491Y-4812674D02*
X2741491Y-4860293D01*
X2741491Y-4860293D02*
X2731968Y-4898389D01*
X2731968Y-4898389D02*
X2722444Y-4917436D01*
X2722444Y-4917436D02*
X2712920Y-4926960D01*
X2712920Y-4926960D02*
X2693872Y-4936484D01*
X2693872Y-4936484D02*
X2674825Y-4936484D01*
X2674825Y-4936484D02*
X2655777Y-4926960D01*
X2655777Y-4926960D02*
X2646253Y-4917436D01*
X2646253Y-4917436D02*
X2636729Y-4898389D01*
X2636729Y-4898389D02*
X2627206Y-4860293D01*
X2627206Y-4860293D02*
X2627206Y-4812674D01*
X2627206Y-4812674D02*
X2636729Y-4774579D01*
X2636729Y-4774579D02*
X2646253Y-4755531D01*
X2646253Y-4755531D02*
X2655777Y-4746008D01*
X2655777Y-4746008D02*
X2674825Y-4736484D01*
X2836729Y-4936484D02*
X2874825Y-4936484D01*
X2874825Y-4936484D02*
X2893872Y-4926960D01*
X2893872Y-4926960D02*
X2903396Y-4917436D01*
X2903396Y-4917436D02*
X2922444Y-4888865D01*
X2922444Y-4888865D02*
X2931967Y-4850770D01*
X2931967Y-4850770D02*
X2931967Y-4774579D01*
X2931967Y-4774579D02*
X2922444Y-4755531D01*
X2922444Y-4755531D02*
X2912920Y-4746008D01*
X2912920Y-4746008D02*
X2893872Y-4736484D01*
X2893872Y-4736484D02*
X2855777Y-4736484D01*
X2855777Y-4736484D02*
X2836729Y-4746008D01*
X2836729Y-4746008D02*
X2827206Y-4755531D01*
X2827206Y-4755531D02*
X2817682Y-4774579D01*
X2817682Y-4774579D02*
X2817682Y-4822198D01*
X2817682Y-4822198D02*
X2827206Y-4841246D01*
X2827206Y-4841246D02*
X2836729Y-4850770D01*
X2836729Y-4850770D02*
X2855777Y-4860293D01*
X2855777Y-4860293D02*
X2893872Y-4860293D01*
X2893872Y-4860293D02*
X2912920Y-4850770D01*
X2912920Y-4850770D02*
X2922444Y-4841246D01*
X2922444Y-4841246D02*
X2931967Y-4822198D01*
X3046253Y-4822198D02*
X3027206Y-4812674D01*
X3027206Y-4812674D02*
X3017682Y-4803150D01*
X3017682Y-4803150D02*
X3008158Y-4784103D01*
X3008158Y-4784103D02*
X3008158Y-4774579D01*
X3008158Y-4774579D02*
X3017682Y-4755531D01*
X3017682Y-4755531D02*
X3027206Y-4746008D01*
X3027206Y-4746008D02*
X3046253Y-4736484D01*
X3046253Y-4736484D02*
X3084348Y-4736484D01*
X3084348Y-4736484D02*
X3103396Y-4746008D01*
X3103396Y-4746008D02*
X3112920Y-4755531D01*
X3112920Y-4755531D02*
X3122444Y-4774579D01*
X3122444Y-4774579D02*
X3122444Y-4784103D01*
X3122444Y-4784103D02*
X3112920Y-4803150D01*
X3112920Y-4803150D02*
X3103396Y-4812674D01*
X3103396Y-4812674D02*
X3084348Y-4822198D01*
X3084348Y-4822198D02*
X3046253Y-4822198D01*
X3046253Y-4822198D02*
X3027206Y-4831722D01*
X3027206Y-4831722D02*
X3017682Y-4841246D01*
X3017682Y-4841246D02*
X3008158Y-4860293D01*
X3008158Y-4860293D02*
X3008158Y-4898389D01*
X3008158Y-4898389D02*
X3017682Y-4917436D01*
X3017682Y-4917436D02*
X3027206Y-4926960D01*
X3027206Y-4926960D02*
X3046253Y-4936484D01*
X3046253Y-4936484D02*
X3084348Y-4936484D01*
X3084348Y-4936484D02*
X3103396Y-4926960D01*
X3103396Y-4926960D02*
X3112920Y-4917436D01*
X3112920Y-4917436D02*
X3122444Y-4898389D01*
X3122444Y-4898389D02*
X3122444Y-4860293D01*
X3122444Y-4860293D02*
X3112920Y-4841246D01*
X3112920Y-4841246D02*
X3103396Y-4831722D01*
X3103396Y-4831722D02*
X3084348Y-4822198D01*
X3198634Y-4736484D02*
X3198634Y-4774579D01*
X3274825Y-4736484D02*
X3274825Y-4774579D01*
X3570063Y-5012674D02*
X3560539Y-5003150D01*
X3560539Y-5003150D02*
X3541491Y-4974579D01*
X3541491Y-4974579D02*
X3531968Y-4955531D01*
X3531968Y-4955531D02*
X3522444Y-4926960D01*
X3522444Y-4926960D02*
X3512920Y-4879341D01*
X3512920Y-4879341D02*
X3512920Y-4841246D01*
X3512920Y-4841246D02*
X3522444Y-4793627D01*
X3522444Y-4793627D02*
X3531968Y-4765055D01*
X3531968Y-4765055D02*
X3541491Y-4746008D01*
X3541491Y-4746008D02*
X3560539Y-4717436D01*
X3560539Y-4717436D02*
X3570063Y-4707912D01*
X3751015Y-4936484D02*
X3636729Y-4936484D01*
X3693872Y-4936484D02*
X3693872Y-4736484D01*
X3693872Y-4736484D02*
X3674825Y-4765055D01*
X3674825Y-4765055D02*
X3655777Y-4784103D01*
X3655777Y-4784103D02*
X3636729Y-4793627D01*
X3989110Y-4936484D02*
X3989110Y-4736484D01*
X4074825Y-4936484D02*
X4074825Y-4831722D01*
X4074825Y-4831722D02*
X4065301Y-4812674D01*
X4065301Y-4812674D02*
X4046253Y-4803150D01*
X4046253Y-4803150D02*
X4017682Y-4803150D01*
X4017682Y-4803150D02*
X3998634Y-4812674D01*
X3998634Y-4812674D02*
X3989110Y-4822198D01*
X4198634Y-4936484D02*
X4179587Y-4926960D01*
X4179587Y-4926960D02*
X4170063Y-4917436D01*
X4170063Y-4917436D02*
X4160539Y-4898389D01*
X4160539Y-4898389D02*
X4160539Y-4841246D01*
X4160539Y-4841246D02*
X4170063Y-4822198D01*
X4170063Y-4822198D02*
X4179587Y-4812674D01*
X4179587Y-4812674D02*
X4198634Y-4803150D01*
X4198634Y-4803150D02*
X4227206Y-4803150D01*
X4227206Y-4803150D02*
X4246253Y-4812674D01*
X4246253Y-4812674D02*
X4255777Y-4822198D01*
X4255777Y-4822198D02*
X4265301Y-4841246D01*
X4265301Y-4841246D02*
X4265301Y-4898389D01*
X4265301Y-4898389D02*
X4255777Y-4917436D01*
X4255777Y-4917436D02*
X4246253Y-4926960D01*
X4246253Y-4926960D02*
X4227206Y-4936484D01*
X4227206Y-4936484D02*
X4198634Y-4936484D01*
X4379587Y-4936484D02*
X4360539Y-4926960D01*
X4360539Y-4926960D02*
X4351015Y-4907912D01*
X4351015Y-4907912D02*
X4351015Y-4736484D01*
X4531968Y-4926960D02*
X4512920Y-4936484D01*
X4512920Y-4936484D02*
X4474825Y-4936484D01*
X4474825Y-4936484D02*
X4455777Y-4926960D01*
X4455777Y-4926960D02*
X4446253Y-4907912D01*
X4446253Y-4907912D02*
X4446253Y-4831722D01*
X4446253Y-4831722D02*
X4455777Y-4812674D01*
X4455777Y-4812674D02*
X4474825Y-4803150D01*
X4474825Y-4803150D02*
X4512920Y-4803150D01*
X4512920Y-4803150D02*
X4531968Y-4812674D01*
X4531968Y-4812674D02*
X4541492Y-4831722D01*
X4541492Y-4831722D02*
X4541492Y-4850770D01*
X4541492Y-4850770D02*
X4446253Y-4869817D01*
X4608158Y-5012674D02*
X4617682Y-5003150D01*
X4617682Y-5003150D02*
X4636730Y-4974579D01*
X4636730Y-4974579D02*
X4646253Y-4955531D01*
X4646253Y-4955531D02*
X4655777Y-4926960D01*
X4655777Y-4926960D02*
X4665301Y-4879341D01*
X4665301Y-4879341D02*
X4665301Y-4841246D01*
X4665301Y-4841246D02*
X4655777Y-4793627D01*
X4655777Y-4793627D02*
X4646253Y-4765055D01*
X4646253Y-4765055D02*
X4636730Y-4746008D01*
X4636730Y-4746008D02*
X4617682Y-4717436D01*
X4617682Y-4717436D02*
X4608158Y-4707912D01*
X4970063Y-5012674D02*
X4960539Y-5003150D01*
X4960539Y-5003150D02*
X4941492Y-4974579D01*
X4941492Y-4974579D02*
X4931968Y-4955531D01*
X4931968Y-4955531D02*
X4922444Y-4926960D01*
X4922444Y-4926960D02*
X4912920Y-4879341D01*
X4912920Y-4879341D02*
X4912920Y-4841246D01*
X4912920Y-4841246D02*
X4922444Y-4793627D01*
X4922444Y-4793627D02*
X4931968Y-4765055D01*
X4931968Y-4765055D02*
X4941492Y-4746008D01*
X4941492Y-4746008D02*
X4960539Y-4717436D01*
X4960539Y-4717436D02*
X4970063Y-4707912D01*
X5046253Y-4803150D02*
X5046253Y-4936484D01*
X5046253Y-4822198D02*
X5055777Y-4812674D01*
X5055777Y-4812674D02*
X5074825Y-4803150D01*
X5074825Y-4803150D02*
X5103396Y-4803150D01*
X5103396Y-4803150D02*
X5122444Y-4812674D01*
X5122444Y-4812674D02*
X5131968Y-4831722D01*
X5131968Y-4831722D02*
X5131968Y-4936484D01*
X5255777Y-4936484D02*
X5236730Y-4926960D01*
X5236730Y-4926960D02*
X5227206Y-4917436D01*
X5227206Y-4917436D02*
X5217682Y-4898389D01*
X5217682Y-4898389D02*
X5217682Y-4841246D01*
X5217682Y-4841246D02*
X5227206Y-4822198D01*
X5227206Y-4822198D02*
X5236730Y-4812674D01*
X5236730Y-4812674D02*
X5255777Y-4803150D01*
X5255777Y-4803150D02*
X5284349Y-4803150D01*
X5284349Y-4803150D02*
X5303396Y-4812674D01*
X5303396Y-4812674D02*
X5312920Y-4822198D01*
X5312920Y-4822198D02*
X5322444Y-4841246D01*
X5322444Y-4841246D02*
X5322444Y-4898389D01*
X5322444Y-4898389D02*
X5312920Y-4917436D01*
X5312920Y-4917436D02*
X5303396Y-4926960D01*
X5303396Y-4926960D02*
X5284349Y-4936484D01*
X5284349Y-4936484D02*
X5255777Y-4936484D01*
X5379587Y-4803150D02*
X5455777Y-4803150D01*
X5408158Y-4736484D02*
X5408158Y-4907912D01*
X5408158Y-4907912D02*
X5417682Y-4926960D01*
X5417682Y-4926960D02*
X5436730Y-4936484D01*
X5436730Y-4936484D02*
X5455777Y-4936484D01*
X5674825Y-4803150D02*
X5674825Y-5003150D01*
X5674825Y-4812674D02*
X5693872Y-4803150D01*
X5693872Y-4803150D02*
X5731968Y-4803150D01*
X5731968Y-4803150D02*
X5751015Y-4812674D01*
X5751015Y-4812674D02*
X5760539Y-4822198D01*
X5760539Y-4822198D02*
X5770063Y-4841246D01*
X5770063Y-4841246D02*
X5770063Y-4898389D01*
X5770063Y-4898389D02*
X5760539Y-4917436D01*
X5760539Y-4917436D02*
X5751015Y-4926960D01*
X5751015Y-4926960D02*
X5731968Y-4936484D01*
X5731968Y-4936484D02*
X5693872Y-4936484D01*
X5693872Y-4936484D02*
X5674825Y-4926960D01*
X5884349Y-4936484D02*
X5865301Y-4926960D01*
X5865301Y-4926960D02*
X5855777Y-4907912D01*
X5855777Y-4907912D02*
X5855777Y-4736484D01*
X6046253Y-4936484D02*
X6046253Y-4831722D01*
X6046253Y-4831722D02*
X6036730Y-4812674D01*
X6036730Y-4812674D02*
X6017682Y-4803150D01*
X6017682Y-4803150D02*
X5979587Y-4803150D01*
X5979587Y-4803150D02*
X5960539Y-4812674D01*
X6046253Y-4926960D02*
X6027206Y-4936484D01*
X6027206Y-4936484D02*
X5979587Y-4936484D01*
X5979587Y-4936484D02*
X5960539Y-4926960D01*
X5960539Y-4926960D02*
X5951015Y-4907912D01*
X5951015Y-4907912D02*
X5951015Y-4888865D01*
X5951015Y-4888865D02*
X5960539Y-4869817D01*
X5960539Y-4869817D02*
X5979587Y-4860293D01*
X5979587Y-4860293D02*
X6027206Y-4860293D01*
X6027206Y-4860293D02*
X6046253Y-4850770D01*
X6112920Y-4803150D02*
X6189111Y-4803150D01*
X6141492Y-4736484D02*
X6141492Y-4907912D01*
X6141492Y-4907912D02*
X6151015Y-4926960D01*
X6151015Y-4926960D02*
X6170063Y-4936484D01*
X6170063Y-4936484D02*
X6189111Y-4936484D01*
X6331968Y-4926960D02*
X6312920Y-4936484D01*
X6312920Y-4936484D02*
X6274825Y-4936484D01*
X6274825Y-4936484D02*
X6255777Y-4926960D01*
X6255777Y-4926960D02*
X6246253Y-4907912D01*
X6246253Y-4907912D02*
X6246253Y-4831722D01*
X6246253Y-4831722D02*
X6255777Y-4812674D01*
X6255777Y-4812674D02*
X6274825Y-4803150D01*
X6274825Y-4803150D02*
X6312920Y-4803150D01*
X6312920Y-4803150D02*
X6331968Y-4812674D01*
X6331968Y-4812674D02*
X6341492Y-4831722D01*
X6341492Y-4831722D02*
X6341492Y-4850770D01*
X6341492Y-4850770D02*
X6246253Y-4869817D01*
X6512920Y-4936484D02*
X6512920Y-4736484D01*
X6512920Y-4926960D02*
X6493873Y-4936484D01*
X6493873Y-4936484D02*
X6455777Y-4936484D01*
X6455777Y-4936484D02*
X6436730Y-4926960D01*
X6436730Y-4926960D02*
X6427206Y-4917436D01*
X6427206Y-4917436D02*
X6417682Y-4898389D01*
X6417682Y-4898389D02*
X6417682Y-4841246D01*
X6417682Y-4841246D02*
X6427206Y-4822198D01*
X6427206Y-4822198D02*
X6436730Y-4812674D01*
X6436730Y-4812674D02*
X6455777Y-4803150D01*
X6455777Y-4803150D02*
X6493873Y-4803150D01*
X6493873Y-4803150D02*
X6512920Y-4812674D01*
X6589111Y-5012674D02*
X6598634Y-5003150D01*
X6598634Y-5003150D02*
X6617682Y-4974579D01*
X6617682Y-4974579D02*
X6627206Y-4955531D01*
X6627206Y-4955531D02*
X6636730Y-4926960D01*
X6636730Y-4926960D02*
X6646253Y-4879341D01*
X6646253Y-4879341D02*
X6646253Y-4841246D01*
X6646253Y-4841246D02*
X6636730Y-4793627D01*
X6636730Y-4793627D02*
X6627206Y-4765055D01*
X6627206Y-4765055D02*
X6617682Y-4746008D01*
X6617682Y-4746008D02*
X6598634Y-4717436D01*
X6598634Y-4717436D02*
X6589111Y-4707912D01*
D10*
X-5000Y-5109000D02*
G75*
G02*
X-65000Y-5109000I-30000J0D01*
G01*
X-65000Y-5109000D02*
G75*
G02*
X-5000Y-5109000I30000J0D01*
G01*
D11*
X293872Y-5000484D02*
X312920Y-5000484D01*
X312920Y-5000484D02*
X331967Y-5010008D01*
X331967Y-5010008D02*
X341491Y-5019531D01*
X341491Y-5019531D02*
X351015Y-5038579D01*
X351015Y-5038579D02*
X360539Y-5076674D01*
X360539Y-5076674D02*
X360539Y-5124293D01*
X360539Y-5124293D02*
X351015Y-5162389D01*
X351015Y-5162389D02*
X341491Y-5181436D01*
X341491Y-5181436D02*
X331967Y-5190960D01*
X331967Y-5190960D02*
X312920Y-5200484D01*
X312920Y-5200484D02*
X293872Y-5200484D01*
X293872Y-5200484D02*
X274824Y-5190960D01*
X274824Y-5190960D02*
X265301Y-5181436D01*
X265301Y-5181436D02*
X255777Y-5162389D01*
X255777Y-5162389D02*
X246253Y-5124293D01*
X246253Y-5124293D02*
X246253Y-5076674D01*
X246253Y-5076674D02*
X255777Y-5038579D01*
X255777Y-5038579D02*
X265301Y-5019531D01*
X265301Y-5019531D02*
X274824Y-5010008D01*
X274824Y-5010008D02*
X293872Y-5000484D01*
X446253Y-5181436D02*
X455777Y-5190960D01*
X455777Y-5190960D02*
X446253Y-5200484D01*
X446253Y-5200484D02*
X436729Y-5190960D01*
X436729Y-5190960D02*
X446253Y-5181436D01*
X446253Y-5181436D02*
X446253Y-5200484D01*
X627205Y-5000484D02*
X589110Y-5000484D01*
X589110Y-5000484D02*
X570063Y-5010008D01*
X570063Y-5010008D02*
X560539Y-5019531D01*
X560539Y-5019531D02*
X541491Y-5048103D01*
X541491Y-5048103D02*
X531967Y-5086198D01*
X531967Y-5086198D02*
X531967Y-5162389D01*
X531967Y-5162389D02*
X541491Y-5181436D01*
X541491Y-5181436D02*
X551015Y-5190960D01*
X551015Y-5190960D02*
X570063Y-5200484D01*
X570063Y-5200484D02*
X608158Y-5200484D01*
X608158Y-5200484D02*
X627205Y-5190960D01*
X627205Y-5190960D02*
X636729Y-5181436D01*
X636729Y-5181436D02*
X646253Y-5162389D01*
X646253Y-5162389D02*
X646253Y-5114770D01*
X646253Y-5114770D02*
X636729Y-5095722D01*
X636729Y-5095722D02*
X627205Y-5086198D01*
X627205Y-5086198D02*
X608158Y-5076674D01*
X608158Y-5076674D02*
X570063Y-5076674D01*
X570063Y-5076674D02*
X551015Y-5086198D01*
X551015Y-5086198D02*
X541491Y-5095722D01*
X541491Y-5095722D02*
X531967Y-5114770D01*
X770062Y-5000484D02*
X789110Y-5000484D01*
X789110Y-5000484D02*
X808158Y-5010008D01*
X808158Y-5010008D02*
X817682Y-5019531D01*
X817682Y-5019531D02*
X827205Y-5038579D01*
X827205Y-5038579D02*
X836729Y-5076674D01*
X836729Y-5076674D02*
X836729Y-5124293D01*
X836729Y-5124293D02*
X827205Y-5162389D01*
X827205Y-5162389D02*
X817682Y-5181436D01*
X817682Y-5181436D02*
X808158Y-5190960D01*
X808158Y-5190960D02*
X789110Y-5200484D01*
X789110Y-5200484D02*
X770062Y-5200484D01*
X770062Y-5200484D02*
X751015Y-5190960D01*
X751015Y-5190960D02*
X741491Y-5181436D01*
X741491Y-5181436D02*
X731967Y-5162389D01*
X731967Y-5162389D02*
X722443Y-5124293D01*
X722443Y-5124293D02*
X722443Y-5076674D01*
X722443Y-5076674D02*
X731967Y-5038579D01*
X731967Y-5038579D02*
X741491Y-5019531D01*
X741491Y-5019531D02*
X751015Y-5010008D01*
X751015Y-5010008D02*
X770062Y-5000484D01*
X960539Y-5000484D02*
X979586Y-5000484D01*
X979586Y-5000484D02*
X998634Y-5010008D01*
X998634Y-5010008D02*
X1008158Y-5019531D01*
X1008158Y-5019531D02*
X1017682Y-5038579D01*
X1017682Y-5038579D02*
X1027205Y-5076674D01*
X1027205Y-5076674D02*
X1027205Y-5124293D01*
X1027205Y-5124293D02*
X1017682Y-5162389D01*
X1017682Y-5162389D02*
X1008158Y-5181436D01*
X1008158Y-5181436D02*
X998634Y-5190960D01*
X998634Y-5190960D02*
X979586Y-5200484D01*
X979586Y-5200484D02*
X960539Y-5200484D01*
X960539Y-5200484D02*
X941491Y-5190960D01*
X941491Y-5190960D02*
X931967Y-5181436D01*
X931967Y-5181436D02*
X922443Y-5162389D01*
X922443Y-5162389D02*
X912920Y-5124293D01*
X912920Y-5124293D02*
X912920Y-5076674D01*
X912920Y-5076674D02*
X922443Y-5038579D01*
X922443Y-5038579D02*
X931967Y-5019531D01*
X931967Y-5019531D02*
X941491Y-5010008D01*
X941491Y-5010008D02*
X960539Y-5000484D01*
X1112920Y-5200484D02*
X1112920Y-5067150D01*
X1112920Y-5086198D02*
X1122444Y-5076674D01*
X1122444Y-5076674D02*
X1141491Y-5067150D01*
X1141491Y-5067150D02*
X1170063Y-5067150D01*
X1170063Y-5067150D02*
X1189110Y-5076674D01*
X1189110Y-5076674D02*
X1198634Y-5095722D01*
X1198634Y-5095722D02*
X1198634Y-5200484D01*
X1198634Y-5095722D02*
X1208158Y-5076674D01*
X1208158Y-5076674D02*
X1227205Y-5067150D01*
X1227205Y-5067150D02*
X1255777Y-5067150D01*
X1255777Y-5067150D02*
X1274825Y-5076674D01*
X1274825Y-5076674D02*
X1284348Y-5095722D01*
X1284348Y-5095722D02*
X1284348Y-5200484D01*
X1379586Y-5200484D02*
X1379586Y-5067150D01*
X1379586Y-5086198D02*
X1389110Y-5076674D01*
X1389110Y-5076674D02*
X1408158Y-5067150D01*
X1408158Y-5067150D02*
X1436729Y-5067150D01*
X1436729Y-5067150D02*
X1455777Y-5076674D01*
X1455777Y-5076674D02*
X1465301Y-5095722D01*
X1465301Y-5095722D02*
X1465301Y-5200484D01*
X1465301Y-5095722D02*
X1474824Y-5076674D01*
X1474824Y-5076674D02*
X1493872Y-5067150D01*
X1493872Y-5067150D02*
X1522443Y-5067150D01*
X1522443Y-5067150D02*
X1541491Y-5076674D01*
X1541491Y-5076674D02*
X1551015Y-5095722D01*
X1551015Y-5095722D02*
X1551015Y-5200484D01*
X1941491Y-4990960D02*
X1770063Y-5248103D01*
X2198634Y-5000484D02*
X2217682Y-5000484D01*
X2217682Y-5000484D02*
X2236729Y-5010008D01*
X2236729Y-5010008D02*
X2246253Y-5019531D01*
X2246253Y-5019531D02*
X2255777Y-5038579D01*
X2255777Y-5038579D02*
X2265301Y-5076674D01*
X2265301Y-5076674D02*
X2265301Y-5124293D01*
X2265301Y-5124293D02*
X2255777Y-5162389D01*
X2255777Y-5162389D02*
X2246253Y-5181436D01*
X2246253Y-5181436D02*
X2236729Y-5190960D01*
X2236729Y-5190960D02*
X2217682Y-5200484D01*
X2217682Y-5200484D02*
X2198634Y-5200484D01*
X2198634Y-5200484D02*
X2179587Y-5190960D01*
X2179587Y-5190960D02*
X2170063Y-5181436D01*
X2170063Y-5181436D02*
X2160539Y-5162389D01*
X2160539Y-5162389D02*
X2151015Y-5124293D01*
X2151015Y-5124293D02*
X2151015Y-5076674D01*
X2151015Y-5076674D02*
X2160539Y-5038579D01*
X2160539Y-5038579D02*
X2170063Y-5019531D01*
X2170063Y-5019531D02*
X2179587Y-5010008D01*
X2179587Y-5010008D02*
X2198634Y-5000484D01*
X2351015Y-5181436D02*
X2360539Y-5190960D01*
X2360539Y-5190960D02*
X2351015Y-5200484D01*
X2351015Y-5200484D02*
X2341491Y-5190960D01*
X2341491Y-5190960D02*
X2351015Y-5181436D01*
X2351015Y-5181436D02*
X2351015Y-5200484D01*
X2484348Y-5000484D02*
X2503396Y-5000484D01*
X2503396Y-5000484D02*
X2522444Y-5010008D01*
X2522444Y-5010008D02*
X2531968Y-5019531D01*
X2531968Y-5019531D02*
X2541491Y-5038579D01*
X2541491Y-5038579D02*
X2551015Y-5076674D01*
X2551015Y-5076674D02*
X2551015Y-5124293D01*
X2551015Y-5124293D02*
X2541491Y-5162389D01*
X2541491Y-5162389D02*
X2531968Y-5181436D01*
X2531968Y-5181436D02*
X2522444Y-5190960D01*
X2522444Y-5190960D02*
X2503396Y-5200484D01*
X2503396Y-5200484D02*
X2484348Y-5200484D01*
X2484348Y-5200484D02*
X2465301Y-5190960D01*
X2465301Y-5190960D02*
X2455777Y-5181436D01*
X2455777Y-5181436D02*
X2446253Y-5162389D01*
X2446253Y-5162389D02*
X2436729Y-5124293D01*
X2436729Y-5124293D02*
X2436729Y-5076674D01*
X2436729Y-5076674D02*
X2446253Y-5038579D01*
X2446253Y-5038579D02*
X2455777Y-5019531D01*
X2455777Y-5019531D02*
X2465301Y-5010008D01*
X2465301Y-5010008D02*
X2484348Y-5000484D01*
X2627206Y-5019531D02*
X2636729Y-5010008D01*
X2636729Y-5010008D02*
X2655777Y-5000484D01*
X2655777Y-5000484D02*
X2703396Y-5000484D01*
X2703396Y-5000484D02*
X2722444Y-5010008D01*
X2722444Y-5010008D02*
X2731968Y-5019531D01*
X2731968Y-5019531D02*
X2741491Y-5038579D01*
X2741491Y-5038579D02*
X2741491Y-5057627D01*
X2741491Y-5057627D02*
X2731968Y-5086198D01*
X2731968Y-5086198D02*
X2617682Y-5200484D01*
X2617682Y-5200484D02*
X2741491Y-5200484D01*
X2808158Y-5000484D02*
X2931967Y-5000484D01*
X2931967Y-5000484D02*
X2865301Y-5076674D01*
X2865301Y-5076674D02*
X2893872Y-5076674D01*
X2893872Y-5076674D02*
X2912920Y-5086198D01*
X2912920Y-5086198D02*
X2922444Y-5095722D01*
X2922444Y-5095722D02*
X2931967Y-5114770D01*
X2931967Y-5114770D02*
X2931967Y-5162389D01*
X2931967Y-5162389D02*
X2922444Y-5181436D01*
X2922444Y-5181436D02*
X2912920Y-5190960D01*
X2912920Y-5190960D02*
X2893872Y-5200484D01*
X2893872Y-5200484D02*
X2836729Y-5200484D01*
X2836729Y-5200484D02*
X2817682Y-5190960D01*
X2817682Y-5190960D02*
X2808158Y-5181436D01*
X3103396Y-5000484D02*
X3065301Y-5000484D01*
X3065301Y-5000484D02*
X3046253Y-5010008D01*
X3046253Y-5010008D02*
X3036729Y-5019531D01*
X3036729Y-5019531D02*
X3017682Y-5048103D01*
X3017682Y-5048103D02*
X3008158Y-5086198D01*
X3008158Y-5086198D02*
X3008158Y-5162389D01*
X3008158Y-5162389D02*
X3017682Y-5181436D01*
X3017682Y-5181436D02*
X3027206Y-5190960D01*
X3027206Y-5190960D02*
X3046253Y-5200484D01*
X3046253Y-5200484D02*
X3084348Y-5200484D01*
X3084348Y-5200484D02*
X3103396Y-5190960D01*
X3103396Y-5190960D02*
X3112920Y-5181436D01*
X3112920Y-5181436D02*
X3122444Y-5162389D01*
X3122444Y-5162389D02*
X3122444Y-5114770D01*
X3122444Y-5114770D02*
X3112920Y-5095722D01*
X3112920Y-5095722D02*
X3103396Y-5086198D01*
X3103396Y-5086198D02*
X3084348Y-5076674D01*
X3084348Y-5076674D02*
X3046253Y-5076674D01*
X3046253Y-5076674D02*
X3027206Y-5086198D01*
X3027206Y-5086198D02*
X3017682Y-5095722D01*
X3017682Y-5095722D02*
X3008158Y-5114770D01*
X3198634Y-5000484D02*
X3198634Y-5038579D01*
X3274825Y-5000484D02*
X3274825Y-5038579D01*
X3570063Y-5276674D02*
X3560539Y-5267150D01*
X3560539Y-5267150D02*
X3541491Y-5238579D01*
X3541491Y-5238579D02*
X3531968Y-5219531D01*
X3531968Y-5219531D02*
X3522444Y-5190960D01*
X3522444Y-5190960D02*
X3512920Y-5143341D01*
X3512920Y-5143341D02*
X3512920Y-5105246D01*
X3512920Y-5105246D02*
X3522444Y-5057627D01*
X3522444Y-5057627D02*
X3531968Y-5029055D01*
X3531968Y-5029055D02*
X3541491Y-5010008D01*
X3541491Y-5010008D02*
X3560539Y-4981436D01*
X3560539Y-4981436D02*
X3570063Y-4971912D01*
X3636729Y-5019531D02*
X3646253Y-5010008D01*
X3646253Y-5010008D02*
X3665301Y-5000484D01*
X3665301Y-5000484D02*
X3712920Y-5000484D01*
X3712920Y-5000484D02*
X3731968Y-5010008D01*
X3731968Y-5010008D02*
X3741491Y-5019531D01*
X3741491Y-5019531D02*
X3751015Y-5038579D01*
X3751015Y-5038579D02*
X3751015Y-5057627D01*
X3751015Y-5057627D02*
X3741491Y-5086198D01*
X3741491Y-5086198D02*
X3627206Y-5200484D01*
X3627206Y-5200484D02*
X3751015Y-5200484D01*
X3989110Y-5200484D02*
X3989110Y-5000484D01*
X4074825Y-5200484D02*
X4074825Y-5095722D01*
X4074825Y-5095722D02*
X4065301Y-5076674D01*
X4065301Y-5076674D02*
X4046253Y-5067150D01*
X4046253Y-5067150D02*
X4017682Y-5067150D01*
X4017682Y-5067150D02*
X3998634Y-5076674D01*
X3998634Y-5076674D02*
X3989110Y-5086198D01*
X4198634Y-5200484D02*
X4179587Y-5190960D01*
X4179587Y-5190960D02*
X4170063Y-5181436D01*
X4170063Y-5181436D02*
X4160539Y-5162389D01*
X4160539Y-5162389D02*
X4160539Y-5105246D01*
X4160539Y-5105246D02*
X4170063Y-5086198D01*
X4170063Y-5086198D02*
X4179587Y-5076674D01*
X4179587Y-5076674D02*
X4198634Y-5067150D01*
X4198634Y-5067150D02*
X4227206Y-5067150D01*
X4227206Y-5067150D02*
X4246253Y-5076674D01*
X4246253Y-5076674D02*
X4255777Y-5086198D01*
X4255777Y-5086198D02*
X4265301Y-5105246D01*
X4265301Y-5105246D02*
X4265301Y-5162389D01*
X4265301Y-5162389D02*
X4255777Y-5181436D01*
X4255777Y-5181436D02*
X4246253Y-5190960D01*
X4246253Y-5190960D02*
X4227206Y-5200484D01*
X4227206Y-5200484D02*
X4198634Y-5200484D01*
X4379587Y-5200484D02*
X4360539Y-5190960D01*
X4360539Y-5190960D02*
X4351015Y-5171912D01*
X4351015Y-5171912D02*
X4351015Y-5000484D01*
X4531968Y-5190960D02*
X4512920Y-5200484D01*
X4512920Y-5200484D02*
X4474825Y-5200484D01*
X4474825Y-5200484D02*
X4455777Y-5190960D01*
X4455777Y-5190960D02*
X4446253Y-5171912D01*
X4446253Y-5171912D02*
X4446253Y-5095722D01*
X4446253Y-5095722D02*
X4455777Y-5076674D01*
X4455777Y-5076674D02*
X4474825Y-5067150D01*
X4474825Y-5067150D02*
X4512920Y-5067150D01*
X4512920Y-5067150D02*
X4531968Y-5076674D01*
X4531968Y-5076674D02*
X4541492Y-5095722D01*
X4541492Y-5095722D02*
X4541492Y-5114770D01*
X4541492Y-5114770D02*
X4446253Y-5133817D01*
X4617682Y-5190960D02*
X4636730Y-5200484D01*
X4636730Y-5200484D02*
X4674825Y-5200484D01*
X4674825Y-5200484D02*
X4693873Y-5190960D01*
X4693873Y-5190960D02*
X4703396Y-5171912D01*
X4703396Y-5171912D02*
X4703396Y-5162389D01*
X4703396Y-5162389D02*
X4693873Y-5143341D01*
X4693873Y-5143341D02*
X4674825Y-5133817D01*
X4674825Y-5133817D02*
X4646253Y-5133817D01*
X4646253Y-5133817D02*
X4627206Y-5124293D01*
X4627206Y-5124293D02*
X4617682Y-5105246D01*
X4617682Y-5105246D02*
X4617682Y-5095722D01*
X4617682Y-5095722D02*
X4627206Y-5076674D01*
X4627206Y-5076674D02*
X4646253Y-5067150D01*
X4646253Y-5067150D02*
X4674825Y-5067150D01*
X4674825Y-5067150D02*
X4693873Y-5076674D01*
X4770063Y-5276674D02*
X4779587Y-5267150D01*
X4779587Y-5267150D02*
X4798634Y-5238579D01*
X4798634Y-5238579D02*
X4808158Y-5219531D01*
X4808158Y-5219531D02*
X4817682Y-5190960D01*
X4817682Y-5190960D02*
X4827206Y-5143341D01*
X4827206Y-5143341D02*
X4827206Y-5105246D01*
X4827206Y-5105246D02*
X4817682Y-5057627D01*
X4817682Y-5057627D02*
X4808158Y-5029055D01*
X4808158Y-5029055D02*
X4798634Y-5010008D01*
X4798634Y-5010008D02*
X4779587Y-4981436D01*
X4779587Y-4981436D02*
X4770063Y-4971912D01*
X5131968Y-5276674D02*
X5122444Y-5267150D01*
X5122444Y-5267150D02*
X5103396Y-5238579D01*
X5103396Y-5238579D02*
X5093873Y-5219531D01*
X5093873Y-5219531D02*
X5084349Y-5190960D01*
X5084349Y-5190960D02*
X5074825Y-5143341D01*
X5074825Y-5143341D02*
X5074825Y-5105246D01*
X5074825Y-5105246D02*
X5084349Y-5057627D01*
X5084349Y-5057627D02*
X5093873Y-5029055D01*
X5093873Y-5029055D02*
X5103396Y-5010008D01*
X5103396Y-5010008D02*
X5122444Y-4981436D01*
X5122444Y-4981436D02*
X5131968Y-4971912D01*
X5208158Y-5067150D02*
X5208158Y-5200484D01*
X5208158Y-5086198D02*
X5217682Y-5076674D01*
X5217682Y-5076674D02*
X5236730Y-5067150D01*
X5236730Y-5067150D02*
X5265301Y-5067150D01*
X5265301Y-5067150D02*
X5284349Y-5076674D01*
X5284349Y-5076674D02*
X5293873Y-5095722D01*
X5293873Y-5095722D02*
X5293873Y-5200484D01*
X5417682Y-5200484D02*
X5398634Y-5190960D01*
X5398634Y-5190960D02*
X5389111Y-5181436D01*
X5389111Y-5181436D02*
X5379587Y-5162389D01*
X5379587Y-5162389D02*
X5379587Y-5105246D01*
X5379587Y-5105246D02*
X5389111Y-5086198D01*
X5389111Y-5086198D02*
X5398634Y-5076674D01*
X5398634Y-5076674D02*
X5417682Y-5067150D01*
X5417682Y-5067150D02*
X5446254Y-5067150D01*
X5446254Y-5067150D02*
X5465301Y-5076674D01*
X5465301Y-5076674D02*
X5474825Y-5086198D01*
X5474825Y-5086198D02*
X5484349Y-5105246D01*
X5484349Y-5105246D02*
X5484349Y-5162389D01*
X5484349Y-5162389D02*
X5474825Y-5181436D01*
X5474825Y-5181436D02*
X5465301Y-5190960D01*
X5465301Y-5190960D02*
X5446254Y-5200484D01*
X5446254Y-5200484D02*
X5417682Y-5200484D01*
X5541492Y-5067150D02*
X5617682Y-5067150D01*
X5570063Y-5000484D02*
X5570063Y-5171912D01*
X5570063Y-5171912D02*
X5579587Y-5190960D01*
X5579587Y-5190960D02*
X5598634Y-5200484D01*
X5598634Y-5200484D02*
X5617682Y-5200484D01*
X5836730Y-5067150D02*
X5836730Y-5267150D01*
X5836730Y-5076674D02*
X5855777Y-5067150D01*
X5855777Y-5067150D02*
X5893873Y-5067150D01*
X5893873Y-5067150D02*
X5912920Y-5076674D01*
X5912920Y-5076674D02*
X5922444Y-5086198D01*
X5922444Y-5086198D02*
X5931968Y-5105246D01*
X5931968Y-5105246D02*
X5931968Y-5162389D01*
X5931968Y-5162389D02*
X5922444Y-5181436D01*
X5922444Y-5181436D02*
X5912920Y-5190960D01*
X5912920Y-5190960D02*
X5893873Y-5200484D01*
X5893873Y-5200484D02*
X5855777Y-5200484D01*
X5855777Y-5200484D02*
X5836730Y-5190960D01*
X6046253Y-5200484D02*
X6027206Y-5190960D01*
X6027206Y-5190960D02*
X6017682Y-5171912D01*
X6017682Y-5171912D02*
X6017682Y-5000484D01*
X6208158Y-5200484D02*
X6208158Y-5095722D01*
X6208158Y-5095722D02*
X6198634Y-5076674D01*
X6198634Y-5076674D02*
X6179587Y-5067150D01*
X6179587Y-5067150D02*
X6141492Y-5067150D01*
X6141492Y-5067150D02*
X6122444Y-5076674D01*
X6208158Y-5190960D02*
X6189111Y-5200484D01*
X6189111Y-5200484D02*
X6141492Y-5200484D01*
X6141492Y-5200484D02*
X6122444Y-5190960D01*
X6122444Y-5190960D02*
X6112920Y-5171912D01*
X6112920Y-5171912D02*
X6112920Y-5152865D01*
X6112920Y-5152865D02*
X6122444Y-5133817D01*
X6122444Y-5133817D02*
X6141492Y-5124293D01*
X6141492Y-5124293D02*
X6189111Y-5124293D01*
X6189111Y-5124293D02*
X6208158Y-5114770D01*
X6274825Y-5067150D02*
X6351015Y-5067150D01*
X6303396Y-5000484D02*
X6303396Y-5171912D01*
X6303396Y-5171912D02*
X6312920Y-5190960D01*
X6312920Y-5190960D02*
X6331968Y-5200484D01*
X6331968Y-5200484D02*
X6351015Y-5200484D01*
X6493873Y-5190960D02*
X6474825Y-5200484D01*
X6474825Y-5200484D02*
X6436730Y-5200484D01*
X6436730Y-5200484D02*
X6417682Y-5190960D01*
X6417682Y-5190960D02*
X6408158Y-5171912D01*
X6408158Y-5171912D02*
X6408158Y-5095722D01*
X6408158Y-5095722D02*
X6417682Y-5076674D01*
X6417682Y-5076674D02*
X6436730Y-5067150D01*
X6436730Y-5067150D02*
X6474825Y-5067150D01*
X6474825Y-5067150D02*
X6493873Y-5076674D01*
X6493873Y-5076674D02*
X6503396Y-5095722D01*
X6503396Y-5095722D02*
X6503396Y-5114770D01*
X6503396Y-5114770D02*
X6408158Y-5133817D01*
X6674825Y-5200484D02*
X6674825Y-5000484D01*
X6674825Y-5190960D02*
X6655777Y-5200484D01*
X6655777Y-5200484D02*
X6617682Y-5200484D01*
X6617682Y-5200484D02*
X6598634Y-5190960D01*
X6598634Y-5190960D02*
X6589111Y-5181436D01*
X6589111Y-5181436D02*
X6579587Y-5162389D01*
X6579587Y-5162389D02*
X6579587Y-5105246D01*
X6579587Y-5105246D02*
X6589111Y-5086198D01*
X6589111Y-5086198D02*
X6598634Y-5076674D01*
X6598634Y-5076674D02*
X6617682Y-5067150D01*
X6617682Y-5067150D02*
X6655777Y-5067150D01*
X6655777Y-5067150D02*
X6674825Y-5076674D01*
X6751015Y-5276674D02*
X6760539Y-5267150D01*
X6760539Y-5267150D02*
X6779587Y-5238579D01*
X6779587Y-5238579D02*
X6789111Y-5219531D01*
X6789111Y-5219531D02*
X6798634Y-5190960D01*
X6798634Y-5190960D02*
X6808158Y-5143341D01*
X6808158Y-5143341D02*
X6808158Y-5105246D01*
X6808158Y-5105246D02*
X6798634Y-5057627D01*
X6798634Y-5057627D02*
X6789111Y-5029055D01*
X6789111Y-5029055D02*
X6779587Y-5010008D01*
X6779587Y-5010008D02*
X6760539Y-4981436D01*
X6760539Y-4981436D02*
X6751015Y-4971912D01*
X-105000Y-5273000D02*
X-105000Y-5473000D01*
X-205000Y-5373000D02*
X-5000Y-5373000D01*
X246253Y-5283531D02*
X255777Y-5274008D01*
X255777Y-5274008D02*
X274824Y-5264484D01*
X274824Y-5264484D02*
X322444Y-5264484D01*
X322444Y-5264484D02*
X341491Y-5274008D01*
X341491Y-5274008D02*
X351015Y-5283531D01*
X351015Y-5283531D02*
X360539Y-5302579D01*
X360539Y-5302579D02*
X360539Y-5321627D01*
X360539Y-5321627D02*
X351015Y-5350198D01*
X351015Y-5350198D02*
X236729Y-5464484D01*
X236729Y-5464484D02*
X360539Y-5464484D01*
X446253Y-5445436D02*
X455777Y-5454960D01*
X455777Y-5454960D02*
X446253Y-5464484D01*
X446253Y-5464484D02*
X436729Y-5454960D01*
X436729Y-5454960D02*
X446253Y-5445436D01*
X446253Y-5445436D02*
X446253Y-5464484D01*
X522443Y-5264484D02*
X655777Y-5264484D01*
X655777Y-5264484D02*
X570063Y-5464484D01*
X770062Y-5264484D02*
X789110Y-5264484D01*
X789110Y-5264484D02*
X808158Y-5274008D01*
X808158Y-5274008D02*
X817682Y-5283531D01*
X817682Y-5283531D02*
X827205Y-5302579D01*
X827205Y-5302579D02*
X836729Y-5340674D01*
X836729Y-5340674D02*
X836729Y-5388293D01*
X836729Y-5388293D02*
X827205Y-5426389D01*
X827205Y-5426389D02*
X817682Y-5445436D01*
X817682Y-5445436D02*
X808158Y-5454960D01*
X808158Y-5454960D02*
X789110Y-5464484D01*
X789110Y-5464484D02*
X770062Y-5464484D01*
X770062Y-5464484D02*
X751015Y-5454960D01*
X751015Y-5454960D02*
X741491Y-5445436D01*
X741491Y-5445436D02*
X731967Y-5426389D01*
X731967Y-5426389D02*
X722443Y-5388293D01*
X722443Y-5388293D02*
X722443Y-5340674D01*
X722443Y-5340674D02*
X731967Y-5302579D01*
X731967Y-5302579D02*
X741491Y-5283531D01*
X741491Y-5283531D02*
X751015Y-5274008D01*
X751015Y-5274008D02*
X770062Y-5264484D01*
X960539Y-5264484D02*
X979586Y-5264484D01*
X979586Y-5264484D02*
X998634Y-5274008D01*
X998634Y-5274008D02*
X1008158Y-5283531D01*
X1008158Y-5283531D02*
X1017682Y-5302579D01*
X1017682Y-5302579D02*
X1027205Y-5340674D01*
X1027205Y-5340674D02*
X1027205Y-5388293D01*
X1027205Y-5388293D02*
X1017682Y-5426389D01*
X1017682Y-5426389D02*
X1008158Y-5445436D01*
X1008158Y-5445436D02*
X998634Y-5454960D01*
X998634Y-5454960D02*
X979586Y-5464484D01*
X979586Y-5464484D02*
X960539Y-5464484D01*
X960539Y-5464484D02*
X941491Y-5454960D01*
X941491Y-5454960D02*
X931967Y-5445436D01*
X931967Y-5445436D02*
X922443Y-5426389D01*
X922443Y-5426389D02*
X912920Y-5388293D01*
X912920Y-5388293D02*
X912920Y-5340674D01*
X912920Y-5340674D02*
X922443Y-5302579D01*
X922443Y-5302579D02*
X931967Y-5283531D01*
X931967Y-5283531D02*
X941491Y-5274008D01*
X941491Y-5274008D02*
X960539Y-5264484D01*
X1112920Y-5464484D02*
X1112920Y-5331150D01*
X1112920Y-5350198D02*
X1122444Y-5340674D01*
X1122444Y-5340674D02*
X1141491Y-5331150D01*
X1141491Y-5331150D02*
X1170063Y-5331150D01*
X1170063Y-5331150D02*
X1189110Y-5340674D01*
X1189110Y-5340674D02*
X1198634Y-5359722D01*
X1198634Y-5359722D02*
X1198634Y-5464484D01*
X1198634Y-5359722D02*
X1208158Y-5340674D01*
X1208158Y-5340674D02*
X1227205Y-5331150D01*
X1227205Y-5331150D02*
X1255777Y-5331150D01*
X1255777Y-5331150D02*
X1274825Y-5340674D01*
X1274825Y-5340674D02*
X1284348Y-5359722D01*
X1284348Y-5359722D02*
X1284348Y-5464484D01*
X1379586Y-5464484D02*
X1379586Y-5331150D01*
X1379586Y-5350198D02*
X1389110Y-5340674D01*
X1389110Y-5340674D02*
X1408158Y-5331150D01*
X1408158Y-5331150D02*
X1436729Y-5331150D01*
X1436729Y-5331150D02*
X1455777Y-5340674D01*
X1455777Y-5340674D02*
X1465301Y-5359722D01*
X1465301Y-5359722D02*
X1465301Y-5464484D01*
X1465301Y-5359722D02*
X1474824Y-5340674D01*
X1474824Y-5340674D02*
X1493872Y-5331150D01*
X1493872Y-5331150D02*
X1522443Y-5331150D01*
X1522443Y-5331150D02*
X1541491Y-5340674D01*
X1541491Y-5340674D02*
X1551015Y-5359722D01*
X1551015Y-5359722D02*
X1551015Y-5464484D01*
X1941491Y-5254960D02*
X1770063Y-5512103D01*
X2198634Y-5264484D02*
X2217682Y-5264484D01*
X2217682Y-5264484D02*
X2236729Y-5274008D01*
X2236729Y-5274008D02*
X2246253Y-5283531D01*
X2246253Y-5283531D02*
X2255777Y-5302579D01*
X2255777Y-5302579D02*
X2265301Y-5340674D01*
X2265301Y-5340674D02*
X2265301Y-5388293D01*
X2265301Y-5388293D02*
X2255777Y-5426389D01*
X2255777Y-5426389D02*
X2246253Y-5445436D01*
X2246253Y-5445436D02*
X2236729Y-5454960D01*
X2236729Y-5454960D02*
X2217682Y-5464484D01*
X2217682Y-5464484D02*
X2198634Y-5464484D01*
X2198634Y-5464484D02*
X2179587Y-5454960D01*
X2179587Y-5454960D02*
X2170063Y-5445436D01*
X2170063Y-5445436D02*
X2160539Y-5426389D01*
X2160539Y-5426389D02*
X2151015Y-5388293D01*
X2151015Y-5388293D02*
X2151015Y-5340674D01*
X2151015Y-5340674D02*
X2160539Y-5302579D01*
X2160539Y-5302579D02*
X2170063Y-5283531D01*
X2170063Y-5283531D02*
X2179587Y-5274008D01*
X2179587Y-5274008D02*
X2198634Y-5264484D01*
X2351015Y-5445436D02*
X2360539Y-5454960D01*
X2360539Y-5454960D02*
X2351015Y-5464484D01*
X2351015Y-5464484D02*
X2341491Y-5454960D01*
X2341491Y-5454960D02*
X2351015Y-5445436D01*
X2351015Y-5445436D02*
X2351015Y-5464484D01*
X2551015Y-5464484D02*
X2436729Y-5464484D01*
X2493872Y-5464484D02*
X2493872Y-5264484D01*
X2493872Y-5264484D02*
X2474825Y-5293055D01*
X2474825Y-5293055D02*
X2455777Y-5312103D01*
X2455777Y-5312103D02*
X2436729Y-5321627D01*
X2674825Y-5264484D02*
X2693872Y-5264484D01*
X2693872Y-5264484D02*
X2712920Y-5274008D01*
X2712920Y-5274008D02*
X2722444Y-5283531D01*
X2722444Y-5283531D02*
X2731968Y-5302579D01*
X2731968Y-5302579D02*
X2741491Y-5340674D01*
X2741491Y-5340674D02*
X2741491Y-5388293D01*
X2741491Y-5388293D02*
X2731968Y-5426389D01*
X2731968Y-5426389D02*
X2722444Y-5445436D01*
X2722444Y-5445436D02*
X2712920Y-5454960D01*
X2712920Y-5454960D02*
X2693872Y-5464484D01*
X2693872Y-5464484D02*
X2674825Y-5464484D01*
X2674825Y-5464484D02*
X2655777Y-5454960D01*
X2655777Y-5454960D02*
X2646253Y-5445436D01*
X2646253Y-5445436D02*
X2636729Y-5426389D01*
X2636729Y-5426389D02*
X2627206Y-5388293D01*
X2627206Y-5388293D02*
X2627206Y-5340674D01*
X2627206Y-5340674D02*
X2636729Y-5302579D01*
X2636729Y-5302579D02*
X2646253Y-5283531D01*
X2646253Y-5283531D02*
X2655777Y-5274008D01*
X2655777Y-5274008D02*
X2674825Y-5264484D01*
X2912920Y-5264484D02*
X2874825Y-5264484D01*
X2874825Y-5264484D02*
X2855777Y-5274008D01*
X2855777Y-5274008D02*
X2846253Y-5283531D01*
X2846253Y-5283531D02*
X2827206Y-5312103D01*
X2827206Y-5312103D02*
X2817682Y-5350198D01*
X2817682Y-5350198D02*
X2817682Y-5426389D01*
X2817682Y-5426389D02*
X2827206Y-5445436D01*
X2827206Y-5445436D02*
X2836729Y-5454960D01*
X2836729Y-5454960D02*
X2855777Y-5464484D01*
X2855777Y-5464484D02*
X2893872Y-5464484D01*
X2893872Y-5464484D02*
X2912920Y-5454960D01*
X2912920Y-5454960D02*
X2922444Y-5445436D01*
X2922444Y-5445436D02*
X2931967Y-5426389D01*
X2931967Y-5426389D02*
X2931967Y-5378770D01*
X2931967Y-5378770D02*
X2922444Y-5359722D01*
X2922444Y-5359722D02*
X2912920Y-5350198D01*
X2912920Y-5350198D02*
X2893872Y-5340674D01*
X2893872Y-5340674D02*
X2855777Y-5340674D01*
X2855777Y-5340674D02*
X2836729Y-5350198D01*
X2836729Y-5350198D02*
X2827206Y-5359722D01*
X2827206Y-5359722D02*
X2817682Y-5378770D01*
X2998634Y-5264484D02*
X3122444Y-5264484D01*
X3122444Y-5264484D02*
X3055777Y-5340674D01*
X3055777Y-5340674D02*
X3084348Y-5340674D01*
X3084348Y-5340674D02*
X3103396Y-5350198D01*
X3103396Y-5350198D02*
X3112920Y-5359722D01*
X3112920Y-5359722D02*
X3122444Y-5378770D01*
X3122444Y-5378770D02*
X3122444Y-5426389D01*
X3122444Y-5426389D02*
X3112920Y-5445436D01*
X3112920Y-5445436D02*
X3103396Y-5454960D01*
X3103396Y-5454960D02*
X3084348Y-5464484D01*
X3084348Y-5464484D02*
X3027206Y-5464484D01*
X3027206Y-5464484D02*
X3008158Y-5454960D01*
X3008158Y-5454960D02*
X2998634Y-5445436D01*
X3198634Y-5264484D02*
X3198634Y-5302579D01*
X3274825Y-5264484D02*
X3274825Y-5302579D01*
X3570063Y-5540674D02*
X3560539Y-5531150D01*
X3560539Y-5531150D02*
X3541491Y-5502579D01*
X3541491Y-5502579D02*
X3531968Y-5483531D01*
X3531968Y-5483531D02*
X3522444Y-5454960D01*
X3522444Y-5454960D02*
X3512920Y-5407341D01*
X3512920Y-5407341D02*
X3512920Y-5369246D01*
X3512920Y-5369246D02*
X3522444Y-5321627D01*
X3522444Y-5321627D02*
X3531968Y-5293055D01*
X3531968Y-5293055D02*
X3541491Y-5274008D01*
X3541491Y-5274008D02*
X3560539Y-5245436D01*
X3560539Y-5245436D02*
X3570063Y-5235912D01*
X3731968Y-5331150D02*
X3731968Y-5464484D01*
X3684348Y-5254960D02*
X3636729Y-5397817D01*
X3636729Y-5397817D02*
X3760539Y-5397817D01*
X3989110Y-5464484D02*
X3989110Y-5264484D01*
X4074825Y-5464484D02*
X4074825Y-5359722D01*
X4074825Y-5359722D02*
X4065301Y-5340674D01*
X4065301Y-5340674D02*
X4046253Y-5331150D01*
X4046253Y-5331150D02*
X4017682Y-5331150D01*
X4017682Y-5331150D02*
X3998634Y-5340674D01*
X3998634Y-5340674D02*
X3989110Y-5350198D01*
X4198634Y-5464484D02*
X4179587Y-5454960D01*
X4179587Y-5454960D02*
X4170063Y-5445436D01*
X4170063Y-5445436D02*
X4160539Y-5426389D01*
X4160539Y-5426389D02*
X4160539Y-5369246D01*
X4160539Y-5369246D02*
X4170063Y-5350198D01*
X4170063Y-5350198D02*
X4179587Y-5340674D01*
X4179587Y-5340674D02*
X4198634Y-5331150D01*
X4198634Y-5331150D02*
X4227206Y-5331150D01*
X4227206Y-5331150D02*
X4246253Y-5340674D01*
X4246253Y-5340674D02*
X4255777Y-5350198D01*
X4255777Y-5350198D02*
X4265301Y-5369246D01*
X4265301Y-5369246D02*
X4265301Y-5426389D01*
X4265301Y-5426389D02*
X4255777Y-5445436D01*
X4255777Y-5445436D02*
X4246253Y-5454960D01*
X4246253Y-5454960D02*
X4227206Y-5464484D01*
X4227206Y-5464484D02*
X4198634Y-5464484D01*
X4379587Y-5464484D02*
X4360539Y-5454960D01*
X4360539Y-5454960D02*
X4351015Y-5435912D01*
X4351015Y-5435912D02*
X4351015Y-5264484D01*
X4531968Y-5454960D02*
X4512920Y-5464484D01*
X4512920Y-5464484D02*
X4474825Y-5464484D01*
X4474825Y-5464484D02*
X4455777Y-5454960D01*
X4455777Y-5454960D02*
X4446253Y-5435912D01*
X4446253Y-5435912D02*
X4446253Y-5359722D01*
X4446253Y-5359722D02*
X4455777Y-5340674D01*
X4455777Y-5340674D02*
X4474825Y-5331150D01*
X4474825Y-5331150D02*
X4512920Y-5331150D01*
X4512920Y-5331150D02*
X4531968Y-5340674D01*
X4531968Y-5340674D02*
X4541492Y-5359722D01*
X4541492Y-5359722D02*
X4541492Y-5378770D01*
X4541492Y-5378770D02*
X4446253Y-5397817D01*
X4617682Y-5454960D02*
X4636730Y-5464484D01*
X4636730Y-5464484D02*
X4674825Y-5464484D01*
X4674825Y-5464484D02*
X4693873Y-5454960D01*
X4693873Y-5454960D02*
X4703396Y-5435912D01*
X4703396Y-5435912D02*
X4703396Y-5426389D01*
X4703396Y-5426389D02*
X4693873Y-5407341D01*
X4693873Y-5407341D02*
X4674825Y-5397817D01*
X4674825Y-5397817D02*
X4646253Y-5397817D01*
X4646253Y-5397817D02*
X4627206Y-5388293D01*
X4627206Y-5388293D02*
X4617682Y-5369246D01*
X4617682Y-5369246D02*
X4617682Y-5359722D01*
X4617682Y-5359722D02*
X4627206Y-5340674D01*
X4627206Y-5340674D02*
X4646253Y-5331150D01*
X4646253Y-5331150D02*
X4674825Y-5331150D01*
X4674825Y-5331150D02*
X4693873Y-5340674D01*
X4770063Y-5540674D02*
X4779587Y-5531150D01*
X4779587Y-5531150D02*
X4798634Y-5502579D01*
X4798634Y-5502579D02*
X4808158Y-5483531D01*
X4808158Y-5483531D02*
X4817682Y-5454960D01*
X4817682Y-5454960D02*
X4827206Y-5407341D01*
X4827206Y-5407341D02*
X4827206Y-5369246D01*
X4827206Y-5369246D02*
X4817682Y-5321627D01*
X4817682Y-5321627D02*
X4808158Y-5293055D01*
X4808158Y-5293055D02*
X4798634Y-5274008D01*
X4798634Y-5274008D02*
X4779587Y-5245436D01*
X4779587Y-5245436D02*
X4770063Y-5235912D01*
X5131968Y-5540674D02*
X5122444Y-5531150D01*
X5122444Y-5531150D02*
X5103396Y-5502579D01*
X5103396Y-5502579D02*
X5093873Y-5483531D01*
X5093873Y-5483531D02*
X5084349Y-5454960D01*
X5084349Y-5454960D02*
X5074825Y-5407341D01*
X5074825Y-5407341D02*
X5074825Y-5369246D01*
X5074825Y-5369246D02*
X5084349Y-5321627D01*
X5084349Y-5321627D02*
X5093873Y-5293055D01*
X5093873Y-5293055D02*
X5103396Y-5274008D01*
X5103396Y-5274008D02*
X5122444Y-5245436D01*
X5122444Y-5245436D02*
X5131968Y-5235912D01*
X5208158Y-5331150D02*
X5208158Y-5464484D01*
X5208158Y-5350198D02*
X5217682Y-5340674D01*
X5217682Y-5340674D02*
X5236730Y-5331150D01*
X5236730Y-5331150D02*
X5265301Y-5331150D01*
X5265301Y-5331150D02*
X5284349Y-5340674D01*
X5284349Y-5340674D02*
X5293873Y-5359722D01*
X5293873Y-5359722D02*
X5293873Y-5464484D01*
X5417682Y-5464484D02*
X5398634Y-5454960D01*
X5398634Y-5454960D02*
X5389111Y-5445436D01*
X5389111Y-5445436D02*
X5379587Y-5426389D01*
X5379587Y-5426389D02*
X5379587Y-5369246D01*
X5379587Y-5369246D02*
X5389111Y-5350198D01*
X5389111Y-5350198D02*
X5398634Y-5340674D01*
X5398634Y-5340674D02*
X5417682Y-5331150D01*
X5417682Y-5331150D02*
X5446254Y-5331150D01*
X5446254Y-5331150D02*
X5465301Y-5340674D01*
X5465301Y-5340674D02*
X5474825Y-5350198D01*
X5474825Y-5350198D02*
X5484349Y-5369246D01*
X5484349Y-5369246D02*
X5484349Y-5426389D01*
X5484349Y-5426389D02*
X5474825Y-5445436D01*
X5474825Y-5445436D02*
X5465301Y-5454960D01*
X5465301Y-5454960D02*
X5446254Y-5464484D01*
X5446254Y-5464484D02*
X5417682Y-5464484D01*
X5541492Y-5331150D02*
X5617682Y-5331150D01*
X5570063Y-5264484D02*
X5570063Y-5435912D01*
X5570063Y-5435912D02*
X5579587Y-5454960D01*
X5579587Y-5454960D02*
X5598634Y-5464484D01*
X5598634Y-5464484D02*
X5617682Y-5464484D01*
X5836730Y-5331150D02*
X5836730Y-5531150D01*
X5836730Y-5340674D02*
X5855777Y-5331150D01*
X5855777Y-5331150D02*
X5893873Y-5331150D01*
X5893873Y-5331150D02*
X5912920Y-5340674D01*
X5912920Y-5340674D02*
X5922444Y-5350198D01*
X5922444Y-5350198D02*
X5931968Y-5369246D01*
X5931968Y-5369246D02*
X5931968Y-5426389D01*
X5931968Y-5426389D02*
X5922444Y-5445436D01*
X5922444Y-5445436D02*
X5912920Y-5454960D01*
X5912920Y-5454960D02*
X5893873Y-5464484D01*
X5893873Y-5464484D02*
X5855777Y-5464484D01*
X5855777Y-5464484D02*
X5836730Y-5454960D01*
X6046253Y-5464484D02*
X6027206Y-5454960D01*
X6027206Y-5454960D02*
X6017682Y-5435912D01*
X6017682Y-5435912D02*
X6017682Y-5264484D01*
X6208158Y-5464484D02*
X6208158Y-5359722D01*
X6208158Y-5359722D02*
X6198634Y-5340674D01*
X6198634Y-5340674D02*
X6179587Y-5331150D01*
X6179587Y-5331150D02*
X6141492Y-5331150D01*
X6141492Y-5331150D02*
X6122444Y-5340674D01*
X6208158Y-5454960D02*
X6189111Y-5464484D01*
X6189111Y-5464484D02*
X6141492Y-5464484D01*
X6141492Y-5464484D02*
X6122444Y-5454960D01*
X6122444Y-5454960D02*
X6112920Y-5435912D01*
X6112920Y-5435912D02*
X6112920Y-5416865D01*
X6112920Y-5416865D02*
X6122444Y-5397817D01*
X6122444Y-5397817D02*
X6141492Y-5388293D01*
X6141492Y-5388293D02*
X6189111Y-5388293D01*
X6189111Y-5388293D02*
X6208158Y-5378770D01*
X6274825Y-5331150D02*
X6351015Y-5331150D01*
X6303396Y-5264484D02*
X6303396Y-5435912D01*
X6303396Y-5435912D02*
X6312920Y-5454960D01*
X6312920Y-5454960D02*
X6331968Y-5464484D01*
X6331968Y-5464484D02*
X6351015Y-5464484D01*
X6493873Y-5454960D02*
X6474825Y-5464484D01*
X6474825Y-5464484D02*
X6436730Y-5464484D01*
X6436730Y-5464484D02*
X6417682Y-5454960D01*
X6417682Y-5454960D02*
X6408158Y-5435912D01*
X6408158Y-5435912D02*
X6408158Y-5359722D01*
X6408158Y-5359722D02*
X6417682Y-5340674D01*
X6417682Y-5340674D02*
X6436730Y-5331150D01*
X6436730Y-5331150D02*
X6474825Y-5331150D01*
X6474825Y-5331150D02*
X6493873Y-5340674D01*
X6493873Y-5340674D02*
X6503396Y-5359722D01*
X6503396Y-5359722D02*
X6503396Y-5378770D01*
X6503396Y-5378770D02*
X6408158Y-5397817D01*
X6674825Y-5464484D02*
X6674825Y-5264484D01*
X6674825Y-5454960D02*
X6655777Y-5464484D01*
X6655777Y-5464484D02*
X6617682Y-5464484D01*
X6617682Y-5464484D02*
X6598634Y-5454960D01*
X6598634Y-5454960D02*
X6589111Y-5445436D01*
X6589111Y-5445436D02*
X6579587Y-5426389D01*
X6579587Y-5426389D02*
X6579587Y-5369246D01*
X6579587Y-5369246D02*
X6589111Y-5350198D01*
X6589111Y-5350198D02*
X6598634Y-5340674D01*
X6598634Y-5340674D02*
X6617682Y-5331150D01*
X6617682Y-5331150D02*
X6655777Y-5331150D01*
X6655777Y-5331150D02*
X6674825Y-5340674D01*
X6751015Y-5540674D02*
X6760539Y-5531150D01*
X6760539Y-5531150D02*
X6779587Y-5502579D01*
X6779587Y-5502579D02*
X6789111Y-5483531D01*
X6789111Y-5483531D02*
X6798634Y-5454960D01*
X6798634Y-5454960D02*
X6808158Y-5407341D01*
X6808158Y-5407341D02*
X6808158Y-5369246D01*
X6808158Y-5369246D02*
X6798634Y-5321627D01*
X6798634Y-5321627D02*
X6789111Y-5293055D01*
X6789111Y-5293055D02*
X6779587Y-5274008D01*
X6779587Y-5274008D02*
X6760539Y-5245436D01*
X6760539Y-5245436D02*
X6751015Y-5235912D01*
M02*
